%TF.GenerationSoftware,KiCad,Pcbnew,8.0.7*%
%TF.CreationDate,2025-04-17T15:34:13+07:00*%
%TF.ProjectId,Tractor VCU,54726163-746f-4722-9056-43552e6b6963,rev?*%
%TF.SameCoordinates,Original*%
%TF.FileFunction,Soldermask,Top*%
%TF.FilePolarity,Negative*%
%FSLAX46Y46*%
G04 Gerber Fmt 4.6, Leading zero omitted, Abs format (unit mm)*
G04 Created by KiCad (PCBNEW 8.0.7) date 2025-04-17 15:34:13*
%MOMM*%
%LPD*%
G01*
G04 APERTURE LIST*
G04 Aperture macros list*
%AMRoundRect*
0 Rectangle with rounded corners*
0 $1 Rounding radius*
0 $2 $3 $4 $5 $6 $7 $8 $9 X,Y pos of 4 corners*
0 Add a 4 corners polygon primitive as box body*
4,1,4,$2,$3,$4,$5,$6,$7,$8,$9,$2,$3,0*
0 Add four circle primitives for the rounded corners*
1,1,$1+$1,$2,$3*
1,1,$1+$1,$4,$5*
1,1,$1+$1,$6,$7*
1,1,$1+$1,$8,$9*
0 Add four rect primitives between the rounded corners*
20,1,$1+$1,$2,$3,$4,$5,0*
20,1,$1+$1,$4,$5,$6,$7,0*
20,1,$1+$1,$6,$7,$8,$9,0*
20,1,$1+$1,$8,$9,$2,$3,0*%
G04 Aperture macros list end*
%ADD10RoundRect,0.237500X-0.237500X0.300000X-0.237500X-0.300000X0.237500X-0.300000X0.237500X0.300000X0*%
%ADD11RoundRect,0.341000X-0.759000X0.759000X-0.759000X-0.759000X0.759000X-0.759000X0.759000X0.759000X0*%
%ADD12C,2.200000*%
%ADD13RoundRect,0.237500X-0.237500X0.287500X-0.237500X-0.287500X0.237500X-0.287500X0.237500X0.287500X0*%
%ADD14RoundRect,0.155000X-0.212500X-0.155000X0.212500X-0.155000X0.212500X0.155000X-0.212500X0.155000X0*%
%ADD15RoundRect,0.237500X-0.250000X-0.237500X0.250000X-0.237500X0.250000X0.237500X-0.250000X0.237500X0*%
%ADD16R,0.660400X0.711200*%
%ADD17RoundRect,0.237500X-0.287500X-0.237500X0.287500X-0.237500X0.287500X0.237500X-0.287500X0.237500X0*%
%ADD18C,1.000000*%
%ADD19R,1.700000X1.700000*%
%ADD20RoundRect,0.150000X-0.150000X0.587500X-0.150000X-0.587500X0.150000X-0.587500X0.150000X0.587500X0*%
%ADD21RoundRect,0.225000X-0.225000X-0.375000X0.225000X-0.375000X0.225000X0.375000X-0.225000X0.375000X0*%
%ADD22C,0.800000*%
%ADD23C,6.400000*%
%ADD24RoundRect,0.160000X0.197500X0.160000X-0.197500X0.160000X-0.197500X-0.160000X0.197500X-0.160000X0*%
%ADD25RoundRect,0.237500X0.237500X-0.300000X0.237500X0.300000X-0.237500X0.300000X-0.237500X-0.300000X0*%
%ADD26C,2.154000*%
%ADD27RoundRect,0.155000X0.155000X-0.212500X0.155000X0.212500X-0.155000X0.212500X-0.155000X-0.212500X0*%
%ADD28RoundRect,0.150000X0.587500X0.150000X-0.587500X0.150000X-0.587500X-0.150000X0.587500X-0.150000X0*%
%ADD29RoundRect,0.237500X0.250000X0.237500X-0.250000X0.237500X-0.250000X-0.237500X0.250000X-0.237500X0*%
%ADD30RoundRect,0.237500X-0.237500X0.250000X-0.237500X-0.250000X0.237500X-0.250000X0.237500X0.250000X0*%
%ADD31RoundRect,0.237500X0.237500X-0.250000X0.237500X0.250000X-0.237500X0.250000X-0.237500X-0.250000X0*%
%ADD32RoundRect,0.225000X0.375000X-0.225000X0.375000X0.225000X-0.375000X0.225000X-0.375000X-0.225000X0*%
%ADD33R,4.240000X3.810000*%
%ADD34O,1.700000X1.700000*%
%ADD35C,4.000000*%
%ADD36R,1.600000X1.600000*%
%ADD37C,1.600000*%
%ADD38RoundRect,0.237500X-0.300000X-0.237500X0.300000X-0.237500X0.300000X0.237500X-0.300000X0.237500X0*%
%ADD39C,4.700000*%
%ADD40C,8.600000*%
%ADD41RoundRect,0.341000X0.759000X0.759000X-0.759000X0.759000X-0.759000X-0.759000X0.759000X-0.759000X0*%
%ADD42R,1.422400X0.457200*%
%ADD43O,4.000000X6.000000*%
%ADD44RoundRect,0.103000X0.309000X-0.984000X0.309000X0.984000X-0.309000X0.984000X-0.309000X-0.984000X0*%
%ADD45RoundRect,0.271750X1.410250X-0.815250X1.410250X0.815250X-1.410250X0.815250X-1.410250X-0.815250X0*%
%ADD46RoundRect,0.250000X-0.620000X0.620000X-0.620000X-0.620000X0.620000X-0.620000X0.620000X0.620000X0*%
%ADD47C,1.740000*%
%ADD48RoundRect,0.075000X-0.700000X-0.075000X0.700000X-0.075000X0.700000X0.075000X-0.700000X0.075000X0*%
%ADD49RoundRect,0.075000X-0.075000X-0.700000X0.075000X-0.700000X0.075000X0.700000X-0.075000X0.700000X0*%
%ADD50C,1.500000*%
%ADD51RoundRect,0.155000X-0.155000X0.212500X-0.155000X-0.212500X0.155000X-0.212500X0.155000X0.212500X0*%
%ADD52C,2.000000*%
%ADD53C,3.600000*%
%ADD54RoundRect,0.250000X0.850000X0.350000X-0.850000X0.350000X-0.850000X-0.350000X0.850000X-0.350000X0*%
%ADD55RoundRect,0.249997X2.950003X2.650003X-2.950003X2.650003X-2.950003X-2.650003X2.950003X-2.650003X0*%
%ADD56RoundRect,0.150000X-0.150000X0.825000X-0.150000X-0.825000X0.150000X-0.825000X0.150000X0.825000X0*%
%ADD57RoundRect,0.237500X0.300000X0.237500X-0.300000X0.237500X-0.300000X-0.237500X0.300000X-0.237500X0*%
%ADD58RoundRect,0.250000X0.620000X0.620000X-0.620000X0.620000X-0.620000X-0.620000X0.620000X-0.620000X0*%
%ADD59RoundRect,0.160000X-0.197500X-0.160000X0.197500X-0.160000X0.197500X0.160000X-0.197500X0.160000X0*%
%ADD60C,0.900000*%
%ADD61R,2.500000X0.500000*%
%ADD62R,2.500000X2.000000*%
%ADD63RoundRect,0.102000X-1.700000X1.700000X-1.700000X-1.700000X1.700000X-1.700000X1.700000X1.700000X0*%
%ADD64O,4.204000X3.204000*%
%ADD65RoundRect,0.155000X0.212500X0.155000X-0.212500X0.155000X-0.212500X-0.155000X0.212500X-0.155000X0*%
%ADD66R,0.457200X1.422400*%
%ADD67RoundRect,0.237500X0.287500X0.237500X-0.287500X0.237500X-0.287500X-0.237500X0.287500X-0.237500X0*%
%ADD68RoundRect,0.103000X-0.309000X0.984000X-0.309000X-0.984000X0.309000X-0.984000X0.309000X0.984000X0*%
%ADD69RoundRect,0.271750X-1.410250X0.815250X-1.410250X-0.815250X1.410250X-0.815250X1.410250X0.815250X0*%
G04 APERTURE END LIST*
D10*
%TO.C,C20*%
X122174000Y-98731998D03*
X122174000Y-100456998D03*
%TD*%
D11*
%TO.C,K10*%
X255285000Y-208271574D03*
D12*
X247685000Y-208271574D03*
X247685000Y-218471574D03*
X247685000Y-226171574D03*
%TD*%
D13*
%TO.C,LED12*%
X143891000Y-113386000D03*
X143891000Y-115136000D03*
%TD*%
D14*
%TO.C,C6*%
X221047500Y-127381000D03*
X222182500Y-127381000D03*
%TD*%
%TO.C,C9*%
X213808500Y-112522000D03*
X214943500Y-112522000D03*
%TD*%
D15*
%TO.C,R53*%
X158944999Y-96090004D03*
X160769999Y-96090004D03*
%TD*%
D16*
%TO.C,D16*%
X131572001Y-147702000D03*
X131572001Y-149988000D03*
%TD*%
D17*
%TO.C,LED4*%
X219995500Y-168021000D03*
X221745500Y-168021000D03*
%TD*%
D18*
%TO.C,TP3*%
X153543000Y-151534500D03*
%TD*%
D19*
%TO.C,TP12*%
X251460000Y-146431000D03*
%TD*%
D20*
%TO.C,Q8*%
X221739500Y-200849051D03*
X219839500Y-200849051D03*
X220789500Y-202724051D03*
%TD*%
D11*
%TO.C,K8*%
X226710000Y-208272000D03*
D12*
X219110000Y-208272000D03*
X219110000Y-218472000D03*
X219110000Y-226172000D03*
%TD*%
D17*
%TO.C,LED11*%
X248601334Y-205851574D03*
X250351334Y-205851574D03*
%TD*%
D11*
%TO.C,K5*%
X255285000Y-170426000D03*
D12*
X247685000Y-170426000D03*
X247685000Y-180626000D03*
X247685000Y-188326000D03*
%TD*%
D11*
%TO.C,K6*%
X198135000Y-208272000D03*
D12*
X190535000Y-208272000D03*
X190535000Y-218472000D03*
X190535000Y-226172000D03*
%TD*%
D21*
%TO.C,D14*%
X146559000Y-120436000D03*
X149859000Y-120436000D03*
%TD*%
D22*
%TO.C,H6*%
X109450000Y-233590000D03*
X110152944Y-231892944D03*
X110152944Y-235287056D03*
X111850000Y-231190000D03*
D23*
X111850000Y-233590000D03*
D22*
X111850000Y-235990000D03*
X113547056Y-231892944D03*
X113547056Y-235287056D03*
X114250000Y-233590000D03*
%TD*%
D15*
%TO.C,R29*%
X224027000Y-205852000D03*
X225852000Y-205852000D03*
%TD*%
%TO.C,R8*%
X195464500Y-168021000D03*
X197289500Y-168021000D03*
%TD*%
D24*
%TO.C,R2*%
X215720500Y-107823000D03*
X214525500Y-107823000D03*
%TD*%
D25*
%TO.C,C23*%
X149352000Y-151357500D03*
X149352000Y-149632500D03*
%TD*%
D19*
%TO.C,TP22*%
X172106041Y-93787210D03*
%TD*%
D26*
%TO.C,J16*%
X244007000Y-64766000D03*
X249007000Y-64766000D03*
%TD*%
D25*
%TO.C,C2*%
X266044001Y-97640500D03*
X266044001Y-95915500D03*
%TD*%
D27*
%TO.C,C13*%
X209550000Y-122420000D03*
X209550000Y-121285000D03*
%TD*%
D15*
%TO.C,R42*%
X206380500Y-75184000D03*
X208205500Y-75184000D03*
%TD*%
D19*
%TO.C,TP14*%
X264922000Y-146431000D03*
%TD*%
D22*
%TO.C,H5*%
X109450000Y-63590000D03*
X110152944Y-61892944D03*
X110152944Y-65287056D03*
X111850000Y-61190000D03*
D23*
X111850000Y-63590000D03*
D22*
X111850000Y-65990000D03*
X113547056Y-61892944D03*
X113547056Y-65287056D03*
X114250000Y-63590000D03*
%TD*%
D10*
%TO.C,C1*%
X277474000Y-95915500D03*
X277474000Y-97640500D03*
%TD*%
D28*
%TO.C,Q12*%
X148768675Y-128037502D03*
X148768675Y-126137502D03*
X146893675Y-127087502D03*
%TD*%
D29*
%TO.C,R10*%
X207504250Y-161163000D03*
X205679250Y-161163000D03*
%TD*%
D13*
%TO.C,LED13*%
X143912001Y-125840000D03*
X143912001Y-127590000D03*
%TD*%
D30*
%TO.C,R47*%
X256667000Y-149582500D03*
X256667000Y-151407500D03*
%TD*%
D17*
%TO.C,LED16*%
X128274000Y-203497000D03*
X130024000Y-203497000D03*
%TD*%
D31*
%TO.C,R37*%
X150579500Y-115466999D03*
X150579500Y-113641999D03*
%TD*%
D30*
%TO.C,R27*%
X224596400Y-198767300D03*
X224596400Y-200592300D03*
%TD*%
D15*
%TO.C,R58*%
X133961500Y-153924000D03*
X135786500Y-153924000D03*
%TD*%
D29*
%TO.C,R31*%
X236140499Y-199104550D03*
X234315499Y-199104550D03*
%TD*%
D32*
%TO.C,D7*%
X241499250Y-166115000D03*
X241499250Y-162815000D03*
%TD*%
D17*
%TO.C,LED8*%
X205713000Y-205852000D03*
X207463000Y-205852000D03*
%TD*%
D19*
%TO.C,TP8*%
X180467000Y-75242000D03*
%TD*%
D15*
%TO.C,R54*%
X122224001Y-81510500D03*
X124049001Y-81510500D03*
%TD*%
D17*
%TO.C,LED7*%
X191425500Y-205852000D03*
X193175500Y-205852000D03*
%TD*%
D29*
%TO.C,R34*%
X250491499Y-199120999D03*
X248666499Y-199120999D03*
%TD*%
%TO.C,R39*%
X151809501Y-129794000D03*
X149984501Y-129794000D03*
%TD*%
D33*
%TO.C,F1*%
X129784000Y-212090000D03*
X136154000Y-212090000D03*
%TD*%
D19*
%TO.C,J17*%
X194163000Y-65151000D03*
D34*
X191623000Y-65151000D03*
X189083000Y-65151000D03*
X186543000Y-65151000D03*
X184003000Y-65151000D03*
X181463000Y-65151000D03*
X178923000Y-65151000D03*
%TD*%
D35*
%TO.C,J9*%
X279885000Y-156053000D03*
X279885000Y-122753000D03*
D36*
X278465000Y-129708000D03*
D37*
X278465000Y-132478000D03*
X278465000Y-135248000D03*
X278465000Y-138018000D03*
X278465000Y-140788000D03*
X278465000Y-143558000D03*
X278465000Y-146328000D03*
X278465000Y-149098000D03*
X281305000Y-131093000D03*
X281305000Y-133863000D03*
X281305000Y-136633000D03*
X281305000Y-139403000D03*
X281305000Y-142173000D03*
X281305000Y-144943000D03*
X281305000Y-147713000D03*
%TD*%
D30*
%TO.C,R21*%
X195919700Y-198767300D03*
X195919700Y-200592300D03*
%TD*%
D15*
%TO.C,R46*%
X259818500Y-139635001D03*
X261643500Y-139635001D03*
%TD*%
D14*
%TO.C,C8*%
X213808500Y-111379000D03*
X214943500Y-111379000D03*
%TD*%
D31*
%TO.C,R59*%
X135636000Y-148486500D03*
X135636000Y-146661500D03*
%TD*%
D19*
%TO.C,J6*%
X233680000Y-96520000D03*
D34*
X233680000Y-93980000D03*
X231140000Y-96520000D03*
X231140000Y-93980000D03*
X228600000Y-96520000D03*
X228600000Y-93980000D03*
X226060000Y-96520000D03*
X226060000Y-93980000D03*
X223520000Y-96520000D03*
X223520000Y-93980000D03*
X220980000Y-96520000D03*
X220980000Y-93980000D03*
X218440000Y-96520000D03*
X218440000Y-93980000D03*
X215900000Y-96520000D03*
X215900000Y-93980000D03*
X213360000Y-96520000D03*
X213360000Y-93980000D03*
X210820000Y-96520000D03*
X210820000Y-93980000D03*
X208280000Y-96520000D03*
X208280000Y-93980000D03*
X205740000Y-96520000D03*
X205740000Y-93980000D03*
%TD*%
D13*
%TO.C,LED14*%
X135636000Y-143270000D03*
X135636000Y-145020000D03*
%TD*%
D11*
%TO.C,K4*%
X240997500Y-170426000D03*
D12*
X233397500Y-170426000D03*
X233397500Y-180626000D03*
X233397500Y-188326000D03*
%TD*%
D19*
%TO.C,TP23*%
X251460000Y-138430000D03*
%TD*%
%TO.C,TP5*%
X194602442Y-75242000D03*
%TD*%
D38*
%TO.C,C17*%
X158994998Y-101170002D03*
X160719998Y-101170002D03*
%TD*%
D39*
%TO.C,MP2*%
X158958000Y-164465000D03*
D40*
X158958000Y-164465000D03*
%TD*%
D26*
%TO.C,J15*%
X205145000Y-64766000D03*
X210145000Y-64766000D03*
%TD*%
D19*
%TO.C,JP1*%
X214122000Y-105156000D03*
D34*
X216662000Y-105156000D03*
X219202000Y-105156000D03*
%TD*%
D21*
%TO.C,D15*%
X146580001Y-132938000D03*
X149880001Y-132938000D03*
%TD*%
D19*
%TO.C,TP13*%
X264922000Y-142279000D03*
%TD*%
D25*
%TO.C,C22*%
X149352000Y-145997000D03*
X149352000Y-144272000D03*
%TD*%
D41*
%TO.C,K12*%
X141359000Y-132476000D03*
D12*
X141359000Y-124876000D03*
X131159000Y-124876000D03*
X123459000Y-124876000D03*
%TD*%
D27*
%TO.C,C7*%
X211709000Y-115121500D03*
X211709000Y-113986500D03*
%TD*%
D30*
%TO.C,R41*%
X143912001Y-129866500D03*
X143912001Y-131691500D03*
%TD*%
D42*
%TO.C,D2*%
X272888468Y-81022656D03*
X275276068Y-81022656D03*
%TD*%
D20*
%TO.C,Q2*%
X207541750Y-163019500D03*
X205641750Y-163019500D03*
X206591750Y-164894500D03*
%TD*%
D17*
%TO.C,LED2*%
X191438000Y-168021000D03*
X193188000Y-168021000D03*
%TD*%
D43*
%TO.C,J21*%
X129512000Y-226060000D03*
X139042000Y-226060000D03*
X148582000Y-226060000D03*
X158112000Y-226060000D03*
%TD*%
D31*
%TO.C,R40*%
X150625175Y-128087501D03*
X150625175Y-126262501D03*
%TD*%
D44*
%TO.C,U4*%
X142113000Y-149055000D03*
X143383000Y-149055000D03*
X144653000Y-149055000D03*
X145923000Y-149055000D03*
X147193000Y-149055000D03*
D45*
X144653000Y-143045000D03*
%TD*%
D33*
%TO.C,F2*%
X158463000Y-212090000D03*
X164833000Y-212090000D03*
%TD*%
D46*
%TO.C,J19*%
X116459000Y-79478498D03*
D47*
X116459000Y-82018498D03*
X116459000Y-84558498D03*
%TD*%
D29*
%TO.C,R7*%
X193260500Y-161163000D03*
X191435500Y-161163000D03*
%TD*%
D25*
%TO.C,C21*%
X139827000Y-148690500D03*
X139827000Y-146965500D03*
%TD*%
D32*
%TO.C,D12*%
X241576350Y-203991000D03*
X241576350Y-200691000D03*
%TD*%
D46*
%TO.C,J12*%
X153150000Y-98630002D03*
D47*
X153150000Y-101170002D03*
%TD*%
D10*
%TO.C,C5*%
X206883000Y-119570500D03*
X206883000Y-121295500D03*
%TD*%
D15*
%TO.C,R56*%
X122224001Y-97027999D03*
X124049001Y-97027999D03*
%TD*%
D19*
%TO.C,TP6*%
X189763628Y-75242000D03*
%TD*%
D30*
%TO.C,R38*%
X143891000Y-117461500D03*
X143891000Y-119286500D03*
%TD*%
D48*
%TO.C,U2*%
X212765000Y-116138000D03*
X212765000Y-116638000D03*
X212765000Y-117138000D03*
X212765000Y-117638000D03*
X212765000Y-118138000D03*
X212765000Y-118638000D03*
X212765000Y-119138000D03*
X212765000Y-119638000D03*
X212765000Y-120138000D03*
X212765000Y-120638000D03*
X212765000Y-121138000D03*
X212765000Y-121638000D03*
X212765000Y-122138000D03*
X212765000Y-122638000D03*
X212765000Y-123138000D03*
X212765000Y-123638000D03*
D49*
X214690000Y-125563000D03*
X215190000Y-125563000D03*
X215690000Y-125563000D03*
X216190000Y-125563000D03*
X216690000Y-125563000D03*
X217190000Y-125563000D03*
X217690000Y-125563000D03*
X218190000Y-125563000D03*
X218690000Y-125563000D03*
X219190000Y-125563000D03*
X219690000Y-125563000D03*
X220190000Y-125563000D03*
X220690000Y-125563000D03*
X221190000Y-125563000D03*
X221690000Y-125563000D03*
X222190000Y-125563000D03*
D48*
X224115000Y-123638000D03*
X224115000Y-123138000D03*
X224115000Y-122638000D03*
X224115000Y-122138000D03*
X224115000Y-121638000D03*
X224115000Y-121138000D03*
X224115000Y-120638000D03*
X224115000Y-120138000D03*
X224115000Y-119638000D03*
X224115000Y-119138000D03*
X224115000Y-118638000D03*
X224115000Y-118138000D03*
X224115000Y-117638000D03*
X224115000Y-117138000D03*
X224115000Y-116638000D03*
X224115000Y-116138000D03*
D49*
X222190000Y-114213000D03*
X221690000Y-114213000D03*
X221190000Y-114213000D03*
X220690000Y-114213000D03*
X220190000Y-114213000D03*
X219690000Y-114213000D03*
X219190000Y-114213000D03*
X218690000Y-114213000D03*
X218190000Y-114213000D03*
X217690000Y-114213000D03*
X217190000Y-114213000D03*
X216690000Y-114213000D03*
X216190000Y-114213000D03*
X215690000Y-114213000D03*
X215190000Y-114213000D03*
X214690000Y-114213000D03*
%TD*%
D32*
%TO.C,D4*%
X198663000Y-166115000D03*
X198663000Y-162815000D03*
%TD*%
D15*
%TO.C,R35*%
X252627834Y-205851574D03*
X254452834Y-205851574D03*
%TD*%
D29*
%TO.C,R22*%
X193350998Y-199104550D03*
X191525998Y-199104550D03*
%TD*%
D11*
%TO.C,K3*%
X226710000Y-170426000D03*
D12*
X219110000Y-170426000D03*
X219110000Y-180626000D03*
X219110000Y-188326000D03*
%TD*%
D46*
%TO.C,J11*%
X153150000Y-87630000D03*
D47*
X153150000Y-90170000D03*
%TD*%
D11*
%TO.C,K2*%
X212422500Y-170426000D03*
D12*
X204822500Y-170426000D03*
X204822500Y-180626000D03*
X204822500Y-188326000D03*
%TD*%
D15*
%TO.C,R50*%
X158587500Y-87630003D03*
X160412500Y-87630003D03*
%TD*%
D17*
%TO.C,LED10*%
X234313834Y-205852000D03*
X236063834Y-205852000D03*
%TD*%
D50*
%TO.C,Y1*%
X202946000Y-120560000D03*
X202946000Y-115680000D03*
%TD*%
D30*
%TO.C,R9*%
X210401750Y-160885500D03*
X210401750Y-162710500D03*
%TD*%
D15*
%TO.C,R14*%
X223768000Y-168021000D03*
X225593000Y-168021000D03*
%TD*%
D19*
%TO.C,TP10*%
X226187000Y-72547000D03*
%TD*%
D51*
%TO.C,C12*%
X226060000Y-115256500D03*
X226060000Y-116391500D03*
%TD*%
D52*
%TO.C,SW1*%
X192076000Y-93635000D03*
X198576000Y-93635000D03*
X192076000Y-98135000D03*
X198576000Y-98135000D03*
%TD*%
D30*
%TO.C,R30*%
X238833150Y-198767300D03*
X238833150Y-200592300D03*
%TD*%
D53*
%TO.C,H1*%
X118017999Y-187325000D03*
D23*
X118017999Y-187325000D03*
%TD*%
D20*
%TO.C,Q5*%
X250314500Y-163019500D03*
X248414500Y-163019500D03*
X249364500Y-164894500D03*
%TD*%
D30*
%TO.C,R48*%
X258699000Y-151233500D03*
X258699000Y-153058500D03*
%TD*%
D51*
%TO.C,C11*%
X223520000Y-126051500D03*
X223520000Y-127186500D03*
%TD*%
D29*
%TO.C,R28*%
X221789499Y-199104550D03*
X219964499Y-199104550D03*
%TD*%
D19*
%TO.C,TP9*%
X229870000Y-72547000D03*
%TD*%
%TO.C,J3*%
X195961000Y-103647000D03*
D34*
X193421000Y-103647000D03*
X195961000Y-106187000D03*
X193421000Y-106187000D03*
X195961000Y-108727000D03*
X193421000Y-108727000D03*
X195961000Y-111267000D03*
X193421000Y-111267000D03*
X195961000Y-113807000D03*
X193421000Y-113807000D03*
X195961000Y-116347000D03*
X193421000Y-116347000D03*
X195961000Y-118887000D03*
X193421000Y-118887000D03*
X195961000Y-121427000D03*
X193421000Y-121427000D03*
X195961000Y-123967000D03*
X193421000Y-123967000D03*
X195961000Y-126507000D03*
X193421000Y-126507000D03*
X195961000Y-129047000D03*
X193421000Y-129047000D03*
X195961000Y-131587000D03*
X193421000Y-131587000D03*
X195961000Y-134127000D03*
X193421000Y-134127000D03*
%TD*%
D32*
%TO.C,D6*%
X227220500Y-166115000D03*
X227220500Y-162815000D03*
%TD*%
D15*
%TO.C,R17*%
X238046750Y-168021000D03*
X239871750Y-168021000D03*
%TD*%
%TO.C,R51*%
X158587499Y-85090002D03*
X160412499Y-85090002D03*
%TD*%
D29*
%TO.C,R61*%
X134770500Y-203454000D03*
X132945500Y-203454000D03*
%TD*%
D39*
%TO.C,MP3*%
X128478000Y-164465000D03*
D40*
X128478000Y-164465000D03*
%TD*%
D15*
%TO.C,R26*%
X209739500Y-205852000D03*
X211564500Y-205852000D03*
%TD*%
D20*
%TO.C,Q7*%
X207515500Y-200865500D03*
X205615500Y-200865500D03*
X206565500Y-202740500D03*
%TD*%
D54*
%TO.C,Q13*%
X128738000Y-151125000D03*
D55*
X122438000Y-148845000D03*
D54*
X128738000Y-146565000D03*
%TD*%
D20*
%TO.C,Q4*%
X235963500Y-163019500D03*
X234063500Y-163019500D03*
X235013500Y-164894500D03*
%TD*%
D32*
%TO.C,D11*%
X227339600Y-203991000D03*
X227339600Y-200691000D03*
%TD*%
D18*
%TO.C,TP1*%
X137668000Y-203454000D03*
%TD*%
D32*
%TO.C,D5*%
X212941750Y-166115000D03*
X212941750Y-162815000D03*
%TD*%
D15*
%TO.C,R1*%
X278226501Y-91698000D03*
X280051501Y-91698000D03*
%TD*%
D46*
%TO.C,J20*%
X116459000Y-94996000D03*
D47*
X116459000Y-97536000D03*
X116459000Y-100076000D03*
%TD*%
D29*
%TO.C,R19*%
X250277000Y-161163000D03*
X248452000Y-161163000D03*
%TD*%
D19*
%TO.C,TP16*%
X128631599Y-97051499D03*
%TD*%
D32*
%TO.C,D13*%
X255765934Y-203990574D03*
X255765934Y-200690574D03*
%TD*%
%TO.C,D8*%
X255778000Y-166115000D03*
X255778000Y-162815000D03*
%TD*%
D42*
%TO.C,D1*%
X272872200Y-85598000D03*
X275259800Y-85598000D03*
%TD*%
D19*
%TO.C,J2*%
X251205999Y-98044000D03*
D34*
X248665999Y-98044000D03*
X246125999Y-98044000D03*
X243585999Y-98044000D03*
X241045999Y-98044000D03*
%TD*%
D39*
%TO.C,MP4*%
X117048000Y-164465000D03*
D40*
X117048000Y-164465000D03*
%TD*%
D19*
%TO.C,J14*%
X245105000Y-71553500D03*
D34*
X247645000Y-71553500D03*
X250185000Y-71553500D03*
X252725000Y-71553500D03*
X255265000Y-71553500D03*
X257805000Y-71553500D03*
%TD*%
D27*
%TO.C,C14*%
X210820000Y-122420000D03*
X210820000Y-121285000D03*
%TD*%
D15*
%TO.C,R23*%
X195452000Y-205852000D03*
X197277000Y-205852000D03*
%TD*%
D13*
%TO.C,LED15*%
X153550000Y-144055500D03*
X153550000Y-145805500D03*
%TD*%
D56*
%TO.C,U3*%
X260985000Y-142305000D03*
X259715000Y-142305000D03*
X258445000Y-142305000D03*
X257175000Y-142305000D03*
X257175000Y-147255000D03*
X258445000Y-147255000D03*
X259715000Y-147255000D03*
X260985000Y-147255000D03*
%TD*%
D30*
%TO.C,R18*%
X253492000Y-160885500D03*
X253492000Y-162710500D03*
%TD*%
D15*
%TO.C,R20*%
X252579500Y-168021000D03*
X254404500Y-168021000D03*
%TD*%
D57*
%TO.C,C18*%
X181075500Y-67818000D03*
X179350500Y-67818000D03*
%TD*%
D19*
%TO.C,TP15*%
X128631599Y-87573006D03*
%TD*%
D29*
%TO.C,R13*%
X221783000Y-161163000D03*
X219958000Y-161163000D03*
%TD*%
D39*
%TO.C,MP1*%
X170388000Y-164464998D03*
D40*
X170388000Y-164464998D03*
%TD*%
D25*
%TO.C,C15*%
X189051000Y-94751500D03*
X189051000Y-93026500D03*
%TD*%
D19*
%TO.C,TP18*%
X165850000Y-96520001D03*
%TD*%
D41*
%TO.C,K11*%
X141338000Y-120030000D03*
D12*
X141338000Y-112430000D03*
X131138000Y-112430000D03*
X123438000Y-112430000D03*
%TD*%
D15*
%TO.C,R52*%
X158945000Y-98630003D03*
X160770000Y-98630003D03*
%TD*%
D58*
%TO.C,J18*%
X231775000Y-64770000D03*
D47*
X229235000Y-64770000D03*
X226695000Y-64770000D03*
%TD*%
D35*
%TO.C,J10*%
X279900331Y-198567000D03*
X279900331Y-165267000D03*
D36*
X278480331Y-172222000D03*
D37*
X278480331Y-174992000D03*
X278480331Y-177762000D03*
X278480331Y-180532000D03*
X278480331Y-183302000D03*
X278480331Y-186072000D03*
X278480331Y-188842000D03*
X278480331Y-191612000D03*
X281320331Y-173607000D03*
X281320331Y-176377000D03*
X281320331Y-179147000D03*
X281320331Y-181917000D03*
X281320331Y-184687000D03*
X281320331Y-187457000D03*
X281320331Y-190227000D03*
%TD*%
D59*
%TO.C,R4*%
X222885000Y-131572000D03*
X224080000Y-131572000D03*
%TD*%
D11*
%TO.C,K1*%
X198135000Y-170426000D03*
D12*
X190535000Y-170426000D03*
X190535000Y-180626000D03*
X190535000Y-188326000D03*
%TD*%
D20*
%TO.C,Q6*%
X193300999Y-200849051D03*
X191400999Y-200849051D03*
X192350999Y-202724051D03*
%TD*%
D53*
%TO.C,H2*%
X169418000Y-187325000D03*
D23*
X169418000Y-187325000D03*
%TD*%
D60*
%TO.C,J1*%
X282194000Y-85598000D03*
X282194000Y-81198000D03*
D61*
X279594000Y-84998000D03*
X279594000Y-84198000D03*
X279594000Y-83398000D03*
X279594000Y-82598000D03*
X279594000Y-81798000D03*
D62*
X279594000Y-87798000D03*
X285094000Y-87798000D03*
X279594000Y-78998000D03*
X285094000Y-78998000D03*
%TD*%
D30*
%TO.C,R6*%
X195936000Y-160885500D03*
X195936000Y-162710500D03*
%TD*%
D22*
%TO.C,H3*%
X279450000Y-233590000D03*
X280152944Y-231892944D03*
X280152944Y-235287056D03*
X281850000Y-231190000D03*
D23*
X281850000Y-233590000D03*
D22*
X281850000Y-235990000D03*
X283547056Y-231892944D03*
X283547056Y-235287056D03*
X284250000Y-233590000D03*
%TD*%
D19*
%TO.C,TP7*%
X185166000Y-75242000D03*
%TD*%
D29*
%TO.C,R44*%
X258214500Y-139635001D03*
X256389500Y-139635001D03*
%TD*%
D19*
%TO.C,TP17*%
X165850000Y-91010003D03*
%TD*%
D11*
%TO.C,K9*%
X240997500Y-208272000D03*
D12*
X233397500Y-208272000D03*
X233397500Y-218472000D03*
X233397500Y-226172000D03*
%TD*%
D19*
%TO.C,TP20*%
X175006000Y-65126000D03*
%TD*%
D32*
%TO.C,D10*%
X213153650Y-203991000D03*
X213153650Y-200691000D03*
%TD*%
D15*
%TO.C,R49*%
X258421500Y-149606000D03*
X260246500Y-149606000D03*
%TD*%
D17*
%TO.C,LED5*%
X234161251Y-168021000D03*
X235911251Y-168021000D03*
%TD*%
D20*
%TO.C,Q10*%
X250441500Y-200865500D03*
X248541500Y-200865500D03*
X249491500Y-202740500D03*
%TD*%
D17*
%TO.C,LED6*%
X248553000Y-168021000D03*
X250303000Y-168021000D03*
%TD*%
D15*
%TO.C,R11*%
X209338750Y-168021000D03*
X211163750Y-168021000D03*
%TD*%
D19*
%TO.C,J13*%
X206121000Y-71553500D03*
D34*
X208661000Y-71553500D03*
X211201000Y-71553500D03*
X213741000Y-71553500D03*
X216281000Y-71553500D03*
X218821000Y-71553500D03*
%TD*%
D29*
%TO.C,R45*%
X259357500Y-137095000D03*
X257532500Y-137095000D03*
%TD*%
%TO.C,R16*%
X235926000Y-161163000D03*
X234101000Y-161163000D03*
%TD*%
D19*
%TO.C,JP2*%
X217909500Y-134112000D03*
D34*
X220449500Y-134112000D03*
X222989500Y-134112000D03*
%TD*%
D63*
%TO.C,SW2*%
X143764000Y-203580000D03*
D64*
X143764000Y-208280000D03*
X143764000Y-212980000D03*
%TD*%
D30*
%TO.C,R24*%
X210435850Y-198767300D03*
X210435850Y-200592300D03*
%TD*%
D26*
%TO.C,J7*%
X115951000Y-117903000D03*
X115951000Y-112903000D03*
%TD*%
D31*
%TO.C,R5*%
X189051000Y-98865500D03*
X189051000Y-97040500D03*
%TD*%
D17*
%TO.C,LED3*%
X205603751Y-168021000D03*
X207353751Y-168021000D03*
%TD*%
D24*
%TO.C,R62*%
X218238000Y-131572000D03*
X217043000Y-131572000D03*
%TD*%
D25*
%TO.C,C4*%
X206883000Y-116727500D03*
X206883000Y-115002500D03*
%TD*%
D65*
%TO.C,C10*%
X215959500Y-127324962D03*
X214824500Y-127324962D03*
%TD*%
D38*
%TO.C,C16*%
X158637500Y-90170001D03*
X160362500Y-90170001D03*
%TD*%
D15*
%TO.C,R32*%
X238340334Y-205852000D03*
X240165334Y-205852000D03*
%TD*%
D32*
%TO.C,D9*%
X198586700Y-203991000D03*
X198586700Y-200691000D03*
%TD*%
D29*
%TO.C,R36*%
X151788500Y-117388000D03*
X149963500Y-117388000D03*
%TD*%
D30*
%TO.C,R33*%
X253048134Y-198766874D03*
X253048134Y-200591874D03*
%TD*%
D22*
%TO.C,H4*%
X279450000Y-63590000D03*
X280152944Y-61892944D03*
X280152944Y-65287056D03*
X281850000Y-61190000D03*
D23*
X281850000Y-63590000D03*
D22*
X281850000Y-65990000D03*
X283547056Y-61892944D03*
X283547056Y-65287056D03*
X284250000Y-63590000D03*
%TD*%
D11*
%TO.C,K7*%
X212422500Y-208272000D03*
D12*
X204822500Y-208272000D03*
X204822500Y-218472000D03*
X204822500Y-226172000D03*
%TD*%
D20*
%TO.C,Q3*%
X221820500Y-163019500D03*
X219920500Y-163019500D03*
X220870500Y-164894500D03*
%TD*%
D26*
%TO.C,J8*%
X115951000Y-130266500D03*
X115951000Y-125266500D03*
%TD*%
D66*
%TO.C,D3*%
X282194000Y-97291800D03*
X282194000Y-94904200D03*
%TD*%
D67*
%TO.C,LED1*%
X283958000Y-91694000D03*
X282208000Y-91694000D03*
%TD*%
D31*
%TO.C,R60*%
X153543000Y-149526000D03*
X153543000Y-147701000D03*
%TD*%
D20*
%TO.C,Q9*%
X236090500Y-200849051D03*
X234190500Y-200849051D03*
X235140500Y-202724051D03*
%TD*%
D30*
%TO.C,R15*%
X239086250Y-160885500D03*
X239086250Y-162710500D03*
%TD*%
D18*
%TO.C,TP2*%
X135636000Y-150622000D03*
%TD*%
D17*
%TO.C,LED9*%
X220000500Y-205852000D03*
X221750500Y-205852000D03*
%TD*%
D15*
%TO.C,R43*%
X245364500Y-75184000D03*
X247189500Y-75184000D03*
%TD*%
D19*
%TO.C,TP21*%
X234696000Y-72547000D03*
%TD*%
D59*
%TO.C,R3*%
X218208500Y-107823000D03*
X219403500Y-107823000D03*
%TD*%
D10*
%TO.C,C3*%
X266044000Y-90835500D03*
X266044000Y-92560500D03*
%TD*%
D19*
%TO.C,J4*%
X205780000Y-140716000D03*
D34*
X205780000Y-143256000D03*
X208320000Y-140716000D03*
X208320000Y-143256000D03*
X210860000Y-140716000D03*
X210860000Y-143256000D03*
X213400000Y-140716000D03*
X213400000Y-143256000D03*
X215940000Y-140716000D03*
X215940000Y-143256000D03*
X218480000Y-140716000D03*
X218480000Y-143256000D03*
X221020000Y-140716000D03*
X221020000Y-143256000D03*
X223560000Y-140716000D03*
X223560000Y-143256000D03*
X226100000Y-140716000D03*
X226100000Y-143256000D03*
X228640000Y-140716000D03*
X228640000Y-143256000D03*
X231180000Y-140716000D03*
X231180000Y-143256000D03*
X233720000Y-140716000D03*
X233720000Y-143256000D03*
%TD*%
D29*
%TO.C,R25*%
X207565499Y-199120999D03*
X205740499Y-199120999D03*
%TD*%
D30*
%TO.C,R55*%
X124206000Y-83138000D03*
X124206000Y-84963000D03*
%TD*%
D10*
%TO.C,C19*%
X122174000Y-83188000D03*
X122174000Y-84913000D03*
%TD*%
D30*
%TO.C,R57*%
X124206000Y-98681998D03*
X124206000Y-100506998D03*
%TD*%
D19*
%TO.C,TP11*%
X251460000Y-142279000D03*
%TD*%
D30*
%TO.C,R12*%
X224680500Y-160885500D03*
X224680500Y-162710500D03*
%TD*%
D28*
%TO.C,Q11*%
X148765500Y-115417000D03*
X148765500Y-113517000D03*
X146890500Y-114467000D03*
%TD*%
D68*
%TO.C,U1*%
X273664000Y-93773000D03*
X272394000Y-93773000D03*
X271124000Y-93773000D03*
X269854000Y-93773000D03*
X268584000Y-93773000D03*
D69*
X271124000Y-99783000D03*
%TD*%
D19*
%TO.C,TP19*%
X123571000Y-92329000D03*
%TD*%
D20*
%TO.C,Q1*%
X193263000Y-163019500D03*
X191363000Y-163019500D03*
X192313000Y-164894500D03*
%TD*%
D19*
%TO.C,TP4*%
X233172000Y-120650000D03*
%TD*%
%TO.C,J5*%
X242042000Y-132822000D03*
D34*
X244582000Y-132822000D03*
X242042000Y-130282000D03*
X244582000Y-130282000D03*
X242042000Y-127742000D03*
X244582000Y-127742000D03*
X242042000Y-125202000D03*
X244582000Y-125202000D03*
X242042000Y-122662000D03*
X244582000Y-122662000D03*
X242042000Y-120122000D03*
X244582000Y-120122000D03*
X242042000Y-117582000D03*
X244582000Y-117582000D03*
X242042000Y-115042000D03*
X244582000Y-115042000D03*
X242042000Y-112502000D03*
X244582000Y-112502000D03*
X242042000Y-109962000D03*
X244582000Y-109962000D03*
X242042000Y-107422000D03*
X244582000Y-107422000D03*
X242042000Y-104882000D03*
X244582000Y-104882000D03*
%TD*%
M02*
