%TF.GenerationSoftware,KiCad,Pcbnew,8.0.7*%
%TF.CreationDate,2025-04-17T15:34:12+07:00*%
%TF.ProjectId,Tractor VCU,54726163-746f-4722-9056-43552e6b6963,rev?*%
%TF.SameCoordinates,Original*%
%TF.FileFunction,Copper,L4,Bot*%
%TF.FilePolarity,Positive*%
%FSLAX46Y46*%
G04 Gerber Fmt 4.6, Leading zero omitted, Abs format (unit mm)*
G04 Created by KiCad (PCBNEW 8.0.7) date 2025-04-17 15:34:12*
%MOMM*%
%LPD*%
G01*
G04 APERTURE LIST*
G04 Aperture macros list*
%AMRoundRect*
0 Rectangle with rounded corners*
0 $1 Rounding radius*
0 $2 $3 $4 $5 $6 $7 $8 $9 X,Y pos of 4 corners*
0 Add a 4 corners polygon primitive as box body*
4,1,4,$2,$3,$4,$5,$6,$7,$8,$9,$2,$3,0*
0 Add four circle primitives for the rounded corners*
1,1,$1+$1,$2,$3*
1,1,$1+$1,$4,$5*
1,1,$1+$1,$6,$7*
1,1,$1+$1,$8,$9*
0 Add four rect primitives between the rounded corners*
20,1,$1+$1,$2,$3,$4,$5,0*
20,1,$1+$1,$4,$5,$6,$7,0*
20,1,$1+$1,$6,$7,$8,$9,0*
20,1,$1+$1,$8,$9,$2,$3,0*%
G04 Aperture macros list end*
%TA.AperFunction,ComponentPad*%
%ADD10RoundRect,0.341000X-0.759000X0.759000X-0.759000X-0.759000X0.759000X-0.759000X0.759000X0.759000X0*%
%TD*%
%TA.AperFunction,ComponentPad*%
%ADD11C,2.200000*%
%TD*%
%TA.AperFunction,ComponentPad*%
%ADD12R,1.700000X1.700000*%
%TD*%
%TA.AperFunction,ComponentPad*%
%ADD13C,0.800000*%
%TD*%
%TA.AperFunction,ComponentPad*%
%ADD14C,6.400000*%
%TD*%
%TA.AperFunction,ComponentPad*%
%ADD15C,1.950000*%
%TD*%
%TA.AperFunction,ComponentPad*%
%ADD16O,1.700000X1.700000*%
%TD*%
%TA.AperFunction,ComponentPad*%
%ADD17C,4.000000*%
%TD*%
%TA.AperFunction,ComponentPad*%
%ADD18R,1.600000X1.600000*%
%TD*%
%TA.AperFunction,ComponentPad*%
%ADD19C,1.600000*%
%TD*%
%TA.AperFunction,ComponentPad*%
%ADD20C,4.700000*%
%TD*%
%TA.AperFunction,ConnectorPad*%
%ADD21C,8.600000*%
%TD*%
%TA.AperFunction,ComponentPad*%
%ADD22RoundRect,0.341000X0.759000X0.759000X-0.759000X0.759000X-0.759000X-0.759000X0.759000X-0.759000X0*%
%TD*%
%TA.AperFunction,ComponentPad*%
%ADD23O,4.000000X6.000000*%
%TD*%
%TA.AperFunction,ComponentPad*%
%ADD24RoundRect,0.250000X-0.620000X0.620000X-0.620000X-0.620000X0.620000X-0.620000X0.620000X0.620000X0*%
%TD*%
%TA.AperFunction,ComponentPad*%
%ADD25C,1.740000*%
%TD*%
%TA.AperFunction,ComponentPad*%
%ADD26C,1.500000*%
%TD*%
%TA.AperFunction,ComponentPad*%
%ADD27C,2.000000*%
%TD*%
%TA.AperFunction,ComponentPad*%
%ADD28C,3.600000*%
%TD*%
%TA.AperFunction,ConnectorPad*%
%ADD29C,6.400000*%
%TD*%
%TA.AperFunction,ComponentPad*%
%ADD30RoundRect,0.250000X0.620000X0.620000X-0.620000X0.620000X-0.620000X-0.620000X0.620000X-0.620000X0*%
%TD*%
%TA.AperFunction,ComponentPad*%
%ADD31R,3.400000X3.400000*%
%TD*%
%TA.AperFunction,ComponentPad*%
%ADD32O,4.000000X3.000000*%
%TD*%
%TA.AperFunction,ViaPad*%
%ADD33C,0.800000*%
%TD*%
%TA.AperFunction,Conductor*%
%ADD34C,0.300000*%
%TD*%
%TA.AperFunction,Conductor*%
%ADD35C,0.800000*%
%TD*%
%TA.AperFunction,Conductor*%
%ADD36C,0.400000*%
%TD*%
G04 APERTURE END LIST*
D10*
%TO.P,K10,8*%
%TO.N,+12V*%
X255285000Y-208271574D03*
D11*
%TO.P,K10,9*%
%TO.N,Net-(D13-A)*%
X247685000Y-208271574D03*
%TO.P,K10,13*%
%TO.N,/DRIVER & CONNECTOR/DRIVER_PUMP5*%
X247685000Y-218471574D03*
%TO.P,K10,16*%
%TO.N,PUMP_DRIVER*%
X247685000Y-226171574D03*
%TD*%
D12*
%TO.P,TP12,1,1*%
%TO.N,/DRIVER & CONNECTOR/DAC2_OUT*%
X251460000Y-146431000D03*
%TD*%
D10*
%TO.P,K8,8*%
%TO.N,+12V*%
X226710000Y-208272000D03*
D11*
%TO.P,K8,9*%
%TO.N,Net-(D11-A)*%
X219110000Y-208272000D03*
%TO.P,K8,13*%
%TO.N,/DRIVER & CONNECTOR/DRIVER_PUMP3*%
X219110000Y-218472000D03*
%TO.P,K8,16*%
%TO.N,PUMP_DRIVER*%
X219110000Y-226172000D03*
%TD*%
D10*
%TO.P,K5,8*%
%TO.N,+12V*%
X255285000Y-170426000D03*
D11*
%TO.P,K5,9*%
%TO.N,Net-(D8-A)*%
X247685000Y-170426000D03*
%TO.P,K5,13*%
%TO.N,/DRIVER & CONNECTOR/DRIVER_MAIN5*%
X247685000Y-180626000D03*
%TO.P,K5,16*%
%TO.N,MAIN_DRIVER*%
X247685000Y-188326000D03*
%TD*%
D10*
%TO.P,K6,8*%
%TO.N,+12V*%
X198135000Y-208272000D03*
D11*
%TO.P,K6,9*%
%TO.N,Net-(D9-A)*%
X190535000Y-208272000D03*
%TO.P,K6,13*%
%TO.N,/DRIVER & CONNECTOR/DRIVER_PUMP1*%
X190535000Y-218472000D03*
%TO.P,K6,16*%
%TO.N,/POWER SUPPLY/72V*%
X190535000Y-226172000D03*
%TD*%
D13*
%TO.P,H6,1,1*%
%TO.N,unconnected-(H6-Pad1)_3*%
X109450000Y-233590000D03*
%TO.N,unconnected-(H6-Pad1)_2*%
X110152944Y-231892944D03*
%TO.N,unconnected-(H6-Pad1)_5*%
X110152944Y-235287056D03*
%TO.N,unconnected-(H6-Pad1)_7*%
X111850000Y-231190000D03*
D14*
%TO.N,unconnected-(H6-Pad1)_8*%
X111850000Y-233590000D03*
D13*
%TO.N,unconnected-(H6-Pad1)_4*%
X111850000Y-235990000D03*
%TO.N,unconnected-(H6-Pad1)_6*%
X113547056Y-231892944D03*
%TO.N,unconnected-(H6-Pad1)*%
X113547056Y-235287056D03*
%TO.N,unconnected-(H6-Pad1)_1*%
X114250000Y-233590000D03*
%TD*%
D12*
%TO.P,TP22,1,1*%
%TO.N,GND*%
X172106041Y-93787210D03*
%TD*%
D15*
%TO.P,J16,1,Pin_1*%
%TO.N,CAN2_N*%
X244007000Y-64766000D03*
%TO.P,J16,2,Pin_2*%
%TO.N,CAN2_P*%
X249007000Y-64766000D03*
%TD*%
D12*
%TO.P,TP14,1,1*%
%TO.N,PUMP_THROTTLE*%
X264922000Y-146431000D03*
%TD*%
D13*
%TO.P,H5,1,1*%
%TO.N,unconnected-(H5-Pad1)_5*%
X109450000Y-63590000D03*
%TO.N,unconnected-(H5-Pad1)_8*%
X110152944Y-61892944D03*
%TO.N,unconnected-(H5-Pad1)_1*%
X110152944Y-65287056D03*
%TO.N,unconnected-(H5-Pad1)*%
X111850000Y-61190000D03*
D14*
%TO.N,unconnected-(H5-Pad1)_2*%
X111850000Y-63590000D03*
D13*
%TO.N,unconnected-(H5-Pad1)_6*%
X111850000Y-65990000D03*
%TO.N,unconnected-(H5-Pad1)_3*%
X113547056Y-61892944D03*
%TO.N,unconnected-(H5-Pad1)_4*%
X113547056Y-65287056D03*
%TO.N,unconnected-(H5-Pad1)_7*%
X114250000Y-63590000D03*
%TD*%
D12*
%TO.P,TP8,1,1*%
%TO.N,/DRIVER & CONNECTOR/SPI1_MISO*%
X180467000Y-75242000D03*
%TD*%
%TO.P,J17,1,Pin_1*%
%TO.N,unconnected-(J17-Pin_1-Pad1)*%
X194163000Y-65151000D03*
D16*
%TO.P,J17,2,Pin_2*%
%TO.N,/DRIVER & CONNECTOR/SPI1_CS*%
X191623000Y-65151000D03*
%TO.P,J17,3,Pin_3*%
%TO.N,/DRIVER & CONNECTOR/SPI1_SCK*%
X189083000Y-65151000D03*
%TO.P,J17,4,Pin_4*%
%TO.N,/DRIVER & CONNECTOR/SPI1_MOSI*%
X186543000Y-65151000D03*
%TO.P,J17,5,Pin_5*%
%TO.N,/DRIVER & CONNECTOR/SPI1_MISO*%
X184003000Y-65151000D03*
%TO.P,J17,6,Pin_6*%
%TO.N,+5V*%
X181463000Y-65151000D03*
%TO.P,J17,7,Pin_7*%
%TO.N,GND*%
X178923000Y-65151000D03*
%TD*%
D17*
%TO.P,J9,0,PAD*%
%TO.N,GND*%
X279885000Y-156053000D03*
X279885000Y-122753000D03*
D18*
%TO.P,J9,1,1*%
%TO.N,MAIN_DGND*%
X278465000Y-129708000D03*
D19*
%TO.P,J9,2,2*%
%TO.N,unconnected-(J9-Pad2)*%
X278465000Y-132478000D03*
%TO.P,J9,3,3*%
%TO.N,/DRIVER & CONNECTOR/DRIVER_MAIN1*%
X278465000Y-135248000D03*
%TO.P,J9,4,4*%
%TO.N,CAN1_P*%
X278465000Y-138018000D03*
%TO.P,J9,5,5*%
%TO.N,CAN1_N*%
X278465000Y-140788000D03*
%TO.P,J9,6,6*%
%TO.N,/DRIVER & CONNECTOR/DRIVER_MAIN5*%
X278465000Y-143558000D03*
%TO.P,J9,7,7*%
%TO.N,unconnected-(J9-Pad7)*%
X278465000Y-146328000D03*
%TO.P,J9,8,8*%
%TO.N,MAIN_DRIVER*%
X278465000Y-149098000D03*
%TO.P,J9,9,P9*%
%TO.N,MAIN_DGND*%
X281305000Y-131093000D03*
%TO.P,J9,10,P10*%
%TO.N,MAIN_TGND*%
X281305000Y-133863000D03*
%TO.P,J9,11,P111*%
%TO.N,/DRIVER & CONNECTOR/DRIVER_MAIN2*%
X281305000Y-136633000D03*
%TO.P,J9,12,P12*%
%TO.N,/DRIVER & CONNECTOR/DRIVER_MAIN3*%
X281305000Y-139403000D03*
%TO.P,J9,13,P13*%
%TO.N,/DRIVER & CONNECTOR/DRIVER_MAIN4*%
X281305000Y-142173000D03*
%TO.P,J9,14,P14*%
%TO.N,MAIN_THROTTLE*%
X281305000Y-144943000D03*
%TO.P,J9,15,P15*%
%TO.N,MAIN_DRIVER*%
X281305000Y-147713000D03*
%TD*%
D12*
%TO.P,J6,1,Pin_1*%
%TO.N,PA15*%
X233680000Y-96520000D03*
D16*
%TO.P,J6,2,Pin_2*%
%TO.N,+3V3*%
X233680000Y-93980000D03*
%TO.P,J6,3,Pin_3*%
%TO.N,/DRIVER & CONNECTOR/USART3_TX*%
X231140000Y-96520000D03*
%TO.P,J6,4,Pin_4*%
%TO.N,+3V3*%
X231140000Y-93980000D03*
%TO.P,J6,5,Pin_5*%
%TO.N,/DRIVER & CONNECTOR/USART3_RX*%
X228600000Y-96520000D03*
%TO.P,J6,6,Pin_6*%
%TO.N,+3V3*%
X228600000Y-93980000D03*
%TO.P,J6,7,Pin_7*%
%TO.N,PC12*%
X226060000Y-96520000D03*
%TO.P,J6,8,Pin_8*%
%TO.N,+3V3*%
X226060000Y-93980000D03*
%TO.P,J6,9,Pin_9*%
%TO.N,PD2*%
X223520000Y-96520000D03*
%TO.P,J6,10,Pin_10*%
%TO.N,+3V3*%
X223520000Y-93980000D03*
%TO.P,J6,11,Pin_11*%
%TO.N,/DRIVER & CONNECTOR/SPI1_SCK*%
X220980000Y-96520000D03*
%TO.P,J6,12,Pin_12*%
%TO.N,+3V3*%
X220980000Y-93980000D03*
%TO.P,J6,13,Pin_13*%
%TO.N,/DRIVER & CONNECTOR/SPI1_MISO*%
X218440000Y-96520000D03*
%TO.P,J6,14,Pin_14*%
%TO.N,GND*%
X218440000Y-93980000D03*
%TO.P,J6,15,Pin_15*%
%TO.N,/DRIVER & CONNECTOR/SPI1_MOSI*%
X215900000Y-96520000D03*
%TO.P,J6,16,Pin_16*%
%TO.N,GND*%
X215900000Y-93980000D03*
%TO.P,J6,17,Pin_17*%
%TO.N,/DRIVER & CONNECTOR/SPI1_CS*%
X213360000Y-96520000D03*
%TO.P,J6,18,Pin_18*%
%TO.N,GND*%
X213360000Y-93980000D03*
%TO.P,J6,19,Pin_19*%
%TO.N,PB7*%
X210820000Y-96520000D03*
%TO.P,J6,20,Pin_20*%
%TO.N,GND*%
X210820000Y-93980000D03*
%TO.P,J6,21,Pin_21*%
%TO.N,/STM32/PB8*%
X208280000Y-96520000D03*
%TO.P,J6,22,Pin_22*%
%TO.N,GND*%
X208280000Y-93980000D03*
%TO.P,J6,23,Pin_23*%
%TO.N,/STM32/PB9*%
X205740000Y-96520000D03*
%TO.P,J6,24,Pin_24*%
%TO.N,GND*%
X205740000Y-93980000D03*
%TD*%
D10*
%TO.P,K4,8*%
%TO.N,+12V*%
X240997500Y-170426000D03*
D11*
%TO.P,K4,9*%
%TO.N,Net-(D7-A)*%
X233397500Y-170426000D03*
%TO.P,K4,13*%
%TO.N,/DRIVER & CONNECTOR/DRIVER_MAIN4*%
X233397500Y-180626000D03*
%TO.P,K4,16*%
%TO.N,MAIN_DRIVER*%
X233397500Y-188326000D03*
%TD*%
D12*
%TO.P,TP23,1,1*%
%TO.N,GND*%
X251460000Y-138430000D03*
%TD*%
%TO.P,TP5,1,1*%
%TO.N,/DRIVER & CONNECTOR/SPI1_CS*%
X194602442Y-75242000D03*
%TD*%
D20*
%TO.P,MP2,1,1*%
%TO.N,+12V*%
X158958000Y-164465000D03*
D21*
X158958000Y-164465000D03*
%TD*%
D15*
%TO.P,J15,1,Pin_1*%
%TO.N,CAN1_N*%
X205145000Y-64766000D03*
%TO.P,J15,2,Pin_2*%
%TO.N,CAN1_P*%
X210145000Y-64766000D03*
%TD*%
D12*
%TO.P,JP1,1,Pin_1*%
%TO.N,Net-(JP1-Pin_1)*%
X214122000Y-105156000D03*
D16*
%TO.P,JP1,2,Pin_2*%
%TO.N,/STM32/BOOT0*%
X216662000Y-105156000D03*
%TO.P,JP1,3,Pin_3*%
%TO.N,Net-(JP1-Pin_3)*%
X219202000Y-105156000D03*
%TD*%
D12*
%TO.P,TP13,1,1*%
%TO.N,MAIN_THROTTLE*%
X264922000Y-142279000D03*
%TD*%
D22*
%TO.P,K12,8*%
%TO.N,+12V*%
X141359000Y-132476000D03*
D11*
%TO.P,K12,9*%
%TO.N,Net-(D15-A)*%
X141359000Y-124876000D03*
%TO.P,K12,13*%
%TO.N,/RELAY/NO_EX2*%
X131159000Y-124876000D03*
%TO.P,K12,16*%
%TO.N,/RELAY/COM_EX2*%
X123459000Y-124876000D03*
%TD*%
D23*
%TO.P,J21,1,Pin_1*%
%TO.N,Net-(J21-Pin_1)*%
X129512000Y-226060000D03*
%TO.P,J21,2,Pin_2*%
%TO.N,GND*%
X139042000Y-226060000D03*
%TO.P,J21,3,Pin_3*%
X148582000Y-226060000D03*
%TO.P,J21,4,Pin_4*%
%TO.N,Net-(J21-Pin_4)*%
X158112000Y-226060000D03*
%TD*%
D24*
%TO.P,J19,1,Pin_1*%
%TO.N,+5V*%
X116459000Y-79478498D03*
D25*
%TO.P,J19,2,Pin_2*%
%TO.N,Net-(J19-Pin_2)*%
X116459000Y-82018498D03*
%TO.P,J19,3,Pin_3*%
%TO.N,GND*%
X116459000Y-84558498D03*
%TD*%
D24*
%TO.P,J12,1,Pin_1*%
%TO.N,/DRIVER & CONNECTOR/BRAKE2_SWITCH*%
X153150000Y-98630002D03*
D25*
%TO.P,J12,2,Pin_2*%
%TO.N,GND*%
X153150000Y-101170002D03*
%TD*%
D12*
%TO.P,TP6,1,1*%
%TO.N,/DRIVER & CONNECTOR/SPI1_SCK*%
X189763628Y-75242000D03*
%TD*%
D10*
%TO.P,K3,8*%
%TO.N,+12V*%
X226710000Y-170426000D03*
D11*
%TO.P,K3,9*%
%TO.N,Net-(D6-A)*%
X219110000Y-170426000D03*
%TO.P,K3,13*%
%TO.N,/DRIVER & CONNECTOR/DRIVER_MAIN3*%
X219110000Y-180626000D03*
%TO.P,K3,16*%
%TO.N,MAIN_DRIVER*%
X219110000Y-188326000D03*
%TD*%
D24*
%TO.P,J11,1,Pin_1*%
%TO.N,/DRIVER & CONNECTOR/BRAKE1_SWITCH*%
X153150000Y-87630000D03*
D25*
%TO.P,J11,2,Pin_2*%
%TO.N,GND*%
X153150000Y-90170000D03*
%TD*%
D10*
%TO.P,K2,8*%
%TO.N,+12V*%
X212422500Y-170426000D03*
D11*
%TO.P,K2,9*%
%TO.N,Net-(D5-A)*%
X204822500Y-170426000D03*
%TO.P,K2,13*%
%TO.N,/DRIVER & CONNECTOR/DRIVER_MAIN2*%
X204822500Y-180626000D03*
%TO.P,K2,16*%
%TO.N,MAIN_DRIVER*%
X204822500Y-188326000D03*
%TD*%
D26*
%TO.P,Y1,1,1*%
%TO.N,Net-(U2-PH1)*%
X202946000Y-120560000D03*
%TO.P,Y1,2,2*%
%TO.N,Net-(U2-PH0)*%
X202946000Y-115680000D03*
%TD*%
D12*
%TO.P,TP10,1,1*%
%TO.N,/DRIVER & CONNECTOR/USART3_RX*%
X226187000Y-72547000D03*
%TD*%
D27*
%TO.P,SW1,1,A*%
%TO.N,GND*%
X192076000Y-93635000D03*
X198576000Y-93635000D03*
%TO.P,SW1,2,B*%
%TO.N,NRST*%
X192076000Y-98135000D03*
X198576000Y-98135000D03*
%TD*%
D28*
%TO.P,H1,1,1*%
%TO.N,GND*%
X118017999Y-187325000D03*
D29*
X118017999Y-187325000D03*
%TD*%
D12*
%TO.P,TP9,1,1*%
%TO.N,/DRIVER & CONNECTOR/USART3_TX*%
X229870000Y-72547000D03*
%TD*%
%TO.P,J3,1,Pin_1*%
%TO.N,PC13*%
X195961000Y-103647000D03*
D16*
%TO.P,J3,2,Pin_2*%
%TO.N,+3V3*%
X193421000Y-103647000D03*
%TO.P,J3,3,Pin_3*%
%TO.N,PC14*%
X195961000Y-106187000D03*
%TO.P,J3,4,Pin_4*%
%TO.N,+3V3*%
X193421000Y-106187000D03*
%TO.P,J3,5,Pin_5*%
%TO.N,PC15*%
X195961000Y-108727000D03*
%TO.P,J3,6,Pin_6*%
%TO.N,+3V3*%
X193421000Y-108727000D03*
%TO.P,J3,7,Pin_7*%
%TO.N,NRST*%
X195961000Y-111267000D03*
%TO.P,J3,8,Pin_8*%
%TO.N,+3V3*%
X193421000Y-111267000D03*
%TO.P,J3,9,Pin_9*%
%TO.N,/DRIVER & CONNECTOR/BRAKE1_IN*%
X195961000Y-113807000D03*
%TO.P,J3,10,Pin_10*%
%TO.N,+3V3*%
X193421000Y-113807000D03*
%TO.P,J3,11,Pin_11*%
%TO.N,/DRIVER & CONNECTOR/BRAKE2_IN*%
X195961000Y-116347000D03*
%TO.P,J3,12,Pin_12*%
%TO.N,+3V3*%
X193421000Y-116347000D03*
%TO.P,J3,13,Pin_13*%
%TO.N,/DRIVER & CONNECTOR/ADC1_IN12*%
X195961000Y-118887000D03*
%TO.P,J3,14,Pin_14*%
%TO.N,GND*%
X193421000Y-118887000D03*
%TO.P,J3,15,Pin_15*%
%TO.N,/DRIVER & CONNECTOR/ADC1_IN13*%
X195961000Y-121427000D03*
%TO.P,J3,16,Pin_16*%
%TO.N,GND*%
X193421000Y-121427000D03*
%TO.P,J3,17,Pin_17*%
%TO.N,PA0*%
X195961000Y-123967000D03*
%TO.P,J3,18,Pin_18*%
%TO.N,GND*%
X193421000Y-123967000D03*
%TO.P,J3,19,Pin_19*%
%TO.N,/STM32/PA1*%
X195961000Y-126507000D03*
%TO.P,J3,20,Pin_20*%
%TO.N,GND*%
X193421000Y-126507000D03*
%TO.P,J3,21,Pin_21*%
%TO.N,/STM32/PA2*%
X195961000Y-129047000D03*
%TO.P,J3,22,Pin_22*%
%TO.N,GND*%
X193421000Y-129047000D03*
%TO.P,J3,23,Pin_23*%
%TO.N,PA3*%
X195961000Y-131587000D03*
%TO.P,J3,24,Pin_24*%
%TO.N,GND*%
X193421000Y-131587000D03*
%TO.P,J3,25,Pin_25*%
%TO.N,/DRIVER & CONNECTOR/DAC1_OUT*%
X195961000Y-134127000D03*
%TO.P,J3,26,Pin_26*%
%TO.N,GND*%
X193421000Y-134127000D03*
%TD*%
D20*
%TO.P,MP3,1,1*%
%TO.N,5_BUCK*%
X128478000Y-164465000D03*
D21*
X128478000Y-164465000D03*
%TD*%
D24*
%TO.P,J20,1,Pin_1*%
%TO.N,+5V*%
X116459000Y-94996000D03*
D25*
%TO.P,J20,2,Pin_2*%
%TO.N,Net-(J20-Pin_2)*%
X116459000Y-97536000D03*
%TO.P,J20,3,Pin_3*%
%TO.N,GND*%
X116459000Y-100076000D03*
%TD*%
D12*
%TO.P,TP16,1,1*%
%TO.N,/DRIVER & CONNECTOR/ADC1_IN13*%
X128631599Y-97051499D03*
%TD*%
%TO.P,J2,1,Pin_1*%
%TO.N,+3V3*%
X251205999Y-98044000D03*
D16*
%TO.P,J2,2,Pin_2*%
%TO.N,PA13*%
X248665999Y-98044000D03*
%TO.P,J2,3,Pin_3*%
%TO.N,PA14*%
X246125999Y-98044000D03*
%TO.P,J2,4,Pin_4*%
%TO.N,NRST*%
X243585999Y-98044000D03*
%TO.P,J2,5,Pin_5*%
%TO.N,GND*%
X241045999Y-98044000D03*
%TD*%
D20*
%TO.P,MP4,1,1*%
%TO.N,GND*%
X117048000Y-164465000D03*
D21*
X117048000Y-164465000D03*
%TD*%
D12*
%TO.P,J14,1,Pin_1*%
%TO.N,CAN2_N*%
X245105000Y-71553500D03*
D16*
%TO.P,J14,2,Pin_2*%
%TO.N,CAN2_P*%
X247645000Y-71553500D03*
%TO.P,J14,3,Pin_3*%
%TO.N,/STM32/PB12*%
X250185000Y-71553500D03*
%TO.P,J14,4,Pin_4*%
%TO.N,/STM32/PB13*%
X252725000Y-71553500D03*
%TO.P,J14,5,Pin_5*%
%TO.N,GND*%
X255265000Y-71553500D03*
%TO.P,J14,6,Pin_6*%
%TO.N,+5V*%
X257805000Y-71553500D03*
%TD*%
D12*
%TO.P,TP15,1,1*%
%TO.N,/DRIVER & CONNECTOR/ADC1_IN12*%
X128631599Y-87573006D03*
%TD*%
D20*
%TO.P,MP1,1,1*%
%TO.N,GND*%
X170388000Y-164464998D03*
D21*
X170388000Y-164464998D03*
%TD*%
D12*
%TO.P,TP18,1,1*%
%TO.N,/DRIVER & CONNECTOR/BRAKE2_IN*%
X165850000Y-96520001D03*
%TD*%
D22*
%TO.P,K11,8*%
%TO.N,+12V*%
X141338000Y-120030000D03*
D11*
%TO.P,K11,9*%
%TO.N,Net-(D14-A)*%
X141338000Y-112430000D03*
%TO.P,K11,13*%
%TO.N,/RELAY/NO_EX1*%
X131138000Y-112430000D03*
%TO.P,K11,16*%
%TO.N,/RELAY/COM_EX1*%
X123438000Y-112430000D03*
%TD*%
D30*
%TO.P,J18,1,Pin_1*%
%TO.N,GND*%
X231775000Y-64770000D03*
D25*
%TO.P,J18,2,Pin_2*%
%TO.N,/DRIVER & CONNECTOR/USART3_TX*%
X229235000Y-64770000D03*
%TO.P,J18,3,Pin_3*%
%TO.N,/DRIVER & CONNECTOR/USART3_RX*%
X226695000Y-64770000D03*
%TD*%
D17*
%TO.P,J10,0,PAD*%
%TO.N,GND*%
X279900331Y-198567000D03*
X279900331Y-165267000D03*
D18*
%TO.P,J10,1,1*%
%TO.N,PUMP_DGND*%
X278480331Y-172222000D03*
D19*
%TO.P,J10,2,2*%
%TO.N,unconnected-(J10-Pad2)*%
X278480331Y-174992000D03*
%TO.P,J10,3,3*%
%TO.N,/DRIVER & CONNECTOR/DRIVER_PUMP1*%
X278480331Y-177762000D03*
%TO.P,J10,4,4*%
%TO.N,CAN2_P*%
X278480331Y-180532000D03*
%TO.P,J10,5,5*%
%TO.N,CAN2_N*%
X278480331Y-183302000D03*
%TO.P,J10,6,6*%
%TO.N,/DRIVER & CONNECTOR/DRIVER_PUMP5*%
X278480331Y-186072000D03*
%TO.P,J10,7,7*%
%TO.N,unconnected-(J10-Pad7)*%
X278480331Y-188842000D03*
%TO.P,J10,8,8*%
%TO.N,PUMP_DRIVER*%
X278480331Y-191612000D03*
%TO.P,J10,9,P9*%
%TO.N,PUMP_DGND*%
X281320331Y-173607000D03*
%TO.P,J10,10,P10*%
%TO.N,PUMP_TGND*%
X281320331Y-176377000D03*
%TO.P,J10,11,P111*%
%TO.N,/DRIVER & CONNECTOR/DRIVER_PUMP2*%
X281320331Y-179147000D03*
%TO.P,J10,12,P12*%
%TO.N,/DRIVER & CONNECTOR/DRIVER_PUMP3*%
X281320331Y-181917000D03*
%TO.P,J10,13,P13*%
%TO.N,/DRIVER & CONNECTOR/DRIVER_PUMP4*%
X281320331Y-184687000D03*
%TO.P,J10,14,P14*%
%TO.N,PUMP_THROTTLE*%
X281320331Y-187457000D03*
%TO.P,J10,15,P15*%
%TO.N,PUMP_DRIVER*%
X281320331Y-190227000D03*
%TD*%
D10*
%TO.P,K1,8*%
%TO.N,+12V*%
X198135000Y-170426000D03*
D11*
%TO.P,K1,9*%
%TO.N,Net-(D4-A)*%
X190535000Y-170426000D03*
%TO.P,K1,13*%
%TO.N,/DRIVER & CONNECTOR/DRIVER_MAIN1*%
X190535000Y-180626000D03*
%TO.P,K1,16*%
%TO.N,/POWER SUPPLY/72V*%
X190535000Y-188326000D03*
%TD*%
D28*
%TO.P,H2,1,1*%
%TO.N,GND*%
X169418000Y-187325000D03*
D29*
X169418000Y-187325000D03*
%TD*%
D13*
%TO.P,H3,1,1*%
%TO.N,unconnected-(H3-Pad1)_2*%
X279450000Y-233590000D03*
%TO.N,unconnected-(H3-Pad1)*%
X280152944Y-231892944D03*
%TO.N,unconnected-(H3-Pad1)_7*%
X280152944Y-235287056D03*
%TO.N,unconnected-(H3-Pad1)_6*%
X281850000Y-231190000D03*
D14*
%TO.N,unconnected-(H3-Pad1)_8*%
X281850000Y-233590000D03*
D13*
%TO.N,unconnected-(H3-Pad1)_1*%
X281850000Y-235990000D03*
%TO.N,unconnected-(H3-Pad1)_4*%
X283547056Y-231892944D03*
%TO.N,unconnected-(H3-Pad1)_3*%
X283547056Y-235287056D03*
%TO.N,unconnected-(H3-Pad1)_5*%
X284250000Y-233590000D03*
%TD*%
D12*
%TO.P,TP7,1,1*%
%TO.N,/DRIVER & CONNECTOR/SPI1_MOSI*%
X185166000Y-75242000D03*
%TD*%
%TO.P,TP17,1,1*%
%TO.N,/DRIVER & CONNECTOR/BRAKE1_IN*%
X165850000Y-91010003D03*
%TD*%
D10*
%TO.P,K9,8*%
%TO.N,+12V*%
X240997500Y-208272000D03*
D11*
%TO.P,K9,9*%
%TO.N,Net-(D12-A)*%
X233397500Y-208272000D03*
%TO.P,K9,13*%
%TO.N,/DRIVER & CONNECTOR/DRIVER_PUMP4*%
X233397500Y-218472000D03*
%TO.P,K9,16*%
%TO.N,PUMP_DRIVER*%
X233397500Y-226172000D03*
%TD*%
D12*
%TO.P,TP20,1,1*%
%TO.N,GND*%
X175006000Y-65126000D03*
%TD*%
%TO.P,J13,1,Pin_1*%
%TO.N,CAN1_N*%
X206121000Y-71553500D03*
D16*
%TO.P,J13,2,Pin_2*%
%TO.N,CAN1_P*%
X208661000Y-71553500D03*
%TO.P,J13,3,Pin_3*%
%TO.N,/STM32/PB8*%
X211201000Y-71553500D03*
%TO.P,J13,4,Pin_4*%
%TO.N,/STM32/PB9*%
X213741000Y-71553500D03*
%TO.P,J13,5,Pin_5*%
%TO.N,GND*%
X216281000Y-71553500D03*
%TO.P,J13,6,Pin_6*%
%TO.N,+5V*%
X218821000Y-71553500D03*
%TD*%
D12*
%TO.P,JP2,1,Pin_1*%
%TO.N,Net-(JP2-Pin_1)*%
X217909500Y-134112000D03*
D16*
%TO.P,JP2,2,Pin_2*%
%TO.N,PB2*%
X220449500Y-134112000D03*
%TO.P,JP2,3,Pin_3*%
%TO.N,Net-(JP2-Pin_3)*%
X222989500Y-134112000D03*
%TD*%
D31*
%TO.P,SW2,1,A*%
%TO.N,+12V*%
X143764000Y-203580000D03*
D32*
%TO.P,SW2,2,B*%
%TO.N,Net-(SW2-B)*%
X143764000Y-208280000D03*
%TO.P,SW2,3,C*%
%TO.N,unconnected-(SW2-C-Pad3)*%
X143764000Y-212980000D03*
%TD*%
D15*
%TO.P,J7,1,Pin_1*%
%TO.N,/RELAY/NO_EX1*%
X115951000Y-117903000D03*
%TO.P,J7,2,Pin_2*%
%TO.N,/RELAY/COM_EX1*%
X115951000Y-112903000D03*
%TD*%
D13*
%TO.P,H4,1,1*%
%TO.N,unconnected-(H4-Pad1)_8*%
X279450000Y-63590000D03*
%TO.N,unconnected-(H4-Pad1)_6*%
X280152944Y-61892944D03*
%TO.N,unconnected-(H4-Pad1)*%
X280152944Y-65287056D03*
%TO.N,unconnected-(H4-Pad1)_4*%
X281850000Y-61190000D03*
D14*
%TO.N,unconnected-(H4-Pad1)_3*%
X281850000Y-63590000D03*
D13*
%TO.N,unconnected-(H4-Pad1)_1*%
X281850000Y-65990000D03*
%TO.N,unconnected-(H4-Pad1)_7*%
X283547056Y-61892944D03*
%TO.N,unconnected-(H4-Pad1)_5*%
X283547056Y-65287056D03*
%TO.N,unconnected-(H4-Pad1)_2*%
X284250000Y-63590000D03*
%TD*%
D10*
%TO.P,K7,8*%
%TO.N,+12V*%
X212422500Y-208272000D03*
D11*
%TO.P,K7,9*%
%TO.N,Net-(D10-A)*%
X204822500Y-208272000D03*
%TO.P,K7,13*%
%TO.N,/DRIVER & CONNECTOR/DRIVER_PUMP2*%
X204822500Y-218472000D03*
%TO.P,K7,16*%
%TO.N,PUMP_DRIVER*%
X204822500Y-226172000D03*
%TD*%
D15*
%TO.P,J8,1,Pin_1*%
%TO.N,/RELAY/NO_EX2*%
X115951000Y-130266500D03*
%TO.P,J8,2,Pin_2*%
%TO.N,/RELAY/COM_EX2*%
X115951000Y-125266500D03*
%TD*%
D12*
%TO.P,TP21,1,1*%
%TO.N,GND*%
X234696000Y-72547000D03*
%TD*%
%TO.P,J4,1,Pin_1*%
%TO.N,/DRIVER & CONNECTOR/DAC2_OUT*%
X205780000Y-140716000D03*
D16*
%TO.P,J4,2,Pin_2*%
%TO.N,+5V*%
X205780000Y-143256000D03*
%TO.P,J4,3,Pin_3*%
%TO.N,PA6*%
X208320000Y-140716000D03*
%TO.P,J4,4,Pin_4*%
%TO.N,+5V*%
X208320000Y-143256000D03*
%TO.P,J4,5,Pin_5*%
%TO.N,/STM32/PA7*%
X210860000Y-140716000D03*
%TO.P,J4,6,Pin_6*%
%TO.N,+5V*%
X210860000Y-143256000D03*
%TO.P,J4,7,Pin_7*%
%TO.N,/STM32/PC4*%
X213400000Y-140716000D03*
%TO.P,J4,8,Pin_8*%
%TO.N,+5V*%
X213400000Y-143256000D03*
%TO.P,J4,9,Pin_9*%
%TO.N,/STM32/PC5*%
X215940000Y-140716000D03*
%TO.P,J4,10,Pin_10*%
%TO.N,+5V*%
X215940000Y-143256000D03*
%TO.P,J4,11,Pin_11*%
%TO.N,/STM32/PB0*%
X218480000Y-140716000D03*
%TO.P,J4,12,Pin_12*%
%TO.N,+5V*%
X218480000Y-143256000D03*
%TO.P,J4,13,Pin_13*%
%TO.N,/STM32/PB1*%
X221020000Y-140716000D03*
%TO.P,J4,14,Pin_14*%
%TO.N,GND*%
X221020000Y-143256000D03*
%TO.P,J4,15,Pin_15*%
%TO.N,PB2*%
X223560000Y-140716000D03*
%TO.P,J4,16,Pin_16*%
%TO.N,GND*%
X223560000Y-143256000D03*
%TO.P,J4,17,Pin_17*%
%TO.N,PB10*%
X226100000Y-140716000D03*
%TO.P,J4,18,Pin_18*%
%TO.N,GND*%
X226100000Y-143256000D03*
%TO.P,J4,19,Pin_19*%
%TO.N,/STM32/PB12*%
X228640000Y-140716000D03*
%TO.P,J4,20,Pin_20*%
%TO.N,GND*%
X228640000Y-143256000D03*
%TO.P,J4,21,Pin_21*%
%TO.N,/STM32/PB13*%
X231180000Y-140716000D03*
%TO.P,J4,22,Pin_22*%
%TO.N,GND*%
X231180000Y-143256000D03*
%TO.P,J4,23,Pin_23*%
%TO.N,PB14*%
X233720000Y-140716000D03*
%TO.P,J4,24,Pin_24*%
%TO.N,GND*%
X233720000Y-143256000D03*
%TD*%
D12*
%TO.P,TP11,1,1*%
%TO.N,/DRIVER & CONNECTOR/DAC1_OUT*%
X251460000Y-142279000D03*
%TD*%
%TO.P,TP19,1,1*%
%TO.N,GND*%
X123571000Y-92329000D03*
%TD*%
%TO.P,TP4,1,1*%
%TO.N,PA8*%
X233172000Y-120650000D03*
%TD*%
%TO.P,J5,1,Pin_1*%
%TO.N,/STM32/PB15*%
X242042000Y-132822000D03*
D16*
%TO.P,J5,2,Pin_2*%
%TO.N,+5V*%
X244582000Y-132822000D03*
%TO.P,J5,3,Pin_3*%
%TO.N,/STM32/PC6*%
X242042000Y-130282000D03*
%TO.P,J5,4,Pin_4*%
%TO.N,+5V*%
X244582000Y-130282000D03*
%TO.P,J5,5,Pin_5*%
%TO.N,/STM32/PC7*%
X242042000Y-127742000D03*
%TO.P,J5,6,Pin_6*%
%TO.N,+5V*%
X244582000Y-127742000D03*
%TO.P,J5,7,Pin_7*%
%TO.N,/STM32/PC8*%
X242042000Y-125202000D03*
%TO.P,J5,8,Pin_8*%
%TO.N,+5V*%
X244582000Y-125202000D03*
%TO.P,J5,9,Pin_9*%
%TO.N,/STM32/PC9*%
X242042000Y-122662000D03*
%TO.P,J5,10,Pin_10*%
%TO.N,+5V*%
X244582000Y-122662000D03*
%TO.P,J5,11,Pin_11*%
%TO.N,PA8*%
X242042000Y-120122000D03*
%TO.P,J5,12,Pin_12*%
%TO.N,+5V*%
X244582000Y-120122000D03*
%TO.P,J5,13,Pin_13*%
%TO.N,PA9*%
X242042000Y-117582000D03*
%TO.P,J5,14,Pin_14*%
%TO.N,GND*%
X244582000Y-117582000D03*
%TO.P,J5,15,Pin_15*%
%TO.N,PA10*%
X242042000Y-115042000D03*
%TO.P,J5,16,Pin_16*%
%TO.N,GND*%
X244582000Y-115042000D03*
%TO.P,J5,17,Pin_17*%
%TO.N,USB_D_N*%
X242042000Y-112502000D03*
%TO.P,J5,18,Pin_18*%
%TO.N,GND*%
X244582000Y-112502000D03*
%TO.P,J5,19,Pin_19*%
%TO.N,USB_D_P*%
X242042000Y-109962000D03*
%TO.P,J5,20,Pin_20*%
%TO.N,GND*%
X244582000Y-109962000D03*
%TO.P,J5,21,Pin_21*%
%TO.N,PA13*%
X242042000Y-107422000D03*
%TO.P,J5,22,Pin_22*%
%TO.N,GND*%
X244582000Y-107422000D03*
%TO.P,J5,23,Pin_23*%
%TO.N,PA14*%
X242042000Y-104882000D03*
%TO.P,J5,24,Pin_24*%
%TO.N,GND*%
X244582000Y-104882000D03*
%TD*%
D33*
%TO.N,GND*%
X109542384Y-142409332D03*
X117572688Y-141435666D03*
X114895920Y-143383000D03*
X108204000Y-142409332D03*
X114895920Y-141435666D03*
X113557536Y-143383000D03*
X124264608Y-142409332D03*
X108204000Y-140462000D03*
X110880768Y-140462000D03*
X264795000Y-92710000D03*
X109542384Y-140462000D03*
X211709000Y-113157000D03*
X113557536Y-141435666D03*
X116234304Y-142409332D03*
X224313980Y-127141312D03*
X120249456Y-141435666D03*
X110880768Y-142409332D03*
X109542384Y-141435666D03*
X122926224Y-141435666D03*
X124264608Y-143383000D03*
X247142000Y-161163000D03*
X108204000Y-143383000D03*
X204597000Y-199136000D03*
X116234304Y-141435666D03*
X190373000Y-199136000D03*
X120249456Y-143383000D03*
X218821000Y-199136000D03*
X233172000Y-199136000D03*
X208788000Y-120904000D03*
X204343000Y-161163000D03*
X232791000Y-161163000D03*
X125603000Y-141435666D03*
X116234304Y-143383000D03*
X108204000Y-141435666D03*
X117572688Y-142409332D03*
X120249456Y-140462000D03*
X110880768Y-143383000D03*
X255143000Y-139573000D03*
X206375000Y-113919000D03*
X114895920Y-142409332D03*
X117572688Y-140462000D03*
X118911072Y-140462000D03*
X112219152Y-143383000D03*
X113557536Y-142409332D03*
X190246000Y-161163000D03*
X122926224Y-142409332D03*
X259969000Y-153035000D03*
X118911072Y-143383000D03*
X125603000Y-142409332D03*
X272034000Y-79629000D03*
X220345000Y-107823000D03*
X272161000Y-86868000D03*
X118911072Y-142409332D03*
X122926224Y-143383000D03*
X117572688Y-143383000D03*
X161671000Y-90170000D03*
X121587840Y-143383000D03*
X121587840Y-142409332D03*
X114895920Y-140462000D03*
X222504000Y-128143000D03*
X150622000Y-112395000D03*
X150622000Y-124968000D03*
X125603000Y-143383000D03*
X124264608Y-141435666D03*
X118911072Y-141435666D03*
X120249456Y-142409332D03*
X283464000Y-98171000D03*
X206883000Y-122428000D03*
X273685000Y-99568000D03*
X122926224Y-140462000D03*
X121587840Y-141435666D03*
X226949000Y-116332000D03*
X113557536Y-140462000D03*
X116234304Y-140462000D03*
X112219152Y-140462000D03*
X218694000Y-161163000D03*
X224917000Y-131572000D03*
X112219152Y-142409332D03*
X125603000Y-140462000D03*
X125476000Y-100456999D03*
X283972000Y-92964000D03*
X109542384Y-143383000D03*
X247523000Y-199136000D03*
X268605000Y-99568000D03*
X268605000Y-100584000D03*
X124264608Y-140462000D03*
X162052000Y-101092000D03*
X214884000Y-110490000D03*
X121587840Y-140462000D03*
X110880768Y-141435666D03*
X273685000Y-100584000D03*
X213995000Y-127254000D03*
X125476000Y-84939500D03*
X112219152Y-141435666D03*
%TO.N,+3V3*%
X157734000Y-96012000D03*
X149415500Y-152908000D03*
X157353000Y-85090000D03*
X213487000Y-110490000D03*
X150653750Y-151638000D03*
X146939000Y-151638000D03*
X216154000Y-131572000D03*
X151892000Y-152908000D03*
X148177250Y-152908000D03*
X216789000Y-127762000D03*
X212598000Y-114808000D03*
X208788000Y-122809000D03*
X150653750Y-152908000D03*
X224282000Y-125730000D03*
X266065000Y-89535000D03*
X151892000Y-151638000D03*
X148209000Y-151638000D03*
X226060000Y-114427000D03*
X213614000Y-107823000D03*
X146939000Y-152908000D03*
X189051000Y-99949000D03*
%TO.N,NRST*%
X214757000Y-118237000D03*
X203073000Y-110109000D03*
X230124000Y-103632000D03*
%TO.N,+5V*%
X130302000Y-140843000D03*
X131572000Y-143002000D03*
X131572000Y-141922500D03*
X130302000Y-143002000D03*
X129032000Y-143002000D03*
X131572000Y-140843000D03*
X129032000Y-141922500D03*
X130302000Y-141922500D03*
X129032000Y-140843000D03*
%TO.N,/DRIVER & CONNECTOR/ADC1_IN12*%
X198323200Y-121005600D03*
X214884000Y-120650000D03*
%TO.N,/DRIVER & CONNECTOR/ADC1_IN13*%
X206883000Y-126350000D03*
X214757000Y-121793000D03*
%TO.N,/DRIVER & CONNECTOR/DAC1_OUT*%
X215138000Y-123952000D03*
X211328000Y-128905000D03*
X235331000Y-137668000D03*
%TO.N,/STM32/PA1*%
X214249000Y-122682000D03*
X204724000Y-128270000D03*
%TO.N,PA6*%
X217805000Y-123698000D03*
X212217000Y-132461000D03*
%TO.N,/STM32/PC5*%
X218313000Y-129667000D03*
X215940000Y-136271000D03*
%TO.N,/STM32/PB1*%
X219710000Y-123698000D03*
X220091000Y-137922000D03*
%TO.N,PB10*%
X220726000Y-124079000D03*
X221119700Y-130060700D03*
%TO.N,/STM32/PB13*%
X222755218Y-122855986D03*
X237236000Y-99187000D03*
%TO.N,/STM32/PB12*%
X221488000Y-123063000D03*
X235712000Y-99187000D03*
%TO.N,/STM32/PC6*%
X234061000Y-131572000D03*
X257302000Y-191135000D03*
%TO.N,/STM32/PC8*%
X261239000Y-191135000D03*
X234061000Y-126746000D03*
%TO.N,/STM32/PC7*%
X259334000Y-191135000D03*
X234061000Y-129032000D03*
%TO.N,/STM32/PB15*%
X235331000Y-135255000D03*
X255397000Y-191135000D03*
%TO.N,/STM32/PC9*%
X263271000Y-191135000D03*
%TO.N,PB7*%
X216789000Y-115824000D03*
X210820000Y-106934000D03*
%TO.N,/STM32/PB9*%
X212979000Y-75565000D03*
X207975200Y-86360000D03*
%TO.N,/DRIVER & CONNECTOR/SPI1_MISO*%
X218440000Y-110363000D03*
X217932000Y-99568000D03*
%TO.N,/STM32/PB8*%
X211200999Y-76708000D03*
X209702400Y-86360000D03*
%TO.N,/DRIVER & CONNECTOR/SPI1_CS*%
X205867000Y-84963000D03*
X212090000Y-107442000D03*
X203327000Y-79756000D03*
X218059000Y-116078000D03*
%TO.N,/DRIVER & CONNECTOR/SPI1_SCK*%
X219344000Y-109601000D03*
X220980000Y-99568000D03*
%TO.N,/DRIVER & CONNECTOR/SPI1_MOSI*%
X189103000Y-83693000D03*
X186436000Y-81026000D03*
X217551000Y-108966000D03*
X215519000Y-99568000D03*
%TO.N,CAN1_P*%
X213741000Y-78486000D03*
X273050000Y-138018000D03*
%TO.N,CAN1_N*%
X212344000Y-79883000D03*
X273050000Y-140788000D03*
%TO.N,MAIN_THROTTLE*%
X273050000Y-144943000D03*
%TO.N,/DRIVER & CONNECTOR/BRAKE2_IN*%
X214630000Y-119634000D03*
X207264000Y-124079000D03*
%TO.N,/DRIVER & CONNECTOR/BRAKE1_IN*%
X210439000Y-119634000D03*
X202692000Y-111252000D03*
%TO.N,/DRIVER & CONNECTOR/DAC2_OUT*%
X236728000Y-141986000D03*
X216662000Y-123317000D03*
X212394800Y-129489200D03*
%TD*%
D34*
%TO.N,NRST*%
X217805000Y-118237000D02*
X214757000Y-118237000D01*
X201676000Y-99441000D02*
X200370000Y-98135000D01*
X203073000Y-110109000D02*
X201676000Y-108712000D01*
X211582000Y-118237000D02*
X214757000Y-118237000D01*
X210693000Y-114046000D02*
X210693000Y-117348000D01*
X223266000Y-112776000D02*
X217805000Y-118237000D01*
X223266000Y-107315000D02*
X223266000Y-112776000D01*
X200370000Y-98135000D02*
X198576000Y-98135000D01*
X206756000Y-110109000D02*
X210693000Y-114046000D01*
X201676000Y-108712000D02*
X201676000Y-99441000D01*
X230124000Y-103632000D02*
X226949000Y-103632000D01*
X226949000Y-103632000D02*
X223266000Y-107315000D01*
X210693000Y-117348000D02*
X211582000Y-118237000D01*
X203073000Y-110109000D02*
X206756000Y-110109000D01*
%TO.N,/DRIVER & CONNECTOR/ADC1_IN12*%
X206756000Y-124968000D02*
X209169000Y-124968000D01*
X213487000Y-120650000D02*
X214884000Y-120650000D01*
X209169000Y-124968000D02*
X213487000Y-120650000D01*
X200025000Y-125857000D02*
X205867000Y-125857000D01*
X199136000Y-124968000D02*
X200025000Y-125857000D01*
X199136000Y-121818400D02*
X199136000Y-124968000D01*
X205867000Y-125857000D02*
X206756000Y-124968000D01*
X198323200Y-121005600D02*
X199136000Y-121818400D01*
%TO.N,/DRIVER & CONNECTOR/ADC1_IN13*%
X208803000Y-126350000D02*
X206883000Y-126350000D01*
X213360000Y-121793000D02*
X208803000Y-126350000D01*
X214757000Y-121793000D02*
X213360000Y-121793000D01*
D35*
%TO.N,+12V*%
X176657000Y-209931000D02*
X178816000Y-212090000D01*
X211455000Y-173736000D02*
X199136000Y-173736000D01*
X146558000Y-133858000D02*
X145176000Y-132476000D01*
X212392500Y-172798500D02*
X211455000Y-173736000D01*
X241935000Y-173863000D02*
X240997500Y-172925500D01*
X176657000Y-206248000D02*
X176657000Y-209931000D01*
X145176000Y-132476000D02*
X141359000Y-132476000D01*
X199390000Y-211963000D02*
X211201000Y-211963000D01*
X240997500Y-172925500D02*
X240967500Y-172925500D01*
X212422500Y-210771500D02*
X213487000Y-211836000D01*
X240997500Y-210614500D02*
X240997500Y-208272000D01*
X240967500Y-172925500D02*
X240030000Y-173863000D01*
X157007000Y-137668000D02*
X158958000Y-139619000D01*
X225425000Y-211836000D02*
X226710000Y-210551000D01*
X198135000Y-210708000D02*
X199390000Y-211963000D01*
X199136000Y-173736000D02*
X198135000Y-172735000D01*
X240997500Y-210644500D02*
X242062000Y-211709000D01*
X226710000Y-172608000D02*
X226710000Y-170426000D01*
X146558000Y-136398000D02*
X146558000Y-133858000D01*
X139573000Y-132461000D02*
X141344000Y-132461000D01*
X226710000Y-210551000D02*
X226710000Y-208272000D01*
X178816000Y-212090000D02*
X196723000Y-212090000D01*
X212422500Y-172798500D02*
X212392500Y-172798500D01*
X213360000Y-173736000D02*
X212422500Y-172798500D01*
X156718000Y-137668000D02*
X147828000Y-137668000D01*
X226710000Y-172608000D02*
X225582000Y-173736000D01*
X198135000Y-174737000D02*
X198135000Y-208272000D01*
X255285000Y-172705000D02*
X254127000Y-173863000D01*
X139685000Y-120030000D02*
X138684000Y-121031000D01*
X158958000Y-139619000D02*
X158958000Y-164465000D01*
X240997500Y-210614500D02*
X240997500Y-210644500D01*
X254381000Y-211709000D02*
X255285000Y-210805000D01*
X225582000Y-173736000D02*
X213360000Y-173736000D01*
X147828000Y-137668000D02*
X146558000Y-136398000D01*
X138684000Y-131572000D02*
X139573000Y-132461000D01*
X254127000Y-173863000D02*
X241935000Y-173863000D01*
X138684000Y-121031000D02*
X138684000Y-131572000D01*
X141338000Y-120030000D02*
X139685000Y-120030000D01*
X196723000Y-212090000D02*
X198135000Y-210678000D01*
X255285000Y-170426000D02*
X255285000Y-172705000D01*
X227965000Y-173863000D02*
X226710000Y-172608000D01*
X173989000Y-203580000D02*
X176657000Y-206248000D01*
X212422500Y-172798500D02*
X212422500Y-170426000D01*
X143764000Y-203580000D02*
X173989000Y-203580000D01*
X255285000Y-210805000D02*
X255285000Y-208271574D01*
X226773500Y-210771500D02*
X227838000Y-211836000D01*
X198135000Y-210678000D02*
X198135000Y-208272000D01*
X156718000Y-137668000D02*
X157007000Y-137668000D01*
X198135000Y-172735000D02*
X198135000Y-170426000D01*
X240030000Y-173863000D02*
X227965000Y-173863000D01*
X240997500Y-172925500D02*
X240997500Y-170426000D01*
X242062000Y-211709000D02*
X254381000Y-211709000D01*
X212422500Y-210741500D02*
X212422500Y-208272000D01*
X213487000Y-211836000D02*
X225425000Y-211836000D01*
X239776000Y-211836000D02*
X240997500Y-210614500D01*
X227838000Y-211836000D02*
X239776000Y-211836000D01*
X211201000Y-211963000D02*
X212422500Y-210741500D01*
X199136000Y-173736000D02*
X198135000Y-174737000D01*
X212422500Y-210741500D02*
X212422500Y-210771500D01*
X198135000Y-210678000D02*
X198135000Y-210708000D01*
D36*
X141344000Y-132461000D02*
X141359000Y-132476000D01*
D34*
%TO.N,/DRIVER & CONNECTOR/DAC1_OUT*%
X203088000Y-134127000D02*
X195961000Y-134127000D01*
X234061000Y-138938000D02*
X207899000Y-138938000D01*
X214376000Y-123952000D02*
X215138000Y-123952000D01*
X211328000Y-128905000D02*
X211328000Y-127000000D01*
X211328000Y-127000000D02*
X214376000Y-123952000D01*
X235331000Y-137668000D02*
X234061000Y-138938000D01*
X207899000Y-138938000D02*
X203088000Y-134127000D01*
%TO.N,/STM32/PA1*%
X208661000Y-128270000D02*
X214249000Y-122682000D01*
X204724000Y-128270000D02*
X208661000Y-128270000D01*
%TO.N,PA6*%
X217805000Y-123698000D02*
X217170000Y-124333000D01*
X212217000Y-131089400D02*
X212217000Y-132461000D01*
X217170000Y-126136400D02*
X212217000Y-131089400D01*
X217170000Y-124333000D02*
X217170000Y-126136400D01*
%TO.N,/STM32/PC5*%
X217170000Y-130810000D02*
X217170000Y-132080000D01*
X215940000Y-133310000D02*
X215940000Y-136271000D01*
X217170000Y-132080000D02*
X215940000Y-133310000D01*
X218313000Y-129667000D02*
X217170000Y-130810000D01*
%TO.N,/STM32/PB1*%
X219249500Y-137080500D02*
X219249500Y-124158500D01*
X220091000Y-137922000D02*
X219249500Y-137080500D01*
X219249500Y-124158500D02*
X219710000Y-123698000D01*
%TO.N,PB10*%
X220457000Y-129398000D02*
X220457000Y-124348000D01*
X221119700Y-130060700D02*
X220457000Y-129398000D01*
X220457000Y-124348000D02*
X220726000Y-124079000D01*
%TO.N,/STM32/PB13*%
X237236000Y-99187000D02*
X237236000Y-110490000D01*
X224409000Y-123317000D02*
X223216232Y-123317000D01*
X223216232Y-123317000D02*
X222755218Y-122855986D01*
X237236000Y-110490000D02*
X224409000Y-123317000D01*
%TO.N,/STM32/PB12*%
X235712000Y-109093000D02*
X235712000Y-110363000D01*
X235712000Y-110363000D02*
X226314000Y-119761000D01*
X235712000Y-99187000D02*
X235712000Y-109093000D01*
X223012000Y-119761000D02*
X221488000Y-121285000D01*
X221488000Y-121285000D02*
X221488000Y-123063000D01*
X226314000Y-119761000D02*
X223012000Y-119761000D01*
%TO.N,/STM32/PC6*%
X234061000Y-131572000D02*
X240157000Y-137668000D01*
X240157000Y-137668000D02*
X240157000Y-151130000D01*
X240157000Y-151130000D02*
X245872000Y-156845000D01*
X245872000Y-156845000D02*
X257429000Y-156845000D01*
X257429000Y-156845000D02*
X260223000Y-159639000D01*
X260223000Y-188214000D02*
X257302000Y-191135000D01*
X260223000Y-159639000D02*
X260223000Y-188214000D01*
%TO.N,/STM32/PC8*%
X234061000Y-126746000D02*
X236982000Y-126746000D01*
X260096000Y-155067000D02*
X263144000Y-158115000D01*
X263144000Y-158115000D02*
X263144000Y-189230000D01*
X236982000Y-126746000D02*
X238760000Y-128524000D01*
X247142000Y-155067000D02*
X260096000Y-155067000D01*
X238760000Y-132461000D02*
X242189000Y-135890000D01*
X242189000Y-150114000D02*
X247142000Y-155067000D01*
X263144000Y-189230000D02*
X261239000Y-191135000D01*
X242189000Y-135890000D02*
X242189000Y-150114000D01*
X238760000Y-128524000D02*
X238760000Y-132461000D01*
%TO.N,/STM32/PC7*%
X241173000Y-150495000D02*
X246634000Y-155956000D01*
X236982000Y-130429000D02*
X236982000Y-132588000D01*
X236982000Y-132588000D02*
X241173000Y-136779000D01*
X261620000Y-158750000D02*
X261620000Y-188849000D01*
X258826000Y-155956000D02*
X261620000Y-158750000D01*
X234061000Y-129032000D02*
X235585000Y-129032000D01*
X261620000Y-188849000D02*
X259334000Y-191135000D01*
X246634000Y-155956000D02*
X258826000Y-155956000D01*
X241173000Y-136779000D02*
X241173000Y-150495000D01*
X235585000Y-129032000D02*
X236982000Y-130429000D01*
%TO.N,/STM32/PB15*%
X239014000Y-151892000D02*
X244983000Y-157861000D01*
X239014000Y-138938000D02*
X239014000Y-151892000D01*
X256159000Y-157861000D02*
X258826000Y-160528000D01*
X244983000Y-157861000D02*
X256159000Y-157861000D01*
X258826000Y-187706000D02*
X255397000Y-191135000D01*
X235331000Y-135255000D02*
X239014000Y-138938000D01*
X258826000Y-160528000D02*
X258826000Y-187706000D01*
%TO.N,/STM32/PC9*%
X243242000Y-123862000D02*
X242042000Y-122662000D01*
X263271000Y-191135000D02*
X264414000Y-189992000D01*
X247523000Y-153924000D02*
X243242000Y-149643000D01*
X264414000Y-157480000D02*
X260858000Y-153924000D01*
X260858000Y-153924000D02*
X247523000Y-153924000D01*
X264414000Y-189992000D02*
X264414000Y-157480000D01*
X243242000Y-149643000D02*
X243242000Y-123862000D01*
%TO.N,PB7*%
X216027000Y-115570000D02*
X216027000Y-110490000D01*
X216281000Y-115824000D02*
X216027000Y-115570000D01*
X212344000Y-109347000D02*
X210820000Y-107823000D01*
X214884000Y-109347000D02*
X212344000Y-109347000D01*
X216789000Y-115824000D02*
X216281000Y-115824000D01*
X210820000Y-107823000D02*
X210820000Y-106934000D01*
X216027000Y-110490000D02*
X214884000Y-109347000D01*
%TO.N,/STM32/PB9*%
X209804000Y-75565000D02*
X212979000Y-75565000D01*
X207975200Y-86360000D02*
X207975200Y-77393800D01*
X207975200Y-77393800D02*
X209804000Y-75565000D01*
%TO.N,/DRIVER & CONNECTOR/SPI1_MISO*%
X217932000Y-106553000D02*
X217932000Y-99568000D01*
X218440000Y-110363000D02*
X218440000Y-107061000D01*
X218440000Y-107061000D02*
X217932000Y-106553000D01*
%TO.N,/STM32/PB8*%
X209702400Y-78206599D02*
X211200999Y-76708000D01*
X209702400Y-86360000D02*
X209702400Y-78206599D01*
%TO.N,/DRIVER & CONNECTOR/SPI1_CS*%
X212090000Y-107569000D02*
X212090000Y-107442000D01*
X205079600Y-84175600D02*
X205867000Y-84963000D01*
X218059000Y-116078000D02*
X217678000Y-115697000D01*
X217043000Y-112014000D02*
X217043000Y-109982000D01*
X217678000Y-112649000D02*
X217043000Y-112014000D01*
X217678000Y-115697000D02*
X217678000Y-112649000D01*
X215773000Y-108712000D02*
X213233000Y-108712000D01*
X203327000Y-79756000D02*
X203454000Y-79756000D01*
X205079600Y-81381600D02*
X205079600Y-84175600D01*
X203454000Y-79756000D02*
X205079600Y-81381600D01*
X213233000Y-108712000D02*
X212090000Y-107569000D01*
X217043000Y-109982000D02*
X215773000Y-108712000D01*
%TO.N,/DRIVER & CONNECTOR/SPI1_SCK*%
X220980000Y-105664000D02*
X219344000Y-107300000D01*
X219344000Y-107300000D02*
X219344000Y-109601000D01*
X220980000Y-99568000D02*
X220980000Y-105664000D01*
%TO.N,/DRIVER & CONNECTOR/SPI1_MOSI*%
X217551000Y-108458000D02*
X215392000Y-106299000D01*
X189103000Y-83693000D02*
X186436000Y-81026000D01*
X215392000Y-106299000D02*
X215392000Y-99695000D01*
X217551000Y-108966000D02*
X217551000Y-108458000D01*
X215392000Y-99695000D02*
X215519000Y-99568000D01*
D36*
%TO.N,CAN1_P*%
X258572000Y-92329000D02*
X257175000Y-90932000D01*
X264287000Y-132842000D02*
X264287000Y-127762000D01*
X257175000Y-90932000D02*
X240792000Y-90932000D01*
X240792000Y-90932000D02*
X237998000Y-88138000D01*
X237998000Y-88138000D02*
X237998000Y-81280000D01*
X273050000Y-138018000D02*
X269463000Y-138018000D01*
X235204000Y-78486000D02*
X213741000Y-78486000D01*
X237998000Y-81280000D02*
X235204000Y-78486000D01*
X258572000Y-122047000D02*
X258572000Y-92329000D01*
X269463000Y-138018000D02*
X264287000Y-132842000D01*
X264287000Y-127762000D02*
X258572000Y-122047000D01*
%TO.N,CAN1_N*%
X273050000Y-140788000D02*
X269185000Y-140788000D01*
X269185000Y-140788000D02*
X262509000Y-134112000D01*
X239331500Y-92456000D02*
X236220000Y-89344500D01*
X255905000Y-92456000D02*
X239331500Y-92456000D01*
X236220000Y-82677000D02*
X233426000Y-79883000D01*
X233426000Y-79883000D02*
X212344000Y-79883000D01*
X236220000Y-89344500D02*
X236220000Y-82677000D01*
X262509000Y-128524000D02*
X257048000Y-123063000D01*
X262509000Y-134112000D02*
X262509000Y-128524000D01*
X257048000Y-93599000D02*
X255905000Y-92456000D01*
X257048000Y-123063000D02*
X257048000Y-93599000D01*
%TO.N,MAIN_THROTTLE*%
X271435000Y-144943000D02*
X268771000Y-142279000D01*
X268771000Y-142279000D02*
X264922000Y-142279000D01*
X273050000Y-144943000D02*
X271435000Y-144943000D01*
%TO.N,CAN2_N*%
X274574000Y-118237000D02*
X274574000Y-179395669D01*
X245105000Y-71553500D02*
X245105000Y-86228000D01*
X261493000Y-110998000D02*
X265176000Y-114681000D01*
X261493000Y-90932000D02*
X261493000Y-110998000D01*
X265176000Y-114681000D02*
X271018000Y-114681000D01*
X274574000Y-179395669D02*
X278480331Y-183302000D01*
X247142000Y-88265000D02*
X258826000Y-88265000D01*
X271018000Y-114681000D02*
X274574000Y-118237000D01*
X245105000Y-86228000D02*
X247142000Y-88265000D01*
X258826000Y-88265000D02*
X261493000Y-90932000D01*
%TO.N,PUMP_THROTTLE*%
X270967200Y-148640800D02*
X270967200Y-184861200D01*
X273563000Y-187457000D02*
X281320331Y-187457000D01*
X270967200Y-184861200D02*
X273563000Y-187457000D01*
X264922000Y-146431000D02*
X268757400Y-146431000D01*
X268757400Y-146431000D02*
X270967200Y-148640800D01*
%TO.N,CAN2_P*%
X275971000Y-178022669D02*
X275971000Y-117348000D01*
X275971000Y-117348000D02*
X271780000Y-113157000D01*
X263271000Y-89281000D02*
X259842000Y-85852000D01*
X259842000Y-85852000D02*
X249555000Y-85852000D01*
X278480331Y-180532000D02*
X275971000Y-178022669D01*
X263271000Y-110363000D02*
X263271000Y-89281000D01*
X266065000Y-113157000D02*
X263271000Y-110363000D01*
X249555000Y-85852000D02*
X247645000Y-83942000D01*
X271780000Y-113157000D02*
X266065000Y-113157000D01*
X247645000Y-83942000D02*
X247645000Y-71553500D01*
D34*
%TO.N,/DRIVER & CONNECTOR/BRAKE2_IN*%
X214630000Y-119634000D02*
X214249000Y-120015000D01*
X214249000Y-120015000D02*
X211836000Y-120015000D01*
X210312000Y-122809000D02*
X209042000Y-124079000D01*
X209042000Y-124079000D02*
X207264000Y-124079000D01*
X210312000Y-121539000D02*
X210312000Y-122809000D01*
X211836000Y-120015000D02*
X210312000Y-121539000D01*
%TO.N,/DRIVER & CONNECTOR/BRAKE1_IN*%
X209804000Y-118999000D02*
X210439000Y-119634000D01*
X207264000Y-113411000D02*
X208915000Y-113411000D01*
X209804000Y-114300000D02*
X209804000Y-118999000D01*
X208915000Y-113411000D02*
X209804000Y-114300000D01*
X205105000Y-111252000D02*
X207264000Y-113411000D01*
X202692000Y-111252000D02*
X205105000Y-111252000D01*
%TO.N,/DRIVER & CONNECTOR/DAC2_OUT*%
X215773000Y-125984000D02*
X216662000Y-125095000D01*
X216662000Y-125095000D02*
X216662000Y-123317000D01*
X212394800Y-129489200D02*
X212394800Y-127584200D01*
X207050000Y-141986000D02*
X205780000Y-140716000D01*
X236728000Y-141986000D02*
X207050000Y-141986000D01*
X212394800Y-127584200D02*
X213995000Y-125984000D01*
X213995000Y-125984000D02*
X215773000Y-125984000D01*
%TD*%
M02*
