%TF.GenerationSoftware,KiCad,Pcbnew,8.0.7*%
%TF.CreationDate,2025-04-17T15:34:13+07:00*%
%TF.ProjectId,Tractor VCU,54726163-746f-4722-9056-43552e6b6963,rev?*%
%TF.SameCoordinates,Original*%
%TF.FileFunction,Other,Comment*%
%FSLAX46Y46*%
G04 Gerber Fmt 4.6, Leading zero omitted, Abs format (unit mm)*
G04 Created by KiCad (PCBNEW 8.0.7) date 2025-04-17 15:34:13*
%MOMM*%
%LPD*%
G01*
G04 APERTURE LIST*
%ADD10C,0.150000*%
G04 APERTURE END LIST*
D10*
%TO.C,H6*%
X115050000Y-233590000D02*
G75*
G02*
X108650000Y-233590000I-3200000J0D01*
G01*
X108650000Y-233590000D02*
G75*
G02*
X115050000Y-233590000I3200000J0D01*
G01*
%TO.C,H5*%
X115050000Y-63590000D02*
G75*
G02*
X108650000Y-63590000I-3200000J0D01*
G01*
X108650000Y-63590000D02*
G75*
G02*
X115050000Y-63590000I3200000J0D01*
G01*
%TO.C,MP2*%
X163258000Y-164465000D02*
G75*
G02*
X154658000Y-164465000I-4300000J0D01*
G01*
X154658000Y-164465000D02*
G75*
G02*
X163258000Y-164465000I4300000J0D01*
G01*
%TO.C,H1*%
X121217999Y-187325000D02*
G75*
G02*
X114817999Y-187325000I-3200000J0D01*
G01*
X114817999Y-187325000D02*
G75*
G02*
X121217999Y-187325000I3200000J0D01*
G01*
%TO.C,MP3*%
X132778000Y-164465000D02*
G75*
G02*
X124178000Y-164465000I-4300000J0D01*
G01*
X124178000Y-164465000D02*
G75*
G02*
X132778000Y-164465000I4300000J0D01*
G01*
%TO.C,MP4*%
X121348000Y-164465000D02*
G75*
G02*
X112748000Y-164465000I-4300000J0D01*
G01*
X112748000Y-164465000D02*
G75*
G02*
X121348000Y-164465000I4300000J0D01*
G01*
%TO.C,MP1*%
X174688000Y-164464998D02*
G75*
G02*
X166088000Y-164464998I-4300000J0D01*
G01*
X166088000Y-164464998D02*
G75*
G02*
X174688000Y-164464998I4300000J0D01*
G01*
%TO.C,H2*%
X172618000Y-187325000D02*
G75*
G02*
X166218000Y-187325000I-3200000J0D01*
G01*
X166218000Y-187325000D02*
G75*
G02*
X172618000Y-187325000I3200000J0D01*
G01*
%TO.C,H3*%
X285050000Y-233590000D02*
G75*
G02*
X278650000Y-233590000I-3200000J0D01*
G01*
X278650000Y-233590000D02*
G75*
G02*
X285050000Y-233590000I3200000J0D01*
G01*
%TO.C,H4*%
X285050000Y-63590000D02*
G75*
G02*
X278650000Y-63590000I-3200000J0D01*
G01*
X278650000Y-63590000D02*
G75*
G02*
X285050000Y-63590000I3200000J0D01*
G01*
%TD*%
M02*
