%TF.GenerationSoftware,KiCad,Pcbnew,8.0.7*%
%TF.CreationDate,2025-04-19T18:33:49+07:00*%
%TF.ProjectId,Tractor VCU,54726163-746f-4722-9056-43552e6b6963,rev?*%
%TF.SameCoordinates,Original*%
%TF.FileFunction,Plated,1,4,PTH,Drill*%
%TF.FilePolarity,Positive*%
%FSLAX46Y46*%
G04 Gerber Fmt 4.6, Leading zero omitted, Abs format (unit mm)*
G04 Created by KiCad (PCBNEW 8.0.7) date 2025-04-19 18:33:49*
%MOMM*%
%LPD*%
G01*
G04 APERTURE LIST*
%TA.AperFunction,ViaDrill*%
%ADD10C,0.400000*%
%TD*%
%TA.AperFunction,ComponentDrill*%
%ADD11C,0.500000*%
%TD*%
%TA.AperFunction,ComponentDrill*%
%ADD12C,0.800000*%
%TD*%
%TA.AperFunction,ComponentDrill*%
%ADD13C,1.000000*%
%TD*%
%TA.AperFunction,ComponentDrill*%
%ADD14C,1.090000*%
%TD*%
%TA.AperFunction,ComponentDrill*%
%ADD15C,1.100000*%
%TD*%
%TA.AperFunction,ComponentDrill*%
%ADD16C,1.200000*%
%TD*%
%TA.AperFunction,ComponentDrill*%
%ADD17C,1.300000*%
%TD*%
%TA.AperFunction,ComponentDrill*%
%ADD18C,1.900000*%
%TD*%
%TA.AperFunction,ComponentDrill*%
%ADD19C,2.200000*%
%TD*%
%TA.AperFunction,ComponentDrill*%
%ADD20C,3.200000*%
%TD*%
%TA.AperFunction,ComponentDrill*%
%ADD21C,4.300000*%
%TD*%
G04 APERTURE END LIST*
D10*
X108204000Y-140462000D03*
X108204000Y-141435666D03*
X108204000Y-142409332D03*
X108204000Y-143383000D03*
X109542384Y-140462000D03*
X109542384Y-141435666D03*
X109542384Y-142409332D03*
X109542384Y-143383000D03*
X110880768Y-140462000D03*
X110880768Y-141435666D03*
X110880768Y-142409332D03*
X110880768Y-143383000D03*
X112219152Y-140462000D03*
X112219152Y-141435666D03*
X112219152Y-142409332D03*
X112219152Y-143383000D03*
X113557536Y-140462000D03*
X113557536Y-141435666D03*
X113557536Y-142409332D03*
X113557536Y-143383000D03*
X114895920Y-140462000D03*
X114895920Y-141435666D03*
X114895920Y-142409332D03*
X114895920Y-143383000D03*
X116234304Y-140462000D03*
X116234304Y-141435666D03*
X116234304Y-142409332D03*
X116234304Y-143383000D03*
X117572688Y-140462000D03*
X117572688Y-141435666D03*
X117572688Y-142409332D03*
X117572688Y-143383000D03*
X118911072Y-140462000D03*
X118911072Y-141435666D03*
X118911072Y-142409332D03*
X118911072Y-143383000D03*
X120249456Y-140462000D03*
X120249456Y-141435666D03*
X120249456Y-142409332D03*
X120249456Y-143383000D03*
X121587840Y-140462000D03*
X121587840Y-141435666D03*
X121587840Y-142409332D03*
X121587840Y-143383000D03*
X122926224Y-140462000D03*
X122926224Y-141435666D03*
X122926224Y-142409332D03*
X122926224Y-143383000D03*
X124264608Y-140462000D03*
X124264608Y-141435666D03*
X124264608Y-142409332D03*
X124264608Y-143383000D03*
X125476000Y-84939500D03*
X125476000Y-100456999D03*
X125603000Y-140462000D03*
X125603000Y-141435666D03*
X125603000Y-142409332D03*
X125603000Y-143383000D03*
X129032000Y-140843000D03*
X129032000Y-141922500D03*
X129032000Y-143002000D03*
X130302000Y-140843000D03*
X130302000Y-141922500D03*
X130302000Y-143002000D03*
X131572000Y-140843000D03*
X131572000Y-141922500D03*
X131572000Y-143002000D03*
X146939000Y-151638000D03*
X146939000Y-152908000D03*
X148177250Y-152908000D03*
X148209000Y-151638000D03*
X149415500Y-152908000D03*
X150622000Y-112395000D03*
X150622000Y-124968000D03*
X150653750Y-151638000D03*
X150653750Y-152908000D03*
X151892000Y-151638000D03*
X151892000Y-152908000D03*
X157353000Y-85090000D03*
X157734000Y-96012000D03*
X161671000Y-90170000D03*
X162052000Y-101092000D03*
X186436000Y-81026000D03*
X189051000Y-99949000D03*
X189103000Y-83693000D03*
X190246000Y-161163000D03*
X190373000Y-199136000D03*
X198323200Y-121005600D03*
X202692000Y-111252000D03*
X203073000Y-110109000D03*
X203327000Y-79756000D03*
X204343000Y-161163000D03*
X204597000Y-199136000D03*
X204724000Y-128270000D03*
X205867000Y-84963000D03*
X206375000Y-113919000D03*
X206883000Y-122428000D03*
X206883000Y-126350000D03*
X207264000Y-124079000D03*
X207975200Y-86360000D03*
X208788000Y-120904000D03*
X208788000Y-122809000D03*
X209702400Y-86360000D03*
X210439000Y-119634000D03*
X210820000Y-106934000D03*
X211200999Y-76708000D03*
X211328000Y-128905000D03*
X211709000Y-113157000D03*
X212090000Y-107442000D03*
X212217000Y-132461000D03*
X212344000Y-79883000D03*
X212394800Y-129489200D03*
X212598000Y-114808000D03*
X212979000Y-75565000D03*
X213487000Y-110490000D03*
X213614000Y-107823000D03*
X213741000Y-78486000D03*
X213995000Y-127254000D03*
X214249000Y-122682000D03*
X214630000Y-119634000D03*
X214757000Y-118237000D03*
X214757000Y-121793000D03*
X214884000Y-110490000D03*
X214884000Y-120650000D03*
X215138000Y-123952000D03*
X215519000Y-99568000D03*
X215940000Y-136271000D03*
X216154000Y-131572000D03*
X216662000Y-123317000D03*
X216789000Y-115824000D03*
X216789000Y-127762000D03*
X217551000Y-108966000D03*
X217805000Y-123698000D03*
X217932000Y-99568000D03*
X218059000Y-116078000D03*
X218313000Y-129667000D03*
X218440000Y-110363000D03*
X218694000Y-161163000D03*
X218821000Y-199136000D03*
X219344000Y-109601000D03*
X219710000Y-123698000D03*
X220091000Y-137922000D03*
X220345000Y-107823000D03*
X220726000Y-124079000D03*
X220980000Y-99568000D03*
X221119700Y-130060700D03*
X221488000Y-123063000D03*
X222504000Y-128143000D03*
X222755218Y-122855986D03*
X224282000Y-125730000D03*
X224313980Y-127141312D03*
X224917000Y-131572000D03*
X226060000Y-114427000D03*
X226949000Y-116332000D03*
X230124000Y-103632000D03*
X232791000Y-161163000D03*
X233172000Y-199136000D03*
X234061000Y-126746000D03*
X234061000Y-129032000D03*
X234061000Y-131572000D03*
X235331000Y-135255000D03*
X235331000Y-137668000D03*
X235712000Y-99187000D03*
X236728000Y-141986000D03*
X237236000Y-99187000D03*
X247142000Y-161163000D03*
X247523000Y-199136000D03*
X255143000Y-139573000D03*
X255397000Y-191135000D03*
X257302000Y-191135000D03*
X259334000Y-191135000D03*
X259969000Y-153035000D03*
X261239000Y-191135000D03*
X263271000Y-191135000D03*
X264795000Y-92710000D03*
X266065000Y-89535000D03*
X268605000Y-99568000D03*
X268605000Y-100584000D03*
X272034000Y-79629000D03*
X272161000Y-86868000D03*
X273050000Y-138018000D03*
X273050000Y-140788000D03*
X273050000Y-144943000D03*
X273685000Y-99568000D03*
X273685000Y-100584000D03*
X283464000Y-98171000D03*
X283972000Y-92964000D03*
D11*
%TO.C,H5*%
X109450000Y-63590000D03*
%TO.C,H6*%
X109450000Y-233590000D03*
%TO.C,H5*%
X110152944Y-61892944D03*
X110152944Y-65287056D03*
%TO.C,H6*%
X110152944Y-231892944D03*
X110152944Y-235287056D03*
%TO.C,H5*%
X111850000Y-61190000D03*
X111850000Y-65990000D03*
%TO.C,H6*%
X111850000Y-231190000D03*
X111850000Y-235990000D03*
%TO.C,H5*%
X113547056Y-61892944D03*
X113547056Y-65287056D03*
%TO.C,H6*%
X113547056Y-231892944D03*
X113547056Y-235287056D03*
%TO.C,H5*%
X114250000Y-63590000D03*
%TO.C,H6*%
X114250000Y-233590000D03*
%TO.C,H4*%
X279450000Y-63590000D03*
%TO.C,H3*%
X279450000Y-233590000D03*
%TO.C,H4*%
X280152944Y-61892944D03*
X280152944Y-65287056D03*
%TO.C,H3*%
X280152944Y-231892944D03*
X280152944Y-235287056D03*
%TO.C,H4*%
X281850000Y-61190000D03*
X281850000Y-65990000D03*
%TO.C,H3*%
X281850000Y-231190000D03*
X281850000Y-235990000D03*
%TO.C,H4*%
X283547056Y-61892944D03*
X283547056Y-65287056D03*
%TO.C,H3*%
X283547056Y-231892944D03*
X283547056Y-235287056D03*
%TO.C,H4*%
X284250000Y-63590000D03*
%TO.C,H3*%
X284250000Y-233590000D03*
D12*
%TO.C,Y1*%
X202946000Y-115680000D03*
X202946000Y-120560000D03*
D13*
%TO.C,TP19*%
X123571000Y-92329000D03*
%TO.C,TP15*%
X128631599Y-87573006D03*
%TO.C,TP16*%
X128631599Y-97051499D03*
%TO.C,TP17*%
X165850000Y-91010003D03*
%TO.C,TP18*%
X165850000Y-96520001D03*
%TO.C,TP22*%
X172106041Y-93787210D03*
%TO.C,TP20*%
X175006000Y-65126000D03*
%TO.C,J17*%
X178923000Y-65151000D03*
%TO.C,TP8*%
X180467000Y-75242000D03*
%TO.C,J17*%
X181463000Y-65151000D03*
X184003000Y-65151000D03*
%TO.C,TP7*%
X185166000Y-75242000D03*
%TO.C,J17*%
X186543000Y-65151000D03*
X189083000Y-65151000D03*
%TO.C,TP6*%
X189763628Y-75242000D03*
%TO.C,J17*%
X191623000Y-65151000D03*
%TO.C,J3*%
X193421000Y-103647000D03*
X193421000Y-106187000D03*
X193421000Y-108727000D03*
X193421000Y-111267000D03*
X193421000Y-113807000D03*
X193421000Y-116347000D03*
X193421000Y-118887000D03*
X193421000Y-121427000D03*
X193421000Y-123967000D03*
X193421000Y-126507000D03*
X193421000Y-129047000D03*
X193421000Y-131587000D03*
X193421000Y-134127000D03*
%TO.C,J17*%
X194163000Y-65151000D03*
%TO.C,TP5*%
X194602442Y-75242000D03*
%TO.C,J3*%
X195961000Y-103647000D03*
X195961000Y-106187000D03*
X195961000Y-108727000D03*
X195961000Y-111267000D03*
X195961000Y-113807000D03*
X195961000Y-116347000D03*
X195961000Y-118887000D03*
X195961000Y-121427000D03*
X195961000Y-123967000D03*
X195961000Y-126507000D03*
X195961000Y-129047000D03*
X195961000Y-131587000D03*
X195961000Y-134127000D03*
%TO.C,J6*%
X205740000Y-93980000D03*
X205740000Y-96520000D03*
%TO.C,J4*%
X205780000Y-140716000D03*
X205780000Y-143256000D03*
%TO.C,J13*%
X206121000Y-71553500D03*
%TO.C,J6*%
X208280000Y-93980000D03*
X208280000Y-96520000D03*
%TO.C,J4*%
X208320000Y-140716000D03*
X208320000Y-143256000D03*
%TO.C,J13*%
X208661000Y-71553500D03*
%TO.C,J6*%
X210820000Y-93980000D03*
X210820000Y-96520000D03*
%TO.C,J4*%
X210860000Y-140716000D03*
X210860000Y-143256000D03*
%TO.C,J13*%
X211201000Y-71553500D03*
%TO.C,J6*%
X213360000Y-93980000D03*
X213360000Y-96520000D03*
%TO.C,J4*%
X213400000Y-140716000D03*
X213400000Y-143256000D03*
%TO.C,J13*%
X213741000Y-71553500D03*
%TO.C,JP1*%
X214122000Y-105156000D03*
%TO.C,J6*%
X215900000Y-93980000D03*
X215900000Y-96520000D03*
%TO.C,J4*%
X215940000Y-140716000D03*
X215940000Y-143256000D03*
%TO.C,J13*%
X216281000Y-71553500D03*
%TO.C,JP1*%
X216662000Y-105156000D03*
%TO.C,JP2*%
X217909500Y-134112000D03*
%TO.C,J6*%
X218440000Y-93980000D03*
X218440000Y-96520000D03*
%TO.C,J4*%
X218480000Y-140716000D03*
X218480000Y-143256000D03*
%TO.C,J13*%
X218821000Y-71553500D03*
%TO.C,JP1*%
X219202000Y-105156000D03*
%TO.C,JP2*%
X220449500Y-134112000D03*
%TO.C,J6*%
X220980000Y-93980000D03*
X220980000Y-96520000D03*
%TO.C,J4*%
X221020000Y-140716000D03*
X221020000Y-143256000D03*
%TO.C,JP2*%
X222989500Y-134112000D03*
%TO.C,J6*%
X223520000Y-93980000D03*
X223520000Y-96520000D03*
%TO.C,J4*%
X223560000Y-140716000D03*
X223560000Y-143256000D03*
%TO.C,J6*%
X226060000Y-93980000D03*
X226060000Y-96520000D03*
%TO.C,J4*%
X226100000Y-140716000D03*
X226100000Y-143256000D03*
%TO.C,TP10*%
X226187000Y-72547000D03*
%TO.C,J6*%
X228600000Y-93980000D03*
X228600000Y-96520000D03*
%TO.C,J4*%
X228640000Y-140716000D03*
X228640000Y-143256000D03*
%TO.C,TP9*%
X229870000Y-72547000D03*
%TO.C,J6*%
X231140000Y-93980000D03*
X231140000Y-96520000D03*
%TO.C,J4*%
X231180000Y-140716000D03*
X231180000Y-143256000D03*
%TO.C,TP4*%
X233172000Y-120650000D03*
%TO.C,J6*%
X233680000Y-93980000D03*
X233680000Y-96520000D03*
%TO.C,J4*%
X233720000Y-140716000D03*
X233720000Y-143256000D03*
%TO.C,TP21*%
X234696000Y-72547000D03*
%TO.C,J2*%
X241045999Y-98044000D03*
%TO.C,J5*%
X242042000Y-104882000D03*
X242042000Y-107422000D03*
X242042000Y-109962000D03*
X242042000Y-112502000D03*
X242042000Y-115042000D03*
X242042000Y-117582000D03*
X242042000Y-120122000D03*
X242042000Y-122662000D03*
X242042000Y-125202000D03*
X242042000Y-127742000D03*
X242042000Y-130282000D03*
X242042000Y-132822000D03*
%TO.C,J2*%
X243585999Y-98044000D03*
%TO.C,J5*%
X244582000Y-104882000D03*
X244582000Y-107422000D03*
X244582000Y-109962000D03*
X244582000Y-112502000D03*
X244582000Y-115042000D03*
X244582000Y-117582000D03*
X244582000Y-120122000D03*
X244582000Y-122662000D03*
X244582000Y-125202000D03*
X244582000Y-127742000D03*
X244582000Y-130282000D03*
X244582000Y-132822000D03*
%TO.C,J14*%
X245105000Y-71553500D03*
%TO.C,J2*%
X246125999Y-98044000D03*
%TO.C,J14*%
X247645000Y-71553500D03*
%TO.C,J2*%
X248665999Y-98044000D03*
%TO.C,J14*%
X250185000Y-71553500D03*
%TO.C,J2*%
X251205999Y-98044000D03*
%TO.C,TP23*%
X251460000Y-138430000D03*
%TO.C,TP11*%
X251460000Y-142279000D03*
%TO.C,TP12*%
X251460000Y-146431000D03*
%TO.C,J14*%
X252725000Y-71553500D03*
X255265000Y-71553500D03*
X257805000Y-71553500D03*
%TO.C,TP13*%
X264922000Y-142279000D03*
%TO.C,TP14*%
X264922000Y-146431000D03*
%TO.C,J9*%
X278465000Y-129708000D03*
X278465000Y-132478000D03*
X278465000Y-135248000D03*
X278465000Y-138018000D03*
X278465000Y-140788000D03*
X278465000Y-143558000D03*
X278465000Y-146328000D03*
X278465000Y-149098000D03*
%TO.C,J10*%
X278480331Y-172222000D03*
X278480331Y-174992000D03*
X278480331Y-177762000D03*
X278480331Y-180532000D03*
X278480331Y-183302000D03*
X278480331Y-186072000D03*
X278480331Y-188842000D03*
X278480331Y-191612000D03*
%TO.C,J9*%
X281305000Y-131093000D03*
X281305000Y-133863000D03*
X281305000Y-136633000D03*
X281305000Y-139403000D03*
X281305000Y-142173000D03*
X281305000Y-144943000D03*
X281305000Y-147713000D03*
%TO.C,J10*%
X281320331Y-173607000D03*
X281320331Y-176377000D03*
X281320331Y-179147000D03*
X281320331Y-181917000D03*
X281320331Y-184687000D03*
X281320331Y-187457000D03*
X281320331Y-190227000D03*
D14*
%TO.C,J19*%
X116459000Y-79478498D03*
X116459000Y-82018498D03*
X116459000Y-84558498D03*
%TO.C,J20*%
X116459000Y-94996000D03*
X116459000Y-97536000D03*
X116459000Y-100076000D03*
%TO.C,J11*%
X153150000Y-87630000D03*
X153150000Y-90170000D03*
%TO.C,J12*%
X153150000Y-98630002D03*
X153150000Y-101170002D03*
%TO.C,J18*%
X226695000Y-64770000D03*
X229235000Y-64770000D03*
X231775000Y-64770000D03*
D15*
%TO.C,SW1*%
X192076000Y-93635000D03*
X192076000Y-98135000D03*
X198576000Y-93635000D03*
X198576000Y-98135000D03*
D16*
%TO.C,K11*%
X123438000Y-112430000D03*
%TO.C,K12*%
X123459000Y-124876000D03*
%TO.C,K11*%
X131138000Y-112430000D03*
%TO.C,K12*%
X131159000Y-124876000D03*
%TO.C,K11*%
X141338000Y-112430000D03*
X141338000Y-120030000D03*
%TO.C,K12*%
X141359000Y-124876000D03*
X141359000Y-132476000D03*
%TO.C,K1*%
X190535000Y-170426000D03*
X190535000Y-180626000D03*
X190535000Y-188326000D03*
%TO.C,K6*%
X190535000Y-208272000D03*
X190535000Y-218472000D03*
X190535000Y-226172000D03*
%TO.C,K1*%
X198135000Y-170426000D03*
%TO.C,K6*%
X198135000Y-208272000D03*
%TO.C,K2*%
X204822500Y-170426000D03*
X204822500Y-180626000D03*
X204822500Y-188326000D03*
%TO.C,K7*%
X204822500Y-208272000D03*
X204822500Y-218472000D03*
X204822500Y-226172000D03*
%TO.C,K2*%
X212422500Y-170426000D03*
%TO.C,K7*%
X212422500Y-208272000D03*
%TO.C,K3*%
X219110000Y-170426000D03*
X219110000Y-180626000D03*
X219110000Y-188326000D03*
%TO.C,K8*%
X219110000Y-208272000D03*
X219110000Y-218472000D03*
X219110000Y-226172000D03*
%TO.C,K3*%
X226710000Y-170426000D03*
%TO.C,K8*%
X226710000Y-208272000D03*
%TO.C,K4*%
X233397500Y-170426000D03*
X233397500Y-180626000D03*
X233397500Y-188326000D03*
%TO.C,K9*%
X233397500Y-208272000D03*
X233397500Y-218472000D03*
X233397500Y-226172000D03*
%TO.C,K4*%
X240997500Y-170426000D03*
%TO.C,K9*%
X240997500Y-208272000D03*
%TO.C,K5*%
X247685000Y-170426000D03*
X247685000Y-180626000D03*
X247685000Y-188326000D03*
%TO.C,K10*%
X247685000Y-208271574D03*
X247685000Y-218471574D03*
X247685000Y-226171574D03*
%TO.C,K5*%
X255285000Y-170426000D03*
%TO.C,K10*%
X255285000Y-208271574D03*
D17*
%TO.C,J7*%
X115951000Y-112903000D03*
X115951000Y-117903000D03*
%TO.C,J8*%
X115951000Y-125266500D03*
X115951000Y-130266500D03*
%TO.C,J15*%
X205145000Y-64766000D03*
X210145000Y-64766000D03*
%TO.C,J16*%
X244007000Y-64766000D03*
X249007000Y-64766000D03*
D18*
%TO.C,J21*%
X129512000Y-226060000D03*
X139042000Y-226060000D03*
X148582000Y-226060000D03*
X158112000Y-226060000D03*
D19*
%TO.C,SW2*%
X143764000Y-203580000D03*
X143764000Y-208280000D03*
X143764000Y-212980000D03*
D20*
%TO.C,H5*%
X111850000Y-63590000D03*
%TO.C,H6*%
X111850000Y-233590000D03*
%TO.C,H1*%
X118017999Y-187325000D03*
%TO.C,H2*%
X169418000Y-187325000D03*
%TO.C,J9*%
X279885000Y-122753000D03*
X279885000Y-156053000D03*
%TO.C,J10*%
X279900331Y-165267000D03*
X279900331Y-198567000D03*
%TO.C,H4*%
X281850000Y-63590000D03*
%TO.C,H3*%
X281850000Y-233590000D03*
D21*
%TO.C,MP4*%
X117048000Y-164465000D03*
%TO.C,MP3*%
X128478000Y-164465000D03*
%TO.C,MP2*%
X158958000Y-164465000D03*
%TO.C,MP1*%
X170388000Y-164464998D03*
M02*
