%TF.GenerationSoftware,KiCad,Pcbnew,8.0.7*%
%TF.CreationDate,2025-04-17T15:34:13+07:00*%
%TF.ProjectId,Tractor VCU,54726163-746f-4722-9056-43552e6b6963,rev?*%
%TF.SameCoordinates,Original*%
%TF.FileFunction,Paste,Top*%
%TF.FilePolarity,Positive*%
%FSLAX46Y46*%
G04 Gerber Fmt 4.6, Leading zero omitted, Abs format (unit mm)*
G04 Created by KiCad (PCBNEW 8.0.7) date 2025-04-17 15:34:13*
%MOMM*%
%LPD*%
G01*
G04 APERTURE LIST*
G04 Aperture macros list*
%AMRoundRect*
0 Rectangle with rounded corners*
0 $1 Rounding radius*
0 $2 $3 $4 $5 $6 $7 $8 $9 X,Y pos of 4 corners*
0 Add a 4 corners polygon primitive as box body*
4,1,4,$2,$3,$4,$5,$6,$7,$8,$9,$2,$3,0*
0 Add four circle primitives for the rounded corners*
1,1,$1+$1,$2,$3*
1,1,$1+$1,$4,$5*
1,1,$1+$1,$6,$7*
1,1,$1+$1,$8,$9*
0 Add four rect primitives between the rounded corners*
20,1,$1+$1,$2,$3,$4,$5,0*
20,1,$1+$1,$4,$5,$6,$7,0*
20,1,$1+$1,$6,$7,$8,$9,0*
20,1,$1+$1,$8,$9,$2,$3,0*%
G04 Aperture macros list end*
%ADD10RoundRect,0.237500X-0.237500X0.300000X-0.237500X-0.300000X0.237500X-0.300000X0.237500X0.300000X0*%
%ADD11RoundRect,0.237500X-0.237500X0.287500X-0.237500X-0.287500X0.237500X-0.287500X0.237500X0.287500X0*%
%ADD12RoundRect,0.155000X-0.212500X-0.155000X0.212500X-0.155000X0.212500X0.155000X-0.212500X0.155000X0*%
%ADD13RoundRect,0.237500X-0.250000X-0.237500X0.250000X-0.237500X0.250000X0.237500X-0.250000X0.237500X0*%
%ADD14R,0.660400X0.711200*%
%ADD15RoundRect,0.237500X-0.287500X-0.237500X0.287500X-0.237500X0.287500X0.237500X-0.287500X0.237500X0*%
%ADD16RoundRect,0.150000X-0.150000X0.587500X-0.150000X-0.587500X0.150000X-0.587500X0.150000X0.587500X0*%
%ADD17RoundRect,0.225000X-0.225000X-0.375000X0.225000X-0.375000X0.225000X0.375000X-0.225000X0.375000X0*%
%ADD18RoundRect,0.160000X0.197500X0.160000X-0.197500X0.160000X-0.197500X-0.160000X0.197500X-0.160000X0*%
%ADD19RoundRect,0.237500X0.237500X-0.300000X0.237500X0.300000X-0.237500X0.300000X-0.237500X-0.300000X0*%
%ADD20RoundRect,0.155000X0.155000X-0.212500X0.155000X0.212500X-0.155000X0.212500X-0.155000X-0.212500X0*%
%ADD21RoundRect,0.150000X0.587500X0.150000X-0.587500X0.150000X-0.587500X-0.150000X0.587500X-0.150000X0*%
%ADD22RoundRect,0.237500X0.250000X0.237500X-0.250000X0.237500X-0.250000X-0.237500X0.250000X-0.237500X0*%
%ADD23RoundRect,0.237500X-0.237500X0.250000X-0.237500X-0.250000X0.237500X-0.250000X0.237500X0.250000X0*%
%ADD24RoundRect,0.237500X0.237500X-0.250000X0.237500X0.250000X-0.237500X0.250000X-0.237500X-0.250000X0*%
%ADD25RoundRect,0.225000X0.375000X-0.225000X0.375000X0.225000X-0.375000X0.225000X-0.375000X-0.225000X0*%
%ADD26R,4.240000X3.810000*%
%ADD27RoundRect,0.237500X-0.300000X-0.237500X0.300000X-0.237500X0.300000X0.237500X-0.300000X0.237500X0*%
%ADD28R,1.422400X0.457200*%
%ADD29RoundRect,0.077500X0.232500X-0.907500X0.232500X0.907500X-0.232500X0.907500X-0.232500X-0.907500X0*%
%ADD30RoundRect,0.246250X1.333750X-0.738750X1.333750X0.738750X-1.333750X0.738750X-1.333750X-0.738750X0*%
%ADD31RoundRect,0.075000X-0.700000X-0.075000X0.700000X-0.075000X0.700000X0.075000X-0.700000X0.075000X0*%
%ADD32RoundRect,0.075000X-0.075000X-0.700000X0.075000X-0.700000X0.075000X0.700000X-0.075000X0.700000X0*%
%ADD33RoundRect,0.155000X-0.155000X0.212500X-0.155000X-0.212500X0.155000X-0.212500X0.155000X0.212500X0*%
%ADD34RoundRect,0.250000X0.850000X0.350000X-0.850000X0.350000X-0.850000X-0.350000X0.850000X-0.350000X0*%
%ADD35RoundRect,0.250000X1.275000X1.125000X-1.275000X1.125000X-1.275000X-1.125000X1.275000X-1.125000X0*%
%ADD36RoundRect,0.150000X-0.150000X0.825000X-0.150000X-0.825000X0.150000X-0.825000X0.150000X0.825000X0*%
%ADD37RoundRect,0.237500X0.300000X0.237500X-0.300000X0.237500X-0.300000X-0.237500X0.300000X-0.237500X0*%
%ADD38RoundRect,0.160000X-0.197500X-0.160000X0.197500X-0.160000X0.197500X0.160000X-0.197500X0.160000X0*%
%ADD39R,2.500000X0.500000*%
%ADD40R,2.500000X2.000000*%
%ADD41RoundRect,0.155000X0.212500X0.155000X-0.212500X0.155000X-0.212500X-0.155000X0.212500X-0.155000X0*%
%ADD42R,0.457200X1.422400*%
%ADD43RoundRect,0.237500X0.287500X0.237500X-0.287500X0.237500X-0.287500X-0.237500X0.287500X-0.237500X0*%
%ADD44RoundRect,0.077500X-0.232500X0.907500X-0.232500X-0.907500X0.232500X-0.907500X0.232500X0.907500X0*%
%ADD45RoundRect,0.246250X-1.333750X0.738750X-1.333750X-0.738750X1.333750X-0.738750X1.333750X0.738750X0*%
G04 APERTURE END LIST*
D10*
%TO.C,C20*%
X122174000Y-98731998D03*
X122174000Y-100456998D03*
%TD*%
D11*
%TO.C,LED12*%
X143891000Y-113386000D03*
X143891000Y-115136000D03*
%TD*%
D12*
%TO.C,C6*%
X221047500Y-127381000D03*
X222182500Y-127381000D03*
%TD*%
%TO.C,C9*%
X213808500Y-112522000D03*
X214943500Y-112522000D03*
%TD*%
D13*
%TO.C,R53*%
X158944999Y-96090004D03*
X160769999Y-96090004D03*
%TD*%
D14*
%TO.C,D16*%
X131572001Y-147702000D03*
X131572001Y-149988000D03*
%TD*%
D15*
%TO.C,LED4*%
X219995500Y-168021000D03*
X221745500Y-168021000D03*
%TD*%
D16*
%TO.C,Q8*%
X221739500Y-200849051D03*
X219839500Y-200849051D03*
X220789500Y-202724051D03*
%TD*%
D15*
%TO.C,LED11*%
X248601334Y-205851574D03*
X250351334Y-205851574D03*
%TD*%
D17*
%TO.C,D14*%
X146559000Y-120436000D03*
X149859000Y-120436000D03*
%TD*%
D13*
%TO.C,R29*%
X224027000Y-205852000D03*
X225852000Y-205852000D03*
%TD*%
%TO.C,R8*%
X195464500Y-168021000D03*
X197289500Y-168021000D03*
%TD*%
D18*
%TO.C,R2*%
X215720500Y-107823000D03*
X214525500Y-107823000D03*
%TD*%
D19*
%TO.C,C23*%
X149352000Y-151357500D03*
X149352000Y-149632500D03*
%TD*%
%TO.C,C2*%
X266044001Y-97640500D03*
X266044001Y-95915500D03*
%TD*%
D20*
%TO.C,C13*%
X209550000Y-122420000D03*
X209550000Y-121285000D03*
%TD*%
D13*
%TO.C,R42*%
X206380500Y-75184000D03*
X208205500Y-75184000D03*
%TD*%
D10*
%TO.C,C1*%
X277474000Y-95915500D03*
X277474000Y-97640500D03*
%TD*%
D21*
%TO.C,Q12*%
X148768675Y-128037502D03*
X148768675Y-126137502D03*
X146893675Y-127087502D03*
%TD*%
D22*
%TO.C,R10*%
X207504250Y-161163000D03*
X205679250Y-161163000D03*
%TD*%
D11*
%TO.C,LED13*%
X143912001Y-125840000D03*
X143912001Y-127590000D03*
%TD*%
D23*
%TO.C,R47*%
X256667000Y-149582500D03*
X256667000Y-151407500D03*
%TD*%
D15*
%TO.C,LED16*%
X128274000Y-203497000D03*
X130024000Y-203497000D03*
%TD*%
D24*
%TO.C,R37*%
X150579500Y-115466999D03*
X150579500Y-113641999D03*
%TD*%
D23*
%TO.C,R27*%
X224596400Y-198767300D03*
X224596400Y-200592300D03*
%TD*%
D13*
%TO.C,R58*%
X133961500Y-153924000D03*
X135786500Y-153924000D03*
%TD*%
D22*
%TO.C,R31*%
X236140499Y-199104550D03*
X234315499Y-199104550D03*
%TD*%
D25*
%TO.C,D7*%
X241499250Y-166115000D03*
X241499250Y-162815000D03*
%TD*%
D15*
%TO.C,LED8*%
X205713000Y-205852000D03*
X207463000Y-205852000D03*
%TD*%
D13*
%TO.C,R54*%
X122224001Y-81510500D03*
X124049001Y-81510500D03*
%TD*%
D15*
%TO.C,LED7*%
X191425500Y-205852000D03*
X193175500Y-205852000D03*
%TD*%
D22*
%TO.C,R34*%
X250491499Y-199120999D03*
X248666499Y-199120999D03*
%TD*%
%TO.C,R39*%
X151809501Y-129794000D03*
X149984501Y-129794000D03*
%TD*%
D26*
%TO.C,F1*%
X129784000Y-212090000D03*
X136154000Y-212090000D03*
%TD*%
D23*
%TO.C,R21*%
X195919700Y-198767300D03*
X195919700Y-200592300D03*
%TD*%
D13*
%TO.C,R46*%
X259818500Y-139635001D03*
X261643500Y-139635001D03*
%TD*%
D12*
%TO.C,C8*%
X213808500Y-111379000D03*
X214943500Y-111379000D03*
%TD*%
D24*
%TO.C,R59*%
X135636000Y-148486500D03*
X135636000Y-146661500D03*
%TD*%
D11*
%TO.C,LED14*%
X135636000Y-143270000D03*
X135636000Y-145020000D03*
%TD*%
D27*
%TO.C,C17*%
X158994998Y-101170002D03*
X160719998Y-101170002D03*
%TD*%
D17*
%TO.C,D15*%
X146580001Y-132938000D03*
X149880001Y-132938000D03*
%TD*%
D19*
%TO.C,C22*%
X149352000Y-145997000D03*
X149352000Y-144272000D03*
%TD*%
D20*
%TO.C,C7*%
X211709000Y-115121500D03*
X211709000Y-113986500D03*
%TD*%
D23*
%TO.C,R41*%
X143912001Y-129866500D03*
X143912001Y-131691500D03*
%TD*%
D28*
%TO.C,D2*%
X272888468Y-81022656D03*
X275276068Y-81022656D03*
%TD*%
D16*
%TO.C,Q2*%
X207541750Y-163019500D03*
X205641750Y-163019500D03*
X206591750Y-164894500D03*
%TD*%
D15*
%TO.C,LED2*%
X191438000Y-168021000D03*
X193188000Y-168021000D03*
%TD*%
D24*
%TO.C,R40*%
X150625175Y-128087501D03*
X150625175Y-126262501D03*
%TD*%
D29*
%TO.C,U4*%
X142113000Y-149055000D03*
X143383000Y-149055000D03*
X144653000Y-149055000D03*
X145923000Y-149055000D03*
X147193000Y-149055000D03*
D30*
X144653000Y-143045000D03*
%TD*%
D26*
%TO.C,F2*%
X158463000Y-212090000D03*
X164833000Y-212090000D03*
%TD*%
D22*
%TO.C,R7*%
X193260500Y-161163000D03*
X191435500Y-161163000D03*
%TD*%
D19*
%TO.C,C21*%
X139827000Y-148690500D03*
X139827000Y-146965500D03*
%TD*%
D25*
%TO.C,D12*%
X241576350Y-203991000D03*
X241576350Y-200691000D03*
%TD*%
D10*
%TO.C,C5*%
X206883000Y-119570500D03*
X206883000Y-121295500D03*
%TD*%
D13*
%TO.C,R56*%
X122224001Y-97027999D03*
X124049001Y-97027999D03*
%TD*%
D23*
%TO.C,R38*%
X143891000Y-117461500D03*
X143891000Y-119286500D03*
%TD*%
D31*
%TO.C,U2*%
X212765000Y-116138000D03*
X212765000Y-116638000D03*
X212765000Y-117138000D03*
X212765000Y-117638000D03*
X212765000Y-118138000D03*
X212765000Y-118638000D03*
X212765000Y-119138000D03*
X212765000Y-119638000D03*
X212765000Y-120138000D03*
X212765000Y-120638000D03*
X212765000Y-121138000D03*
X212765000Y-121638000D03*
X212765000Y-122138000D03*
X212765000Y-122638000D03*
X212765000Y-123138000D03*
X212765000Y-123638000D03*
D32*
X214690000Y-125563000D03*
X215190000Y-125563000D03*
X215690000Y-125563000D03*
X216190000Y-125563000D03*
X216690000Y-125563000D03*
X217190000Y-125563000D03*
X217690000Y-125563000D03*
X218190000Y-125563000D03*
X218690000Y-125563000D03*
X219190000Y-125563000D03*
X219690000Y-125563000D03*
X220190000Y-125563000D03*
X220690000Y-125563000D03*
X221190000Y-125563000D03*
X221690000Y-125563000D03*
X222190000Y-125563000D03*
D31*
X224115000Y-123638000D03*
X224115000Y-123138000D03*
X224115000Y-122638000D03*
X224115000Y-122138000D03*
X224115000Y-121638000D03*
X224115000Y-121138000D03*
X224115000Y-120638000D03*
X224115000Y-120138000D03*
X224115000Y-119638000D03*
X224115000Y-119138000D03*
X224115000Y-118638000D03*
X224115000Y-118138000D03*
X224115000Y-117638000D03*
X224115000Y-117138000D03*
X224115000Y-116638000D03*
X224115000Y-116138000D03*
D32*
X222190000Y-114213000D03*
X221690000Y-114213000D03*
X221190000Y-114213000D03*
X220690000Y-114213000D03*
X220190000Y-114213000D03*
X219690000Y-114213000D03*
X219190000Y-114213000D03*
X218690000Y-114213000D03*
X218190000Y-114213000D03*
X217690000Y-114213000D03*
X217190000Y-114213000D03*
X216690000Y-114213000D03*
X216190000Y-114213000D03*
X215690000Y-114213000D03*
X215190000Y-114213000D03*
X214690000Y-114213000D03*
%TD*%
D25*
%TO.C,D4*%
X198663000Y-166115000D03*
X198663000Y-162815000D03*
%TD*%
D13*
%TO.C,R35*%
X252627834Y-205851574D03*
X254452834Y-205851574D03*
%TD*%
D22*
%TO.C,R22*%
X193350998Y-199104550D03*
X191525998Y-199104550D03*
%TD*%
D13*
%TO.C,R50*%
X158587500Y-87630003D03*
X160412500Y-87630003D03*
%TD*%
D15*
%TO.C,LED10*%
X234313834Y-205852000D03*
X236063834Y-205852000D03*
%TD*%
D23*
%TO.C,R9*%
X210401750Y-160885500D03*
X210401750Y-162710500D03*
%TD*%
D13*
%TO.C,R14*%
X223768000Y-168021000D03*
X225593000Y-168021000D03*
%TD*%
D33*
%TO.C,C12*%
X226060000Y-115256500D03*
X226060000Y-116391500D03*
%TD*%
D23*
%TO.C,R30*%
X238833150Y-198767300D03*
X238833150Y-200592300D03*
%TD*%
D16*
%TO.C,Q5*%
X250314500Y-163019500D03*
X248414500Y-163019500D03*
X249364500Y-164894500D03*
%TD*%
D23*
%TO.C,R48*%
X258699000Y-151233500D03*
X258699000Y-153058500D03*
%TD*%
D33*
%TO.C,C11*%
X223520000Y-126051500D03*
X223520000Y-127186500D03*
%TD*%
D22*
%TO.C,R28*%
X221789499Y-199104550D03*
X219964499Y-199104550D03*
%TD*%
D25*
%TO.C,D6*%
X227220500Y-166115000D03*
X227220500Y-162815000D03*
%TD*%
D13*
%TO.C,R17*%
X238046750Y-168021000D03*
X239871750Y-168021000D03*
%TD*%
%TO.C,R51*%
X158587499Y-85090002D03*
X160412499Y-85090002D03*
%TD*%
D22*
%TO.C,R61*%
X134770500Y-203454000D03*
X132945500Y-203454000D03*
%TD*%
D13*
%TO.C,R26*%
X209739500Y-205852000D03*
X211564500Y-205852000D03*
%TD*%
D16*
%TO.C,Q7*%
X207515500Y-200865500D03*
X205615500Y-200865500D03*
X206565500Y-202740500D03*
%TD*%
D34*
%TO.C,Q13*%
X128738000Y-151125000D03*
D35*
X124113000Y-150370000D03*
X124113000Y-147320000D03*
X120763000Y-150370000D03*
X120763000Y-147320000D03*
D34*
X128738000Y-146565000D03*
%TD*%
D16*
%TO.C,Q4*%
X235963500Y-163019500D03*
X234063500Y-163019500D03*
X235013500Y-164894500D03*
%TD*%
D25*
%TO.C,D11*%
X227339600Y-203991000D03*
X227339600Y-200691000D03*
%TD*%
%TO.C,D5*%
X212941750Y-166115000D03*
X212941750Y-162815000D03*
%TD*%
D13*
%TO.C,R1*%
X278226501Y-91698000D03*
X280051501Y-91698000D03*
%TD*%
D22*
%TO.C,R19*%
X250277000Y-161163000D03*
X248452000Y-161163000D03*
%TD*%
D25*
%TO.C,D13*%
X255765934Y-203990574D03*
X255765934Y-200690574D03*
%TD*%
%TO.C,D8*%
X255778000Y-166115000D03*
X255778000Y-162815000D03*
%TD*%
D28*
%TO.C,D1*%
X272872200Y-85598000D03*
X275259800Y-85598000D03*
%TD*%
D20*
%TO.C,C14*%
X210820000Y-122420000D03*
X210820000Y-121285000D03*
%TD*%
D13*
%TO.C,R23*%
X195452000Y-205852000D03*
X197277000Y-205852000D03*
%TD*%
D11*
%TO.C,LED15*%
X153550000Y-144055500D03*
X153550000Y-145805500D03*
%TD*%
D36*
%TO.C,U3*%
X260985000Y-142305000D03*
X259715000Y-142305000D03*
X258445000Y-142305000D03*
X257175000Y-142305000D03*
X257175000Y-147255000D03*
X258445000Y-147255000D03*
X259715000Y-147255000D03*
X260985000Y-147255000D03*
%TD*%
D23*
%TO.C,R18*%
X253492000Y-160885500D03*
X253492000Y-162710500D03*
%TD*%
D13*
%TO.C,R20*%
X252579500Y-168021000D03*
X254404500Y-168021000D03*
%TD*%
D37*
%TO.C,C18*%
X181075500Y-67818000D03*
X179350500Y-67818000D03*
%TD*%
D22*
%TO.C,R13*%
X221783000Y-161163000D03*
X219958000Y-161163000D03*
%TD*%
D19*
%TO.C,C15*%
X189051000Y-94751500D03*
X189051000Y-93026500D03*
%TD*%
D13*
%TO.C,R52*%
X158945000Y-98630003D03*
X160770000Y-98630003D03*
%TD*%
D38*
%TO.C,R4*%
X222885000Y-131572000D03*
X224080000Y-131572000D03*
%TD*%
D16*
%TO.C,Q6*%
X193300999Y-200849051D03*
X191400999Y-200849051D03*
X192350999Y-202724051D03*
%TD*%
D39*
%TO.C,J1*%
X279594000Y-84998000D03*
X279594000Y-84198000D03*
X279594000Y-83398000D03*
X279594000Y-82598000D03*
X279594000Y-81798000D03*
D40*
X279594000Y-87798000D03*
X285094000Y-87798000D03*
X279594000Y-78998000D03*
X285094000Y-78998000D03*
%TD*%
D23*
%TO.C,R6*%
X195936000Y-160885500D03*
X195936000Y-162710500D03*
%TD*%
D22*
%TO.C,R44*%
X258214500Y-139635001D03*
X256389500Y-139635001D03*
%TD*%
D25*
%TO.C,D10*%
X213153650Y-203991000D03*
X213153650Y-200691000D03*
%TD*%
D13*
%TO.C,R49*%
X258421500Y-149606000D03*
X260246500Y-149606000D03*
%TD*%
D15*
%TO.C,LED5*%
X234161251Y-168021000D03*
X235911251Y-168021000D03*
%TD*%
D16*
%TO.C,Q10*%
X250441500Y-200865500D03*
X248541500Y-200865500D03*
X249491500Y-202740500D03*
%TD*%
D15*
%TO.C,LED6*%
X248553000Y-168021000D03*
X250303000Y-168021000D03*
%TD*%
D13*
%TO.C,R11*%
X209338750Y-168021000D03*
X211163750Y-168021000D03*
%TD*%
D22*
%TO.C,R45*%
X259357500Y-137095000D03*
X257532500Y-137095000D03*
%TD*%
%TO.C,R16*%
X235926000Y-161163000D03*
X234101000Y-161163000D03*
%TD*%
D23*
%TO.C,R24*%
X210435850Y-198767300D03*
X210435850Y-200592300D03*
%TD*%
D24*
%TO.C,R5*%
X189051000Y-98865500D03*
X189051000Y-97040500D03*
%TD*%
D15*
%TO.C,LED3*%
X205603751Y-168021000D03*
X207353751Y-168021000D03*
%TD*%
D18*
%TO.C,R62*%
X218238000Y-131572000D03*
X217043000Y-131572000D03*
%TD*%
D19*
%TO.C,C4*%
X206883000Y-116727500D03*
X206883000Y-115002500D03*
%TD*%
D41*
%TO.C,C10*%
X215959500Y-127324962D03*
X214824500Y-127324962D03*
%TD*%
D27*
%TO.C,C16*%
X158637500Y-90170001D03*
X160362500Y-90170001D03*
%TD*%
D13*
%TO.C,R32*%
X238340334Y-205852000D03*
X240165334Y-205852000D03*
%TD*%
D25*
%TO.C,D9*%
X198586700Y-203991000D03*
X198586700Y-200691000D03*
%TD*%
D22*
%TO.C,R36*%
X151788500Y-117388000D03*
X149963500Y-117388000D03*
%TD*%
D23*
%TO.C,R33*%
X253048134Y-198766874D03*
X253048134Y-200591874D03*
%TD*%
D16*
%TO.C,Q3*%
X221820500Y-163019500D03*
X219920500Y-163019500D03*
X220870500Y-164894500D03*
%TD*%
D42*
%TO.C,D3*%
X282194000Y-97291800D03*
X282194000Y-94904200D03*
%TD*%
D43*
%TO.C,LED1*%
X283958000Y-91694000D03*
X282208000Y-91694000D03*
%TD*%
D24*
%TO.C,R60*%
X153543000Y-149526000D03*
X153543000Y-147701000D03*
%TD*%
D16*
%TO.C,Q9*%
X236090500Y-200849051D03*
X234190500Y-200849051D03*
X235140500Y-202724051D03*
%TD*%
D23*
%TO.C,R15*%
X239086250Y-160885500D03*
X239086250Y-162710500D03*
%TD*%
D15*
%TO.C,LED9*%
X220000500Y-205852000D03*
X221750500Y-205852000D03*
%TD*%
D13*
%TO.C,R43*%
X245364500Y-75184000D03*
X247189500Y-75184000D03*
%TD*%
D38*
%TO.C,R3*%
X218208500Y-107823000D03*
X219403500Y-107823000D03*
%TD*%
D10*
%TO.C,C3*%
X266044000Y-90835500D03*
X266044000Y-92560500D03*
%TD*%
D22*
%TO.C,R25*%
X207565499Y-199120999D03*
X205740499Y-199120999D03*
%TD*%
D23*
%TO.C,R55*%
X124206000Y-83138000D03*
X124206000Y-84963000D03*
%TD*%
D10*
%TO.C,C19*%
X122174000Y-83188000D03*
X122174000Y-84913000D03*
%TD*%
D23*
%TO.C,R57*%
X124206000Y-98681998D03*
X124206000Y-100506998D03*
%TD*%
%TO.C,R12*%
X224680500Y-160885500D03*
X224680500Y-162710500D03*
%TD*%
D21*
%TO.C,Q11*%
X148765500Y-115417000D03*
X148765500Y-113517000D03*
X146890500Y-114467000D03*
%TD*%
D44*
%TO.C,U1*%
X273664000Y-93773000D03*
X272394000Y-93773000D03*
X271124000Y-93773000D03*
X269854000Y-93773000D03*
X268584000Y-93773000D03*
D45*
X271124000Y-99783000D03*
%TD*%
D16*
%TO.C,Q1*%
X193263000Y-163019500D03*
X191363000Y-163019500D03*
X192313000Y-164894500D03*
%TD*%
M02*
