%TF.GenerationSoftware,KiCad,Pcbnew,8.0.7*%
%TF.CreationDate,2025-04-17T15:34:12+07:00*%
%TF.ProjectId,Tractor VCU,54726163-746f-4722-9056-43552e6b6963,rev?*%
%TF.SameCoordinates,Original*%
%TF.FileFunction,Copper,L1,Top*%
%TF.FilePolarity,Positive*%
%FSLAX46Y46*%
G04 Gerber Fmt 4.6, Leading zero omitted, Abs format (unit mm)*
G04 Created by KiCad (PCBNEW 8.0.7) date 2025-04-17 15:34:12*
%MOMM*%
%LPD*%
G01*
G04 APERTURE LIST*
G04 Aperture macros list*
%AMRoundRect*
0 Rectangle with rounded corners*
0 $1 Rounding radius*
0 $2 $3 $4 $5 $6 $7 $8 $9 X,Y pos of 4 corners*
0 Add a 4 corners polygon primitive as box body*
4,1,4,$2,$3,$4,$5,$6,$7,$8,$9,$2,$3,0*
0 Add four circle primitives for the rounded corners*
1,1,$1+$1,$2,$3*
1,1,$1+$1,$4,$5*
1,1,$1+$1,$6,$7*
1,1,$1+$1,$8,$9*
0 Add four rect primitives between the rounded corners*
20,1,$1+$1,$2,$3,$4,$5,0*
20,1,$1+$1,$4,$5,$6,$7,0*
20,1,$1+$1,$6,$7,$8,$9,0*
20,1,$1+$1,$8,$9,$2,$3,0*%
G04 Aperture macros list end*
%TA.AperFunction,SMDPad,CuDef*%
%ADD10RoundRect,0.237500X-0.237500X0.300000X-0.237500X-0.300000X0.237500X-0.300000X0.237500X0.300000X0*%
%TD*%
%TA.AperFunction,ComponentPad*%
%ADD11RoundRect,0.341000X-0.759000X0.759000X-0.759000X-0.759000X0.759000X-0.759000X0.759000X0.759000X0*%
%TD*%
%TA.AperFunction,ComponentPad*%
%ADD12C,2.200000*%
%TD*%
%TA.AperFunction,SMDPad,CuDef*%
%ADD13RoundRect,0.237500X-0.237500X0.287500X-0.237500X-0.287500X0.237500X-0.287500X0.237500X0.287500X0*%
%TD*%
%TA.AperFunction,SMDPad,CuDef*%
%ADD14RoundRect,0.155000X-0.212500X-0.155000X0.212500X-0.155000X0.212500X0.155000X-0.212500X0.155000X0*%
%TD*%
%TA.AperFunction,SMDPad,CuDef*%
%ADD15RoundRect,0.237500X-0.250000X-0.237500X0.250000X-0.237500X0.250000X0.237500X-0.250000X0.237500X0*%
%TD*%
%TA.AperFunction,SMDPad,CuDef*%
%ADD16R,0.660400X0.711200*%
%TD*%
%TA.AperFunction,SMDPad,CuDef*%
%ADD17RoundRect,0.237500X-0.287500X-0.237500X0.287500X-0.237500X0.287500X0.237500X-0.287500X0.237500X0*%
%TD*%
%TA.AperFunction,SMDPad,CuDef*%
%ADD18C,1.000000*%
%TD*%
%TA.AperFunction,ComponentPad*%
%ADD19R,1.700000X1.700000*%
%TD*%
%TA.AperFunction,SMDPad,CuDef*%
%ADD20RoundRect,0.150000X-0.150000X0.587500X-0.150000X-0.587500X0.150000X-0.587500X0.150000X0.587500X0*%
%TD*%
%TA.AperFunction,SMDPad,CuDef*%
%ADD21RoundRect,0.225000X-0.225000X-0.375000X0.225000X-0.375000X0.225000X0.375000X-0.225000X0.375000X0*%
%TD*%
%TA.AperFunction,ComponentPad*%
%ADD22C,0.800000*%
%TD*%
%TA.AperFunction,ComponentPad*%
%ADD23C,6.400000*%
%TD*%
%TA.AperFunction,SMDPad,CuDef*%
%ADD24RoundRect,0.160000X0.197500X0.160000X-0.197500X0.160000X-0.197500X-0.160000X0.197500X-0.160000X0*%
%TD*%
%TA.AperFunction,SMDPad,CuDef*%
%ADD25RoundRect,0.237500X0.237500X-0.300000X0.237500X0.300000X-0.237500X0.300000X-0.237500X-0.300000X0*%
%TD*%
%TA.AperFunction,ComponentPad*%
%ADD26C,1.950000*%
%TD*%
%TA.AperFunction,SMDPad,CuDef*%
%ADD27RoundRect,0.155000X0.155000X-0.212500X0.155000X0.212500X-0.155000X0.212500X-0.155000X-0.212500X0*%
%TD*%
%TA.AperFunction,SMDPad,CuDef*%
%ADD28RoundRect,0.150000X0.587500X0.150000X-0.587500X0.150000X-0.587500X-0.150000X0.587500X-0.150000X0*%
%TD*%
%TA.AperFunction,SMDPad,CuDef*%
%ADD29RoundRect,0.237500X0.250000X0.237500X-0.250000X0.237500X-0.250000X-0.237500X0.250000X-0.237500X0*%
%TD*%
%TA.AperFunction,SMDPad,CuDef*%
%ADD30RoundRect,0.237500X-0.237500X0.250000X-0.237500X-0.250000X0.237500X-0.250000X0.237500X0.250000X0*%
%TD*%
%TA.AperFunction,SMDPad,CuDef*%
%ADD31RoundRect,0.237500X0.237500X-0.250000X0.237500X0.250000X-0.237500X0.250000X-0.237500X-0.250000X0*%
%TD*%
%TA.AperFunction,SMDPad,CuDef*%
%ADD32RoundRect,0.225000X0.375000X-0.225000X0.375000X0.225000X-0.375000X0.225000X-0.375000X-0.225000X0*%
%TD*%
%TA.AperFunction,SMDPad,CuDef*%
%ADD33R,4.240000X3.810000*%
%TD*%
%TA.AperFunction,ComponentPad*%
%ADD34O,1.700000X1.700000*%
%TD*%
%TA.AperFunction,ComponentPad*%
%ADD35C,4.000000*%
%TD*%
%TA.AperFunction,ComponentPad*%
%ADD36R,1.600000X1.600000*%
%TD*%
%TA.AperFunction,ComponentPad*%
%ADD37C,1.600000*%
%TD*%
%TA.AperFunction,SMDPad,CuDef*%
%ADD38RoundRect,0.237500X-0.300000X-0.237500X0.300000X-0.237500X0.300000X0.237500X-0.300000X0.237500X0*%
%TD*%
%TA.AperFunction,ComponentPad*%
%ADD39C,4.700000*%
%TD*%
%TA.AperFunction,ConnectorPad*%
%ADD40C,8.600000*%
%TD*%
%TA.AperFunction,ComponentPad*%
%ADD41RoundRect,0.341000X0.759000X0.759000X-0.759000X0.759000X-0.759000X-0.759000X0.759000X-0.759000X0*%
%TD*%
%TA.AperFunction,SMDPad,CuDef*%
%ADD42R,1.422400X0.457200*%
%TD*%
%TA.AperFunction,ComponentPad*%
%ADD43O,4.000000X6.000000*%
%TD*%
%TA.AperFunction,SMDPad,CuDef*%
%ADD44RoundRect,0.077500X0.232500X-0.907500X0.232500X0.907500X-0.232500X0.907500X-0.232500X-0.907500X0*%
%TD*%
%TA.AperFunction,SMDPad,CuDef*%
%ADD45RoundRect,0.246250X1.333750X-0.738750X1.333750X0.738750X-1.333750X0.738750X-1.333750X-0.738750X0*%
%TD*%
%TA.AperFunction,ComponentPad*%
%ADD46RoundRect,0.250000X-0.620000X0.620000X-0.620000X-0.620000X0.620000X-0.620000X0.620000X0.620000X0*%
%TD*%
%TA.AperFunction,ComponentPad*%
%ADD47C,1.740000*%
%TD*%
%TA.AperFunction,SMDPad,CuDef*%
%ADD48RoundRect,0.075000X-0.700000X-0.075000X0.700000X-0.075000X0.700000X0.075000X-0.700000X0.075000X0*%
%TD*%
%TA.AperFunction,SMDPad,CuDef*%
%ADD49RoundRect,0.075000X-0.075000X-0.700000X0.075000X-0.700000X0.075000X0.700000X-0.075000X0.700000X0*%
%TD*%
%TA.AperFunction,ComponentPad*%
%ADD50C,1.500000*%
%TD*%
%TA.AperFunction,SMDPad,CuDef*%
%ADD51RoundRect,0.155000X-0.155000X0.212500X-0.155000X-0.212500X0.155000X-0.212500X0.155000X0.212500X0*%
%TD*%
%TA.AperFunction,ComponentPad*%
%ADD52C,2.000000*%
%TD*%
%TA.AperFunction,ComponentPad*%
%ADD53C,3.600000*%
%TD*%
%TA.AperFunction,ConnectorPad*%
%ADD54C,6.400000*%
%TD*%
%TA.AperFunction,SMDPad,CuDef*%
%ADD55RoundRect,0.250000X0.850000X0.350000X-0.850000X0.350000X-0.850000X-0.350000X0.850000X-0.350000X0*%
%TD*%
%TA.AperFunction,SMDPad,CuDef*%
%ADD56RoundRect,0.250000X1.275000X1.125000X-1.275000X1.125000X-1.275000X-1.125000X1.275000X-1.125000X0*%
%TD*%
%TA.AperFunction,SMDPad,CuDef*%
%ADD57RoundRect,0.249997X2.950003X2.650003X-2.950003X2.650003X-2.950003X-2.650003X2.950003X-2.650003X0*%
%TD*%
%TA.AperFunction,SMDPad,CuDef*%
%ADD58RoundRect,0.150000X-0.150000X0.825000X-0.150000X-0.825000X0.150000X-0.825000X0.150000X0.825000X0*%
%TD*%
%TA.AperFunction,SMDPad,CuDef*%
%ADD59RoundRect,0.237500X0.300000X0.237500X-0.300000X0.237500X-0.300000X-0.237500X0.300000X-0.237500X0*%
%TD*%
%TA.AperFunction,ComponentPad*%
%ADD60RoundRect,0.250000X0.620000X0.620000X-0.620000X0.620000X-0.620000X-0.620000X0.620000X-0.620000X0*%
%TD*%
%TA.AperFunction,SMDPad,CuDef*%
%ADD61RoundRect,0.160000X-0.197500X-0.160000X0.197500X-0.160000X0.197500X0.160000X-0.197500X0.160000X0*%
%TD*%
%TA.AperFunction,SMDPad,CuDef*%
%ADD62R,2.500000X0.500000*%
%TD*%
%TA.AperFunction,SMDPad,CuDef*%
%ADD63R,2.500000X2.000000*%
%TD*%
%TA.AperFunction,ComponentPad*%
%ADD64R,3.400000X3.400000*%
%TD*%
%TA.AperFunction,ComponentPad*%
%ADD65O,4.000000X3.000000*%
%TD*%
%TA.AperFunction,SMDPad,CuDef*%
%ADD66RoundRect,0.155000X0.212500X0.155000X-0.212500X0.155000X-0.212500X-0.155000X0.212500X-0.155000X0*%
%TD*%
%TA.AperFunction,SMDPad,CuDef*%
%ADD67R,0.457200X1.422400*%
%TD*%
%TA.AperFunction,SMDPad,CuDef*%
%ADD68RoundRect,0.237500X0.287500X0.237500X-0.287500X0.237500X-0.287500X-0.237500X0.287500X-0.237500X0*%
%TD*%
%TA.AperFunction,SMDPad,CuDef*%
%ADD69RoundRect,0.077500X-0.232500X0.907500X-0.232500X-0.907500X0.232500X-0.907500X0.232500X0.907500X0*%
%TD*%
%TA.AperFunction,SMDPad,CuDef*%
%ADD70RoundRect,0.246250X-1.333750X0.738750X-1.333750X-0.738750X1.333750X-0.738750X1.333750X0.738750X0*%
%TD*%
%TA.AperFunction,ViaPad*%
%ADD71C,0.800000*%
%TD*%
%TA.AperFunction,Conductor*%
%ADD72C,0.500000*%
%TD*%
%TA.AperFunction,Conductor*%
%ADD73C,0.400000*%
%TD*%
%TA.AperFunction,Conductor*%
%ADD74C,0.300000*%
%TD*%
%TA.AperFunction,Conductor*%
%ADD75C,1.000000*%
%TD*%
%TA.AperFunction,Conductor*%
%ADD76C,0.600000*%
%TD*%
%TA.AperFunction,Conductor*%
%ADD77C,0.800000*%
%TD*%
%TA.AperFunction,Conductor*%
%ADD78C,0.200000*%
%TD*%
G04 APERTURE END LIST*
D10*
%TO.P,C20,1*%
%TO.N,/DRIVER & CONNECTOR/ADC1_IN13*%
X122174000Y-98731998D03*
%TO.P,C20,2*%
%TO.N,GND*%
X122174000Y-100456998D03*
%TD*%
D11*
%TO.P,K10,8*%
%TO.N,+12V*%
X255285000Y-208271574D03*
D12*
%TO.P,K10,9*%
%TO.N,Net-(D13-A)*%
X247685000Y-208271574D03*
%TO.P,K10,13*%
%TO.N,/DRIVER & CONNECTOR/DRIVER_PUMP5*%
X247685000Y-218471574D03*
%TO.P,K10,16*%
%TO.N,PUMP_DRIVER*%
X247685000Y-226171574D03*
%TD*%
D13*
%TO.P,LED12,1,K*%
%TO.N,Net-(D14-A)*%
X143891000Y-113386000D03*
%TO.P,LED12,2,A*%
%TO.N,Net-(LED12-A)*%
X143891000Y-115136000D03*
%TD*%
D14*
%TO.P,C6,1*%
%TO.N,Net-(U2-VCAP_1)*%
X221047500Y-127381000D03*
%TO.P,C6,2*%
%TO.N,GND*%
X222182500Y-127381000D03*
%TD*%
%TO.P,C9,1*%
%TO.N,+3V3*%
X213808500Y-112522000D03*
%TO.P,C9,2*%
%TO.N,GND*%
X214943500Y-112522000D03*
%TD*%
D15*
%TO.P,R53,1*%
%TO.N,+3V3*%
X158944999Y-96090004D03*
%TO.P,R53,2*%
%TO.N,/DRIVER & CONNECTOR/BRAKE2_IN*%
X160769999Y-96090004D03*
%TD*%
D16*
%TO.P,D16,1,K*%
%TO.N,+5V*%
X131572001Y-147702000D03*
%TO.P,D16,2,A*%
%TO.N,Net-(D16-A)*%
X131572001Y-149988000D03*
%TD*%
D17*
%TO.P,LED4,1,K*%
%TO.N,Net-(D6-A)*%
X219995500Y-168021000D03*
%TO.P,LED4,2,A*%
%TO.N,Net-(LED4-A)*%
X221745500Y-168021000D03*
%TD*%
D18*
%TO.P,TP3,1,1*%
%TO.N,+3V3*%
X153543000Y-151534500D03*
%TD*%
D19*
%TO.P,TP12,1,1*%
%TO.N,/DRIVER & CONNECTOR/DAC2_OUT*%
X251460000Y-146431000D03*
%TD*%
D20*
%TO.P,Q8,1,B*%
%TO.N,Net-(Q8-B)*%
X221739500Y-200849051D03*
%TO.P,Q8,2,E*%
%TO.N,GND*%
X219839500Y-200849051D03*
%TO.P,Q8,3,C*%
%TO.N,Net-(D11-A)*%
X220789500Y-202724051D03*
%TD*%
D11*
%TO.P,K8,8*%
%TO.N,+12V*%
X226710000Y-208272000D03*
D12*
%TO.P,K8,9*%
%TO.N,Net-(D11-A)*%
X219110000Y-208272000D03*
%TO.P,K8,13*%
%TO.N,/DRIVER & CONNECTOR/DRIVER_PUMP3*%
X219110000Y-218472000D03*
%TO.P,K8,16*%
%TO.N,PUMP_DRIVER*%
X219110000Y-226172000D03*
%TD*%
D17*
%TO.P,LED11,1,K*%
%TO.N,Net-(D13-A)*%
X248601334Y-205851574D03*
%TO.P,LED11,2,A*%
%TO.N,Net-(LED11-A)*%
X250351334Y-205851574D03*
%TD*%
D11*
%TO.P,K5,8*%
%TO.N,+12V*%
X255285000Y-170426000D03*
D12*
%TO.P,K5,9*%
%TO.N,Net-(D8-A)*%
X247685000Y-170426000D03*
%TO.P,K5,13*%
%TO.N,/DRIVER & CONNECTOR/DRIVER_MAIN5*%
X247685000Y-180626000D03*
%TO.P,K5,16*%
%TO.N,MAIN_DRIVER*%
X247685000Y-188326000D03*
%TD*%
D11*
%TO.P,K6,8*%
%TO.N,+12V*%
X198135000Y-208272000D03*
D12*
%TO.P,K6,9*%
%TO.N,Net-(D9-A)*%
X190535000Y-208272000D03*
%TO.P,K6,13*%
%TO.N,/DRIVER & CONNECTOR/DRIVER_PUMP1*%
X190535000Y-218472000D03*
%TO.P,K6,16*%
%TO.N,/POWER SUPPLY/72V*%
X190535000Y-226172000D03*
%TD*%
D21*
%TO.P,D14,1,K*%
%TO.N,+12V*%
X146559000Y-120436000D03*
%TO.P,D14,2,A*%
%TO.N,Net-(D14-A)*%
X149859000Y-120436000D03*
%TD*%
D22*
%TO.P,H6,1,1*%
%TO.N,unconnected-(H6-Pad1)_3*%
X109450000Y-233590000D03*
%TO.N,unconnected-(H6-Pad1)_2*%
X110152944Y-231892944D03*
%TO.N,unconnected-(H6-Pad1)_5*%
X110152944Y-235287056D03*
%TO.N,unconnected-(H6-Pad1)_7*%
X111850000Y-231190000D03*
D23*
%TO.N,unconnected-(H6-Pad1)_8*%
X111850000Y-233590000D03*
D22*
%TO.N,unconnected-(H6-Pad1)_4*%
X111850000Y-235990000D03*
%TO.N,unconnected-(H6-Pad1)_6*%
X113547056Y-231892944D03*
%TO.N,unconnected-(H6-Pad1)*%
X113547056Y-235287056D03*
%TO.N,unconnected-(H6-Pad1)_1*%
X114250000Y-233590000D03*
%TD*%
D15*
%TO.P,R29,1*%
%TO.N,Net-(LED9-A)*%
X224027000Y-205852000D03*
%TO.P,R29,2*%
%TO.N,+12V*%
X225852000Y-205852000D03*
%TD*%
%TO.P,R8,1*%
%TO.N,Net-(LED2-A)*%
X195464500Y-168021000D03*
%TO.P,R8,2*%
%TO.N,+12V*%
X197289500Y-168021000D03*
%TD*%
D24*
%TO.P,R2,1*%
%TO.N,Net-(JP1-Pin_1)*%
X215720500Y-107823000D03*
%TO.P,R2,2*%
%TO.N,+3V3*%
X214525500Y-107823000D03*
%TD*%
D25*
%TO.P,C23,1*%
%TO.N,+3V3*%
X149352000Y-151357500D03*
%TO.P,C23,2*%
%TO.N,GND*%
X149352000Y-149632500D03*
%TD*%
D19*
%TO.P,TP22,1,1*%
%TO.N,GND*%
X172106041Y-93787210D03*
%TD*%
D26*
%TO.P,J16,1,Pin_1*%
%TO.N,CAN2_N*%
X244007000Y-64766000D03*
%TO.P,J16,2,Pin_2*%
%TO.N,CAN2_P*%
X249007000Y-64766000D03*
%TD*%
D25*
%TO.P,C2,1*%
%TO.N,Net-(U1-NR\u005CFB)*%
X266044001Y-97640500D03*
%TO.P,C2,2*%
%TO.N,GND*%
X266044001Y-95915500D03*
%TD*%
D27*
%TO.P,C13,1*%
%TO.N,+3V3*%
X209550000Y-122420000D03*
%TO.P,C13,2*%
%TO.N,GND*%
X209550000Y-121285000D03*
%TD*%
D15*
%TO.P,R42,1*%
%TO.N,CAN1_N*%
X206380500Y-75184000D03*
%TO.P,R42,2*%
%TO.N,CAN1_P*%
X208205500Y-75184000D03*
%TD*%
D19*
%TO.P,TP14,1,1*%
%TO.N,PUMP_THROTTLE*%
X264922000Y-146431000D03*
%TD*%
D22*
%TO.P,H5,1,1*%
%TO.N,unconnected-(H5-Pad1)_5*%
X109450000Y-63590000D03*
%TO.N,unconnected-(H5-Pad1)_8*%
X110152944Y-61892944D03*
%TO.N,unconnected-(H5-Pad1)_1*%
X110152944Y-65287056D03*
%TO.N,unconnected-(H5-Pad1)*%
X111850000Y-61190000D03*
D23*
%TO.N,unconnected-(H5-Pad1)_2*%
X111850000Y-63590000D03*
D22*
%TO.N,unconnected-(H5-Pad1)_6*%
X111850000Y-65990000D03*
%TO.N,unconnected-(H5-Pad1)_3*%
X113547056Y-61892944D03*
%TO.N,unconnected-(H5-Pad1)_4*%
X113547056Y-65287056D03*
%TO.N,unconnected-(H5-Pad1)_7*%
X114250000Y-63590000D03*
%TD*%
D10*
%TO.P,C1,1*%
%TO.N,/STM32/VBUS*%
X277474000Y-95915500D03*
%TO.P,C1,2*%
%TO.N,GND*%
X277474000Y-97640500D03*
%TD*%
D28*
%TO.P,Q12,1,B*%
%TO.N,Net-(Q12-B)*%
X148768675Y-128037502D03*
%TO.P,Q12,2,E*%
%TO.N,GND*%
X148768675Y-126137502D03*
%TO.P,Q12,3,C*%
%TO.N,Net-(D15-A)*%
X146893675Y-127087502D03*
%TD*%
D29*
%TO.P,R10,1*%
%TO.N,Net-(Q2-B)*%
X207504250Y-161163000D03*
%TO.P,R10,2*%
%TO.N,GND*%
X205679250Y-161163000D03*
%TD*%
D13*
%TO.P,LED13,1,K*%
%TO.N,Net-(D15-A)*%
X143912001Y-125840000D03*
%TO.P,LED13,2,A*%
%TO.N,Net-(LED13-A)*%
X143912001Y-127590000D03*
%TD*%
D30*
%TO.P,R47,1*%
%TO.N,/DRIVER & CONNECTOR/DAC2_OUT*%
X256667000Y-149582500D03*
%TO.P,R47,2*%
%TO.N,GND*%
X256667000Y-151407500D03*
%TD*%
D17*
%TO.P,LED16,1,K*%
%TO.N,GND*%
X128274000Y-203497000D03*
%TO.P,LED16,2,A*%
%TO.N,Net-(LED16-A)*%
X130024000Y-203497000D03*
%TD*%
D31*
%TO.P,R37,1*%
%TO.N,Net-(Q11-B)*%
X150579500Y-115466999D03*
%TO.P,R37,2*%
%TO.N,GND*%
X150579500Y-113641999D03*
%TD*%
D30*
%TO.P,R27,1*%
%TO.N,/STM32/PC7*%
X224596400Y-198767300D03*
%TO.P,R27,2*%
%TO.N,Net-(Q8-B)*%
X224596400Y-200592300D03*
%TD*%
D15*
%TO.P,R58,1*%
%TO.N,Net-(D16-A)*%
X133961500Y-153924000D03*
%TO.P,R58,2*%
%TO.N,GND*%
X135786500Y-153924000D03*
%TD*%
D29*
%TO.P,R31,1*%
%TO.N,Net-(Q9-B)*%
X236140499Y-199104550D03*
%TO.P,R31,2*%
%TO.N,GND*%
X234315499Y-199104550D03*
%TD*%
D32*
%TO.P,D7,1,K*%
%TO.N,+12V*%
X241499250Y-166115000D03*
%TO.P,D7,2,A*%
%TO.N,Net-(D7-A)*%
X241499250Y-162815000D03*
%TD*%
D17*
%TO.P,LED8,1,K*%
%TO.N,Net-(D10-A)*%
X205713000Y-205852000D03*
%TO.P,LED8,2,A*%
%TO.N,Net-(LED8-A)*%
X207463000Y-205852000D03*
%TD*%
D19*
%TO.P,TP8,1,1*%
%TO.N,/DRIVER & CONNECTOR/SPI1_MISO*%
X180467000Y-75242000D03*
%TD*%
D15*
%TO.P,R54,1*%
%TO.N,Net-(J19-Pin_2)*%
X122224001Y-81510500D03*
%TO.P,R54,2*%
%TO.N,/DRIVER & CONNECTOR/ADC1_IN12*%
X124049001Y-81510500D03*
%TD*%
D17*
%TO.P,LED7,1,K*%
%TO.N,Net-(D9-A)*%
X191425500Y-205852000D03*
%TO.P,LED7,2,A*%
%TO.N,Net-(LED7-A)*%
X193175500Y-205852000D03*
%TD*%
D29*
%TO.P,R34,1*%
%TO.N,Net-(Q10-B)*%
X250491499Y-199120999D03*
%TO.P,R34,2*%
%TO.N,GND*%
X248666499Y-199120999D03*
%TD*%
%TO.P,R39,1*%
%TO.N,/STM32/PA2*%
X151809501Y-129794000D03*
%TO.P,R39,2*%
%TO.N,Net-(Q12-B)*%
X149984501Y-129794000D03*
%TD*%
D33*
%TO.P,F1,1*%
%TO.N,Net-(J21-Pin_1)*%
X129784000Y-212090000D03*
%TO.P,F1,2*%
%TO.N,Net-(SW2-B)*%
X136154000Y-212090000D03*
%TD*%
D19*
%TO.P,J17,1,Pin_1*%
%TO.N,unconnected-(J17-Pin_1-Pad1)*%
X194163000Y-65151000D03*
D34*
%TO.P,J17,2,Pin_2*%
%TO.N,/DRIVER & CONNECTOR/SPI1_CS*%
X191623000Y-65151000D03*
%TO.P,J17,3,Pin_3*%
%TO.N,/DRIVER & CONNECTOR/SPI1_SCK*%
X189083000Y-65151000D03*
%TO.P,J17,4,Pin_4*%
%TO.N,/DRIVER & CONNECTOR/SPI1_MOSI*%
X186543000Y-65151000D03*
%TO.P,J17,5,Pin_5*%
%TO.N,/DRIVER & CONNECTOR/SPI1_MISO*%
X184003000Y-65151000D03*
%TO.P,J17,6,Pin_6*%
%TO.N,+5V*%
X181463000Y-65151000D03*
%TO.P,J17,7,Pin_7*%
%TO.N,GND*%
X178923000Y-65151000D03*
%TD*%
D35*
%TO.P,J9,0,PAD*%
%TO.N,GND*%
X279885000Y-156053000D03*
X279885000Y-122753000D03*
D36*
%TO.P,J9,1,1*%
%TO.N,MAIN_DGND*%
X278465000Y-129708000D03*
D37*
%TO.P,J9,2,2*%
%TO.N,unconnected-(J9-Pad2)*%
X278465000Y-132478000D03*
%TO.P,J9,3,3*%
%TO.N,/DRIVER & CONNECTOR/DRIVER_MAIN1*%
X278465000Y-135248000D03*
%TO.P,J9,4,4*%
%TO.N,CAN1_P*%
X278465000Y-138018000D03*
%TO.P,J9,5,5*%
%TO.N,CAN1_N*%
X278465000Y-140788000D03*
%TO.P,J9,6,6*%
%TO.N,/DRIVER & CONNECTOR/DRIVER_MAIN5*%
X278465000Y-143558000D03*
%TO.P,J9,7,7*%
%TO.N,unconnected-(J9-Pad7)*%
X278465000Y-146328000D03*
%TO.P,J9,8,8*%
%TO.N,MAIN_DRIVER*%
X278465000Y-149098000D03*
%TO.P,J9,9,P9*%
%TO.N,MAIN_DGND*%
X281305000Y-131093000D03*
%TO.P,J9,10,P10*%
%TO.N,MAIN_TGND*%
X281305000Y-133863000D03*
%TO.P,J9,11,P111*%
%TO.N,/DRIVER & CONNECTOR/DRIVER_MAIN2*%
X281305000Y-136633000D03*
%TO.P,J9,12,P12*%
%TO.N,/DRIVER & CONNECTOR/DRIVER_MAIN3*%
X281305000Y-139403000D03*
%TO.P,J9,13,P13*%
%TO.N,/DRIVER & CONNECTOR/DRIVER_MAIN4*%
X281305000Y-142173000D03*
%TO.P,J9,14,P14*%
%TO.N,MAIN_THROTTLE*%
X281305000Y-144943000D03*
%TO.P,J9,15,P15*%
%TO.N,MAIN_DRIVER*%
X281305000Y-147713000D03*
%TD*%
D30*
%TO.P,R21,1*%
%TO.N,/STM32/PB15*%
X195919700Y-198767300D03*
%TO.P,R21,2*%
%TO.N,Net-(Q6-B)*%
X195919700Y-200592300D03*
%TD*%
D15*
%TO.P,R46,1*%
%TO.N,Net-(U3A--)*%
X259818500Y-139635001D03*
%TO.P,R46,2*%
%TO.N,MAIN_THROTTLE*%
X261643500Y-139635001D03*
%TD*%
D14*
%TO.P,C8,1*%
%TO.N,+3V3*%
X213808500Y-111379000D03*
%TO.P,C8,2*%
%TO.N,GND*%
X214943500Y-111379000D03*
%TD*%
D31*
%TO.P,R59,1*%
%TO.N,+5V*%
X135636000Y-148486500D03*
%TO.P,R59,2*%
%TO.N,Net-(LED14-A)*%
X135636000Y-146661500D03*
%TD*%
D19*
%TO.P,J6,1,Pin_1*%
%TO.N,PA15*%
X233680000Y-96520000D03*
D34*
%TO.P,J6,2,Pin_2*%
%TO.N,+3V3*%
X233680000Y-93980000D03*
%TO.P,J6,3,Pin_3*%
%TO.N,/DRIVER & CONNECTOR/USART3_TX*%
X231140000Y-96520000D03*
%TO.P,J6,4,Pin_4*%
%TO.N,+3V3*%
X231140000Y-93980000D03*
%TO.P,J6,5,Pin_5*%
%TO.N,/DRIVER & CONNECTOR/USART3_RX*%
X228600000Y-96520000D03*
%TO.P,J6,6,Pin_6*%
%TO.N,+3V3*%
X228600000Y-93980000D03*
%TO.P,J6,7,Pin_7*%
%TO.N,PC12*%
X226060000Y-96520000D03*
%TO.P,J6,8,Pin_8*%
%TO.N,+3V3*%
X226060000Y-93980000D03*
%TO.P,J6,9,Pin_9*%
%TO.N,PD2*%
X223520000Y-96520000D03*
%TO.P,J6,10,Pin_10*%
%TO.N,+3V3*%
X223520000Y-93980000D03*
%TO.P,J6,11,Pin_11*%
%TO.N,/DRIVER & CONNECTOR/SPI1_SCK*%
X220980000Y-96520000D03*
%TO.P,J6,12,Pin_12*%
%TO.N,+3V3*%
X220980000Y-93980000D03*
%TO.P,J6,13,Pin_13*%
%TO.N,/DRIVER & CONNECTOR/SPI1_MISO*%
X218440000Y-96520000D03*
%TO.P,J6,14,Pin_14*%
%TO.N,GND*%
X218440000Y-93980000D03*
%TO.P,J6,15,Pin_15*%
%TO.N,/DRIVER & CONNECTOR/SPI1_MOSI*%
X215900000Y-96520000D03*
%TO.P,J6,16,Pin_16*%
%TO.N,GND*%
X215900000Y-93980000D03*
%TO.P,J6,17,Pin_17*%
%TO.N,/DRIVER & CONNECTOR/SPI1_CS*%
X213360000Y-96520000D03*
%TO.P,J6,18,Pin_18*%
%TO.N,GND*%
X213360000Y-93980000D03*
%TO.P,J6,19,Pin_19*%
%TO.N,PB7*%
X210820000Y-96520000D03*
%TO.P,J6,20,Pin_20*%
%TO.N,GND*%
X210820000Y-93980000D03*
%TO.P,J6,21,Pin_21*%
%TO.N,/STM32/PB8*%
X208280000Y-96520000D03*
%TO.P,J6,22,Pin_22*%
%TO.N,GND*%
X208280000Y-93980000D03*
%TO.P,J6,23,Pin_23*%
%TO.N,/STM32/PB9*%
X205740000Y-96520000D03*
%TO.P,J6,24,Pin_24*%
%TO.N,GND*%
X205740000Y-93980000D03*
%TD*%
D13*
%TO.P,LED14,1,K*%
%TO.N,GND*%
X135636000Y-143270000D03*
%TO.P,LED14,2,A*%
%TO.N,Net-(LED14-A)*%
X135636000Y-145020000D03*
%TD*%
D11*
%TO.P,K4,8*%
%TO.N,+12V*%
X240997500Y-170426000D03*
D12*
%TO.P,K4,9*%
%TO.N,Net-(D7-A)*%
X233397500Y-170426000D03*
%TO.P,K4,13*%
%TO.N,/DRIVER & CONNECTOR/DRIVER_MAIN4*%
X233397500Y-180626000D03*
%TO.P,K4,16*%
%TO.N,MAIN_DRIVER*%
X233397500Y-188326000D03*
%TD*%
D19*
%TO.P,TP23,1,1*%
%TO.N,GND*%
X251460000Y-138430000D03*
%TD*%
%TO.P,TP5,1,1*%
%TO.N,/DRIVER & CONNECTOR/SPI1_CS*%
X194602442Y-75242000D03*
%TD*%
D38*
%TO.P,C17,1*%
%TO.N,/DRIVER & CONNECTOR/BRAKE2_SWITCH*%
X158994998Y-101170002D03*
%TO.P,C17,2*%
%TO.N,GND*%
X160719998Y-101170002D03*
%TD*%
D39*
%TO.P,MP2,1,1*%
%TO.N,+12V*%
X158958000Y-164465000D03*
D40*
X158958000Y-164465000D03*
%TD*%
D26*
%TO.P,J15,1,Pin_1*%
%TO.N,CAN1_N*%
X205145000Y-64766000D03*
%TO.P,J15,2,Pin_2*%
%TO.N,CAN1_P*%
X210145000Y-64766000D03*
%TD*%
D19*
%TO.P,JP1,1,Pin_1*%
%TO.N,Net-(JP1-Pin_1)*%
X214122000Y-105156000D03*
D34*
%TO.P,JP1,2,Pin_2*%
%TO.N,/STM32/BOOT0*%
X216662000Y-105156000D03*
%TO.P,JP1,3,Pin_3*%
%TO.N,Net-(JP1-Pin_3)*%
X219202000Y-105156000D03*
%TD*%
D21*
%TO.P,D15,1,K*%
%TO.N,+12V*%
X146580001Y-132938000D03*
%TO.P,D15,2,A*%
%TO.N,Net-(D15-A)*%
X149880001Y-132938000D03*
%TD*%
D19*
%TO.P,TP13,1,1*%
%TO.N,MAIN_THROTTLE*%
X264922000Y-142279000D03*
%TD*%
D25*
%TO.P,C22,1*%
%TO.N,Net-(U4-NR\u005CFB)*%
X149352000Y-145997000D03*
%TO.P,C22,2*%
%TO.N,GND*%
X149352000Y-144272000D03*
%TD*%
D41*
%TO.P,K12,8*%
%TO.N,+12V*%
X141359000Y-132476000D03*
D12*
%TO.P,K12,9*%
%TO.N,Net-(D15-A)*%
X141359000Y-124876000D03*
%TO.P,K12,13*%
%TO.N,/RELAY/NO_EX2*%
X131159000Y-124876000D03*
%TO.P,K12,16*%
%TO.N,/RELAY/COM_EX2*%
X123459000Y-124876000D03*
%TD*%
D27*
%TO.P,C7,1*%
%TO.N,+3V3*%
X211709000Y-115121500D03*
%TO.P,C7,2*%
%TO.N,GND*%
X211709000Y-113986500D03*
%TD*%
D30*
%TO.P,R41,1*%
%TO.N,Net-(LED13-A)*%
X143912001Y-129866500D03*
%TO.P,R41,2*%
%TO.N,+12V*%
X143912001Y-131691500D03*
%TD*%
D42*
%TO.P,D2,1,1*%
%TO.N,GND*%
X272888468Y-81022656D03*
%TO.P,D2,2,2*%
%TO.N,USB_D_P*%
X275276068Y-81022656D03*
%TD*%
D20*
%TO.P,Q2,1,B*%
%TO.N,Net-(Q2-B)*%
X207541750Y-163019500D03*
%TO.P,Q2,2,E*%
%TO.N,GND*%
X205641750Y-163019500D03*
%TO.P,Q2,3,C*%
%TO.N,Net-(D5-A)*%
X206591750Y-164894500D03*
%TD*%
D17*
%TO.P,LED2,1,K*%
%TO.N,Net-(D4-A)*%
X191438000Y-168021000D03*
%TO.P,LED2,2,A*%
%TO.N,Net-(LED2-A)*%
X193188000Y-168021000D03*
%TD*%
D43*
%TO.P,J21,1,Pin_1*%
%TO.N,Net-(J21-Pin_1)*%
X129512000Y-226060000D03*
%TO.P,J21,2,Pin_2*%
%TO.N,GND*%
X139042000Y-226060000D03*
%TO.P,J21,3,Pin_3*%
X148582000Y-226060000D03*
%TO.P,J21,4,Pin_4*%
%TO.N,Net-(J21-Pin_4)*%
X158112000Y-226060000D03*
%TD*%
D31*
%TO.P,R40,1*%
%TO.N,Net-(Q12-B)*%
X150625175Y-128087501D03*
%TO.P,R40,2*%
%TO.N,GND*%
X150625175Y-126262501D03*
%TD*%
D44*
%TO.P,U4,1,EN*%
%TO.N,+5V*%
X142113000Y-149055000D03*
%TO.P,U4,2,IN*%
X143383000Y-149055000D03*
%TO.P,U4,3,GND*%
%TO.N,GND*%
X144653000Y-149055000D03*
%TO.P,U4,4,OUT*%
%TO.N,+3V3*%
X145923000Y-149055000D03*
%TO.P,U4,5,NR\u005CFB*%
%TO.N,Net-(U4-NR\u005CFB)*%
X147193000Y-149055000D03*
D45*
%TO.P,U4,6,GND-1*%
%TO.N,GND*%
X144653000Y-143045000D03*
%TD*%
D33*
%TO.P,F2,1*%
%TO.N,Net-(J21-Pin_4)*%
X158463000Y-212090000D03*
%TO.P,F2,2*%
%TO.N,/POWER SUPPLY/72V*%
X164833000Y-212090000D03*
%TD*%
D46*
%TO.P,J19,1,Pin_1*%
%TO.N,+5V*%
X116459000Y-79478498D03*
D47*
%TO.P,J19,2,Pin_2*%
%TO.N,Net-(J19-Pin_2)*%
X116459000Y-82018498D03*
%TO.P,J19,3,Pin_3*%
%TO.N,GND*%
X116459000Y-84558498D03*
%TD*%
D29*
%TO.P,R7,1*%
%TO.N,Net-(Q1-B)*%
X193260500Y-161163000D03*
%TO.P,R7,2*%
%TO.N,GND*%
X191435500Y-161163000D03*
%TD*%
D25*
%TO.P,C21,1*%
%TO.N,+5V*%
X139827000Y-148690500D03*
%TO.P,C21,2*%
%TO.N,GND*%
X139827000Y-146965500D03*
%TD*%
D32*
%TO.P,D12,1,K*%
%TO.N,+12V*%
X241576350Y-203991000D03*
%TO.P,D12,2,A*%
%TO.N,Net-(D12-A)*%
X241576350Y-200691000D03*
%TD*%
D46*
%TO.P,J12,1,Pin_1*%
%TO.N,/DRIVER & CONNECTOR/BRAKE2_SWITCH*%
X153150000Y-98630002D03*
D47*
%TO.P,J12,2,Pin_2*%
%TO.N,GND*%
X153150000Y-101170002D03*
%TD*%
D10*
%TO.P,C5,1*%
%TO.N,Net-(U2-PH1)*%
X206883000Y-119570500D03*
%TO.P,C5,2*%
%TO.N,GND*%
X206883000Y-121295500D03*
%TD*%
D15*
%TO.P,R56,1*%
%TO.N,Net-(J20-Pin_2)*%
X122224001Y-97027999D03*
%TO.P,R56,2*%
%TO.N,/DRIVER & CONNECTOR/ADC1_IN13*%
X124049001Y-97027999D03*
%TD*%
D19*
%TO.P,TP6,1,1*%
%TO.N,/DRIVER & CONNECTOR/SPI1_SCK*%
X189763628Y-75242000D03*
%TD*%
D30*
%TO.P,R38,1*%
%TO.N,Net-(LED12-A)*%
X143891000Y-117461500D03*
%TO.P,R38,2*%
%TO.N,+12V*%
X143891000Y-119286500D03*
%TD*%
D48*
%TO.P,U2,1,VBAT*%
%TO.N,+3V3*%
X212765000Y-116138000D03*
%TO.P,U2,2,PC13*%
%TO.N,PC13*%
X212765000Y-116638000D03*
%TO.P,U2,3,PC14*%
%TO.N,PC14*%
X212765000Y-117138000D03*
%TO.P,U2,4,PC15*%
%TO.N,PC15*%
X212765000Y-117638000D03*
%TO.P,U2,5,PH0*%
%TO.N,Net-(U2-PH0)*%
X212765000Y-118138000D03*
%TO.P,U2,6,PH1*%
%TO.N,Net-(U2-PH1)*%
X212765000Y-118638000D03*
%TO.P,U2,7,NRST*%
%TO.N,NRST*%
X212765000Y-119138000D03*
%TO.P,U2,8,PC0*%
%TO.N,/DRIVER & CONNECTOR/BRAKE1_IN*%
X212765000Y-119638000D03*
%TO.P,U2,9,PC1*%
%TO.N,/DRIVER & CONNECTOR/BRAKE2_IN*%
X212765000Y-120138000D03*
%TO.P,U2,10,PC2*%
%TO.N,/DRIVER & CONNECTOR/ADC1_IN12*%
X212765000Y-120638000D03*
%TO.P,U2,11,PC3*%
%TO.N,/DRIVER & CONNECTOR/ADC1_IN13*%
X212765000Y-121138000D03*
%TO.P,U2,12,VSSA*%
%TO.N,GND*%
X212765000Y-121638000D03*
%TO.P,U2,13,VDDA*%
%TO.N,+3V3*%
X212765000Y-122138000D03*
%TO.P,U2,14,PA0*%
%TO.N,PA0*%
X212765000Y-122638000D03*
%TO.P,U2,15,PA1*%
%TO.N,/STM32/PA1*%
X212765000Y-123138000D03*
%TO.P,U2,16,PA2*%
%TO.N,/STM32/PA2*%
X212765000Y-123638000D03*
D49*
%TO.P,U2,17,PA3*%
%TO.N,PA3*%
X214690000Y-125563000D03*
%TO.P,U2,18,VSS*%
%TO.N,GND*%
X215190000Y-125563000D03*
%TO.P,U2,19,VDD*%
%TO.N,+3V3*%
X215690000Y-125563000D03*
%TO.P,U2,20,PA4*%
%TO.N,/DRIVER & CONNECTOR/DAC1_OUT*%
X216190000Y-125563000D03*
%TO.P,U2,21,PA5*%
%TO.N,/DRIVER & CONNECTOR/DAC2_OUT*%
X216690000Y-125563000D03*
%TO.P,U2,22,PA6*%
%TO.N,PA6*%
X217190000Y-125563000D03*
%TO.P,U2,23,PA7*%
%TO.N,/STM32/PA7*%
X217690000Y-125563000D03*
%TO.P,U2,24,PC4*%
%TO.N,/STM32/PC4*%
X218190000Y-125563000D03*
%TO.P,U2,25,PC5*%
%TO.N,/STM32/PC5*%
X218690000Y-125563000D03*
%TO.P,U2,26,PB0*%
%TO.N,/STM32/PB0*%
X219190000Y-125563000D03*
%TO.P,U2,27,PB1*%
%TO.N,/STM32/PB1*%
X219690000Y-125563000D03*
%TO.P,U2,28,PB2*%
%TO.N,PB2*%
X220190000Y-125563000D03*
%TO.P,U2,29,PB10*%
%TO.N,PB10*%
X220690000Y-125563000D03*
%TO.P,U2,30,VCAP_1*%
%TO.N,Net-(U2-VCAP_1)*%
X221190000Y-125563000D03*
%TO.P,U2,31,VSS*%
%TO.N,GND*%
X221690000Y-125563000D03*
%TO.P,U2,32,VDD*%
%TO.N,+3V3*%
X222190000Y-125563000D03*
D48*
%TO.P,U2,33,PB12*%
%TO.N,/STM32/PB12*%
X224115000Y-123638000D03*
%TO.P,U2,34,PB13*%
%TO.N,/STM32/PB13*%
X224115000Y-123138000D03*
%TO.P,U2,35,PB14*%
%TO.N,PB14*%
X224115000Y-122638000D03*
%TO.P,U2,36,PB15*%
%TO.N,/STM32/PB15*%
X224115000Y-122138000D03*
%TO.P,U2,37,PC6*%
%TO.N,/STM32/PC6*%
X224115000Y-121638000D03*
%TO.P,U2,38,PC7*%
%TO.N,/STM32/PC7*%
X224115000Y-121138000D03*
%TO.P,U2,39,PC8*%
%TO.N,/STM32/PC8*%
X224115000Y-120638000D03*
%TO.P,U2,40,PC9*%
%TO.N,/STM32/PC9*%
X224115000Y-120138000D03*
%TO.P,U2,41,PA8*%
%TO.N,PA8*%
X224115000Y-119638000D03*
%TO.P,U2,42,PA9*%
%TO.N,PA9*%
X224115000Y-119138000D03*
%TO.P,U2,43,PA10*%
%TO.N,PA10*%
X224115000Y-118638000D03*
%TO.P,U2,44,PA11*%
%TO.N,USB_D_N*%
X224115000Y-118138000D03*
%TO.P,U2,45,PA12*%
%TO.N,USB_D_P*%
X224115000Y-117638000D03*
%TO.P,U2,46,PA13*%
%TO.N,PA13*%
X224115000Y-117138000D03*
%TO.P,U2,47,VSS*%
%TO.N,GND*%
X224115000Y-116638000D03*
%TO.P,U2,48,VDD*%
%TO.N,+3V3*%
X224115000Y-116138000D03*
D49*
%TO.P,U2,49,PA14*%
%TO.N,PA14*%
X222190000Y-114213000D03*
%TO.P,U2,50,PA15*%
%TO.N,PA15*%
X221690000Y-114213000D03*
%TO.P,U2,51,PC10*%
%TO.N,/DRIVER & CONNECTOR/USART3_TX*%
X221190000Y-114213000D03*
%TO.P,U2,52,PC11*%
%TO.N,/DRIVER & CONNECTOR/USART3_RX*%
X220690000Y-114213000D03*
%TO.P,U2,53,PC12*%
%TO.N,PC12*%
X220190000Y-114213000D03*
%TO.P,U2,54,PD2*%
%TO.N,PD2*%
X219690000Y-114213000D03*
%TO.P,U2,55,PB3*%
%TO.N,/DRIVER & CONNECTOR/SPI1_SCK*%
X219190000Y-114213000D03*
%TO.P,U2,56,PB4*%
%TO.N,/DRIVER & CONNECTOR/SPI1_MISO*%
X218690000Y-114213000D03*
%TO.P,U2,57,PB5*%
%TO.N,/DRIVER & CONNECTOR/SPI1_MOSI*%
X218190000Y-114213000D03*
%TO.P,U2,58,PB6*%
%TO.N,/DRIVER & CONNECTOR/SPI1_CS*%
X217690000Y-114213000D03*
%TO.P,U2,59,PB7*%
%TO.N,PB7*%
X217190000Y-114213000D03*
%TO.P,U2,60,BOOT0*%
%TO.N,/STM32/BOOT0*%
X216690000Y-114213000D03*
%TO.P,U2,61,PB8*%
%TO.N,/STM32/PB8*%
X216190000Y-114213000D03*
%TO.P,U2,62,PB9*%
%TO.N,/STM32/PB9*%
X215690000Y-114213000D03*
%TO.P,U2,63,VSS*%
%TO.N,GND*%
X215190000Y-114213000D03*
%TO.P,U2,64,VDD*%
%TO.N,+3V3*%
X214690000Y-114213000D03*
%TD*%
D32*
%TO.P,D4,1,K*%
%TO.N,+12V*%
X198663000Y-166115000D03*
%TO.P,D4,2,A*%
%TO.N,Net-(D4-A)*%
X198663000Y-162815000D03*
%TD*%
D15*
%TO.P,R35,1*%
%TO.N,Net-(LED11-A)*%
X252627834Y-205851574D03*
%TO.P,R35,2*%
%TO.N,+12V*%
X254452834Y-205851574D03*
%TD*%
D29*
%TO.P,R22,1*%
%TO.N,Net-(Q6-B)*%
X193350998Y-199104550D03*
%TO.P,R22,2*%
%TO.N,GND*%
X191525998Y-199104550D03*
%TD*%
D11*
%TO.P,K3,8*%
%TO.N,+12V*%
X226710000Y-170426000D03*
D12*
%TO.P,K3,9*%
%TO.N,Net-(D6-A)*%
X219110000Y-170426000D03*
%TO.P,K3,13*%
%TO.N,/DRIVER & CONNECTOR/DRIVER_MAIN3*%
X219110000Y-180626000D03*
%TO.P,K3,16*%
%TO.N,MAIN_DRIVER*%
X219110000Y-188326000D03*
%TD*%
D46*
%TO.P,J11,1,Pin_1*%
%TO.N,/DRIVER & CONNECTOR/BRAKE1_SWITCH*%
X153150000Y-87630000D03*
D47*
%TO.P,J11,2,Pin_2*%
%TO.N,GND*%
X153150000Y-90170000D03*
%TD*%
D11*
%TO.P,K2,8*%
%TO.N,+12V*%
X212422500Y-170426000D03*
D12*
%TO.P,K2,9*%
%TO.N,Net-(D5-A)*%
X204822500Y-170426000D03*
%TO.P,K2,13*%
%TO.N,/DRIVER & CONNECTOR/DRIVER_MAIN2*%
X204822500Y-180626000D03*
%TO.P,K2,16*%
%TO.N,MAIN_DRIVER*%
X204822500Y-188326000D03*
%TD*%
D15*
%TO.P,R50,1*%
%TO.N,/DRIVER & CONNECTOR/BRAKE1_SWITCH*%
X158587500Y-87630003D03*
%TO.P,R50,2*%
%TO.N,/DRIVER & CONNECTOR/BRAKE1_IN*%
X160412500Y-87630003D03*
%TD*%
D17*
%TO.P,LED10,1,K*%
%TO.N,Net-(D12-A)*%
X234313834Y-205852000D03*
%TO.P,LED10,2,A*%
%TO.N,Net-(LED10-A)*%
X236063834Y-205852000D03*
%TD*%
D50*
%TO.P,Y1,1,1*%
%TO.N,Net-(U2-PH1)*%
X202946000Y-120560000D03*
%TO.P,Y1,2,2*%
%TO.N,Net-(U2-PH0)*%
X202946000Y-115680000D03*
%TD*%
D30*
%TO.P,R9,1*%
%TO.N,/STM32/PC4*%
X210401750Y-160885500D03*
%TO.P,R9,2*%
%TO.N,Net-(Q2-B)*%
X210401750Y-162710500D03*
%TD*%
D15*
%TO.P,R14,1*%
%TO.N,Net-(LED4-A)*%
X223768000Y-168021000D03*
%TO.P,R14,2*%
%TO.N,+12V*%
X225593000Y-168021000D03*
%TD*%
D19*
%TO.P,TP10,1,1*%
%TO.N,/DRIVER & CONNECTOR/USART3_RX*%
X226187000Y-72547000D03*
%TD*%
D51*
%TO.P,C12,1*%
%TO.N,+3V3*%
X226060000Y-115256500D03*
%TO.P,C12,2*%
%TO.N,GND*%
X226060000Y-116391500D03*
%TD*%
D52*
%TO.P,SW1,1,A*%
%TO.N,GND*%
X192076000Y-93635000D03*
X198576000Y-93635000D03*
%TO.P,SW1,2,B*%
%TO.N,NRST*%
X192076000Y-98135000D03*
X198576000Y-98135000D03*
%TD*%
D30*
%TO.P,R30,1*%
%TO.N,/STM32/PC8*%
X238833150Y-198767300D03*
%TO.P,R30,2*%
%TO.N,Net-(Q9-B)*%
X238833150Y-200592300D03*
%TD*%
D53*
%TO.P,H1,1,1*%
%TO.N,GND*%
X118017999Y-187325000D03*
D54*
X118017999Y-187325000D03*
%TD*%
D20*
%TO.P,Q5,1,B*%
%TO.N,Net-(Q5-B)*%
X250314500Y-163019500D03*
%TO.P,Q5,2,E*%
%TO.N,GND*%
X248414500Y-163019500D03*
%TO.P,Q5,3,C*%
%TO.N,Net-(D8-A)*%
X249364500Y-164894500D03*
%TD*%
D30*
%TO.P,R48,1*%
%TO.N,Net-(U3B--)*%
X258699000Y-151233500D03*
%TO.P,R48,2*%
%TO.N,GND*%
X258699000Y-153058500D03*
%TD*%
D51*
%TO.P,C11,1*%
%TO.N,+3V3*%
X223520000Y-126051500D03*
%TO.P,C11,2*%
%TO.N,GND*%
X223520000Y-127186500D03*
%TD*%
D29*
%TO.P,R28,1*%
%TO.N,Net-(Q8-B)*%
X221789499Y-199104550D03*
%TO.P,R28,2*%
%TO.N,GND*%
X219964499Y-199104550D03*
%TD*%
D19*
%TO.P,TP9,1,1*%
%TO.N,/DRIVER & CONNECTOR/USART3_TX*%
X229870000Y-72547000D03*
%TD*%
%TO.P,J3,1,Pin_1*%
%TO.N,PC13*%
X195961000Y-103647000D03*
D34*
%TO.P,J3,2,Pin_2*%
%TO.N,+3V3*%
X193421000Y-103647000D03*
%TO.P,J3,3,Pin_3*%
%TO.N,PC14*%
X195961000Y-106187000D03*
%TO.P,J3,4,Pin_4*%
%TO.N,+3V3*%
X193421000Y-106187000D03*
%TO.P,J3,5,Pin_5*%
%TO.N,PC15*%
X195961000Y-108727000D03*
%TO.P,J3,6,Pin_6*%
%TO.N,+3V3*%
X193421000Y-108727000D03*
%TO.P,J3,7,Pin_7*%
%TO.N,NRST*%
X195961000Y-111267000D03*
%TO.P,J3,8,Pin_8*%
%TO.N,+3V3*%
X193421000Y-111267000D03*
%TO.P,J3,9,Pin_9*%
%TO.N,/DRIVER & CONNECTOR/BRAKE1_IN*%
X195961000Y-113807000D03*
%TO.P,J3,10,Pin_10*%
%TO.N,+3V3*%
X193421000Y-113807000D03*
%TO.P,J3,11,Pin_11*%
%TO.N,/DRIVER & CONNECTOR/BRAKE2_IN*%
X195961000Y-116347000D03*
%TO.P,J3,12,Pin_12*%
%TO.N,+3V3*%
X193421000Y-116347000D03*
%TO.P,J3,13,Pin_13*%
%TO.N,/DRIVER & CONNECTOR/ADC1_IN12*%
X195961000Y-118887000D03*
%TO.P,J3,14,Pin_14*%
%TO.N,GND*%
X193421000Y-118887000D03*
%TO.P,J3,15,Pin_15*%
%TO.N,/DRIVER & CONNECTOR/ADC1_IN13*%
X195961000Y-121427000D03*
%TO.P,J3,16,Pin_16*%
%TO.N,GND*%
X193421000Y-121427000D03*
%TO.P,J3,17,Pin_17*%
%TO.N,PA0*%
X195961000Y-123967000D03*
%TO.P,J3,18,Pin_18*%
%TO.N,GND*%
X193421000Y-123967000D03*
%TO.P,J3,19,Pin_19*%
%TO.N,/STM32/PA1*%
X195961000Y-126507000D03*
%TO.P,J3,20,Pin_20*%
%TO.N,GND*%
X193421000Y-126507000D03*
%TO.P,J3,21,Pin_21*%
%TO.N,/STM32/PA2*%
X195961000Y-129047000D03*
%TO.P,J3,22,Pin_22*%
%TO.N,GND*%
X193421000Y-129047000D03*
%TO.P,J3,23,Pin_23*%
%TO.N,PA3*%
X195961000Y-131587000D03*
%TO.P,J3,24,Pin_24*%
%TO.N,GND*%
X193421000Y-131587000D03*
%TO.P,J3,25,Pin_25*%
%TO.N,/DRIVER & CONNECTOR/DAC1_OUT*%
X195961000Y-134127000D03*
%TO.P,J3,26,Pin_26*%
%TO.N,GND*%
X193421000Y-134127000D03*
%TD*%
D32*
%TO.P,D6,1,K*%
%TO.N,+12V*%
X227220500Y-166115000D03*
%TO.P,D6,2,A*%
%TO.N,Net-(D6-A)*%
X227220500Y-162815000D03*
%TD*%
D15*
%TO.P,R17,1*%
%TO.N,Net-(LED5-A)*%
X238046750Y-168021000D03*
%TO.P,R17,2*%
%TO.N,+12V*%
X239871750Y-168021000D03*
%TD*%
%TO.P,R51,1*%
%TO.N,+3V3*%
X158587499Y-85090002D03*
%TO.P,R51,2*%
%TO.N,/DRIVER & CONNECTOR/BRAKE1_IN*%
X160412499Y-85090002D03*
%TD*%
D29*
%TO.P,R61,1*%
%TO.N,+12V*%
X134770500Y-203454000D03*
%TO.P,R61,2*%
%TO.N,Net-(LED16-A)*%
X132945500Y-203454000D03*
%TD*%
D39*
%TO.P,MP3,1,1*%
%TO.N,5_BUCK*%
X128478000Y-164465000D03*
D40*
X128478000Y-164465000D03*
%TD*%
D15*
%TO.P,R26,1*%
%TO.N,Net-(LED8-A)*%
X209739500Y-205852000D03*
%TO.P,R26,2*%
%TO.N,+12V*%
X211564500Y-205852000D03*
%TD*%
D20*
%TO.P,Q7,1,B*%
%TO.N,Net-(Q7-B)*%
X207515500Y-200865500D03*
%TO.P,Q7,2,E*%
%TO.N,GND*%
X205615500Y-200865500D03*
%TO.P,Q7,3,C*%
%TO.N,Net-(D10-A)*%
X206565500Y-202740500D03*
%TD*%
D55*
%TO.P,Q13,1,G*%
%TO.N,Net-(D16-A)*%
X128738000Y-151125000D03*
D56*
%TO.P,Q13,2,D*%
%TO.N,5_BUCK*%
X124113000Y-150370000D03*
X124113000Y-147320000D03*
D57*
X122438000Y-148845000D03*
D56*
X120763000Y-150370000D03*
X120763000Y-147320000D03*
D55*
%TO.P,Q13,3,S*%
%TO.N,+5V*%
X128738000Y-146565000D03*
%TD*%
D20*
%TO.P,Q4,1,B*%
%TO.N,Net-(Q4-B)*%
X235963500Y-163019500D03*
%TO.P,Q4,2,E*%
%TO.N,GND*%
X234063500Y-163019500D03*
%TO.P,Q4,3,C*%
%TO.N,Net-(D7-A)*%
X235013500Y-164894500D03*
%TD*%
D32*
%TO.P,D11,1,K*%
%TO.N,+12V*%
X227339600Y-203991000D03*
%TO.P,D11,2,A*%
%TO.N,Net-(D11-A)*%
X227339600Y-200691000D03*
%TD*%
D18*
%TO.P,TP1,1,1*%
%TO.N,+12V*%
X137668000Y-203454000D03*
%TD*%
D32*
%TO.P,D5,1,K*%
%TO.N,+12V*%
X212941750Y-166115000D03*
%TO.P,D5,2,A*%
%TO.N,Net-(D5-A)*%
X212941750Y-162815000D03*
%TD*%
D15*
%TO.P,R1,1*%
%TO.N,/STM32/VBUS*%
X278226501Y-91698000D03*
%TO.P,R1,2*%
%TO.N,Net-(LED1-A)*%
X280051501Y-91698000D03*
%TD*%
D46*
%TO.P,J20,1,Pin_1*%
%TO.N,+5V*%
X116459000Y-94996000D03*
D47*
%TO.P,J20,2,Pin_2*%
%TO.N,Net-(J20-Pin_2)*%
X116459000Y-97536000D03*
%TO.P,J20,3,Pin_3*%
%TO.N,GND*%
X116459000Y-100076000D03*
%TD*%
D29*
%TO.P,R19,1*%
%TO.N,Net-(Q5-B)*%
X250277000Y-161163000D03*
%TO.P,R19,2*%
%TO.N,GND*%
X248452000Y-161163000D03*
%TD*%
D19*
%TO.P,TP16,1,1*%
%TO.N,/DRIVER & CONNECTOR/ADC1_IN13*%
X128631599Y-97051499D03*
%TD*%
D32*
%TO.P,D13,1,K*%
%TO.N,+12V*%
X255765934Y-203990574D03*
%TO.P,D13,2,A*%
%TO.N,Net-(D13-A)*%
X255765934Y-200690574D03*
%TD*%
%TO.P,D8,1,K*%
%TO.N,+12V*%
X255778000Y-166115000D03*
%TO.P,D8,2,A*%
%TO.N,Net-(D8-A)*%
X255778000Y-162815000D03*
%TD*%
D42*
%TO.P,D1,1,1*%
%TO.N,GND*%
X272872200Y-85598000D03*
%TO.P,D1,2,2*%
%TO.N,USB_D_N*%
X275259800Y-85598000D03*
%TD*%
D19*
%TO.P,J2,1,Pin_1*%
%TO.N,+3V3*%
X251205999Y-98044000D03*
D34*
%TO.P,J2,2,Pin_2*%
%TO.N,PA13*%
X248665999Y-98044000D03*
%TO.P,J2,3,Pin_3*%
%TO.N,PA14*%
X246125999Y-98044000D03*
%TO.P,J2,4,Pin_4*%
%TO.N,NRST*%
X243585999Y-98044000D03*
%TO.P,J2,5,Pin_5*%
%TO.N,GND*%
X241045999Y-98044000D03*
%TD*%
D39*
%TO.P,MP4,1,1*%
%TO.N,GND*%
X117048000Y-164465000D03*
D40*
X117048000Y-164465000D03*
%TD*%
D19*
%TO.P,J14,1,Pin_1*%
%TO.N,CAN2_N*%
X245105000Y-71553500D03*
D34*
%TO.P,J14,2,Pin_2*%
%TO.N,CAN2_P*%
X247645000Y-71553500D03*
%TO.P,J14,3,Pin_3*%
%TO.N,/STM32/PB12*%
X250185000Y-71553500D03*
%TO.P,J14,4,Pin_4*%
%TO.N,/STM32/PB13*%
X252725000Y-71553500D03*
%TO.P,J14,5,Pin_5*%
%TO.N,GND*%
X255265000Y-71553500D03*
%TO.P,J14,6,Pin_6*%
%TO.N,+5V*%
X257805000Y-71553500D03*
%TD*%
D27*
%TO.P,C14,1*%
%TO.N,+3V3*%
X210820000Y-122420000D03*
%TO.P,C14,2*%
%TO.N,GND*%
X210820000Y-121285000D03*
%TD*%
D15*
%TO.P,R23,1*%
%TO.N,Net-(LED7-A)*%
X195452000Y-205852000D03*
%TO.P,R23,2*%
%TO.N,+12V*%
X197277000Y-205852000D03*
%TD*%
D13*
%TO.P,LED15,1,K*%
%TO.N,GND*%
X153550000Y-144055500D03*
%TO.P,LED15,2,A*%
%TO.N,Net-(LED15-A)*%
X153550000Y-145805500D03*
%TD*%
D58*
%TO.P,U3,1*%
%TO.N,MAIN_THROTTLE*%
X260985000Y-142305000D03*
%TO.P,U3,2,-*%
%TO.N,Net-(U3A--)*%
X259715000Y-142305000D03*
%TO.P,U3,3,+*%
%TO.N,/DRIVER & CONNECTOR/DAC1_OUT*%
X258445000Y-142305000D03*
%TO.P,U3,4,V-*%
%TO.N,GND*%
X257175000Y-142305000D03*
%TO.P,U3,5,+*%
%TO.N,/DRIVER & CONNECTOR/DAC2_OUT*%
X257175000Y-147255000D03*
%TO.P,U3,6,-*%
%TO.N,Net-(U3B--)*%
X258445000Y-147255000D03*
%TO.P,U3,7*%
%TO.N,PUMP_THROTTLE*%
X259715000Y-147255000D03*
%TO.P,U3,8,V+*%
%TO.N,+12V*%
X260985000Y-147255000D03*
%TD*%
D30*
%TO.P,R18,1*%
%TO.N,/STM32/PB1*%
X253492000Y-160885500D03*
%TO.P,R18,2*%
%TO.N,Net-(Q5-B)*%
X253492000Y-162710500D03*
%TD*%
D15*
%TO.P,R20,1*%
%TO.N,Net-(LED6-A)*%
X252579500Y-168021000D03*
%TO.P,R20,2*%
%TO.N,+12V*%
X254404500Y-168021000D03*
%TD*%
D59*
%TO.P,C18,1*%
%TO.N,+5V*%
X181075500Y-67818000D03*
%TO.P,C18,2*%
%TO.N,GND*%
X179350500Y-67818000D03*
%TD*%
D19*
%TO.P,TP15,1,1*%
%TO.N,/DRIVER & CONNECTOR/ADC1_IN12*%
X128631599Y-87573006D03*
%TD*%
D29*
%TO.P,R13,1*%
%TO.N,Net-(Q3-B)*%
X221783000Y-161163000D03*
%TO.P,R13,2*%
%TO.N,GND*%
X219958000Y-161163000D03*
%TD*%
D39*
%TO.P,MP1,1,1*%
%TO.N,GND*%
X170388000Y-164464998D03*
D40*
X170388000Y-164464998D03*
%TD*%
D25*
%TO.P,C15,1*%
%TO.N,NRST*%
X189051000Y-94751500D03*
%TO.P,C15,2*%
%TO.N,GND*%
X189051000Y-93026500D03*
%TD*%
D19*
%TO.P,TP18,1,1*%
%TO.N,/DRIVER & CONNECTOR/BRAKE2_IN*%
X165850000Y-96520001D03*
%TD*%
D41*
%TO.P,K11,8*%
%TO.N,+12V*%
X141338000Y-120030000D03*
D12*
%TO.P,K11,9*%
%TO.N,Net-(D14-A)*%
X141338000Y-112430000D03*
%TO.P,K11,13*%
%TO.N,/RELAY/NO_EX1*%
X131138000Y-112430000D03*
%TO.P,K11,16*%
%TO.N,/RELAY/COM_EX1*%
X123438000Y-112430000D03*
%TD*%
D15*
%TO.P,R52,1*%
%TO.N,/DRIVER & CONNECTOR/BRAKE2_SWITCH*%
X158945000Y-98630003D03*
%TO.P,R52,2*%
%TO.N,/DRIVER & CONNECTOR/BRAKE2_IN*%
X160770000Y-98630003D03*
%TD*%
D60*
%TO.P,J18,1,Pin_1*%
%TO.N,GND*%
X231775000Y-64770000D03*
D47*
%TO.P,J18,2,Pin_2*%
%TO.N,/DRIVER & CONNECTOR/USART3_TX*%
X229235000Y-64770000D03*
%TO.P,J18,3,Pin_3*%
%TO.N,/DRIVER & CONNECTOR/USART3_RX*%
X226695000Y-64770000D03*
%TD*%
D35*
%TO.P,J10,0,PAD*%
%TO.N,GND*%
X279900331Y-198567000D03*
X279900331Y-165267000D03*
D36*
%TO.P,J10,1,1*%
%TO.N,PUMP_DGND*%
X278480331Y-172222000D03*
D37*
%TO.P,J10,2,2*%
%TO.N,unconnected-(J10-Pad2)*%
X278480331Y-174992000D03*
%TO.P,J10,3,3*%
%TO.N,/DRIVER & CONNECTOR/DRIVER_PUMP1*%
X278480331Y-177762000D03*
%TO.P,J10,4,4*%
%TO.N,CAN2_P*%
X278480331Y-180532000D03*
%TO.P,J10,5,5*%
%TO.N,CAN2_N*%
X278480331Y-183302000D03*
%TO.P,J10,6,6*%
%TO.N,/DRIVER & CONNECTOR/DRIVER_PUMP5*%
X278480331Y-186072000D03*
%TO.P,J10,7,7*%
%TO.N,unconnected-(J10-Pad7)*%
X278480331Y-188842000D03*
%TO.P,J10,8,8*%
%TO.N,PUMP_DRIVER*%
X278480331Y-191612000D03*
%TO.P,J10,9,P9*%
%TO.N,PUMP_DGND*%
X281320331Y-173607000D03*
%TO.P,J10,10,P10*%
%TO.N,PUMP_TGND*%
X281320331Y-176377000D03*
%TO.P,J10,11,P111*%
%TO.N,/DRIVER & CONNECTOR/DRIVER_PUMP2*%
X281320331Y-179147000D03*
%TO.P,J10,12,P12*%
%TO.N,/DRIVER & CONNECTOR/DRIVER_PUMP3*%
X281320331Y-181917000D03*
%TO.P,J10,13,P13*%
%TO.N,/DRIVER & CONNECTOR/DRIVER_PUMP4*%
X281320331Y-184687000D03*
%TO.P,J10,14,P14*%
%TO.N,PUMP_THROTTLE*%
X281320331Y-187457000D03*
%TO.P,J10,15,P15*%
%TO.N,PUMP_DRIVER*%
X281320331Y-190227000D03*
%TD*%
D61*
%TO.P,R4,1*%
%TO.N,Net-(JP2-Pin_3)*%
X222885000Y-131572000D03*
%TO.P,R4,2*%
%TO.N,GND*%
X224080000Y-131572000D03*
%TD*%
D11*
%TO.P,K1,8*%
%TO.N,+12V*%
X198135000Y-170426000D03*
D12*
%TO.P,K1,9*%
%TO.N,Net-(D4-A)*%
X190535000Y-170426000D03*
%TO.P,K1,13*%
%TO.N,/DRIVER & CONNECTOR/DRIVER_MAIN1*%
X190535000Y-180626000D03*
%TO.P,K1,16*%
%TO.N,/POWER SUPPLY/72V*%
X190535000Y-188326000D03*
%TD*%
D20*
%TO.P,Q6,1,B*%
%TO.N,Net-(Q6-B)*%
X193300999Y-200849051D03*
%TO.P,Q6,2,E*%
%TO.N,GND*%
X191400999Y-200849051D03*
%TO.P,Q6,3,C*%
%TO.N,Net-(D9-A)*%
X192350999Y-202724051D03*
%TD*%
D53*
%TO.P,H2,1,1*%
%TO.N,GND*%
X169418000Y-187325000D03*
D54*
X169418000Y-187325000D03*
%TD*%
D62*
%TO.P,J1,1,VBUS*%
%TO.N,/STM32/VBUS*%
X279594000Y-84998000D03*
%TO.P,J1,2,D-*%
%TO.N,USB_D_N*%
X279594000Y-84198000D03*
%TO.P,J1,3,D+*%
%TO.N,USB_D_P*%
X279594000Y-83398000D03*
%TO.P,J1,4,ID*%
%TO.N,unconnected-(J1-ID-Pad4)*%
X279594000Y-82598000D03*
%TO.P,J1,5,GND*%
%TO.N,GND*%
X279594000Y-81798000D03*
D63*
%TO.P,J1,6,Shield*%
X279594000Y-87798000D03*
X285094000Y-87798000D03*
X279594000Y-78998000D03*
X285094000Y-78998000D03*
%TD*%
D30*
%TO.P,R6,1*%
%TO.N,/STM32/PA7*%
X195936000Y-160885500D03*
%TO.P,R6,2*%
%TO.N,Net-(Q1-B)*%
X195936000Y-162710500D03*
%TD*%
D22*
%TO.P,H3,1,1*%
%TO.N,unconnected-(H3-Pad1)_2*%
X279450000Y-233590000D03*
%TO.N,unconnected-(H3-Pad1)*%
X280152944Y-231892944D03*
%TO.N,unconnected-(H3-Pad1)_7*%
X280152944Y-235287056D03*
%TO.N,unconnected-(H3-Pad1)_6*%
X281850000Y-231190000D03*
D23*
%TO.N,unconnected-(H3-Pad1)_8*%
X281850000Y-233590000D03*
D22*
%TO.N,unconnected-(H3-Pad1)_1*%
X281850000Y-235990000D03*
%TO.N,unconnected-(H3-Pad1)_4*%
X283547056Y-231892944D03*
%TO.N,unconnected-(H3-Pad1)_3*%
X283547056Y-235287056D03*
%TO.N,unconnected-(H3-Pad1)_5*%
X284250000Y-233590000D03*
%TD*%
D19*
%TO.P,TP7,1,1*%
%TO.N,/DRIVER & CONNECTOR/SPI1_MOSI*%
X185166000Y-75242000D03*
%TD*%
D29*
%TO.P,R44,1*%
%TO.N,/DRIVER & CONNECTOR/DAC1_OUT*%
X258214500Y-139635001D03*
%TO.P,R44,2*%
%TO.N,GND*%
X256389500Y-139635001D03*
%TD*%
D19*
%TO.P,TP17,1,1*%
%TO.N,/DRIVER & CONNECTOR/BRAKE1_IN*%
X165850000Y-91010003D03*
%TD*%
D11*
%TO.P,K9,8*%
%TO.N,+12V*%
X240997500Y-208272000D03*
D12*
%TO.P,K9,9*%
%TO.N,Net-(D12-A)*%
X233397500Y-208272000D03*
%TO.P,K9,13*%
%TO.N,/DRIVER & CONNECTOR/DRIVER_PUMP4*%
X233397500Y-218472000D03*
%TO.P,K9,16*%
%TO.N,PUMP_DRIVER*%
X233397500Y-226172000D03*
%TD*%
D19*
%TO.P,TP20,1,1*%
%TO.N,GND*%
X175006000Y-65126000D03*
%TD*%
D32*
%TO.P,D10,1,K*%
%TO.N,+12V*%
X213153650Y-203991000D03*
%TO.P,D10,2,A*%
%TO.N,Net-(D10-A)*%
X213153650Y-200691000D03*
%TD*%
D15*
%TO.P,R49,1*%
%TO.N,Net-(U3B--)*%
X258421500Y-149606000D03*
%TO.P,R49,2*%
%TO.N,PUMP_THROTTLE*%
X260246500Y-149606000D03*
%TD*%
D17*
%TO.P,LED5,1,K*%
%TO.N,Net-(D7-A)*%
X234161251Y-168021000D03*
%TO.P,LED5,2,A*%
%TO.N,Net-(LED5-A)*%
X235911251Y-168021000D03*
%TD*%
D20*
%TO.P,Q10,1,B*%
%TO.N,Net-(Q10-B)*%
X250441500Y-200865500D03*
%TO.P,Q10,2,E*%
%TO.N,GND*%
X248541500Y-200865500D03*
%TO.P,Q10,3,C*%
%TO.N,Net-(D13-A)*%
X249491500Y-202740500D03*
%TD*%
D17*
%TO.P,LED6,1,K*%
%TO.N,Net-(D8-A)*%
X248553000Y-168021000D03*
%TO.P,LED6,2,A*%
%TO.N,Net-(LED6-A)*%
X250303000Y-168021000D03*
%TD*%
D15*
%TO.P,R11,1*%
%TO.N,Net-(LED3-A)*%
X209338750Y-168021000D03*
%TO.P,R11,2*%
%TO.N,+12V*%
X211163750Y-168021000D03*
%TD*%
D19*
%TO.P,J13,1,Pin_1*%
%TO.N,CAN1_N*%
X206121000Y-71553500D03*
D34*
%TO.P,J13,2,Pin_2*%
%TO.N,CAN1_P*%
X208661000Y-71553500D03*
%TO.P,J13,3,Pin_3*%
%TO.N,/STM32/PB8*%
X211201000Y-71553500D03*
%TO.P,J13,4,Pin_4*%
%TO.N,/STM32/PB9*%
X213741000Y-71553500D03*
%TO.P,J13,5,Pin_5*%
%TO.N,GND*%
X216281000Y-71553500D03*
%TO.P,J13,6,Pin_6*%
%TO.N,+5V*%
X218821000Y-71553500D03*
%TD*%
D29*
%TO.P,R45,1*%
%TO.N,Net-(U3A--)*%
X259357500Y-137095000D03*
%TO.P,R45,2*%
%TO.N,GND*%
X257532500Y-137095000D03*
%TD*%
%TO.P,R16,1*%
%TO.N,Net-(Q4-B)*%
X235926000Y-161163000D03*
%TO.P,R16,2*%
%TO.N,GND*%
X234101000Y-161163000D03*
%TD*%
D19*
%TO.P,JP2,1,Pin_1*%
%TO.N,Net-(JP2-Pin_1)*%
X217909500Y-134112000D03*
D34*
%TO.P,JP2,2,Pin_2*%
%TO.N,PB2*%
X220449500Y-134112000D03*
%TO.P,JP2,3,Pin_3*%
%TO.N,Net-(JP2-Pin_3)*%
X222989500Y-134112000D03*
%TD*%
D64*
%TO.P,SW2,1,A*%
%TO.N,+12V*%
X143764000Y-203580000D03*
D65*
%TO.P,SW2,2,B*%
%TO.N,Net-(SW2-B)*%
X143764000Y-208280000D03*
%TO.P,SW2,3,C*%
%TO.N,unconnected-(SW2-C-Pad3)*%
X143764000Y-212980000D03*
%TD*%
D30*
%TO.P,R24,1*%
%TO.N,/STM32/PC6*%
X210435850Y-198767300D03*
%TO.P,R24,2*%
%TO.N,Net-(Q7-B)*%
X210435850Y-200592300D03*
%TD*%
D26*
%TO.P,J7,1,Pin_1*%
%TO.N,/RELAY/NO_EX1*%
X115951000Y-117903000D03*
%TO.P,J7,2,Pin_2*%
%TO.N,/RELAY/COM_EX1*%
X115951000Y-112903000D03*
%TD*%
D31*
%TO.P,R5,1*%
%TO.N,+3V3*%
X189051000Y-98865500D03*
%TO.P,R5,2*%
%TO.N,NRST*%
X189051000Y-97040500D03*
%TD*%
D17*
%TO.P,LED3,1,K*%
%TO.N,Net-(D5-A)*%
X205603751Y-168021000D03*
%TO.P,LED3,2,A*%
%TO.N,Net-(LED3-A)*%
X207353751Y-168021000D03*
%TD*%
D24*
%TO.P,R62,1*%
%TO.N,Net-(JP2-Pin_1)*%
X218238000Y-131572000D03*
%TO.P,R62,2*%
%TO.N,+3V3*%
X217043000Y-131572000D03*
%TD*%
D25*
%TO.P,C4,1*%
%TO.N,Net-(U2-PH0)*%
X206883000Y-116727500D03*
%TO.P,C4,2*%
%TO.N,GND*%
X206883000Y-115002500D03*
%TD*%
D66*
%TO.P,C10,1*%
%TO.N,+3V3*%
X215959500Y-127324962D03*
%TO.P,C10,2*%
%TO.N,GND*%
X214824500Y-127324962D03*
%TD*%
D38*
%TO.P,C16,1*%
%TO.N,/DRIVER & CONNECTOR/BRAKE1_SWITCH*%
X158637500Y-90170001D03*
%TO.P,C16,2*%
%TO.N,GND*%
X160362500Y-90170001D03*
%TD*%
D15*
%TO.P,R32,1*%
%TO.N,Net-(LED10-A)*%
X238340334Y-205852000D03*
%TO.P,R32,2*%
%TO.N,+12V*%
X240165334Y-205852000D03*
%TD*%
D32*
%TO.P,D9,1,K*%
%TO.N,+12V*%
X198586700Y-203991000D03*
%TO.P,D9,2,A*%
%TO.N,Net-(D9-A)*%
X198586700Y-200691000D03*
%TD*%
D29*
%TO.P,R36,1*%
%TO.N,/STM32/PA1*%
X151788500Y-117388000D03*
%TO.P,R36,2*%
%TO.N,Net-(Q11-B)*%
X149963500Y-117388000D03*
%TD*%
D30*
%TO.P,R33,1*%
%TO.N,/STM32/PC9*%
X253048134Y-198766874D03*
%TO.P,R33,2*%
%TO.N,Net-(Q10-B)*%
X253048134Y-200591874D03*
%TD*%
D22*
%TO.P,H4,1,1*%
%TO.N,unconnected-(H4-Pad1)_8*%
X279450000Y-63590000D03*
%TO.N,unconnected-(H4-Pad1)_6*%
X280152944Y-61892944D03*
%TO.N,unconnected-(H4-Pad1)*%
X280152944Y-65287056D03*
%TO.N,unconnected-(H4-Pad1)_4*%
X281850000Y-61190000D03*
D23*
%TO.N,unconnected-(H4-Pad1)_3*%
X281850000Y-63590000D03*
D22*
%TO.N,unconnected-(H4-Pad1)_1*%
X281850000Y-65990000D03*
%TO.N,unconnected-(H4-Pad1)_7*%
X283547056Y-61892944D03*
%TO.N,unconnected-(H4-Pad1)_5*%
X283547056Y-65287056D03*
%TO.N,unconnected-(H4-Pad1)_2*%
X284250000Y-63590000D03*
%TD*%
D11*
%TO.P,K7,8*%
%TO.N,+12V*%
X212422500Y-208272000D03*
D12*
%TO.P,K7,9*%
%TO.N,Net-(D10-A)*%
X204822500Y-208272000D03*
%TO.P,K7,13*%
%TO.N,/DRIVER & CONNECTOR/DRIVER_PUMP2*%
X204822500Y-218472000D03*
%TO.P,K7,16*%
%TO.N,PUMP_DRIVER*%
X204822500Y-226172000D03*
%TD*%
D20*
%TO.P,Q3,1,B*%
%TO.N,Net-(Q3-B)*%
X221820500Y-163019500D03*
%TO.P,Q3,2,E*%
%TO.N,GND*%
X219920500Y-163019500D03*
%TO.P,Q3,3,C*%
%TO.N,Net-(D6-A)*%
X220870500Y-164894500D03*
%TD*%
D26*
%TO.P,J8,1,Pin_1*%
%TO.N,/RELAY/NO_EX2*%
X115951000Y-130266500D03*
%TO.P,J8,2,Pin_2*%
%TO.N,/RELAY/COM_EX2*%
X115951000Y-125266500D03*
%TD*%
D67*
%TO.P,D3,1,1*%
%TO.N,GND*%
X282194000Y-97291800D03*
%TO.P,D3,2,2*%
%TO.N,/STM32/VBUS*%
X282194000Y-94904200D03*
%TD*%
D68*
%TO.P,LED1,1,K*%
%TO.N,GND*%
X283958000Y-91694000D03*
%TO.P,LED1,2,A*%
%TO.N,Net-(LED1-A)*%
X282208000Y-91694000D03*
%TD*%
D31*
%TO.P,R60,1*%
%TO.N,+3V3*%
X153543000Y-149526000D03*
%TO.P,R60,2*%
%TO.N,Net-(LED15-A)*%
X153543000Y-147701000D03*
%TD*%
D20*
%TO.P,Q9,1,B*%
%TO.N,Net-(Q9-B)*%
X236090500Y-200849051D03*
%TO.P,Q9,2,E*%
%TO.N,GND*%
X234190500Y-200849051D03*
%TO.P,Q9,3,C*%
%TO.N,Net-(D12-A)*%
X235140500Y-202724051D03*
%TD*%
D30*
%TO.P,R15,1*%
%TO.N,/STM32/PB0*%
X239086250Y-160885500D03*
%TO.P,R15,2*%
%TO.N,Net-(Q4-B)*%
X239086250Y-162710500D03*
%TD*%
D18*
%TO.P,TP2,1,1*%
%TO.N,+5V*%
X135636000Y-150622000D03*
%TD*%
D17*
%TO.P,LED9,1,K*%
%TO.N,Net-(D11-A)*%
X220000500Y-205852000D03*
%TO.P,LED9,2,A*%
%TO.N,Net-(LED9-A)*%
X221750500Y-205852000D03*
%TD*%
D15*
%TO.P,R43,1*%
%TO.N,CAN2_N*%
X245364500Y-75184000D03*
%TO.P,R43,2*%
%TO.N,CAN2_P*%
X247189500Y-75184000D03*
%TD*%
D19*
%TO.P,TP21,1,1*%
%TO.N,GND*%
X234696000Y-72547000D03*
%TD*%
D61*
%TO.P,R3,1*%
%TO.N,Net-(JP1-Pin_3)*%
X218208500Y-107823000D03*
%TO.P,R3,2*%
%TO.N,GND*%
X219403500Y-107823000D03*
%TD*%
D10*
%TO.P,C3,1*%
%TO.N,+3V3*%
X266044000Y-90835500D03*
%TO.P,C3,2*%
%TO.N,GND*%
X266044000Y-92560500D03*
%TD*%
D19*
%TO.P,J4,1,Pin_1*%
%TO.N,/DRIVER & CONNECTOR/DAC2_OUT*%
X205780000Y-140716000D03*
D34*
%TO.P,J4,2,Pin_2*%
%TO.N,+5V*%
X205780000Y-143256000D03*
%TO.P,J4,3,Pin_3*%
%TO.N,PA6*%
X208320000Y-140716000D03*
%TO.P,J4,4,Pin_4*%
%TO.N,+5V*%
X208320000Y-143256000D03*
%TO.P,J4,5,Pin_5*%
%TO.N,/STM32/PA7*%
X210860000Y-140716000D03*
%TO.P,J4,6,Pin_6*%
%TO.N,+5V*%
X210860000Y-143256000D03*
%TO.P,J4,7,Pin_7*%
%TO.N,/STM32/PC4*%
X213400000Y-140716000D03*
%TO.P,J4,8,Pin_8*%
%TO.N,+5V*%
X213400000Y-143256000D03*
%TO.P,J4,9,Pin_9*%
%TO.N,/STM32/PC5*%
X215940000Y-140716000D03*
%TO.P,J4,10,Pin_10*%
%TO.N,+5V*%
X215940000Y-143256000D03*
%TO.P,J4,11,Pin_11*%
%TO.N,/STM32/PB0*%
X218480000Y-140716000D03*
%TO.P,J4,12,Pin_12*%
%TO.N,+5V*%
X218480000Y-143256000D03*
%TO.P,J4,13,Pin_13*%
%TO.N,/STM32/PB1*%
X221020000Y-140716000D03*
%TO.P,J4,14,Pin_14*%
%TO.N,GND*%
X221020000Y-143256000D03*
%TO.P,J4,15,Pin_15*%
%TO.N,PB2*%
X223560000Y-140716000D03*
%TO.P,J4,16,Pin_16*%
%TO.N,GND*%
X223560000Y-143256000D03*
%TO.P,J4,17,Pin_17*%
%TO.N,PB10*%
X226100000Y-140716000D03*
%TO.P,J4,18,Pin_18*%
%TO.N,GND*%
X226100000Y-143256000D03*
%TO.P,J4,19,Pin_19*%
%TO.N,/STM32/PB12*%
X228640000Y-140716000D03*
%TO.P,J4,20,Pin_20*%
%TO.N,GND*%
X228640000Y-143256000D03*
%TO.P,J4,21,Pin_21*%
%TO.N,/STM32/PB13*%
X231180000Y-140716000D03*
%TO.P,J4,22,Pin_22*%
%TO.N,GND*%
X231180000Y-143256000D03*
%TO.P,J4,23,Pin_23*%
%TO.N,PB14*%
X233720000Y-140716000D03*
%TO.P,J4,24,Pin_24*%
%TO.N,GND*%
X233720000Y-143256000D03*
%TD*%
D29*
%TO.P,R25,1*%
%TO.N,Net-(Q7-B)*%
X207565499Y-199120999D03*
%TO.P,R25,2*%
%TO.N,GND*%
X205740499Y-199120999D03*
%TD*%
D30*
%TO.P,R55,1*%
%TO.N,/DRIVER & CONNECTOR/ADC1_IN12*%
X124206000Y-83138000D03*
%TO.P,R55,2*%
%TO.N,GND*%
X124206000Y-84963000D03*
%TD*%
D10*
%TO.P,C19,1*%
%TO.N,/DRIVER & CONNECTOR/ADC1_IN12*%
X122174000Y-83188000D03*
%TO.P,C19,2*%
%TO.N,GND*%
X122174000Y-84913000D03*
%TD*%
D30*
%TO.P,R57,1*%
%TO.N,/DRIVER & CONNECTOR/ADC1_IN13*%
X124206000Y-98681998D03*
%TO.P,R57,2*%
%TO.N,GND*%
X124206000Y-100506998D03*
%TD*%
D19*
%TO.P,TP11,1,1*%
%TO.N,/DRIVER & CONNECTOR/DAC1_OUT*%
X251460000Y-142279000D03*
%TD*%
D30*
%TO.P,R12,1*%
%TO.N,/STM32/PC5*%
X224680500Y-160885500D03*
%TO.P,R12,2*%
%TO.N,Net-(Q3-B)*%
X224680500Y-162710500D03*
%TD*%
D28*
%TO.P,Q11,1,B*%
%TO.N,Net-(Q11-B)*%
X148765500Y-115417000D03*
%TO.P,Q11,2,E*%
%TO.N,GND*%
X148765500Y-113517000D03*
%TO.P,Q11,3,C*%
%TO.N,Net-(D14-A)*%
X146890500Y-114467000D03*
%TD*%
D69*
%TO.P,U1,1,EN*%
%TO.N,/STM32/VBUS*%
X273664000Y-93773000D03*
%TO.P,U1,2,IN*%
X272394000Y-93773000D03*
%TO.P,U1,3,GND*%
%TO.N,GND*%
X271124000Y-93773000D03*
%TO.P,U1,4,OUT*%
%TO.N,+3V3*%
X269854000Y-93773000D03*
%TO.P,U1,5,NR\u005CFB*%
%TO.N,Net-(U1-NR\u005CFB)*%
X268584000Y-93773000D03*
D70*
%TO.P,U1,6,GND-1*%
%TO.N,GND*%
X271124000Y-99783000D03*
%TD*%
D19*
%TO.P,TP19,1,1*%
%TO.N,GND*%
X123571000Y-92329000D03*
%TD*%
D20*
%TO.P,Q1,1,B*%
%TO.N,Net-(Q1-B)*%
X193263000Y-163019500D03*
%TO.P,Q1,2,E*%
%TO.N,GND*%
X191363000Y-163019500D03*
%TO.P,Q1,3,C*%
%TO.N,Net-(D4-A)*%
X192313000Y-164894500D03*
%TD*%
D19*
%TO.P,TP4,1,1*%
%TO.N,PA8*%
X233172000Y-120650000D03*
%TD*%
%TO.P,J5,1,Pin_1*%
%TO.N,/STM32/PB15*%
X242042000Y-132822000D03*
D34*
%TO.P,J5,2,Pin_2*%
%TO.N,+5V*%
X244582000Y-132822000D03*
%TO.P,J5,3,Pin_3*%
%TO.N,/STM32/PC6*%
X242042000Y-130282000D03*
%TO.P,J5,4,Pin_4*%
%TO.N,+5V*%
X244582000Y-130282000D03*
%TO.P,J5,5,Pin_5*%
%TO.N,/STM32/PC7*%
X242042000Y-127742000D03*
%TO.P,J5,6,Pin_6*%
%TO.N,+5V*%
X244582000Y-127742000D03*
%TO.P,J5,7,Pin_7*%
%TO.N,/STM32/PC8*%
X242042000Y-125202000D03*
%TO.P,J5,8,Pin_8*%
%TO.N,+5V*%
X244582000Y-125202000D03*
%TO.P,J5,9,Pin_9*%
%TO.N,/STM32/PC9*%
X242042000Y-122662000D03*
%TO.P,J5,10,Pin_10*%
%TO.N,+5V*%
X244582000Y-122662000D03*
%TO.P,J5,11,Pin_11*%
%TO.N,PA8*%
X242042000Y-120122000D03*
%TO.P,J5,12,Pin_12*%
%TO.N,+5V*%
X244582000Y-120122000D03*
%TO.P,J5,13,Pin_13*%
%TO.N,PA9*%
X242042000Y-117582000D03*
%TO.P,J5,14,Pin_14*%
%TO.N,GND*%
X244582000Y-117582000D03*
%TO.P,J5,15,Pin_15*%
%TO.N,PA10*%
X242042000Y-115042000D03*
%TO.P,J5,16,Pin_16*%
%TO.N,GND*%
X244582000Y-115042000D03*
%TO.P,J5,17,Pin_17*%
%TO.N,USB_D_N*%
X242042000Y-112502000D03*
%TO.P,J5,18,Pin_18*%
%TO.N,GND*%
X244582000Y-112502000D03*
%TO.P,J5,19,Pin_19*%
%TO.N,USB_D_P*%
X242042000Y-109962000D03*
%TO.P,J5,20,Pin_20*%
%TO.N,GND*%
X244582000Y-109962000D03*
%TO.P,J5,21,Pin_21*%
%TO.N,PA13*%
X242042000Y-107422000D03*
%TO.P,J5,22,Pin_22*%
%TO.N,GND*%
X244582000Y-107422000D03*
%TO.P,J5,23,Pin_23*%
%TO.N,PA14*%
X242042000Y-104882000D03*
%TO.P,J5,24,Pin_24*%
%TO.N,GND*%
X244582000Y-104882000D03*
%TD*%
D71*
%TO.N,GND*%
X109542384Y-142409332D03*
X117572688Y-141435666D03*
X114895920Y-143383000D03*
X108204000Y-142409332D03*
X114895920Y-141435666D03*
X113557536Y-143383000D03*
X124264608Y-142409332D03*
X108204000Y-140462000D03*
X110880768Y-140462000D03*
X264795000Y-92710000D03*
X109542384Y-140462000D03*
X211709000Y-113157000D03*
X113557536Y-141435666D03*
X116234304Y-142409332D03*
X224313980Y-127141312D03*
X120249456Y-141435666D03*
X110880768Y-142409332D03*
X109542384Y-141435666D03*
X122926224Y-141435666D03*
X124264608Y-143383000D03*
X247142000Y-161163000D03*
X108204000Y-143383000D03*
X204597000Y-199136000D03*
X116234304Y-141435666D03*
X190373000Y-199136000D03*
X120249456Y-143383000D03*
X218821000Y-199136000D03*
X233172000Y-199136000D03*
X208788000Y-120904000D03*
X204343000Y-161163000D03*
X232791000Y-161163000D03*
X125603000Y-141435666D03*
X116234304Y-143383000D03*
X108204000Y-141435666D03*
X117572688Y-142409332D03*
X120249456Y-140462000D03*
X110880768Y-143383000D03*
X255143000Y-139573000D03*
X206375000Y-113919000D03*
X114895920Y-142409332D03*
X117572688Y-140462000D03*
X118911072Y-140462000D03*
X112219152Y-143383000D03*
X113557536Y-142409332D03*
X190246000Y-161163000D03*
X122926224Y-142409332D03*
X259969000Y-153035000D03*
X118911072Y-143383000D03*
X125603000Y-142409332D03*
X272034000Y-79629000D03*
X220345000Y-107823000D03*
X272161000Y-86868000D03*
X118911072Y-142409332D03*
X122926224Y-143383000D03*
X117572688Y-143383000D03*
X161671000Y-90170000D03*
X121587840Y-143383000D03*
X121587840Y-142409332D03*
X114895920Y-140462000D03*
X222504000Y-128143000D03*
X150622000Y-112395000D03*
X150622000Y-124968000D03*
X125603000Y-143383000D03*
X124264608Y-141435666D03*
X118911072Y-141435666D03*
X120249456Y-142409332D03*
X283464000Y-98171000D03*
X206883000Y-122428000D03*
X273685000Y-99568000D03*
X122926224Y-140462000D03*
X121587840Y-141435666D03*
X226949000Y-116332000D03*
X113557536Y-140462000D03*
X116234304Y-140462000D03*
X112219152Y-140462000D03*
X218694000Y-161163000D03*
X224917000Y-131572000D03*
X112219152Y-142409332D03*
X125603000Y-140462000D03*
X125476000Y-100456999D03*
X283972000Y-92964000D03*
X109542384Y-143383000D03*
X247523000Y-199136000D03*
X268605000Y-99568000D03*
X268605000Y-100584000D03*
X124264608Y-140462000D03*
X162052000Y-101092000D03*
X214884000Y-110490000D03*
X121587840Y-140462000D03*
X110880768Y-141435666D03*
X273685000Y-100584000D03*
X213995000Y-127254000D03*
X125476000Y-84939500D03*
X112219152Y-141435666D03*
%TO.N,+3V3*%
X157734000Y-96012000D03*
X149415500Y-152908000D03*
X157353000Y-85090000D03*
X213487000Y-110490000D03*
X150653750Y-151638000D03*
X146939000Y-151638000D03*
X216154000Y-131572000D03*
X151892000Y-152908000D03*
X148177250Y-152908000D03*
X216789000Y-127762000D03*
X212598000Y-114808000D03*
X208788000Y-122809000D03*
X150653750Y-152908000D03*
X224282000Y-125730000D03*
X266065000Y-89535000D03*
X151892000Y-151638000D03*
X148209000Y-151638000D03*
X226060000Y-114427000D03*
X213614000Y-107823000D03*
X146939000Y-152908000D03*
X189051000Y-99949000D03*
%TO.N,NRST*%
X214757000Y-118237000D03*
X203073000Y-110109000D03*
X230124000Y-103632000D03*
%TO.N,+5V*%
X130302000Y-140843000D03*
X131572000Y-143002000D03*
X131572000Y-141922500D03*
X130302000Y-143002000D03*
X129032000Y-143002000D03*
X131572000Y-140843000D03*
X129032000Y-141922500D03*
X130302000Y-141922500D03*
X129032000Y-140843000D03*
%TO.N,/DRIVER & CONNECTOR/ADC1_IN12*%
X198323200Y-121005600D03*
X214884000Y-120650000D03*
%TO.N,/DRIVER & CONNECTOR/ADC1_IN13*%
X206883000Y-126350000D03*
X214757000Y-121793000D03*
%TO.N,/DRIVER & CONNECTOR/DAC1_OUT*%
X215138000Y-123952000D03*
X211328000Y-128905000D03*
X235331000Y-137668000D03*
%TO.N,/STM32/PA1*%
X214249000Y-122682000D03*
X204724000Y-128270000D03*
%TO.N,PA6*%
X217805000Y-123698000D03*
X212217000Y-132461000D03*
%TO.N,/STM32/PC5*%
X218313000Y-129667000D03*
X215940000Y-136271000D03*
%TO.N,/STM32/PB1*%
X219710000Y-123698000D03*
X220091000Y-137922000D03*
%TO.N,PB10*%
X220726000Y-124079000D03*
X221119700Y-130060700D03*
%TO.N,/STM32/PB13*%
X222755218Y-122855986D03*
X237236000Y-99187000D03*
%TO.N,/STM32/PB12*%
X221488000Y-123063000D03*
X235712000Y-99187000D03*
%TO.N,/STM32/PC6*%
X234061000Y-131572000D03*
X257302000Y-191135000D03*
%TO.N,/STM32/PC8*%
X261239000Y-191135000D03*
X234061000Y-126746000D03*
%TO.N,/STM32/PC7*%
X259334000Y-191135000D03*
X234061000Y-129032000D03*
%TO.N,/STM32/PB15*%
X235331000Y-135255000D03*
X255397000Y-191135000D03*
%TO.N,/STM32/PC9*%
X263271000Y-191135000D03*
%TO.N,PB7*%
X216789000Y-115824000D03*
X210820000Y-106934000D03*
%TO.N,/STM32/PB9*%
X212979000Y-75565000D03*
X207975200Y-86360000D03*
%TO.N,/DRIVER & CONNECTOR/SPI1_MISO*%
X218440000Y-110363000D03*
X217932000Y-99568000D03*
%TO.N,/STM32/PB8*%
X211200999Y-76708000D03*
X209702400Y-86360000D03*
%TO.N,/DRIVER & CONNECTOR/SPI1_CS*%
X205867000Y-84963000D03*
X212090000Y-107442000D03*
X203327000Y-79756000D03*
X218059000Y-116078000D03*
%TO.N,/DRIVER & CONNECTOR/SPI1_SCK*%
X219344000Y-109601000D03*
X220980000Y-99568000D03*
%TO.N,/DRIVER & CONNECTOR/SPI1_MOSI*%
X189103000Y-83693000D03*
X186436000Y-81026000D03*
X217551000Y-108966000D03*
X215519000Y-99568000D03*
%TO.N,CAN1_P*%
X213741000Y-78486000D03*
X273050000Y-138018000D03*
%TO.N,CAN1_N*%
X212344000Y-79883000D03*
X273050000Y-140788000D03*
%TO.N,MAIN_THROTTLE*%
X273050000Y-144943000D03*
%TO.N,/DRIVER & CONNECTOR/BRAKE2_IN*%
X214630000Y-119634000D03*
X207264000Y-124079000D03*
%TO.N,/DRIVER & CONNECTOR/BRAKE1_IN*%
X210439000Y-119634000D03*
X202692000Y-111252000D03*
%TO.N,/DRIVER & CONNECTOR/DAC2_OUT*%
X236728000Y-141986000D03*
X216662000Y-123317000D03*
X212394800Y-129489200D03*
%TD*%
D72*
%TO.N,/STM32/VBUS*%
X272394000Y-93773000D02*
X273664000Y-93773000D01*
X273664000Y-93773000D02*
X275739000Y-91698000D01*
X279273000Y-85598000D02*
X277876000Y-85598000D01*
X275739000Y-91698000D02*
X277499000Y-91698000D01*
X282194000Y-94904200D02*
X278485300Y-94904200D01*
X279594000Y-85277000D02*
X279273000Y-85598000D01*
X277499000Y-91698000D02*
X278226501Y-91698000D01*
X277474000Y-92450501D02*
X278226501Y-91698000D01*
X279594000Y-84998000D02*
X279594000Y-85277000D01*
X276860000Y-86614000D02*
X276860000Y-91059000D01*
X277474000Y-95915500D02*
X277474000Y-92450501D01*
X276860000Y-91059000D02*
X277499000Y-91698000D01*
X277876000Y-85598000D02*
X276860000Y-86614000D01*
X278485300Y-94904200D02*
X277474000Y-95915500D01*
%TO.N,GND*%
X153150000Y-101969000D02*
X153150000Y-101170002D01*
D73*
X125553001Y-100506998D02*
X125603000Y-100456999D01*
X248452000Y-162982000D02*
X248414500Y-163019500D01*
D74*
X215190000Y-125563000D02*
X215190000Y-126959462D01*
D73*
X189051000Y-93026500D02*
X191467500Y-93026500D01*
X248452000Y-161163000D02*
X248452000Y-162982000D01*
X219964499Y-199104550D02*
X218852450Y-199104550D01*
D72*
X271124000Y-93773000D02*
X271124000Y-96647000D01*
D74*
X214065962Y-127324962D02*
X213995000Y-127254000D01*
X215190000Y-126959462D02*
X214824500Y-127324962D01*
D73*
X234101000Y-161163000D02*
X232791000Y-161163000D01*
X219958000Y-161163000D02*
X219958000Y-162982000D01*
D74*
X211173000Y-121638000D02*
X210820000Y-121285000D01*
D73*
X125452500Y-84963000D02*
X125476000Y-84939500D01*
D74*
X209550000Y-121285000D02*
X210820000Y-121285000D01*
D72*
X282584800Y-97291800D02*
X283464000Y-98171000D01*
X282194000Y-97291800D02*
X281845300Y-97640500D01*
X279594000Y-81798000D02*
X279594000Y-78998000D01*
X272888468Y-80298532D02*
X274189000Y-78998000D01*
D73*
X247538001Y-199120999D02*
X247523000Y-199136000D01*
X124206000Y-100506998D02*
X125426001Y-100506998D01*
D72*
X272117500Y-97640500D02*
X271124000Y-96647000D01*
X283958000Y-91694000D02*
X283958000Y-88934000D01*
D73*
X191363000Y-163019500D02*
X191363000Y-161235500D01*
X218852450Y-199104550D02*
X218821000Y-199136000D01*
D72*
X266044001Y-92560501D02*
X266044000Y-92560500D01*
D73*
X150579500Y-112437500D02*
X150622000Y-112395000D01*
X248666499Y-200740501D02*
X248541500Y-200865500D01*
X116863503Y-84963000D02*
X116459000Y-84558497D01*
X256389500Y-139635001D02*
X256389500Y-138238000D01*
X190404450Y-199104550D02*
X190373000Y-199136000D01*
X255205001Y-139635001D02*
X255143000Y-139573000D01*
X124206000Y-84963000D02*
X116863503Y-84963000D01*
X150625175Y-126262501D02*
X150625175Y-124971175D01*
X192076000Y-93635000D02*
X198576000Y-93635000D01*
D74*
X226949000Y-116332000D02*
X226119500Y-116332000D01*
D72*
X273685000Y-99568000D02*
X271339000Y-99568000D01*
D73*
X219964499Y-200724052D02*
X219839500Y-200849051D01*
D72*
X274189000Y-78998000D02*
X279594000Y-78998000D01*
D73*
X234696000Y-65786000D02*
X234696000Y-72547000D01*
D74*
X214943500Y-112522000D02*
X214809000Y-112656500D01*
X214943500Y-112522000D02*
X214943500Y-111379000D01*
D73*
X205740499Y-199120999D02*
X205740499Y-200740501D01*
X234101000Y-162982000D02*
X234063500Y-163019500D01*
X219964499Y-199104550D02*
X219964499Y-200724052D01*
D74*
X212765000Y-121638000D02*
X211173000Y-121638000D01*
D73*
X150500176Y-126137502D02*
X150625175Y-126262501D01*
D72*
X266044001Y-95915500D02*
X266044001Y-92560501D01*
D74*
X208788000Y-120904000D02*
X209169000Y-121285000D01*
D73*
X234101000Y-161163000D02*
X234101000Y-162982000D01*
D72*
X271339000Y-99568000D02*
X271124000Y-99783000D01*
X160362501Y-90170001D02*
X161670999Y-90170001D01*
D73*
X233680000Y-64770000D02*
X234696000Y-65786000D01*
D72*
X271124000Y-96901000D02*
X271124000Y-99783000D01*
X272161000Y-86868000D02*
X272872200Y-86156800D01*
X273685000Y-100584000D02*
X271925000Y-100584000D01*
D73*
X191525998Y-199104550D02*
X190404450Y-199104550D01*
D72*
X271925000Y-100584000D02*
X271124000Y-99783000D01*
D73*
X256389500Y-139635001D02*
X255205001Y-139635001D01*
X148765500Y-113517000D02*
X150454501Y-113517000D01*
X256667000Y-151407500D02*
X256667000Y-152527000D01*
D72*
X282194000Y-97291800D02*
X282584800Y-97291800D01*
D73*
X248666499Y-199120999D02*
X247538001Y-199120999D01*
X219958000Y-162982000D02*
X219920500Y-163019500D01*
D72*
X153670000Y-91694000D02*
X159639000Y-91694000D01*
D73*
X191363000Y-161235500D02*
X191435500Y-161163000D01*
D72*
X272542000Y-79629000D02*
X272034000Y-79629000D01*
X283958000Y-88934000D02*
X285094000Y-87798000D01*
D74*
X178923000Y-67390500D02*
X179350500Y-67818000D01*
D72*
X271124000Y-96647000D02*
X271124000Y-96901000D01*
X153150000Y-91174000D02*
X153670000Y-91694000D01*
D73*
X150579500Y-113641999D02*
X150579500Y-112437500D01*
X256389500Y-138238000D02*
X257532500Y-137095000D01*
D72*
X161670999Y-90170001D02*
X161671000Y-90170000D01*
X160719999Y-101170002D02*
X160719999Y-101916001D01*
D73*
X205679250Y-162982000D02*
X205641750Y-163019500D01*
D74*
X215190000Y-112768500D02*
X214943500Y-112522000D01*
D73*
X256540000Y-141605000D02*
X256389500Y-141454500D01*
D75*
X279594000Y-78998000D02*
X285094000Y-78998000D01*
D73*
X257198500Y-153058500D02*
X258699000Y-153058500D01*
D74*
X222182500Y-127821500D02*
X222504000Y-128143000D01*
D72*
X161973998Y-101170002D02*
X162052000Y-101092000D01*
X272888468Y-79975468D02*
X272542000Y-79629000D01*
D73*
X205740499Y-200740501D02*
X205615500Y-200865500D01*
X191467500Y-93026500D02*
X192076000Y-93635000D01*
D74*
X209169000Y-121285000D02*
X209550000Y-121285000D01*
X211709000Y-113986500D02*
X211709000Y-113157000D01*
X224313980Y-127141312D02*
X224268792Y-127186500D01*
D73*
X205679250Y-161163000D02*
X205679250Y-162982000D01*
X204612001Y-199120999D02*
X204597000Y-199136000D01*
X257175000Y-142305000D02*
X256540000Y-141670000D01*
D74*
X214943500Y-111379000D02*
X214943500Y-110549500D01*
X224115000Y-116638000D02*
X225813500Y-116638000D01*
D73*
X248452000Y-161163000D02*
X247142000Y-161163000D01*
D74*
X215190000Y-114213000D02*
X215190000Y-112768500D01*
D73*
X124229500Y-84939500D02*
X124206000Y-84963000D01*
X124206000Y-100506998D02*
X116889998Y-100506998D01*
D74*
X221690000Y-125563000D02*
X221690000Y-126888500D01*
D72*
X159893000Y-102743000D02*
X153924000Y-102743000D01*
D73*
X256667000Y-152527000D02*
X257198500Y-153058500D01*
D72*
X270323000Y-100584000D02*
X271124000Y-99783000D01*
X268605000Y-99568000D02*
X270909000Y-99568000D01*
X272888468Y-80298532D02*
X272888468Y-79975468D01*
D75*
X279594000Y-87798000D02*
X285094000Y-87798000D01*
D73*
X258699000Y-153058500D02*
X259945500Y-153058500D01*
D74*
X214824500Y-127324962D02*
X214065962Y-127324962D01*
D73*
X116889998Y-100506998D02*
X116459000Y-100076000D01*
X191525998Y-200724052D02*
X191400999Y-200849051D01*
X231775000Y-64770000D02*
X233680000Y-64770000D01*
X233203450Y-199104550D02*
X233172000Y-199136000D01*
X148768675Y-126137502D02*
X150500176Y-126137502D01*
D72*
X153924000Y-102743000D02*
X153150000Y-101969000D01*
D74*
X222182500Y-127381000D02*
X222182500Y-127821500D01*
D72*
X270909000Y-99568000D02*
X271124000Y-99783000D01*
D75*
X285094000Y-78998000D02*
X285094000Y-87798000D01*
D73*
X234190500Y-199229549D02*
X234315499Y-199104550D01*
D72*
X266044000Y-92560500D02*
X264944500Y-92560500D01*
X268605000Y-100584000D02*
X270323000Y-100584000D01*
D73*
X150454501Y-113517000D02*
X150579500Y-113641999D01*
D72*
X160719999Y-101170002D02*
X161973998Y-101170002D01*
D73*
X124206000Y-84963000D02*
X125452500Y-84963000D01*
X224080000Y-131572000D02*
X224917000Y-131572000D01*
D72*
X281845300Y-97640500D02*
X277474000Y-97640500D01*
D74*
X224268792Y-127186500D02*
X223520000Y-127186500D01*
X221690000Y-126888500D02*
X222182500Y-127381000D01*
D73*
X256389500Y-141454500D02*
X256389500Y-139635001D01*
X234315499Y-199104550D02*
X233203450Y-199104550D01*
D72*
X272888468Y-81022656D02*
X272888468Y-80298532D01*
D73*
X234190500Y-200849051D02*
X234190500Y-199229549D01*
X248666499Y-199120999D02*
X248666499Y-200740501D01*
D72*
X277474000Y-97640500D02*
X272117500Y-97640500D01*
X283958000Y-91694000D02*
X283958000Y-92950000D01*
D74*
X178923000Y-65151000D02*
X178923000Y-67390500D01*
D72*
X206883000Y-114427000D02*
X206375000Y-113919000D01*
D73*
X205679250Y-161163000D02*
X204343000Y-161163000D01*
X259945500Y-153058500D02*
X259969000Y-153035000D01*
D72*
X159639000Y-91694000D02*
X160362501Y-90970499D01*
D73*
X191435500Y-161163000D02*
X190246000Y-161163000D01*
D72*
X153150000Y-90170000D02*
X153150000Y-91174000D01*
D73*
X191525998Y-199104550D02*
X191525998Y-200724052D01*
X125426001Y-100506998D02*
X125476000Y-100456999D01*
X150625175Y-124971175D02*
X150622000Y-124968000D01*
X256540000Y-141670000D02*
X256540000Y-141605000D01*
X219403500Y-107823000D02*
X220345000Y-107823000D01*
D72*
X160719999Y-101916001D02*
X159893000Y-102743000D01*
X283958000Y-92950000D02*
X283972000Y-92964000D01*
X264944500Y-92560500D02*
X264795000Y-92710000D01*
D73*
X219958000Y-161163000D02*
X218694000Y-161163000D01*
D72*
X272872200Y-86156800D02*
X272872200Y-85598000D01*
D74*
X225813500Y-116638000D02*
X226060000Y-116391500D01*
X226119500Y-116332000D02*
X226060000Y-116391500D01*
D72*
X160362501Y-90970499D02*
X160362501Y-90170001D01*
X206883000Y-115002500D02*
X206883000Y-114427000D01*
X206883000Y-122428000D02*
X206883000Y-121295500D01*
D74*
X214943500Y-110549500D02*
X214884000Y-110490000D01*
D73*
X205740499Y-199120999D02*
X204612001Y-199120999D01*
D72*
%TO.N,Net-(U1-NR\u005CFB)*%
X267611500Y-97640500D02*
X268584000Y-96668000D01*
X266044001Y-97640500D02*
X267611500Y-97640500D01*
X268584000Y-96668000D02*
X268584000Y-93773000D01*
D74*
%TO.N,+3V3*%
X189051000Y-98865500D02*
X189051000Y-99949000D01*
D76*
X213808500Y-110811500D02*
X213487000Y-110490000D01*
D72*
X266044000Y-90835500D02*
X266044000Y-89556000D01*
D74*
X224857000Y-116138000D02*
X225044000Y-115951000D01*
D76*
X213808500Y-111379000D02*
X213808500Y-110811500D01*
D72*
X269143500Y-90835500D02*
X269875000Y-91567000D01*
D74*
X208788000Y-122809000D02*
X209177000Y-122420000D01*
X212765000Y-122138000D02*
X211102000Y-122138000D01*
X225044000Y-115570000D02*
X225357500Y-115256500D01*
D73*
X214525500Y-107823000D02*
X213614000Y-107823000D01*
D74*
X223031500Y-125563000D02*
X223520000Y-126051500D01*
X215690000Y-125563000D02*
X215690000Y-127055462D01*
X224115000Y-116138000D02*
X224857000Y-116138000D01*
D72*
X266044000Y-89556000D02*
X266065000Y-89535000D01*
D74*
X215690000Y-127055462D02*
X215959500Y-127324962D01*
X212022500Y-114808000D02*
X211709000Y-115121500D01*
X210820000Y-122420000D02*
X209550000Y-122420000D01*
X223960500Y-126051500D02*
X224282000Y-125730000D01*
X212725500Y-116138000D02*
X211709000Y-115121500D01*
D72*
X266044000Y-90835500D02*
X269143500Y-90835500D01*
D74*
X216351962Y-127324962D02*
X216789000Y-127762000D01*
D72*
X157812004Y-96090004D02*
X157734000Y-96012000D01*
X158944999Y-96090004D02*
X157812004Y-96090004D01*
D73*
X217043000Y-131572000D02*
X216154000Y-131572000D01*
D74*
X226060000Y-115256500D02*
X226060000Y-114427000D01*
D72*
X158587499Y-85090002D02*
X157353002Y-85090002D01*
X269854000Y-91588000D02*
X269854000Y-93773000D01*
X157353002Y-85090002D02*
X157353000Y-85090000D01*
D74*
X209177000Y-122420000D02*
X209550000Y-122420000D01*
X222190000Y-125563000D02*
X223031500Y-125563000D01*
X213808500Y-112522000D02*
X213808500Y-111379000D01*
X214690000Y-114213000D02*
X214690000Y-113471000D01*
X225357500Y-115256500D02*
X226060000Y-115256500D01*
X225044000Y-115951000D02*
X225044000Y-115570000D01*
X214690000Y-113471000D02*
X213808500Y-112589500D01*
X213808500Y-112589500D02*
X213808500Y-112522000D01*
X211102000Y-122138000D02*
X210820000Y-122420000D01*
X212598000Y-114808000D02*
X212022500Y-114808000D01*
D72*
X269875000Y-91567000D02*
X269854000Y-91588000D01*
D74*
X215959500Y-127324962D02*
X216351962Y-127324962D01*
X223520000Y-126051500D02*
X223960500Y-126051500D01*
X212765000Y-116138000D02*
X212725500Y-116138000D01*
%TO.N,Net-(U2-PH0)*%
X208167500Y-116727500D02*
X206883000Y-116727500D01*
X209578000Y-118138000D02*
X208167500Y-116727500D01*
X203993500Y-116727500D02*
X202946000Y-115680000D01*
X212765000Y-118138000D02*
X209578000Y-118138000D01*
X206883000Y-116727500D02*
X203993500Y-116727500D01*
%TO.N,Net-(U2-PH1)*%
X209530000Y-118638000D02*
X212765000Y-118638000D01*
X206883000Y-119570500D02*
X208597500Y-119570500D01*
X206883000Y-119570500D02*
X203935500Y-119570500D01*
X203935500Y-119570500D02*
X202946000Y-120560000D01*
X208597500Y-119570500D02*
X209530000Y-118638000D01*
%TO.N,NRST*%
X203073000Y-110109000D02*
X197119000Y-110109000D01*
X239648999Y-101981000D02*
X243585999Y-98044000D01*
D73*
X189051000Y-94751500D02*
X189051000Y-97040500D01*
X189051000Y-97040500D02*
X190981500Y-97040500D01*
D74*
X230124000Y-103632000D02*
X231775000Y-101981000D01*
X213856000Y-119138000D02*
X212765000Y-119138000D01*
D73*
X192076000Y-98135000D02*
X198576000Y-98135000D01*
D74*
X197119000Y-110109000D02*
X195961000Y-111267000D01*
X231775000Y-101981000D02*
X239648999Y-101981000D01*
D73*
X190981500Y-97040500D02*
X192076000Y-98135000D01*
D74*
X214757000Y-118237000D02*
X213856000Y-119138000D01*
D72*
%TO.N,/DRIVER & CONNECTOR/BRAKE1_SWITCH*%
X158637499Y-90170001D02*
X158637499Y-87680002D01*
X153150000Y-87630000D02*
X158587497Y-87630000D01*
X158637499Y-87680002D02*
X158587500Y-87630003D01*
X158587497Y-87630000D02*
X158587500Y-87630003D01*
%TO.N,/DRIVER & CONNECTOR/BRAKE2_SWITCH*%
X153150000Y-98630002D02*
X158944999Y-98630002D01*
X158944999Y-98630002D02*
X158945000Y-98630003D01*
X158994997Y-98680000D02*
X158945000Y-98630003D01*
X158994997Y-101170002D02*
X158994997Y-98680000D01*
D74*
%TO.N,+5V*%
X181463000Y-67430500D02*
X181075500Y-67818000D01*
X181463000Y-65151000D02*
X181463000Y-67430500D01*
D73*
%TO.N,/DRIVER & CONNECTOR/ADC1_IN12*%
X124206000Y-83138000D02*
X124206000Y-81667499D01*
D74*
X198323200Y-121005600D02*
X197866000Y-121005600D01*
X214872000Y-120638000D02*
X212765000Y-120638000D01*
D73*
X132588000Y-89130500D02*
X131030506Y-87573006D01*
X172466000Y-117602000D02*
X169799000Y-114935000D01*
D74*
X214884000Y-120650000D02*
X214872000Y-120638000D01*
D73*
X127127000Y-81510500D02*
X128651000Y-83034500D01*
X194676000Y-117602000D02*
X172466000Y-117602000D01*
X122174000Y-83187999D02*
X124156001Y-83187999D01*
X128651000Y-83034500D02*
X128631599Y-83053901D01*
X124156001Y-83187999D02*
X124206000Y-83138000D01*
X131030506Y-87573006D02*
X128631599Y-87573006D01*
X128631599Y-83053901D02*
X128631599Y-87573006D01*
D74*
X197307200Y-120446800D02*
X197307200Y-119532400D01*
X197307200Y-119532400D02*
X196661800Y-118887000D01*
X197866000Y-121005600D02*
X197307200Y-120446800D01*
D73*
X195961000Y-118887000D02*
X194676000Y-117602000D01*
X132588000Y-104521000D02*
X132588000Y-89130500D01*
X134747000Y-106680000D02*
X132588000Y-104521000D01*
X166878000Y-106680000D02*
X134747000Y-106680000D01*
D74*
X196661800Y-118887000D02*
X195961000Y-118887000D01*
D73*
X169799000Y-109601000D02*
X166878000Y-106680000D01*
X124049001Y-81510500D02*
X127127000Y-81510500D01*
X124206000Y-81667499D02*
X124049001Y-81510500D01*
X169799000Y-114935000D02*
X169799000Y-109601000D01*
D74*
%TO.N,/DRIVER & CONNECTOR/ADC1_IN13*%
X214102000Y-121138000D02*
X212765000Y-121138000D01*
X199771000Y-126365000D02*
X198755000Y-125349000D01*
X198755000Y-123190000D02*
X197739000Y-122174000D01*
D73*
X128608099Y-97027999D02*
X124049001Y-97027999D01*
D74*
X198755000Y-125349000D02*
X198755000Y-123190000D01*
D73*
X124206000Y-97184998D02*
X124049001Y-97027999D01*
X124156001Y-98731997D02*
X124206000Y-98681998D01*
X131318000Y-109728000D02*
X128631599Y-107041599D01*
X166243000Y-117729000D02*
X166243000Y-112395000D01*
X124206000Y-98681998D02*
X124206000Y-97184998D01*
D74*
X196708000Y-122174000D02*
X195961000Y-121427000D01*
X206868000Y-126365000D02*
X199771000Y-126365000D01*
X197739000Y-122174000D02*
X196708000Y-122174000D01*
D73*
X166243000Y-112395000D02*
X163576000Y-109728000D01*
X122174000Y-98731997D02*
X124156001Y-98731997D01*
X194676000Y-120142000D02*
X168656000Y-120142000D01*
D74*
X214757000Y-121793000D02*
X214102000Y-121138000D01*
D73*
X128631599Y-97051499D02*
X128608099Y-97027999D01*
X168656000Y-120142000D02*
X166243000Y-117729000D01*
X128631599Y-107041599D02*
X128631599Y-97051499D01*
X163576000Y-109728000D02*
X131318000Y-109728000D01*
D74*
X206883000Y-126350000D02*
X206868000Y-126365000D01*
D73*
X195961000Y-121427000D02*
X194676000Y-120142000D01*
D72*
%TO.N,+12V*%
X240666000Y-166115000D02*
X239871750Y-166909250D01*
D73*
X141338000Y-120030000D02*
X143147500Y-120030000D01*
D72*
X260985000Y-147255000D02*
X260985000Y-147320000D01*
X225852000Y-205913000D02*
X226710000Y-206771000D01*
X254404500Y-166854500D02*
X254404500Y-168021000D01*
X225593000Y-168062000D02*
X226710000Y-169179000D01*
X198135000Y-206710000D02*
X198135000Y-208272000D01*
X260223000Y-158496000D02*
X260223000Y-164084000D01*
X254492574Y-205851574D02*
X255285000Y-206644000D01*
X254452834Y-205851574D02*
X254452834Y-204525166D01*
X197277000Y-204551000D02*
X197277000Y-205852000D01*
D73*
X143127501Y-132476000D02*
X143912001Y-131691500D01*
D72*
X211163750Y-166788250D02*
X211163750Y-168021000D01*
X254404500Y-168021000D02*
X254404500Y-168044500D01*
X225852000Y-204776000D02*
X226637000Y-203991000D01*
X262382000Y-156337000D02*
X260223000Y-158496000D01*
X213153650Y-203991000D02*
X212188000Y-203991000D01*
X226315000Y-166115000D02*
X225593000Y-166837000D01*
X226710000Y-169179000D02*
X226710000Y-170426000D01*
X197289500Y-168021000D02*
X197289500Y-168079500D01*
X240997500Y-170426000D02*
X240997500Y-169146750D01*
X211564500Y-205852000D02*
X212422500Y-206710000D01*
X254987426Y-203990574D02*
X255765934Y-203990574D01*
X241499250Y-166115000D02*
X240666000Y-166115000D01*
X241576350Y-203991000D02*
X240763000Y-203991000D01*
X225593000Y-168021000D02*
X225593000Y-168062000D01*
X262382000Y-148717000D02*
X262382000Y-156337000D01*
X197289500Y-166692500D02*
X197289500Y-168021000D01*
X198663000Y-166115000D02*
X197867000Y-166115000D01*
X260223000Y-164084000D02*
X258192000Y-166115000D01*
X255285000Y-206644000D02*
X255285000Y-208271574D01*
X240165334Y-205875334D02*
X240997500Y-206707500D01*
X240997500Y-169146750D02*
X239871750Y-168021000D01*
X225852000Y-205852000D02*
X225852000Y-205913000D01*
D73*
X145158501Y-132938000D02*
X143912001Y-131691500D01*
D72*
X212941750Y-166115000D02*
X211837000Y-166115000D01*
X212422500Y-170426000D02*
X212422500Y-169279750D01*
X197867000Y-166115000D02*
X197289500Y-166692500D01*
X211837000Y-166115000D02*
X211163750Y-166788250D01*
X240165334Y-204588666D02*
X240165334Y-205852000D01*
X197277000Y-205852000D02*
X198135000Y-206710000D01*
X211564500Y-204614500D02*
X211564500Y-205852000D01*
X254404500Y-168044500D02*
X255285000Y-168925000D01*
X212188000Y-203991000D02*
X211564500Y-204614500D01*
X255285000Y-168925000D02*
X255285000Y-170426000D01*
X239871750Y-166909250D02*
X239871750Y-168021000D01*
X197289500Y-168079500D02*
X198135000Y-168925000D01*
X255778000Y-166115000D02*
X255144000Y-166115000D01*
X240997500Y-206707500D02*
X240997500Y-208272000D01*
X254452834Y-204525166D02*
X254987426Y-203990574D01*
X226710000Y-206771000D02*
X226710000Y-208272000D01*
X240165334Y-205852000D02*
X240165334Y-205875334D01*
D73*
X145040500Y-120436000D02*
X143891000Y-119286500D01*
D72*
X226637000Y-203991000D02*
X227339600Y-203991000D01*
D73*
X141359000Y-132476000D02*
X143127501Y-132476000D01*
D72*
X240763000Y-203991000D02*
X240165334Y-204588666D01*
X197837000Y-203991000D02*
X197277000Y-204551000D01*
X212422500Y-169279750D02*
X211163750Y-168021000D01*
X198586700Y-203991000D02*
X197837000Y-203991000D01*
D73*
X143147500Y-120030000D02*
X143891000Y-119286500D01*
D72*
X254452834Y-205851574D02*
X254492574Y-205851574D01*
D73*
X146559000Y-120436000D02*
X145040500Y-120436000D01*
D72*
X258192000Y-166115000D02*
X255778000Y-166115000D01*
X212422500Y-206710000D02*
X212422500Y-208272000D01*
X198135000Y-168925000D02*
X198135000Y-170426000D01*
X255144000Y-166115000D02*
X254404500Y-166854500D01*
D73*
X146580001Y-132938000D02*
X145158501Y-132938000D01*
D72*
X260985000Y-147320000D02*
X262382000Y-148717000D01*
X227220500Y-166115000D02*
X226315000Y-166115000D01*
X225852000Y-205852000D02*
X225852000Y-204776000D01*
X225593000Y-166837000D02*
X225593000Y-168021000D01*
D73*
%TO.N,Net-(D4-A)*%
X191438000Y-165769500D02*
X192313000Y-164894500D01*
X191438000Y-168021000D02*
X191438000Y-165769500D01*
X197548500Y-163322000D02*
X198055500Y-162815000D01*
X197548500Y-164211000D02*
X197548500Y-163322000D01*
X190535000Y-170426000D02*
X190535000Y-168924000D01*
X198055500Y-162815000D02*
X198663000Y-162815000D01*
X192313000Y-164894500D02*
X196865000Y-164894500D01*
X196865000Y-164894500D02*
X197548500Y-164211000D01*
X190535000Y-168924000D02*
X191438000Y-168021000D01*
%TO.N,Net-(D5-A)*%
X211089000Y-164894500D02*
X211645500Y-164338000D01*
X211645500Y-164338000D02*
X211645500Y-163449000D01*
X204822500Y-168802251D02*
X205603751Y-168021000D01*
X205603751Y-168021000D02*
X205603751Y-165882499D01*
X206591750Y-164894500D02*
X211089000Y-164894500D01*
X205603751Y-165882499D02*
X206591750Y-164894500D01*
X204822500Y-170426000D02*
X204822500Y-168802251D01*
X211645500Y-163449000D02*
X212279500Y-162815000D01*
X212279500Y-162815000D02*
X212941750Y-162815000D01*
%TO.N,Net-(D6-A)*%
X219995500Y-168021000D02*
X219995500Y-165769500D01*
X226503500Y-162815000D02*
X227220500Y-162815000D01*
X225996500Y-164338000D02*
X225996500Y-163322000D01*
X220870500Y-164894500D02*
X225440000Y-164894500D01*
X219995500Y-165769500D02*
X220870500Y-164894500D01*
X219110000Y-168906500D02*
X219995500Y-168021000D01*
X225996500Y-163322000D02*
X226503500Y-162815000D01*
X225440000Y-164894500D02*
X225996500Y-164338000D01*
X219110000Y-170426000D02*
X219110000Y-168906500D01*
%TO.N,Net-(D7-A)*%
X239410000Y-164894500D02*
X240093500Y-164211000D01*
X233397500Y-170426000D02*
X233397500Y-168784751D01*
X233397500Y-168784751D02*
X234161251Y-168021000D01*
X240093500Y-163322000D02*
X240601500Y-162814000D01*
X235013500Y-164894500D02*
X239410000Y-164894500D01*
X240093500Y-164211000D02*
X240093500Y-163322000D01*
X240602500Y-162815000D02*
X241499250Y-162815000D01*
X240601500Y-162814000D02*
X240602500Y-162815000D01*
X234161251Y-165746749D02*
X235013500Y-164894500D01*
X234161251Y-168021000D02*
X234161251Y-165746749D01*
%TO.N,Net-(D8-A)*%
X249364500Y-164894500D02*
X254015000Y-164894500D01*
X254015000Y-164894500D02*
X254571500Y-164338000D01*
X255205500Y-162815000D02*
X255778000Y-162815000D01*
X247685000Y-168889000D02*
X248553000Y-168021000D01*
X248553000Y-165706000D02*
X249364500Y-164894500D01*
X254571500Y-164338000D02*
X254571500Y-163449000D01*
X248553000Y-168021000D02*
X248553000Y-165706000D01*
X247685000Y-170426000D02*
X247685000Y-168889000D01*
X254571500Y-163449000D02*
X255205500Y-162815000D01*
%TO.N,Net-(D9-A)*%
X191425500Y-205852000D02*
X191425500Y-203649550D01*
X196881449Y-202724051D02*
X197421500Y-202184000D01*
X190535000Y-206742500D02*
X191425500Y-205852000D01*
X192350999Y-202724051D02*
X196881449Y-202724051D01*
X191425500Y-203649550D02*
X192350999Y-202724051D01*
X198025500Y-200691000D02*
X198586700Y-200691000D01*
X197421500Y-201295000D02*
X198025500Y-200691000D01*
X190535000Y-208272000D02*
X190535000Y-206742500D01*
X197421500Y-202184000D02*
X197421500Y-201295000D01*
%TO.N,Net-(D10-A)*%
X204822500Y-208272000D02*
X204822500Y-206742500D01*
X204822500Y-206742500D02*
X205713000Y-205852000D01*
X212249500Y-200691000D02*
X213153650Y-200691000D01*
X205713000Y-205852000D02*
X205713000Y-203593000D01*
X206565500Y-202740500D02*
X211343000Y-202740500D01*
X211899500Y-201041000D02*
X212249500Y-200691000D01*
X211343000Y-202740500D02*
X211899500Y-202184000D01*
X211899500Y-202184000D02*
X211899500Y-201041000D01*
X205713000Y-203593000D02*
X206565500Y-202740500D01*
%TO.N,Net-(D11-A)*%
X219110000Y-206742500D02*
X220000500Y-205852000D01*
X226250500Y-201231500D02*
X226791000Y-200691000D01*
X220000500Y-205852000D02*
X220000500Y-203513051D01*
X219110000Y-208272000D02*
X219110000Y-206742500D01*
X226250500Y-202184000D02*
X226250500Y-201231500D01*
X225710449Y-202724051D02*
X226250500Y-202184000D01*
X226791000Y-200691000D02*
X227339600Y-200691000D01*
X220789500Y-202724051D02*
X225710449Y-202724051D01*
X220000500Y-203513051D02*
X220789500Y-202724051D01*
%TO.N,Net-(D12-A)*%
X239553449Y-202724051D02*
X240093500Y-202184000D01*
X233397500Y-208272000D02*
X233397500Y-206768334D01*
X233397500Y-206768334D02*
X234313834Y-205852000D01*
X240697500Y-200691000D02*
X241576350Y-200691000D01*
X240093500Y-201295000D02*
X240697500Y-200691000D01*
X240093500Y-202184000D02*
X240093500Y-201295000D01*
X235140500Y-202724051D02*
X239553449Y-202724051D01*
X234313834Y-203550717D02*
X235140500Y-202724051D01*
X234313834Y-205852000D02*
X234313834Y-203550717D01*
%TO.N,Net-(D13-A)*%
X254190500Y-202311000D02*
X254190500Y-201041000D01*
X254190500Y-201041000D02*
X254540926Y-200690574D01*
X254540926Y-200690574D02*
X255765934Y-200690574D01*
X247685000Y-206767908D02*
X248601334Y-205851574D01*
X253761000Y-202740500D02*
X254190500Y-202311000D01*
X249491500Y-202740500D02*
X253761000Y-202740500D01*
X248601334Y-205851574D02*
X248601334Y-203630666D01*
X247685000Y-208271574D02*
X247685000Y-206767908D01*
X248601334Y-203630666D02*
X249491500Y-202740500D01*
%TO.N,Net-(D14-A)*%
X147701000Y-118491000D02*
X149098000Y-118491000D01*
X142935000Y-112430000D02*
X143891000Y-113386000D01*
X149859000Y-119252000D02*
X149859000Y-120436000D01*
X145809500Y-113386000D02*
X146890500Y-114467000D01*
X141338000Y-112430000D02*
X142935000Y-112430000D01*
X149098000Y-118491000D02*
X149859000Y-119252000D01*
X143891000Y-113386000D02*
X145809500Y-113386000D01*
X146890500Y-117680500D02*
X147701000Y-118491000D01*
X146890500Y-114467000D02*
X146890500Y-117680500D01*
%TO.N,Net-(D15-A)*%
X149880001Y-132938000D02*
X149880001Y-131719001D01*
X146893675Y-130637675D02*
X146893675Y-127087502D01*
X141359000Y-124876000D02*
X142948001Y-124876000D01*
X149880001Y-131719001D02*
X149479000Y-131318000D01*
X143912001Y-125840000D02*
X145646173Y-125840000D01*
X145646173Y-125840000D02*
X146893675Y-127087502D01*
X142948001Y-124876000D02*
X143912001Y-125840000D01*
X149479000Y-131318000D02*
X147574000Y-131318000D01*
X147574000Y-131318000D02*
X146893675Y-130637675D01*
D74*
%TO.N,PA14*%
X222190000Y-113344000D02*
X230652000Y-104882000D01*
X246126000Y-98044000D02*
X242042000Y-102128000D01*
X230652000Y-104882000D02*
X242042000Y-104882000D01*
X222190000Y-114213000D02*
X222190000Y-113344000D01*
X242042000Y-102128000D02*
X242042000Y-104882000D01*
%TO.N,PA13*%
X243382000Y-106082000D02*
X242042000Y-107422000D01*
X236997840Y-107422000D02*
X242042000Y-107422000D01*
X227281840Y-117138000D02*
X236997840Y-107422000D01*
X248665999Y-98044000D02*
X243382000Y-103327999D01*
X224115000Y-117138000D02*
X227281840Y-117138000D01*
X243382000Y-103327999D02*
X243382000Y-106082000D01*
%TO.N,PA3*%
X206995000Y-131587000D02*
X213019000Y-125563000D01*
X213019000Y-125563000D02*
X214690000Y-125563000D01*
X195961000Y-131587000D02*
X206995000Y-131587000D01*
%TO.N,/DRIVER & CONNECTOR/DAC1_OUT*%
X206487000Y-134127000D02*
X195961000Y-134127000D01*
D73*
X258445000Y-143383000D02*
X258445000Y-142305000D01*
D74*
X216190000Y-124590440D02*
X216190000Y-125563000D01*
X215138000Y-123952000D02*
X215551560Y-123952000D01*
D73*
X258445000Y-139865501D02*
X258214500Y-139635001D01*
X257810000Y-144018000D02*
X258445000Y-143383000D01*
X258445000Y-142305000D02*
X258445000Y-139865501D01*
D74*
X235331000Y-137668000D02*
X239166400Y-137668000D01*
X243777400Y-142279000D02*
X251460000Y-142279000D01*
D73*
X251460000Y-143383000D02*
X252095000Y-144018000D01*
D74*
X211328000Y-128905000D02*
X211328000Y-129286000D01*
X211328000Y-129286000D02*
X206487000Y-134127000D01*
D73*
X251460000Y-142279000D02*
X251460000Y-143383000D01*
D74*
X215551560Y-123952000D02*
X216190000Y-124590440D01*
D73*
X252095000Y-144018000D02*
X257810000Y-144018000D01*
D74*
X239166400Y-137668000D02*
X243777400Y-142279000D01*
%TO.N,PC15*%
X208534000Y-111887000D02*
X206629000Y-111887000D01*
X212765000Y-117638000D02*
X211110000Y-117638000D01*
X209423000Y-115951000D02*
X209423000Y-112776000D01*
X206629000Y-111887000D02*
X203469000Y-108727000D01*
X203469000Y-108727000D02*
X195961000Y-108727000D01*
X211110000Y-117638000D02*
X209423000Y-115951000D01*
X209423000Y-112776000D02*
X208534000Y-111887000D01*
%TO.N,/STM32/PA1*%
X154345000Y-117388000D02*
X151788500Y-117388000D01*
X196865000Y-126507000D02*
X195961000Y-126507000D01*
X158369000Y-125222000D02*
X156464000Y-123317000D01*
X156464000Y-119507000D02*
X154345000Y-117388000D01*
X212765000Y-123138000D02*
X213793000Y-123138000D01*
X194676000Y-125222000D02*
X158369000Y-125222000D01*
X198628000Y-128270000D02*
X196865000Y-126507000D01*
X156464000Y-123317000D02*
X156464000Y-119507000D01*
X213793000Y-123138000D02*
X214249000Y-122682000D01*
X204724000Y-128270000D02*
X198628000Y-128270000D01*
X195961000Y-126507000D02*
X194676000Y-125222000D01*
%TO.N,PC13*%
X204978000Y-105664000D02*
X202961000Y-103647000D01*
X212765000Y-116638000D02*
X211682380Y-116638000D01*
X202961000Y-103647000D02*
X195961000Y-103647000D01*
X207518000Y-110617000D02*
X204978000Y-108077000D01*
X209550000Y-110617000D02*
X207518000Y-110617000D01*
X204978000Y-108077000D02*
X204978000Y-105664000D01*
X211682380Y-116638000D02*
X210693000Y-115648620D01*
X210693000Y-115648620D02*
X210693000Y-111760000D01*
X210693000Y-111760000D02*
X209550000Y-110617000D01*
%TO.N,PC14*%
X203342000Y-106187000D02*
X195961000Y-106187000D01*
X210058000Y-115799345D02*
X210058000Y-112141000D01*
X210058000Y-112141000D02*
X209169000Y-111252000D01*
X211396655Y-117138000D02*
X210058000Y-115799345D01*
X209169000Y-111252000D02*
X207137000Y-111252000D01*
X204343000Y-108458000D02*
X204343000Y-107188000D01*
X207137000Y-111252000D02*
X204343000Y-108458000D01*
X204343000Y-107188000D02*
X203342000Y-106187000D01*
X212765000Y-117138000D02*
X211396655Y-117138000D01*
%TO.N,PA0*%
X197993000Y-126238000D02*
X197993000Y-124714000D01*
X197246000Y-123967000D02*
X195961000Y-123967000D01*
X199009000Y-127254000D02*
X197993000Y-126238000D01*
X212765000Y-122638000D02*
X211753000Y-122638000D01*
X207137000Y-127254000D02*
X199009000Y-127254000D01*
X197993000Y-124714000D02*
X197246000Y-123967000D01*
X211753000Y-122638000D02*
X207137000Y-127254000D01*
%TO.N,/STM32/PA2*%
X155321000Y-127762000D02*
X153289000Y-129794000D01*
X195961000Y-129047000D02*
X196073000Y-129159000D01*
X212765000Y-124293000D02*
X212765000Y-123638000D01*
X194676000Y-127762000D02*
X155321000Y-127762000D01*
X207899000Y-129159000D02*
X212765000Y-124293000D01*
X196073000Y-129159000D02*
X207899000Y-129159000D01*
X153289000Y-129794000D02*
X151809501Y-129794000D01*
X195961000Y-129047000D02*
X194676000Y-127762000D01*
%TO.N,PA6*%
X217190000Y-124313000D02*
X217190000Y-125563000D01*
X212217000Y-133350000D02*
X208320000Y-137247000D01*
X212217000Y-132461000D02*
X212217000Y-133350000D01*
X208320000Y-137247000D02*
X208320000Y-140716000D01*
X217805000Y-123698000D02*
X217190000Y-124313000D01*
%TO.N,/STM32/PC5*%
X223113600Y-153924000D02*
X219710000Y-153924000D01*
X224680500Y-160885500D02*
X224680500Y-155490900D01*
X218313000Y-129667000D02*
X218690000Y-129290000D01*
X217220800Y-141996800D02*
X215940000Y-140716000D01*
X219710000Y-153924000D02*
X217220800Y-151434800D01*
X218690000Y-129290000D02*
X218690000Y-125563000D01*
X217220800Y-151434800D02*
X217220800Y-141996800D01*
X215940000Y-136271000D02*
X215940000Y-140716000D01*
X224680500Y-155490900D02*
X223113600Y-153924000D01*
%TO.N,/STM32/PC4*%
X214757000Y-136017000D02*
X213400000Y-137374000D01*
X216979500Y-129667000D02*
X215519000Y-129667000D01*
X214757000Y-130429000D02*
X214757000Y-136017000D01*
X213400000Y-140716000D02*
X212060000Y-142056000D01*
X212060000Y-145521200D02*
X210401750Y-147179450D01*
X215519000Y-129667000D02*
X214757000Y-130429000D01*
X218190000Y-128456500D02*
X216979500Y-129667000D01*
X218190000Y-125563000D02*
X218190000Y-128456500D01*
X210401750Y-147179450D02*
X210401750Y-160885500D01*
X212060000Y-142056000D02*
X212060000Y-145521200D01*
X213400000Y-137374000D02*
X213400000Y-140716000D01*
%TO.N,/STM32/PB1*%
X253492000Y-156870400D02*
X253492000Y-160885500D01*
X223469200Y-150418800D02*
X237439200Y-150418800D01*
X219690000Y-123718000D02*
X219690000Y-125563000D01*
X240792000Y-153771600D02*
X250393200Y-153771600D01*
X222360000Y-142056000D02*
X222360000Y-149309600D01*
X221020000Y-140716000D02*
X222360000Y-142056000D01*
X237439200Y-150418800D02*
X240792000Y-153771600D01*
X221020000Y-138851000D02*
X221020000Y-140716000D01*
X222360000Y-149309600D02*
X223469200Y-150418800D01*
X250393200Y-153771600D02*
X253492000Y-156870400D01*
X220091000Y-137922000D02*
X221020000Y-138851000D01*
X219710000Y-123698000D02*
X219690000Y-123718000D01*
%TO.N,PB10*%
X224917000Y-137033000D02*
X226100000Y-138216000D01*
X223520000Y-137033000D02*
X224917000Y-137033000D01*
X221649500Y-135162500D02*
X223520000Y-137033000D01*
X220690000Y-124115000D02*
X220726000Y-124079000D01*
X221649500Y-130590500D02*
X221649500Y-135162500D01*
X221119700Y-130060700D02*
X221649500Y-130590500D01*
X220690000Y-125563000D02*
X220690000Y-124115000D01*
X226100000Y-138216000D02*
X226100000Y-140716000D01*
%TO.N,PB2*%
X223560000Y-138597000D02*
X220449500Y-135486500D01*
X220449500Y-135486500D02*
X220449500Y-134112000D01*
X223560000Y-140716000D02*
X223560000Y-138597000D01*
X220190000Y-133852500D02*
X220449500Y-134112000D01*
X220190000Y-125563000D02*
X220190000Y-133852500D01*
%TO.N,/STM32/PA7*%
X198456400Y-142056000D02*
X209520000Y-142056000D01*
X217690000Y-128004000D02*
X216916000Y-128778000D01*
X209520000Y-142056000D02*
X210860000Y-140716000D01*
X217690000Y-125563000D02*
X217690000Y-128004000D01*
X215138000Y-128778000D02*
X213487000Y-130429000D01*
X195936000Y-144576400D02*
X198456400Y-142056000D01*
X213487000Y-130429000D02*
X213487000Y-134874000D01*
X210860000Y-137501000D02*
X210860000Y-140716000D01*
X195936000Y-160885500D02*
X195936000Y-144576400D01*
X216916000Y-128778000D02*
X215138000Y-128778000D01*
X213487000Y-134874000D02*
X210860000Y-137501000D01*
%TO.N,/STM32/PB0*%
X219190000Y-125563000D02*
X219190000Y-128735761D01*
X219217000Y-128762761D02*
X219217000Y-135494000D01*
X235000800Y-151790400D02*
X239086250Y-155875850D01*
X220675200Y-151790400D02*
X235000800Y-151790400D01*
X218480000Y-136231000D02*
X218480000Y-140716000D01*
X219217000Y-135494000D02*
X218480000Y-136231000D01*
X219680000Y-141916000D02*
X219680000Y-150795200D01*
X218480000Y-140716000D02*
X219680000Y-141916000D01*
X239086250Y-155875850D02*
X239086250Y-160885500D01*
X219680000Y-150795200D02*
X220675200Y-151790400D01*
X219190000Y-128735761D02*
X219217000Y-128762761D01*
%TO.N,/STM32/PB13*%
X231180000Y-140716000D02*
X229997000Y-139533000D01*
D73*
X248920000Y-81280000D02*
X238760000Y-81280000D01*
X252725000Y-71553500D02*
X252725000Y-77475000D01*
D74*
X226441000Y-129032000D02*
X226441000Y-123952000D01*
X229997000Y-132588000D02*
X226441000Y-129032000D01*
X223037232Y-123138000D02*
X222755218Y-122855986D01*
D73*
X237236000Y-82804000D02*
X237236000Y-99187000D01*
X252725000Y-77475000D02*
X248920000Y-81280000D01*
X238760000Y-81280000D02*
X237236000Y-82804000D01*
D74*
X226441000Y-123952000D02*
X225627000Y-123138000D01*
X225627000Y-123138000D02*
X224115000Y-123138000D01*
X224115000Y-123138000D02*
X223037232Y-123138000D01*
X229997000Y-139533000D02*
X229997000Y-132588000D01*
%TO.N,PB14*%
X227076000Y-123825000D02*
X227076000Y-128651000D01*
X224115000Y-122638000D02*
X225889000Y-122638000D01*
X232664000Y-134239000D02*
X232664000Y-139660000D01*
X227076000Y-128651000D02*
X232664000Y-134239000D01*
X225889000Y-122638000D02*
X227076000Y-123825000D01*
X232664000Y-139660000D02*
X233720000Y-140716000D01*
%TO.N,/STM32/PB12*%
X250185000Y-77475000D02*
X250185000Y-71553500D01*
X221488000Y-123063000D02*
X222063000Y-123638000D01*
X227711000Y-131318000D02*
X227711000Y-139787000D01*
X225679000Y-129286000D02*
X227711000Y-131318000D01*
X224115000Y-123638000D02*
X224222000Y-123638000D01*
X225679000Y-125095000D02*
X225679000Y-129286000D01*
X224222000Y-123638000D02*
X225679000Y-125095000D01*
X235712000Y-99187000D02*
X235712000Y-81280000D01*
X235712000Y-81280000D02*
X237617000Y-79375000D01*
X237617000Y-79375000D02*
X248285000Y-79375000D01*
X227711000Y-139787000D02*
X228640000Y-140716000D01*
X222063000Y-123638000D02*
X224115000Y-123638000D01*
X248285000Y-79375000D02*
X250185000Y-77475000D01*
%TO.N,PA10*%
X228834000Y-118638000D02*
X231140000Y-116332000D01*
X224115000Y-118638000D02*
X228834000Y-118638000D01*
X240752000Y-116332000D02*
X242042000Y-115042000D01*
X231140000Y-116332000D02*
X240752000Y-116332000D01*
%TO.N,/STM32/PC6*%
X210435850Y-194948150D02*
X210435850Y-198767300D01*
X211709000Y-193675000D02*
X210435850Y-194948150D01*
X234061000Y-131572000D02*
X232664000Y-131572000D01*
X228600000Y-127508000D02*
X231374000Y-130282000D01*
X257302000Y-191135000D02*
X254762000Y-193675000D01*
X228600000Y-123698000D02*
X228600000Y-127508000D01*
X224115000Y-121638000D02*
X226540000Y-121638000D01*
X231374000Y-130282000D02*
X242042000Y-130282000D01*
X226540000Y-121638000D02*
X228600000Y-123698000D01*
X254762000Y-193675000D02*
X211709000Y-193675000D01*
X232664000Y-131572000D02*
X231374000Y-130282000D01*
%TO.N,PA9*%
X242022000Y-117602000D02*
X242042000Y-117582000D01*
X224115000Y-119138000D02*
X229350000Y-119138000D01*
X229350000Y-119138000D02*
X230886000Y-117602000D01*
X230886000Y-117602000D02*
X242022000Y-117602000D01*
%TO.N,/STM32/PC8*%
X224115000Y-120638000D02*
X227318000Y-120638000D01*
X256413000Y-195961000D02*
X261239000Y-191135000D01*
X229870000Y-123190000D02*
X229870000Y-124460000D01*
X230612000Y-125202000D02*
X242042000Y-125202000D01*
X238833150Y-198767300D02*
X238833150Y-196776850D01*
X229870000Y-124460000D02*
X230612000Y-125202000D01*
X238833150Y-196776850D02*
X239649000Y-195961000D01*
X239649000Y-195961000D02*
X256413000Y-195961000D01*
X232156000Y-126746000D02*
X230612000Y-125202000D01*
X227318000Y-120638000D02*
X229870000Y-123190000D01*
X234061000Y-126746000D02*
X232156000Y-126746000D01*
%TO.N,PA8*%
X230378000Y-120650000D02*
X233172000Y-120650000D01*
X241514000Y-120650000D02*
X242042000Y-120122000D01*
X224115000Y-119638000D02*
X229366000Y-119638000D01*
X233172000Y-120650000D02*
X241514000Y-120650000D01*
X229366000Y-119638000D02*
X230378000Y-120650000D01*
%TO.N,/STM32/PC7*%
X224115000Y-121138000D02*
X226929000Y-121138000D01*
X225679000Y-194818000D02*
X224596400Y-195900600D01*
X234061000Y-129032000D02*
X232029000Y-129032000D01*
X224596400Y-195900600D02*
X224596400Y-198767300D01*
X230739000Y-127742000D02*
X242042000Y-127742000D01*
X226929000Y-121138000D02*
X229235000Y-123444000D01*
X259334000Y-191135000D02*
X255651000Y-194818000D01*
X255651000Y-194818000D02*
X225679000Y-194818000D01*
X229235000Y-123444000D02*
X229235000Y-126238000D01*
X232029000Y-129032000D02*
X230739000Y-127742000D01*
X229235000Y-126238000D02*
X230739000Y-127742000D01*
%TO.N,/STM32/PB15*%
X195919700Y-198767300D02*
X195919700Y-193970300D01*
X232898000Y-132822000D02*
X242042000Y-132822000D01*
X254254000Y-192278000D02*
X255397000Y-191135000D01*
X195919700Y-193970300D02*
X197612000Y-192278000D01*
X227838000Y-127762000D02*
X232898000Y-132822000D01*
X227838000Y-123825000D02*
X227838000Y-127762000D01*
X235331000Y-135255000D02*
X232898000Y-132822000D01*
X224115000Y-122138000D02*
X226151000Y-122138000D01*
X197612000Y-192278000D02*
X254254000Y-192278000D01*
X226151000Y-122138000D02*
X227838000Y-123825000D01*
%TO.N,/STM32/PC9*%
X227961000Y-120138000D02*
X230485000Y-122662000D01*
X230485000Y-122662000D02*
X242042000Y-122662000D01*
X253746000Y-197104000D02*
X256540000Y-197104000D01*
X257302000Y-197104000D02*
X263271000Y-191135000D01*
X224115000Y-120138000D02*
X227961000Y-120138000D01*
X253048134Y-198766874D02*
X253048134Y-197801866D01*
X256540000Y-197104000D02*
X257302000Y-197104000D01*
X253048134Y-197801866D02*
X253746000Y-197104000D01*
%TO.N,PB7*%
X217190000Y-115423000D02*
X217190000Y-114213000D01*
X216789000Y-115824000D02*
X217190000Y-115423000D01*
X210820000Y-106934000D02*
X210820000Y-96520000D01*
%TO.N,/DRIVER & CONNECTOR/USART3_TX*%
X221190000Y-112312000D02*
X222631000Y-110871000D01*
X222631000Y-109474000D02*
X225425000Y-106680000D01*
X229870000Y-72547000D02*
X229870000Y-95250000D01*
X229870000Y-72547000D02*
X229870000Y-65405000D01*
X229870000Y-95250000D02*
X231140000Y-96520000D01*
X225425000Y-106680000D02*
X225425000Y-102235000D01*
X222631000Y-110871000D02*
X222631000Y-109474000D01*
X229870000Y-65405000D02*
X229235000Y-64770000D01*
X221190000Y-114213000D02*
X221190000Y-112312000D01*
X225425000Y-102235000D02*
X231140000Y-96520000D01*
%TO.N,/STM32/PB9*%
X207080000Y-95180000D02*
X205740000Y-96520000D01*
X207080000Y-87255200D02*
X207080000Y-95180000D01*
X205740000Y-106045000D02*
X205740000Y-96520000D01*
X209169000Y-108077000D02*
X207772000Y-108077000D01*
X207772000Y-108077000D02*
X205740000Y-106045000D01*
X212979000Y-75565000D02*
X213741000Y-74803000D01*
X215690000Y-110026000D02*
X215011000Y-109347000D01*
X213741000Y-74803000D02*
X213741000Y-71553500D01*
X215011000Y-109347000D02*
X210439000Y-109347000D01*
X215690000Y-114213000D02*
X215690000Y-110026000D01*
X207975200Y-86360000D02*
X207080000Y-87255200D01*
X210439000Y-109347000D02*
X209169000Y-108077000D01*
%TO.N,/DRIVER & CONNECTOR/USART3_RX*%
X224409000Y-100711000D02*
X228600000Y-96520000D01*
X220690000Y-112050000D02*
X222131000Y-110609000D01*
X222131000Y-108958000D02*
X224409000Y-106680000D01*
X224409000Y-106680000D02*
X224409000Y-100711000D01*
X222131000Y-110609000D02*
X222131000Y-108958000D01*
X226187000Y-72547000D02*
X226187000Y-65278000D01*
X220690000Y-114213000D02*
X220690000Y-112050000D01*
X228600000Y-96520000D02*
X227260000Y-95180000D01*
X227260000Y-73620000D02*
X226187000Y-72547000D01*
X226187000Y-65278000D02*
X226695000Y-64770000D01*
X227260000Y-95180000D02*
X227260000Y-73620000D01*
%TO.N,PA15*%
X221690000Y-112574000D02*
X223139000Y-111125000D01*
X226187000Y-106807000D02*
X226187000Y-104013000D01*
X221690000Y-114213000D02*
X221690000Y-112574000D01*
X226187000Y-104013000D02*
X233680000Y-96520000D01*
X223139000Y-111125000D02*
X223139000Y-109855000D01*
X223139000Y-109855000D02*
X226187000Y-106807000D01*
%TO.N,/DRIVER & CONNECTOR/SPI1_MISO*%
X213766400Y-82550000D02*
X217100000Y-85883600D01*
X217100000Y-85883600D02*
X217100000Y-95180000D01*
D73*
X183261000Y-71374000D02*
X184003000Y-70632000D01*
X184003000Y-70632000D02*
X184003000Y-65151000D01*
D74*
X218440000Y-110363000D02*
X218690000Y-110613000D01*
D73*
X180467000Y-75242000D02*
X180467000Y-72390000D01*
D74*
X217932000Y-97028000D02*
X218440000Y-96520000D01*
X217932000Y-99568000D02*
X217932000Y-97028000D01*
X182270400Y-82550000D02*
X213766400Y-82550000D01*
X217100000Y-95180000D02*
X218440000Y-96520000D01*
X218690000Y-110613000D02*
X218690000Y-114213000D01*
X180467000Y-75242000D02*
X180467000Y-80746600D01*
D73*
X181483000Y-71374000D02*
X183261000Y-71374000D01*
D74*
X180467000Y-80746600D02*
X182270400Y-82550000D01*
D73*
X180467000Y-72390000D02*
X181483000Y-71374000D01*
D74*
%TO.N,/STM32/PB8*%
X216190000Y-114213000D02*
X216190000Y-109649327D01*
X209620000Y-95180000D02*
X208280000Y-96520000D01*
X211200999Y-76708000D02*
X211200999Y-71553500D01*
X209620000Y-86442400D02*
X209620000Y-95180000D01*
X211074000Y-108839000D02*
X208280000Y-106045000D01*
X208280000Y-106045000D02*
X208280000Y-96520000D01*
X216190000Y-109649327D02*
X215379673Y-108839000D01*
X215379673Y-108839000D02*
X211074000Y-108839000D01*
X209702400Y-86360000D02*
X209620000Y-86442400D01*
%TO.N,/DRIVER & CONNECTOR/SPI1_CS*%
X212090000Y-97790000D02*
X213360000Y-96520000D01*
X212160000Y-95320000D02*
X213360000Y-96520000D01*
X195961000Y-79756000D02*
X194602442Y-78397442D01*
X205867000Y-84963000D02*
X209880200Y-84963000D01*
X194602442Y-78397442D02*
X194602442Y-75242000D01*
D73*
X194602442Y-75242000D02*
X194602442Y-72428442D01*
D74*
X203327000Y-79756000D02*
X195961000Y-79756000D01*
X212090000Y-107442000D02*
X212090000Y-97790000D01*
D73*
X193548000Y-71374000D02*
X192405000Y-71374000D01*
D74*
X212160000Y-87242800D02*
X212160000Y-95320000D01*
D73*
X191623000Y-70592000D02*
X191623000Y-65151000D01*
X192405000Y-71374000D02*
X191623000Y-70592000D01*
D74*
X217690000Y-114213000D02*
X217690000Y-115709000D01*
X209880200Y-84963000D02*
X212160000Y-87242800D01*
D73*
X194602442Y-72428442D02*
X193548000Y-71374000D01*
D74*
X217690000Y-115709000D02*
X218059000Y-116078000D01*
%TO.N,PD2*%
X220726000Y-108839000D02*
X222885000Y-106680000D01*
X222885000Y-97155000D02*
X223520000Y-96520000D01*
X219690000Y-111399000D02*
X220726000Y-110363000D01*
X222885000Y-106680000D02*
X222885000Y-97155000D01*
X219690000Y-114213000D02*
X219690000Y-111399000D01*
X220726000Y-110363000D02*
X220726000Y-108839000D01*
D73*
%TO.N,/DRIVER & CONNECTOR/SPI1_SCK*%
X189763628Y-71907628D02*
X189083000Y-71227000D01*
X189763628Y-75242000D02*
X189763628Y-71907628D01*
D74*
X189763628Y-78511628D02*
X192532000Y-81280000D01*
D73*
X189083000Y-71227000D02*
X189083000Y-65151000D01*
D74*
X217017600Y-81280000D02*
X219690000Y-83952400D01*
X219344000Y-109601000D02*
X219344000Y-110759239D01*
X189763628Y-75242000D02*
X189763628Y-78511628D01*
X220980000Y-99568000D02*
X220980000Y-96520000D01*
X192532000Y-81280000D02*
X217017600Y-81280000D01*
X219690000Y-95230000D02*
X220980000Y-96520000D01*
X219190000Y-110913239D02*
X219190000Y-114213000D01*
X219344000Y-110759239D02*
X219190000Y-110913239D01*
X219690000Y-83952400D02*
X219690000Y-95230000D01*
%TO.N,/DRIVER & CONNECTOR/SPI1_MOSI*%
X212166200Y-83693000D02*
X214610000Y-86136800D01*
X217551000Y-108966000D02*
X217551000Y-111252000D01*
X189103000Y-83693000D02*
X212166200Y-83693000D01*
X214610000Y-95230000D02*
X215900000Y-96520000D01*
X217551000Y-111252000D02*
X218190000Y-111891000D01*
X185166000Y-79756000D02*
X185166000Y-75242000D01*
D73*
X186543000Y-71140000D02*
X186543000Y-65151000D01*
X185166000Y-75242000D02*
X185166000Y-72517000D01*
D74*
X218190000Y-111891000D02*
X218190000Y-114213000D01*
D73*
X185166000Y-72517000D02*
X186543000Y-71140000D01*
D74*
X215519000Y-99568000D02*
X215900000Y-99187000D01*
X186436000Y-81026000D02*
X185166000Y-79756000D01*
X215900000Y-99187000D02*
X215900000Y-96520000D01*
X214610000Y-86136800D02*
X214610000Y-95230000D01*
%TO.N,PC12*%
X221361000Y-108911106D02*
X223647000Y-106625106D01*
X223647000Y-98933000D02*
X226060000Y-96520000D01*
X220190000Y-111788000D02*
X221361000Y-110617000D01*
X221361000Y-110617000D02*
X221361000Y-108911106D01*
X223647000Y-106625106D02*
X223647000Y-98933000D01*
X220190000Y-114213000D02*
X220190000Y-111788000D01*
D73*
%TO.N,/DRIVER & CONNECTOR/DRIVER_MAIN2*%
X257429000Y-174752000D02*
X205867000Y-174752000D01*
X264795000Y-167386000D02*
X257429000Y-174752000D01*
X269621000Y-155702000D02*
X264795000Y-160528000D01*
X281305000Y-136633000D02*
X270656000Y-136633000D01*
X270656000Y-136633000D02*
X269621000Y-137668000D01*
X269621000Y-153352500D02*
X269621000Y-155702000D01*
X269621000Y-137668000D02*
X269621000Y-153352500D01*
X204822500Y-175796500D02*
X204822500Y-180626000D01*
X264795000Y-160528000D02*
X264795000Y-167386000D01*
X205867000Y-174752000D02*
X204822500Y-175796500D01*
%TO.N,/DRIVER & CONNECTOR/DRIVER_MAIN5*%
X267081000Y-161417000D02*
X267081000Y-168148000D01*
X278465000Y-143558000D02*
X272748000Y-143558000D01*
X267081000Y-168148000D02*
X258191000Y-177038000D01*
X272748000Y-143558000D02*
X271907000Y-144399000D01*
X247685000Y-178019000D02*
X247685000Y-180626000D01*
X248666000Y-177038000D02*
X247685000Y-178019000D01*
X271907000Y-156591000D02*
X267081000Y-161417000D01*
X271907000Y-144399000D02*
X271907000Y-156591000D01*
X258191000Y-177038000D02*
X248666000Y-177038000D01*
%TO.N,/DRIVER & CONNECTOR/DRIVER_MAIN1*%
X190535000Y-180626000D02*
X190535000Y-175606000D01*
X270072500Y-135248000D02*
X278465000Y-135248000D01*
X257175000Y-173990000D02*
X264033000Y-167132000D01*
X268859000Y-153098500D02*
X268859000Y-136461500D01*
X268859000Y-136461500D02*
X270072500Y-135248000D01*
X268859000Y-155448000D02*
X268859000Y-153098500D01*
X264033000Y-167132000D02*
X264033000Y-160274000D01*
X190535000Y-175606000D02*
X192151000Y-173990000D01*
X192151000Y-173990000D02*
X257175000Y-173990000D01*
X264033000Y-160274000D02*
X268859000Y-155448000D01*
%TO.N,/DRIVER & CONNECTOR/DRIVER_MAIN4*%
X234950000Y-176276000D02*
X233397500Y-177828500D01*
X266319000Y-161163000D02*
X266319000Y-167894000D01*
X271145000Y-143510000D02*
X271145000Y-156337000D01*
X266319000Y-167894000D02*
X257937000Y-176276000D01*
X271145000Y-156337000D02*
X266319000Y-161163000D01*
X257937000Y-176276000D02*
X234950000Y-176276000D01*
X272482000Y-142173000D02*
X271145000Y-143510000D01*
X233397500Y-177828500D02*
X233397500Y-180626000D01*
X281305000Y-142173000D02*
X272482000Y-142173000D01*
%TO.N,CAN1_P*%
X208661000Y-74728500D02*
X208205500Y-75184000D01*
X273050000Y-138018000D02*
X278465000Y-138018000D01*
X208205500Y-77395500D02*
X209169000Y-78359000D01*
X208661000Y-71553500D02*
X210145000Y-70069500D01*
X209296000Y-78486000D02*
X213741000Y-78486000D01*
X209169000Y-78359000D02*
X209296000Y-78486000D01*
X208661000Y-71553500D02*
X208661000Y-74728500D01*
X208205500Y-75184000D02*
X208205500Y-77395500D01*
X210145000Y-70069500D02*
X210145000Y-64766000D01*
%TO.N,CAN1_N*%
X206380500Y-75184000D02*
X206380500Y-78364500D01*
X205145000Y-70577500D02*
X206121000Y-71553500D01*
X206121000Y-71553500D02*
X206121000Y-74924500D01*
X205145000Y-64766000D02*
X205145000Y-70577500D01*
X206121000Y-74924500D02*
X206380500Y-75184000D01*
X273050000Y-140788000D02*
X278465000Y-140788000D01*
X206380500Y-78364500D02*
X207899000Y-79883000D01*
X207899000Y-79883000D02*
X212344000Y-79883000D01*
D77*
%TO.N,MAIN_DRIVER*%
X276860000Y-149098000D02*
X278465000Y-149098000D01*
X204822500Y-188326000D02*
X219110000Y-188326000D01*
X219110000Y-188326000D02*
X233397500Y-188326000D01*
X275336000Y-156972000D02*
X275336000Y-150622000D01*
X251348000Y-188326000D02*
X271526000Y-168148000D01*
X233397500Y-188326000D02*
X247685000Y-188326000D01*
X275336000Y-150622000D02*
X276860000Y-149098000D01*
X278465000Y-149098000D02*
X279920000Y-149098000D01*
X271526000Y-168148000D02*
X271526000Y-160782000D01*
X271526000Y-160782000D02*
X275336000Y-156972000D01*
X279920000Y-149098000D02*
X281305000Y-147713000D01*
X247685000Y-188326000D02*
X251348000Y-188326000D01*
D75*
%TO.N,MAIN_DGND*%
X278465000Y-129708000D02*
X279920000Y-129708000D01*
X279920000Y-129708000D02*
X281305000Y-131093000D01*
D73*
%TO.N,/DRIVER & CONNECTOR/DRIVER_MAIN3*%
X265557000Y-167472528D02*
X265557000Y-160909000D01*
X265557000Y-160909000D02*
X270383000Y-156083000D01*
X270383000Y-153733500D02*
X270383000Y-140589000D01*
X220599000Y-175514000D02*
X257515528Y-175514000D01*
X271569000Y-139403000D02*
X281305000Y-139403000D01*
X257515528Y-175514000D02*
X265557000Y-167472528D01*
X270383000Y-140589000D02*
X271569000Y-139403000D01*
X219110000Y-177003000D02*
X220599000Y-175514000D01*
X270383000Y-156083000D02*
X270383000Y-153733500D01*
X219110000Y-180626000D02*
X219110000Y-177003000D01*
%TO.N,MAIN_THROTTLE*%
X264922000Y-142279000D02*
X262276000Y-142279000D01*
X262276000Y-142279000D02*
X261643500Y-141646500D01*
X261643500Y-141646500D02*
X261643500Y-139635001D01*
X273050000Y-144943000D02*
X281305000Y-144943000D01*
X260985000Y-142305000D02*
X261643500Y-141646500D01*
%TO.N,CAN2_N*%
X245105000Y-74924500D02*
X245364500Y-75184000D01*
X245105000Y-71553500D02*
X245105000Y-74924500D01*
X244007000Y-70455500D02*
X245105000Y-71553500D01*
X244007000Y-64766000D02*
X244007000Y-70455500D01*
D77*
%TO.N,PUMP_DRIVER*%
X278480331Y-191612000D02*
X279935331Y-191612000D01*
X204822500Y-226172000D02*
X219110000Y-226172000D01*
X279935331Y-191612000D02*
X281320331Y-190227000D01*
X275590000Y-194502331D02*
X278480331Y-191612000D01*
X262270426Y-226171574D02*
X275590000Y-212852000D01*
X219110000Y-226172000D02*
X233397500Y-226172000D01*
X247684574Y-226172000D02*
X247685000Y-226171574D01*
X233397500Y-226172000D02*
X247684574Y-226172000D01*
X247685000Y-226171574D02*
X262270426Y-226171574D01*
X275590000Y-212852000D02*
X275590000Y-194502331D01*
D73*
%TO.N,/DRIVER & CONNECTOR/DRIVER_PUMP4*%
X258508500Y-214884000D02*
X234823000Y-214884000D01*
X269748000Y-190500000D02*
X264922000Y-195326000D01*
X269748000Y-185928000D02*
X269748000Y-190500000D01*
X264922000Y-195326000D02*
X264922000Y-208470500D01*
X270989000Y-184687000D02*
X269748000Y-185928000D01*
X264922000Y-208470500D02*
X258508500Y-214884000D01*
X233397500Y-216309500D02*
X233397500Y-218472000D01*
X281320331Y-184687000D02*
X270989000Y-184687000D01*
X234823000Y-214884000D02*
X233397500Y-216309500D01*
%TO.N,/DRIVER & CONNECTOR/DRIVER_PUMP5*%
X247685000Y-218471574D02*
X247685000Y-216246000D01*
X247685000Y-216246000D02*
X248412000Y-215519000D01*
X270510000Y-190754000D02*
X270510000Y-187579000D01*
X265557000Y-208788000D02*
X265557000Y-195707000D01*
X248412000Y-215519000D02*
X258826000Y-215519000D01*
X265557000Y-195707000D02*
X270510000Y-190754000D01*
X258826000Y-215519000D02*
X265557000Y-208788000D01*
X272017000Y-186072000D02*
X278480331Y-186072000D01*
X270510000Y-187579000D02*
X272017000Y-186072000D01*
D75*
%TO.N,PUMP_DGND*%
X278480331Y-172222000D02*
X279935331Y-172222000D01*
X279935331Y-172222000D02*
X281320331Y-173607000D01*
D73*
%TO.N,PUMP_THROTTLE*%
X259715000Y-147255000D02*
X259715000Y-149074500D01*
X260834001Y-145161000D02*
X259715000Y-146280001D01*
X259715000Y-146280001D02*
X259715000Y-147255000D01*
X259715000Y-149074500D02*
X260246500Y-149606000D01*
X264922000Y-146431000D02*
X263652000Y-145161000D01*
X263652000Y-145161000D02*
X260834001Y-145161000D01*
%TO.N,CAN2_P*%
X247645000Y-71553500D02*
X247645000Y-74728500D01*
X249007000Y-64766000D02*
X249007000Y-70191500D01*
X249007000Y-70191500D02*
X247645000Y-71553500D01*
X247645000Y-74728500D02*
X247189500Y-75184000D01*
%TO.N,/DRIVER & CONNECTOR/DRIVER_PUMP1*%
X190535000Y-214214000D02*
X192151000Y-212598000D01*
X257810000Y-212598000D02*
X263017000Y-207391000D01*
X263017000Y-207391000D02*
X263017000Y-194183000D01*
X190535000Y-218472000D02*
X190535000Y-214214000D01*
X263017000Y-194183000D02*
X267462000Y-189738000D01*
X192151000Y-212598000D02*
X257810000Y-212598000D01*
X267462000Y-189738000D02*
X267462000Y-179832000D01*
X269532000Y-177762000D02*
X278480331Y-177762000D01*
X267462000Y-179832000D02*
X269532000Y-177762000D01*
%TO.N,/DRIVER & CONNECTOR/DRIVER_PUMP3*%
X268986000Y-190246000D02*
X268986000Y-182499000D01*
X258318000Y-214122000D02*
X264287000Y-208153000D01*
X264287000Y-208153000D02*
X264287000Y-194945000D01*
X219110000Y-215103000D02*
X220091000Y-214122000D01*
X269568000Y-181917000D02*
X281320331Y-181917000D01*
X268986000Y-182499000D02*
X269568000Y-181917000D01*
X264287000Y-194945000D02*
X268986000Y-190246000D01*
X220091000Y-214122000D02*
X258318000Y-214122000D01*
X219110000Y-218472000D02*
X219110000Y-215103000D01*
%TO.N,/DRIVER & CONNECTOR/DRIVER_PUMP2*%
X204822500Y-215293500D02*
X206756000Y-213360000D01*
X268224000Y-189992000D02*
X268224000Y-180975000D01*
X263652000Y-207772000D02*
X263652000Y-194564000D01*
X270052000Y-179147000D02*
X281320331Y-179147000D01*
X263652000Y-194564000D02*
X268224000Y-189992000D01*
X206756000Y-213360000D02*
X258064000Y-213360000D01*
X204822500Y-218472000D02*
X204822500Y-215293500D01*
X258064000Y-213360000D02*
X263652000Y-207772000D01*
X268224000Y-180975000D02*
X270052000Y-179147000D01*
%TO.N,Net-(J19-Pin_2)*%
X122224001Y-81510500D02*
X116966998Y-81510500D01*
X116966998Y-81510500D02*
X116459000Y-82018498D01*
%TO.N,Net-(J20-Pin_2)*%
X116967001Y-97027999D02*
X116459000Y-97536000D01*
X122224001Y-97027999D02*
X116967001Y-97027999D01*
D74*
%TO.N,Net-(JP1-Pin_1)*%
X214122000Y-105156000D02*
X215720500Y-106754500D01*
X215720500Y-106754500D02*
X215720500Y-107823000D01*
%TO.N,Net-(JP1-Pin_3)*%
X218208500Y-106784500D02*
X219202000Y-105791000D01*
X219202000Y-105791000D02*
X219202000Y-105156000D01*
X218208500Y-107823000D02*
X218208500Y-106784500D01*
%TO.N,/STM32/BOOT0*%
X216690000Y-105184000D02*
X216690000Y-114213000D01*
X216662000Y-105156000D02*
X216690000Y-105184000D01*
D72*
%TO.N,Net-(LED1-A)*%
X280051501Y-91698000D02*
X282204000Y-91698000D01*
X282204000Y-91698000D02*
X282208000Y-91694000D01*
D73*
%TO.N,Net-(LED2-A)*%
X193188000Y-168021000D02*
X195464500Y-168021000D01*
%TO.N,Net-(LED3-A)*%
X207353751Y-168021000D02*
X209338750Y-168021000D01*
%TO.N,Net-(LED4-A)*%
X221745500Y-168021000D02*
X223768000Y-168021000D01*
%TO.N,Net-(LED5-A)*%
X235911251Y-168021000D02*
X238046750Y-168021000D01*
%TO.N,Net-(LED6-A)*%
X250303000Y-168021000D02*
X252579500Y-168021000D01*
%TO.N,Net-(LED7-A)*%
X193175500Y-205852000D02*
X195452000Y-205852000D01*
%TO.N,Net-(LED8-A)*%
X207463000Y-205852000D02*
X209739500Y-205852000D01*
%TO.N,Net-(LED9-A)*%
X221750500Y-205852000D02*
X224027000Y-205852000D01*
%TO.N,Net-(LED10-A)*%
X236063834Y-205852000D02*
X238340334Y-205852000D01*
%TO.N,Net-(LED11-A)*%
X250351334Y-205851574D02*
X252627834Y-205851574D01*
%TO.N,Net-(LED12-A)*%
X143891000Y-115136000D02*
X143891000Y-117461500D01*
%TO.N,Net-(LED13-A)*%
X143912001Y-127590000D02*
X143912001Y-129866500D01*
%TO.N,Net-(Q1-B)*%
X195627000Y-163019500D02*
X195936000Y-162710500D01*
X193260500Y-161163000D02*
X193260500Y-163017000D01*
X193263000Y-163019500D02*
X195627000Y-163019500D01*
X193260500Y-163017000D02*
X193263000Y-163019500D01*
%TO.N,Net-(Q2-B)*%
X207504250Y-161163000D02*
X207504250Y-162982000D01*
X207541750Y-163019500D02*
X210092750Y-163019500D01*
X210092750Y-163019500D02*
X210401750Y-162710500D01*
X207504250Y-162982000D02*
X207541750Y-163019500D01*
%TO.N,Net-(Q3-B)*%
X221783000Y-161163000D02*
X221783000Y-162982000D01*
X221820500Y-163019500D02*
X224371500Y-163019500D01*
X221783000Y-162982000D02*
X221820500Y-163019500D01*
X224371500Y-163019500D02*
X224680500Y-162710500D01*
%TO.N,Net-(Q4-B)*%
X235926000Y-161163000D02*
X235926000Y-162982000D01*
X235926000Y-162982000D02*
X235963500Y-163019500D01*
X236226250Y-163019500D02*
X238777250Y-163019500D01*
X238777250Y-163019500D02*
X239086250Y-162710500D01*
%TO.N,Net-(Q5-B)*%
X253183000Y-163019500D02*
X253492000Y-162710500D01*
X250314500Y-163019500D02*
X253183000Y-163019500D01*
X250277000Y-162982000D02*
X250314500Y-163019500D01*
X250277000Y-161163000D02*
X250277000Y-162982000D01*
%TO.N,Net-(Q6-B)*%
X193300999Y-200849051D02*
X195662949Y-200849051D01*
X195662949Y-200849051D02*
X195919700Y-200592300D01*
X193350998Y-200799052D02*
X193300999Y-200849051D01*
X193350998Y-199104550D02*
X193350998Y-200799052D01*
%TO.N,Net-(Q7-B)*%
X210162650Y-200865500D02*
X210435850Y-200592300D01*
X207565499Y-200815501D02*
X207515500Y-200865500D01*
X207515500Y-200865500D02*
X210162650Y-200865500D01*
X207565499Y-199120999D02*
X207565499Y-200815501D01*
%TO.N,Net-(Q8-B)*%
X221789499Y-199104550D02*
X221789499Y-200799052D01*
X221739500Y-200849051D02*
X224339649Y-200849051D01*
X224339649Y-200849051D02*
X224596400Y-200592300D01*
X221789499Y-200799052D02*
X221739500Y-200849051D01*
%TO.N,Net-(Q9-B)*%
X236140499Y-199104550D02*
X236140499Y-200799052D01*
X238576399Y-200849051D02*
X238833150Y-200592300D01*
X236140499Y-200799052D02*
X236090500Y-200849051D01*
X236090500Y-200849051D02*
X238576399Y-200849051D01*
%TO.N,Net-(Q10-B)*%
X252774508Y-200865500D02*
X253048134Y-200591874D01*
X250441500Y-200865500D02*
X252774508Y-200865500D01*
X250491499Y-200815501D02*
X250441500Y-200865500D01*
X250491499Y-199120999D02*
X250491499Y-200815501D01*
%TO.N,Net-(Q11-B)*%
X149963500Y-117388000D02*
X149963500Y-116082999D01*
X148765500Y-115417000D02*
X150529501Y-115417000D01*
X150529501Y-115417000D02*
X150579500Y-115466999D01*
X149963500Y-116082999D02*
X150579500Y-115466999D01*
%TO.N,Net-(Q12-B)*%
X148768675Y-128037502D02*
X150575176Y-128037502D01*
X149984501Y-128728175D02*
X150625175Y-128087501D01*
X149984501Y-129794000D02*
X149984501Y-128728175D01*
X150575176Y-128037502D02*
X150625175Y-128087501D01*
%TO.N,Net-(U3A--)*%
X259818500Y-139635001D02*
X259818500Y-137556000D01*
X259715000Y-139738501D02*
X259818500Y-139635001D01*
X259818500Y-137556000D02*
X259357500Y-137095000D01*
X259715000Y-142305000D02*
X259715000Y-139738501D01*
%TO.N,Net-(U3B--)*%
X258421500Y-150956000D02*
X258699000Y-151233500D01*
X258421500Y-149606000D02*
X258421500Y-150956000D01*
X258445000Y-147255000D02*
X258445000Y-149582500D01*
X258445000Y-149582500D02*
X258421500Y-149606000D01*
D74*
%TO.N,/DRIVER & CONNECTOR/BRAKE2_IN*%
X198323200Y-117170200D02*
X197500000Y-116347000D01*
D72*
X160769999Y-96090004D02*
X165420003Y-96090004D01*
D74*
X175260001Y-96520001D02*
X165850000Y-96520001D01*
X199644000Y-120650000D02*
X198323200Y-119329200D01*
X198323200Y-119329200D02*
X198323200Y-117170200D01*
X214126000Y-120138000D02*
X214630000Y-119634000D01*
D72*
X160770000Y-96090005D02*
X160769999Y-96090004D01*
D74*
X182753000Y-115062000D02*
X177673000Y-109982000D01*
D72*
X160770000Y-98630003D02*
X160770000Y-96090005D01*
D74*
X207264000Y-124079000D02*
X205867000Y-125476000D01*
X212765000Y-120138000D02*
X214126000Y-120138000D01*
X197500000Y-116347000D02*
X195961000Y-116347000D01*
X194676000Y-115062000D02*
X182753000Y-115062000D01*
X177673000Y-109982000D02*
X177673000Y-98933000D01*
X195961000Y-116347000D02*
X194676000Y-115062000D01*
D72*
X165420003Y-96090004D02*
X165850000Y-96520001D01*
D74*
X177673000Y-98933000D02*
X175260001Y-96520001D01*
X205867000Y-125476000D02*
X200279000Y-125476000D01*
X200279000Y-125476000D02*
X199644000Y-124841000D01*
X199644000Y-124841000D02*
X199644000Y-120650000D01*
D72*
%TO.N,/DRIVER & CONNECTOR/BRAKE1_IN*%
X165850000Y-86729000D02*
X165850000Y-91010003D01*
D74*
X183261000Y-93472000D02*
X180799003Y-91010003D01*
X197470000Y-113807000D02*
X195961000Y-113807000D01*
X180799003Y-91010003D02*
X165850000Y-91010003D01*
X195961000Y-113807000D02*
X194621000Y-112467000D01*
X198882000Y-111252000D02*
X198247000Y-111887000D01*
X202692000Y-111252000D02*
X198882000Y-111252000D01*
X194621000Y-112467000D02*
X188159000Y-112467000D01*
D72*
X164211002Y-85090002D02*
X165850000Y-86729000D01*
D74*
X210439000Y-119634000D02*
X210443000Y-119638000D01*
X198247000Y-111887000D02*
X198247000Y-113030000D01*
D72*
X160412499Y-85090002D02*
X164211002Y-85090002D01*
D74*
X198247000Y-113030000D02*
X197470000Y-113807000D01*
D72*
X160412500Y-85090003D02*
X160412499Y-85090002D01*
D74*
X183261000Y-107569000D02*
X183261000Y-93472000D01*
X188159000Y-112467000D02*
X183261000Y-107569000D01*
D72*
X160412500Y-87630003D02*
X160412500Y-85090003D01*
D74*
X210443000Y-119638000D02*
X212765000Y-119638000D01*
%TO.N,/DRIVER & CONNECTOR/DAC2_OUT*%
X205780000Y-137247000D02*
X205780000Y-140716000D01*
D73*
X257175000Y-147255000D02*
X256351000Y-146431000D01*
D74*
X244525800Y-146431000D02*
X251460000Y-146431000D01*
X216662000Y-123317000D02*
X216690000Y-123345000D01*
D73*
X257175000Y-147255000D02*
X257175000Y-149074500D01*
D74*
X216690000Y-123345000D02*
X216690000Y-125563000D01*
D73*
X256351000Y-146431000D02*
X251460000Y-146431000D01*
D74*
X236728000Y-141986000D02*
X240080800Y-141986000D01*
X240080800Y-141986000D02*
X244525800Y-146431000D01*
X212394800Y-130632200D02*
X205780000Y-137247000D01*
X212394800Y-129489200D02*
X212394800Y-130632200D01*
D73*
X257175000Y-149074500D02*
X256667000Y-149582500D01*
%TO.N,Net-(JP2-Pin_1)*%
X218238000Y-131572000D02*
X218238000Y-133783500D01*
X218238000Y-133783500D02*
X217909500Y-134112000D01*
%TO.N,Net-(JP2-Pin_3)*%
X222885000Y-131572000D02*
X222885000Y-134007501D01*
X222885000Y-134007501D02*
X222989499Y-134112000D01*
D78*
%TO.N,USB_D_N*%
X246380000Y-108204000D02*
X246380000Y-110236000D01*
X279344000Y-83948000D02*
X278207632Y-83948000D01*
X246380000Y-110236000D02*
X245414800Y-111201200D01*
X248822000Y-105762000D02*
X246380000Y-108204000D01*
X260321000Y-102455200D02*
X257014200Y-105762000D01*
X227579604Y-118113000D02*
X231100604Y-114592000D01*
X238048397Y-114592000D02*
X240138397Y-112502000D01*
X257014200Y-105762000D02*
X248822000Y-105762000D01*
X225277501Y-118138000D02*
X225302501Y-118113000D01*
X277786827Y-83527195D02*
X277330605Y-83527195D01*
X243342800Y-111201200D02*
X242042000Y-112502000D01*
X245414800Y-111201200D02*
X243342800Y-111201200D01*
X262849737Y-83543463D02*
X260321000Y-86072200D01*
X224115000Y-118138000D02*
X225277501Y-118138000D01*
X275259800Y-85598000D02*
X273205263Y-83543463D01*
X279594000Y-84198000D02*
X279344000Y-83948000D01*
X260321000Y-86072200D02*
X260321000Y-102455200D01*
X277330605Y-83527195D02*
X275259800Y-85598000D01*
X278207632Y-83948000D02*
X277786827Y-83527195D01*
X273205263Y-83543463D02*
X262849737Y-83543463D01*
X240138397Y-112502000D02*
X242042000Y-112502000D01*
X231100604Y-114592000D02*
X238048397Y-114592000D01*
X225302501Y-118113000D02*
X227579604Y-118113000D01*
%TO.N,USB_D_P*%
X277330605Y-83077193D02*
X275276068Y-81022656D01*
X275276068Y-81022656D02*
X273205263Y-83093461D01*
X250465800Y-105312000D02*
X248595603Y-105312000D01*
X243292000Y-108712000D02*
X242042000Y-109962000D01*
X224115000Y-117638000D02*
X225277501Y-117638000D01*
X225277501Y-117638000D02*
X225302501Y-117663000D01*
X279594000Y-83398000D02*
X278364807Y-83398000D01*
X237861980Y-114142020D02*
X242042000Y-109962000D01*
X256827800Y-105312000D02*
X251946200Y-105312000D01*
X250774200Y-105003600D02*
X250465800Y-105312000D01*
X248595603Y-105312000D02*
X245195603Y-108712000D01*
X251053600Y-104292400D02*
X250774200Y-104571800D01*
X251333000Y-104292400D02*
X251053600Y-104292400D01*
X251637800Y-104597200D02*
X251333000Y-104292400D01*
X225302501Y-117663000D02*
X227393236Y-117663000D01*
X278364807Y-83398000D02*
X278044000Y-83077193D01*
X273205263Y-83093461D02*
X262663339Y-83093461D01*
X251637800Y-105003600D02*
X251637800Y-104597200D01*
X262663339Y-83093461D02*
X259871000Y-85885800D01*
X250774200Y-104571800D02*
X250774200Y-105003600D01*
X259871000Y-85885800D02*
X259871000Y-102268800D01*
X245195603Y-108712000D02*
X243292000Y-108712000D01*
X259871000Y-102268800D02*
X256827800Y-105312000D01*
X227393236Y-117663000D02*
X230914216Y-114142020D01*
X230914216Y-114142020D02*
X237861980Y-114142020D01*
X278044000Y-83077193D02*
X277330605Y-83077193D01*
X251946200Y-105312000D02*
X251637800Y-105003600D01*
D74*
%TO.N,Net-(U2-VCAP_1)*%
X221190000Y-127238500D02*
X221047500Y-127381000D01*
X221190000Y-125563000D02*
X221190000Y-127238500D01*
%TD*%
%TA.AperFunction,Conductor*%
%TO.N,/RELAY/COM_EX2*%
G36*
X125576288Y-123462954D02*
G01*
X125657070Y-123516930D01*
X125711046Y-123597712D01*
X125730000Y-123693000D01*
X125730000Y-125880860D01*
X125711046Y-125976148D01*
X125657070Y-126056930D01*
X124405930Y-127308070D01*
X124325148Y-127362046D01*
X124229860Y-127381000D01*
X120142000Y-127381000D01*
X119450429Y-128072570D01*
X119369648Y-128126546D01*
X119274360Y-128145500D01*
X114168000Y-128145500D01*
X114072712Y-128126546D01*
X113991930Y-128072570D01*
X113937954Y-127991788D01*
X113919000Y-127896500D01*
X113919000Y-123693000D01*
X113937954Y-123597712D01*
X113991930Y-123516930D01*
X114072712Y-123462954D01*
X114168000Y-123444000D01*
X125481000Y-123444000D01*
X125576288Y-123462954D01*
G37*
%TD.AperFunction*%
%TD*%
%TA.AperFunction,Conductor*%
%TO.N,/RELAY/NO_EX2*%
G36*
X132688288Y-123462954D02*
G01*
X132769070Y-123516930D01*
X132823046Y-123597712D01*
X132842000Y-123693000D01*
X132842000Y-131577000D01*
X132823046Y-131672288D01*
X132769070Y-131753070D01*
X132688288Y-131807046D01*
X132593000Y-131826000D01*
X114168000Y-131826000D01*
X114072712Y-131807046D01*
X113991930Y-131753070D01*
X113937954Y-131672288D01*
X113919000Y-131577000D01*
X113919000Y-128900000D01*
X113937954Y-128804712D01*
X113991930Y-128723930D01*
X114072712Y-128669954D01*
X114168000Y-128651000D01*
X125729999Y-128651000D01*
X125730000Y-128651000D01*
X128397000Y-125984000D01*
X128397000Y-123693000D01*
X128415954Y-123597712D01*
X128469930Y-123516930D01*
X128550712Y-123462954D01*
X128646000Y-123444000D01*
X132593000Y-123444000D01*
X132688288Y-123462954D01*
G37*
%TD.AperFunction*%
%TD*%
%TA.AperFunction,Conductor*%
%TO.N,/RELAY/COM_EX1*%
G36*
X125703288Y-111016954D02*
G01*
X125784070Y-111070930D01*
X125838046Y-111151712D01*
X125857000Y-111247000D01*
X125857000Y-113434860D01*
X125838046Y-113530148D01*
X125784070Y-113610930D01*
X124532930Y-114862070D01*
X124452148Y-114916046D01*
X124356860Y-114935000D01*
X120142000Y-114935000D01*
X119325929Y-115751070D01*
X119245148Y-115805046D01*
X119149860Y-115824000D01*
X114295000Y-115824000D01*
X114199712Y-115805046D01*
X114118930Y-115751070D01*
X114064954Y-115670288D01*
X114046000Y-115575000D01*
X114046000Y-111247000D01*
X114064954Y-111151712D01*
X114118930Y-111070930D01*
X114199712Y-111016954D01*
X114295000Y-110998000D01*
X125608000Y-110998000D01*
X125703288Y-111016954D01*
G37*
%TD.AperFunction*%
%TD*%
%TA.AperFunction,Conductor*%
%TO.N,5_BUCK*%
G36*
X126211288Y-145306954D02*
G01*
X126292070Y-145360930D01*
X126346046Y-145441712D01*
X126365000Y-145537000D01*
X126365000Y-154305000D01*
X130810000Y-158750000D01*
X133101000Y-158750000D01*
X133196288Y-158768954D01*
X133277070Y-158822930D01*
X133331046Y-158903712D01*
X133350000Y-158999000D01*
X133350000Y-169931000D01*
X133331046Y-170026288D01*
X133277070Y-170107070D01*
X133196288Y-170161046D01*
X133101000Y-170180000D01*
X123820000Y-170180000D01*
X123724712Y-170161046D01*
X123643930Y-170107070D01*
X123589954Y-170026288D01*
X123571000Y-169931000D01*
X123571000Y-158750000D01*
X118944930Y-154123930D01*
X118890954Y-154043148D01*
X118872000Y-153947860D01*
X118872000Y-145537000D01*
X118890954Y-145441712D01*
X118944930Y-145360930D01*
X119025712Y-145306954D01*
X119121000Y-145288000D01*
X126116000Y-145288000D01*
X126211288Y-145306954D01*
G37*
%TD.AperFunction*%
%TD*%
%TA.AperFunction,Conductor*%
%TO.N,Net-(LED14-A)*%
G36*
X136244288Y-144417954D02*
G01*
X136325070Y-144471930D01*
X136379046Y-144552712D01*
X136398000Y-144648000D01*
X136398000Y-146944000D01*
X136379046Y-147039288D01*
X136325070Y-147120070D01*
X136244288Y-147174046D01*
X136149000Y-147193000D01*
X135123000Y-147193000D01*
X135027712Y-147174046D01*
X134946930Y-147120070D01*
X134892954Y-147039288D01*
X134874000Y-146944000D01*
X134874000Y-144648000D01*
X134892954Y-144552712D01*
X134946930Y-144471930D01*
X135027712Y-144417954D01*
X135123000Y-144399000D01*
X136149000Y-144399000D01*
X136244288Y-144417954D01*
G37*
%TD.AperFunction*%
%TD*%
%TA.AperFunction,Conductor*%
%TO.N,+5V*%
G36*
X133196288Y-139718954D02*
G01*
X133277070Y-139772930D01*
X133331046Y-139853712D01*
X133350000Y-139949000D01*
X133350000Y-146558000D01*
X134112000Y-147320000D01*
X134341413Y-147320000D01*
X134436701Y-147338954D01*
X134517483Y-147392930D01*
X134540744Y-147419776D01*
X134559053Y-147444233D01*
X134666092Y-147540380D01*
X134692434Y-147557980D01*
X134746849Y-147594340D01*
X134746863Y-147594349D01*
X134746874Y-147594356D01*
X134793409Y-147621966D01*
X134929094Y-147669833D01*
X135024382Y-147688787D01*
X135123000Y-147698500D01*
X135123003Y-147698500D01*
X136148997Y-147698500D01*
X136149000Y-147698500D01*
X136247618Y-147688787D01*
X136342906Y-147669833D01*
X136395335Y-147656451D01*
X136525126Y-147594356D01*
X136605908Y-147540380D01*
X136649233Y-147507947D01*
X136743852Y-147402608D01*
X136821628Y-147344385D01*
X136915765Y-147320357D01*
X136929095Y-147320000D01*
X137056860Y-147320000D01*
X137152148Y-147338954D01*
X137232929Y-147392930D01*
X137528787Y-147688787D01*
X137795000Y-147955000D01*
X139283865Y-147955000D01*
X139362187Y-147967639D01*
X139381245Y-147973954D01*
X139439247Y-147993174D01*
X139540323Y-148003500D01*
X140113676Y-148003499D01*
X140214753Y-147993174D01*
X140272755Y-147973954D01*
X140291813Y-147967639D01*
X140370136Y-147955000D01*
X143593500Y-147955000D01*
X143688788Y-147973954D01*
X143769570Y-148027930D01*
X143823546Y-148108712D01*
X143842500Y-148204000D01*
X143842500Y-150000387D01*
X143857376Y-150113385D01*
X143857377Y-150113388D01*
X143872045Y-150148799D01*
X143891000Y-150244087D01*
X143891000Y-152151000D01*
X143872046Y-152246288D01*
X143818070Y-152327070D01*
X143737288Y-152381046D01*
X143642000Y-152400000D01*
X135358140Y-152400000D01*
X135262852Y-152381046D01*
X135182070Y-152327070D01*
X134184930Y-151329930D01*
X134130954Y-151249148D01*
X134112000Y-151153860D01*
X134112000Y-149606001D01*
X134112000Y-149606000D01*
X133223000Y-148717000D01*
X133222999Y-148717000D01*
X127503000Y-148717000D01*
X127407712Y-148698046D01*
X127326930Y-148644070D01*
X127272954Y-148563288D01*
X127254000Y-148468000D01*
X127254000Y-139949000D01*
X127272954Y-139853712D01*
X127326930Y-139772930D01*
X127407712Y-139718954D01*
X127503000Y-139700000D01*
X133101000Y-139700000D01*
X133196288Y-139718954D01*
G37*
%TD.AperFunction*%
%TD*%
%TA.AperFunction,Conductor*%
%TO.N,GND*%
G36*
X126594788Y-139718954D02*
G01*
X126675570Y-139772930D01*
X126729546Y-139853712D01*
X126748500Y-139949000D01*
X126748500Y-144614011D01*
X126729546Y-144709299D01*
X126675570Y-144790081D01*
X126594788Y-144844057D01*
X126499500Y-144863011D01*
X126416663Y-144848828D01*
X126309904Y-144811166D01*
X126214614Y-144792212D01*
X126116000Y-144782500D01*
X119121000Y-144782500D01*
X119120999Y-144782500D01*
X119022387Y-144792212D01*
X118927086Y-144811168D01*
X118874665Y-144824549D01*
X118874660Y-144824550D01*
X118744875Y-144886643D01*
X118664086Y-144940624D01*
X118620769Y-144973051D01*
X118620767Y-144973053D01*
X118524626Y-145080086D01*
X118524616Y-145080097D01*
X118470659Y-145160849D01*
X118470641Y-145160878D01*
X118443033Y-145207409D01*
X118395167Y-145343092D01*
X118395166Y-145343096D01*
X118376212Y-145438385D01*
X118366500Y-145536999D01*
X118366500Y-153947860D01*
X118372118Y-154004908D01*
X118376213Y-154046478D01*
X118376562Y-154048233D01*
X118395168Y-154141773D01*
X118408549Y-154194194D01*
X118408550Y-154194199D01*
X118470644Y-154323987D01*
X118524612Y-154404758D01*
X118524619Y-154404766D01*
X118524620Y-154404768D01*
X118587488Y-154481372D01*
X118587489Y-154481373D01*
X122992570Y-158886454D01*
X123046546Y-158967236D01*
X123065500Y-159062524D01*
X123065500Y-169931000D01*
X123075212Y-170029612D01*
X123094168Y-170124913D01*
X123107549Y-170177334D01*
X123107550Y-170177339D01*
X123169642Y-170307121D01*
X123169644Y-170307126D01*
X123223620Y-170387908D01*
X123256053Y-170431233D01*
X123363092Y-170527380D01*
X123389434Y-170544980D01*
X123443849Y-170581340D01*
X123443863Y-170581349D01*
X123443874Y-170581356D01*
X123490409Y-170608966D01*
X123626094Y-170656833D01*
X123721382Y-170675787D01*
X123820000Y-170685500D01*
X123820003Y-170685500D01*
X133100997Y-170685500D01*
X133101000Y-170685500D01*
X133199618Y-170675787D01*
X133294906Y-170656833D01*
X133347335Y-170643451D01*
X133477126Y-170581356D01*
X133557908Y-170527380D01*
X133601233Y-170494947D01*
X133697380Y-170387908D01*
X133751356Y-170307126D01*
X133778966Y-170260591D01*
X133826833Y-170124906D01*
X133845787Y-170029618D01*
X133855500Y-169931000D01*
X133855500Y-158999000D01*
X133845787Y-158900382D01*
X133826833Y-158805094D01*
X133813451Y-158752665D01*
X133751356Y-158622874D01*
X133697380Y-158542092D01*
X133664947Y-158498767D01*
X133557908Y-158402620D01*
X133557205Y-158402150D01*
X133477150Y-158348659D01*
X133477121Y-158348641D01*
X133430590Y-158321033D01*
X133294907Y-158273167D01*
X133294903Y-158273166D01*
X133199614Y-158254212D01*
X133101000Y-158244500D01*
X131122524Y-158244500D01*
X131027236Y-158225546D01*
X130946454Y-158171570D01*
X126943430Y-154168546D01*
X126889454Y-154087764D01*
X126870500Y-153992476D01*
X126870500Y-153456018D01*
X126889454Y-153360730D01*
X126943430Y-153279948D01*
X127024212Y-153225972D01*
X127119500Y-153207018D01*
X127214788Y-153225972D01*
X127295570Y-153279948D01*
X127316046Y-153303143D01*
X127945114Y-154111945D01*
X128558228Y-154900235D01*
X128578256Y-154924396D01*
X128598745Y-154947607D01*
X128696870Y-155033377D01*
X128777648Y-155087351D01*
X128777652Y-155087353D01*
X128777656Y-155087356D01*
X128824191Y-155114966D01*
X128959876Y-155162833D01*
X129055164Y-155181787D01*
X129153782Y-155191500D01*
X129153785Y-155191500D01*
X134497997Y-155191500D01*
X134498000Y-155191500D01*
X134596618Y-155181787D01*
X134691906Y-155162833D01*
X134744335Y-155149451D01*
X134874126Y-155087356D01*
X134954908Y-155033380D01*
X134998233Y-155000947D01*
X135094380Y-154893908D01*
X135148356Y-154813126D01*
X135175966Y-154766591D01*
X135223833Y-154630906D01*
X135242787Y-154535618D01*
X135252500Y-154437000D01*
X135252500Y-153265139D01*
X135244007Y-153178905D01*
X135253530Y-153082218D01*
X135299329Y-152996535D01*
X135374431Y-152934901D01*
X135467403Y-152906699D01*
X135491808Y-152905500D01*
X143641997Y-152905500D01*
X143642000Y-152905500D01*
X143740618Y-152895787D01*
X143835906Y-152876833D01*
X143888335Y-152863451D01*
X144018126Y-152801356D01*
X144098908Y-152747380D01*
X144142233Y-152714947D01*
X144238380Y-152607908D01*
X144292356Y-152527126D01*
X144319966Y-152480591D01*
X144367833Y-152344906D01*
X144386787Y-152249618D01*
X144396500Y-152151000D01*
X144396500Y-150244088D01*
X144909500Y-150244088D01*
X144909500Y-153548000D01*
X144919212Y-153646612D01*
X144938168Y-153741913D01*
X144951549Y-153794334D01*
X144951550Y-153794339D01*
X145013642Y-153924121D01*
X145013644Y-153924126D01*
X145067620Y-154004908D01*
X145100053Y-154048233D01*
X145207092Y-154144380D01*
X145233434Y-154161980D01*
X145287849Y-154198340D01*
X145287863Y-154198349D01*
X145287874Y-154198356D01*
X145334409Y-154225966D01*
X145470094Y-154273833D01*
X145565382Y-154292787D01*
X145664000Y-154302500D01*
X145664003Y-154302500D01*
X155960997Y-154302500D01*
X155961000Y-154302500D01*
X156059618Y-154292787D01*
X156154906Y-154273833D01*
X156207335Y-154260451D01*
X156337126Y-154198356D01*
X156417908Y-154144380D01*
X156461233Y-154111947D01*
X156557380Y-154004908D01*
X156611356Y-153924126D01*
X156638966Y-153877591D01*
X156686833Y-153741906D01*
X156705787Y-153646618D01*
X156715500Y-153548000D01*
X156715500Y-148839000D01*
X156705787Y-148740382D01*
X156686833Y-148645094D01*
X156673451Y-148592665D01*
X156670979Y-148587499D01*
X156621155Y-148483356D01*
X156611356Y-148462874D01*
X156557380Y-148382092D01*
X156524947Y-148338767D01*
X156417908Y-148242620D01*
X156417205Y-148242150D01*
X156337150Y-148188659D01*
X156337121Y-148188641D01*
X156290590Y-148161033D01*
X156154907Y-148113167D01*
X156154903Y-148113166D01*
X156059614Y-148094212D01*
X155961000Y-148084500D01*
X155059500Y-148084500D01*
X154964212Y-148065546D01*
X154883430Y-148011570D01*
X154829454Y-147930788D01*
X154810500Y-147835500D01*
X154810500Y-145410003D01*
X154810500Y-145410000D01*
X154800787Y-145311382D01*
X154781833Y-145216094D01*
X154768451Y-145163665D01*
X154767116Y-145160875D01*
X154707740Y-145036767D01*
X154706356Y-145033874D01*
X154652380Y-144953092D01*
X154619947Y-144909767D01*
X154512908Y-144813620D01*
X154509235Y-144811166D01*
X154432150Y-144759659D01*
X154432121Y-144759641D01*
X154385590Y-144732033D01*
X154249907Y-144684167D01*
X154249903Y-144684166D01*
X154154614Y-144665212D01*
X154056000Y-144655500D01*
X153030000Y-144655500D01*
X153029999Y-144655500D01*
X152931387Y-144665212D01*
X152836086Y-144684168D01*
X152783665Y-144697549D01*
X152783660Y-144697550D01*
X152653875Y-144759643D01*
X152573086Y-144813624D01*
X152529769Y-144846051D01*
X152529767Y-144846053D01*
X152433626Y-144953086D01*
X152433616Y-144953097D01*
X152379659Y-145033849D01*
X152379641Y-145033878D01*
X152352033Y-145080409D01*
X152304167Y-145216092D01*
X152304166Y-145216096D01*
X152285212Y-145311385D01*
X152275500Y-145409999D01*
X152275500Y-148327516D01*
X152275675Y-148329702D01*
X152275609Y-148330260D01*
X152275699Y-148332496D01*
X152275346Y-148332510D01*
X152264387Y-148426199D01*
X152217030Y-148511031D01*
X152155080Y-148560345D01*
X152156397Y-148562493D01*
X152148822Y-148567135D01*
X152069832Y-148623681D01*
X151995294Y-148688985D01*
X150730781Y-150037801D01*
X150651782Y-150094354D01*
X150557154Y-150116371D01*
X150549126Y-150116500D01*
X149895136Y-150116500D01*
X149814615Y-150122955D01*
X149814595Y-150122957D01*
X149736295Y-150135592D01*
X149736276Y-150135596D01*
X149657826Y-150154792D01*
X149656057Y-150155301D01*
X149655325Y-150155404D01*
X149652972Y-150155980D01*
X149652914Y-150155743D01*
X149587241Y-150164999D01*
X149116758Y-150164999D01*
X149051083Y-150155745D01*
X149051026Y-150155981D01*
X149048679Y-150155406D01*
X149047957Y-150155305D01*
X149046204Y-150154801D01*
X149046196Y-150154799D01*
X149046190Y-150154797D01*
X148989713Y-150140977D01*
X148967724Y-150135596D01*
X148967726Y-150135596D01*
X148889391Y-150122955D01*
X148808865Y-150116500D01*
X148582500Y-150116500D01*
X148487212Y-150097546D01*
X148406430Y-150043570D01*
X148352454Y-149962788D01*
X148333500Y-149867500D01*
X148333500Y-148836500D01*
X148352454Y-148741212D01*
X148406430Y-148660430D01*
X148487212Y-148606454D01*
X148582500Y-148587500D01*
X149248857Y-148587500D01*
X149248860Y-148587500D01*
X149347478Y-148577787D01*
X149442766Y-148558833D01*
X149495195Y-148545451D01*
X149624986Y-148483356D01*
X149705768Y-148429380D01*
X149782372Y-148366512D01*
X150398512Y-147750372D01*
X150461380Y-147673768D01*
X150515356Y-147592986D01*
X150542966Y-147546451D01*
X150590833Y-147410766D01*
X150609787Y-147315478D01*
X150619500Y-147216860D01*
X150619500Y-145537000D01*
X150609787Y-145438382D01*
X150590833Y-145343094D01*
X150577451Y-145290665D01*
X150515356Y-145160874D01*
X150461380Y-145080092D01*
X150428947Y-145036767D01*
X150321908Y-144940620D01*
X150275733Y-144909767D01*
X150241150Y-144886659D01*
X150241121Y-144886641D01*
X150194590Y-144859033D01*
X150058907Y-144811167D01*
X150058903Y-144811166D01*
X149963614Y-144792212D01*
X149865000Y-144782500D01*
X149815165Y-144782500D01*
X149734644Y-144788955D01*
X149734624Y-144788957D01*
X149689264Y-144796277D01*
X149674902Y-144798168D01*
X149625544Y-144803210D01*
X149600240Y-144804499D01*
X149103768Y-144804499D01*
X149078465Y-144803210D01*
X149050616Y-144800365D01*
X149029109Y-144798168D01*
X149014756Y-144796278D01*
X148969370Y-144788955D01*
X148888839Y-144782500D01*
X148888838Y-144782500D01*
X148693140Y-144782500D01*
X148693139Y-144782500D01*
X148594527Y-144792212D01*
X148499226Y-144811168D01*
X148446805Y-144824549D01*
X148446800Y-144824550D01*
X148317012Y-144886644D01*
X148236241Y-144940612D01*
X148159626Y-145003489D01*
X146400489Y-146762626D01*
X146337612Y-146839241D01*
X146283654Y-146919997D01*
X146283641Y-146920018D01*
X146256033Y-146966549D01*
X146208167Y-147102232D01*
X146208166Y-147102236D01*
X146204220Y-147122076D01*
X146167041Y-147211836D01*
X146098342Y-147280535D01*
X146008583Y-147317715D01*
X145960004Y-147322500D01*
X145957707Y-147322500D01*
X145710354Y-147322500D01*
X145677295Y-147323582D01*
X145677280Y-147323582D01*
X145677279Y-147323583D01*
X145644799Y-147325711D01*
X145644793Y-147325712D01*
X145515371Y-147351455D01*
X145423364Y-147382686D01*
X145373136Y-147402795D01*
X145252558Y-147481301D01*
X145252554Y-147481304D01*
X145179526Y-147545347D01*
X145140794Y-147583167D01*
X145059437Y-147701844D01*
X145016484Y-147788943D01*
X145016471Y-147788972D01*
X144995169Y-147838716D01*
X144995168Y-147838717D01*
X144965422Y-147979484D01*
X144965420Y-147979501D01*
X144965188Y-147983046D01*
X144964661Y-147985010D01*
X144964208Y-147988303D01*
X144963794Y-147988246D01*
X144963425Y-147989624D01*
X144962152Y-148014650D01*
X144957999Y-148031107D01*
X144957999Y-148084562D01*
X144957466Y-148100850D01*
X144954830Y-148141050D01*
X144957999Y-148160238D01*
X144957999Y-149950820D01*
X144944565Y-150031503D01*
X144938168Y-150050177D01*
X144938167Y-150050183D01*
X144919215Y-150145464D01*
X144919212Y-150145478D01*
X144909500Y-150244088D01*
X144396500Y-150244088D01*
X144396500Y-150244087D01*
X144386786Y-150145464D01*
X144367831Y-150050176D01*
X144358721Y-150020148D01*
X144348000Y-149947868D01*
X144348000Y-148204003D01*
X144348000Y-148204000D01*
X144338287Y-148105382D01*
X144319333Y-148010094D01*
X144305951Y-147957665D01*
X144293092Y-147930788D01*
X144277980Y-147899201D01*
X144243856Y-147827874D01*
X144189880Y-147747092D01*
X144157447Y-147703767D01*
X144050408Y-147607620D01*
X144049705Y-147607150D01*
X143969650Y-147553659D01*
X143969621Y-147553641D01*
X143923090Y-147526033D01*
X143787407Y-147478167D01*
X143787403Y-147478166D01*
X143692114Y-147459212D01*
X143593500Y-147449500D01*
X140370136Y-147449500D01*
X140289615Y-147455955D01*
X140289595Y-147455957D01*
X140211295Y-147468592D01*
X140211276Y-147468596D01*
X140132836Y-147487789D01*
X140131062Y-147488300D01*
X140130328Y-147488403D01*
X140127976Y-147488979D01*
X140127918Y-147488743D01*
X140062242Y-147497999D01*
X139591757Y-147497999D01*
X139526079Y-147488744D01*
X139526022Y-147488980D01*
X139523678Y-147488406D01*
X139522951Y-147488304D01*
X139521202Y-147487801D01*
X139521186Y-147487796D01*
X139460640Y-147472980D01*
X139442724Y-147468596D01*
X139442726Y-147468596D01*
X139364391Y-147455955D01*
X139283865Y-147449500D01*
X138107524Y-147449500D01*
X138012236Y-147430546D01*
X137931454Y-147376570D01*
X137886229Y-147331345D01*
X137886229Y-147331344D01*
X137590377Y-147035493D01*
X137590371Y-147035487D01*
X137513769Y-146972622D01*
X137472823Y-146945263D01*
X137432984Y-146918643D01*
X137386451Y-146891034D01*
X137250761Y-146843165D01*
X137155468Y-146824211D01*
X137128088Y-146821514D01*
X137035117Y-146793310D01*
X136960017Y-146731673D01*
X136914220Y-146645989D01*
X136903500Y-146573714D01*
X136903500Y-144648003D01*
X136903500Y-144648000D01*
X136893787Y-144549382D01*
X136874833Y-144454094D01*
X136861451Y-144401665D01*
X136799356Y-144271874D01*
X136745380Y-144191092D01*
X136712947Y-144147767D01*
X136605908Y-144051620D01*
X136605205Y-144051150D01*
X136525150Y-143997659D01*
X136525121Y-143997641D01*
X136478590Y-143970033D01*
X136342907Y-143922167D01*
X136342903Y-143922166D01*
X136247614Y-143903212D01*
X136149000Y-143893500D01*
X135123000Y-143893500D01*
X135122999Y-143893500D01*
X135024387Y-143903212D01*
X134929086Y-143922168D01*
X134876665Y-143935549D01*
X134876660Y-143935550D01*
X134746875Y-143997643D01*
X134666086Y-144051624D01*
X134622769Y-144084051D01*
X134622767Y-144084053D01*
X134526626Y-144191086D01*
X134526616Y-144191097D01*
X134472659Y-144271849D01*
X134472641Y-144271878D01*
X134445033Y-144318409D01*
X134397167Y-144454092D01*
X134397166Y-144454096D01*
X134378212Y-144549385D01*
X134368500Y-144647999D01*
X134368500Y-146260476D01*
X134349546Y-146355764D01*
X134295570Y-146436546D01*
X134214788Y-146490522D01*
X134119500Y-146509476D01*
X134024212Y-146490522D01*
X133943430Y-146436546D01*
X133928430Y-146421546D01*
X133874454Y-146340764D01*
X133855500Y-146245476D01*
X133855500Y-139949000D01*
X133874454Y-139853712D01*
X133928430Y-139772930D01*
X134009212Y-139718954D01*
X134104500Y-139700000D01*
X159154860Y-139700000D01*
X159250148Y-139718954D01*
X159330930Y-139772930D01*
X181537070Y-161979070D01*
X181591046Y-162059852D01*
X181610000Y-162155140D01*
X181610000Y-196031976D01*
X181591046Y-196127264D01*
X181537070Y-196208046D01*
X176393546Y-201351570D01*
X176312764Y-201405546D01*
X176217476Y-201424500D01*
X168269999Y-201424500D01*
X168171387Y-201434212D01*
X168076086Y-201453168D01*
X168023665Y-201466549D01*
X168023660Y-201466550D01*
X167893875Y-201528643D01*
X167813086Y-201582624D01*
X167769769Y-201615051D01*
X167769767Y-201615053D01*
X167694017Y-201699385D01*
X167673616Y-201722097D01*
X167619659Y-201802849D01*
X167619641Y-201802878D01*
X167592033Y-201849409D01*
X167544167Y-201985092D01*
X167544166Y-201985096D01*
X167525212Y-202080385D01*
X167515500Y-202178999D01*
X167515500Y-207779500D01*
X167496546Y-207874788D01*
X167442570Y-207955570D01*
X167361788Y-208009546D01*
X167266500Y-208028500D01*
X162681999Y-208028500D01*
X162583387Y-208038212D01*
X162488086Y-208057168D01*
X162435665Y-208070549D01*
X162435660Y-208070550D01*
X162305875Y-208132643D01*
X162225086Y-208186624D01*
X162181769Y-208219051D01*
X162181767Y-208219053D01*
X162095312Y-208315303D01*
X162085616Y-208326097D01*
X162031659Y-208406849D01*
X162031641Y-208406878D01*
X162004033Y-208453409D01*
X161956167Y-208589092D01*
X161956166Y-208589096D01*
X161937212Y-208684383D01*
X161934230Y-208714667D01*
X161906026Y-208807638D01*
X161844391Y-208882739D01*
X161758708Y-208928537D01*
X161662020Y-208938059D01*
X161569049Y-208909855D01*
X161548089Y-208897292D01*
X161544131Y-208894647D01*
X161544121Y-208894641D01*
X161497590Y-208867033D01*
X161361907Y-208819167D01*
X161361903Y-208819166D01*
X161266614Y-208800212D01*
X161168000Y-208790500D01*
X155570000Y-208790500D01*
X155569999Y-208790500D01*
X155471387Y-208800212D01*
X155376086Y-208819168D01*
X155323665Y-208832549D01*
X155323660Y-208832550D01*
X155193875Y-208894643D01*
X155113086Y-208948624D01*
X155069769Y-208981051D01*
X155069767Y-208981053D01*
X154975006Y-209086550D01*
X154973616Y-209088097D01*
X154919659Y-209168849D01*
X154919641Y-209168878D01*
X154892033Y-209215409D01*
X154844167Y-209351092D01*
X154844166Y-209351096D01*
X154825212Y-209446385D01*
X154815500Y-209544999D01*
X154815500Y-231145000D01*
X154825212Y-231243612D01*
X154844168Y-231338913D01*
X154857549Y-231391334D01*
X154857550Y-231391339D01*
X154919642Y-231521121D01*
X154919644Y-231521126D01*
X154973620Y-231601908D01*
X155006053Y-231645233D01*
X155113092Y-231741380D01*
X155139434Y-231758980D01*
X155193849Y-231795340D01*
X155193863Y-231795349D01*
X155193874Y-231795356D01*
X155240409Y-231822966D01*
X155376094Y-231870833D01*
X155471382Y-231889787D01*
X155570000Y-231899500D01*
X155570003Y-231899500D01*
X161167997Y-231899500D01*
X161168000Y-231899500D01*
X161266618Y-231889787D01*
X161361906Y-231870833D01*
X161414335Y-231857451D01*
X161544126Y-231795356D01*
X161624908Y-231741380D01*
X161668233Y-231708947D01*
X161764380Y-231601908D01*
X161818356Y-231521126D01*
X161845966Y-231474591D01*
X161893833Y-231338906D01*
X161912787Y-231243618D01*
X161922500Y-231145000D01*
X161922500Y-219050994D01*
X161941454Y-218955706D01*
X161995430Y-218874924D01*
X162076212Y-218820948D01*
X162171500Y-218801994D01*
X162266788Y-218820948D01*
X162302991Y-218839681D01*
X162303007Y-218839655D01*
X162303464Y-218839926D01*
X162304256Y-218840336D01*
X162305866Y-218841350D01*
X162305874Y-218841356D01*
X162352409Y-218868966D01*
X162488094Y-218916833D01*
X162583382Y-218935787D01*
X162682000Y-218945500D01*
X168089476Y-218945500D01*
X168184764Y-218964454D01*
X168265546Y-219018430D01*
X171633570Y-222386454D01*
X171687546Y-222467236D01*
X171706500Y-222562524D01*
X171706500Y-228351000D01*
X171716212Y-228449612D01*
X171735168Y-228544913D01*
X171748549Y-228597334D01*
X171748550Y-228597339D01*
X171810643Y-228727124D01*
X171810644Y-228727126D01*
X171864620Y-228807908D01*
X171897053Y-228851233D01*
X172004092Y-228947380D01*
X172030434Y-228964980D01*
X172084849Y-229001340D01*
X172084863Y-229001349D01*
X172084874Y-229001356D01*
X172131409Y-229028966D01*
X172267094Y-229076833D01*
X172362382Y-229095787D01*
X172461000Y-229105500D01*
X172461003Y-229105500D01*
X181361000Y-229105500D01*
X181456288Y-229124454D01*
X181537070Y-229178430D01*
X181591046Y-229259212D01*
X181610000Y-229354500D01*
X181610000Y-237840500D01*
X181591046Y-237935788D01*
X181537070Y-238016570D01*
X181456288Y-238070546D01*
X181361000Y-238089500D01*
X111935433Y-238089500D01*
X111924572Y-238089263D01*
X111541734Y-238072548D01*
X111520094Y-238070655D01*
X111145558Y-238021346D01*
X111124165Y-238017574D01*
X110755342Y-237935807D01*
X110734361Y-237930185D01*
X110675524Y-237911633D01*
X110374076Y-237816587D01*
X110353678Y-237809163D01*
X110004670Y-237664600D01*
X109984982Y-237655419D01*
X109649888Y-237480979D01*
X109631077Y-237470119D01*
X109312471Y-237267145D01*
X109294687Y-237254693D01*
X108994977Y-237024717D01*
X108978341Y-237010758D01*
X108699819Y-236755540D01*
X108684459Y-236740180D01*
X108429241Y-236461658D01*
X108415284Y-236445025D01*
X108185303Y-236145307D01*
X108172854Y-236127528D01*
X108135896Y-236069516D01*
X107969878Y-235808918D01*
X107959020Y-235790111D01*
X107784580Y-235455017D01*
X107775405Y-235435343D01*
X107630831Y-235086307D01*
X107623416Y-235065936D01*
X107509810Y-234705626D01*
X107504192Y-234684657D01*
X107485322Y-234599542D01*
X107422422Y-234315820D01*
X107418655Y-234294455D01*
X107369342Y-233919892D01*
X107367452Y-233898279D01*
X107353993Y-233590000D01*
X108144422Y-233590000D01*
X108164722Y-233977338D01*
X108225398Y-234360433D01*
X108315115Y-234695262D01*
X108325786Y-234735086D01*
X108464786Y-235097195D01*
X108640872Y-235442784D01*
X108640875Y-235442789D01*
X108852124Y-235768085D01*
X108916946Y-235848133D01*
X109096219Y-236069516D01*
X109370484Y-236343781D01*
X109370489Y-236343785D01*
X109370490Y-236343786D01*
X109671914Y-236587875D01*
X109821593Y-236685078D01*
X109997211Y-236799125D01*
X110342806Y-236975214D01*
X110704913Y-237114214D01*
X111079567Y-237214602D01*
X111462662Y-237275278D01*
X111850000Y-237295578D01*
X112237338Y-237275278D01*
X112620433Y-237214602D01*
X112995087Y-237114214D01*
X113357194Y-236975214D01*
X113702789Y-236799125D01*
X114028084Y-236587876D01*
X114329516Y-236343781D01*
X114603781Y-236069516D01*
X114847876Y-235768084D01*
X115059125Y-235442789D01*
X115235214Y-235097194D01*
X115374214Y-234735087D01*
X115474602Y-234360433D01*
X115535278Y-233977338D01*
X115555578Y-233590000D01*
X115535278Y-233202662D01*
X115474602Y-232819567D01*
X115374214Y-232444913D01*
X115235214Y-232082806D01*
X115059125Y-231737211D01*
X114918798Y-231521126D01*
X114847875Y-231411914D01*
X114603786Y-231110490D01*
X114603785Y-231110489D01*
X114603781Y-231110484D01*
X114329516Y-230836219D01*
X114329509Y-230836213D01*
X114028085Y-230592124D01*
X113702789Y-230380875D01*
X113702784Y-230380872D01*
X113357195Y-230204786D01*
X113176140Y-230135286D01*
X112995087Y-230065786D01*
X112620433Y-229965398D01*
X112620429Y-229965397D01*
X112620428Y-229965397D01*
X112237344Y-229904723D01*
X112237345Y-229904723D01*
X112237343Y-229904722D01*
X112237338Y-229904722D01*
X111850000Y-229884422D01*
X111462662Y-229904722D01*
X111462656Y-229904722D01*
X111462654Y-229904723D01*
X111079571Y-229965397D01*
X110704913Y-230065786D01*
X110342804Y-230204786D01*
X109997215Y-230380872D01*
X109997210Y-230380875D01*
X109671914Y-230592124D01*
X109370490Y-230836213D01*
X109096213Y-231110490D01*
X108852124Y-231411914D01*
X108640875Y-231737210D01*
X108640872Y-231737215D01*
X108464786Y-232082804D01*
X108325786Y-232444913D01*
X108225398Y-232819567D01*
X108164722Y-233202662D01*
X108144422Y-233590000D01*
X107353993Y-233590000D01*
X107350737Y-233515428D01*
X107350500Y-233504567D01*
X107350500Y-209798999D01*
X125859500Y-209798999D01*
X125859500Y-231145000D01*
X125869212Y-231243612D01*
X125888168Y-231338913D01*
X125901549Y-231391334D01*
X125901550Y-231391339D01*
X125963642Y-231521121D01*
X125963644Y-231521126D01*
X126017620Y-231601908D01*
X126050053Y-231645233D01*
X126157092Y-231741380D01*
X126183434Y-231758980D01*
X126237849Y-231795340D01*
X126237863Y-231795349D01*
X126237874Y-231795356D01*
X126284409Y-231822966D01*
X126420094Y-231870833D01*
X126515382Y-231889787D01*
X126614000Y-231899500D01*
X126614003Y-231899500D01*
X132719997Y-231899500D01*
X132720000Y-231899500D01*
X132818618Y-231889787D01*
X132913906Y-231870833D01*
X132966335Y-231857451D01*
X133096126Y-231795356D01*
X133176908Y-231741380D01*
X133220233Y-231708947D01*
X133316380Y-231601908D01*
X133370356Y-231521126D01*
X133397966Y-231474591D01*
X133445833Y-231338906D01*
X133464787Y-231243618D01*
X133474500Y-231145000D01*
X133474500Y-215626930D01*
X133493454Y-215531642D01*
X133547430Y-215450860D01*
X133628212Y-215396884D01*
X133723500Y-215377930D01*
X133748241Y-215379776D01*
X133748299Y-215379188D01*
X133760747Y-215380413D01*
X133853000Y-215389500D01*
X133853003Y-215389500D01*
X138453857Y-215389500D01*
X138453860Y-215389500D01*
X138552478Y-215379787D01*
X138647766Y-215360833D01*
X138700195Y-215347451D01*
X138829986Y-215285356D01*
X138910768Y-215231380D01*
X138987372Y-215168512D01*
X140111512Y-214044372D01*
X140174380Y-213967768D01*
X140228356Y-213886986D01*
X140255966Y-213840451D01*
X140303833Y-213704766D01*
X140322787Y-213609478D01*
X140332500Y-213510860D01*
X140332500Y-212275524D01*
X140351454Y-212180236D01*
X140405430Y-212099454D01*
X141106454Y-211398430D01*
X141187236Y-211344454D01*
X141282524Y-211325500D01*
X141507046Y-211325500D01*
X141602334Y-211344454D01*
X141683116Y-211398430D01*
X141737092Y-211479212D01*
X141756046Y-211574500D01*
X141737092Y-211669788D01*
X141704591Y-211726082D01*
X141597076Y-211866196D01*
X141597073Y-211866201D01*
X141465955Y-212093306D01*
X141465953Y-212093310D01*
X141365601Y-212335582D01*
X141297729Y-212588887D01*
X141263500Y-212848880D01*
X141263500Y-213111119D01*
X141297729Y-213371112D01*
X141365601Y-213624417D01*
X141465953Y-213866689D01*
X141465955Y-213866693D01*
X141597073Y-214093798D01*
X141597082Y-214093812D01*
X141756713Y-214301845D01*
X141756718Y-214301851D01*
X141942149Y-214487282D01*
X141942153Y-214487285D01*
X141942154Y-214487286D01*
X142150187Y-214646917D01*
X142150192Y-214646920D01*
X142150197Y-214646924D01*
X142377303Y-214778043D01*
X142619581Y-214878398D01*
X142872884Y-214946270D01*
X143132880Y-214980500D01*
X144395120Y-214980500D01*
X144655116Y-214946270D01*
X144908419Y-214878398D01*
X145150697Y-214778043D01*
X145377803Y-214646924D01*
X145585851Y-214487282D01*
X145771282Y-214301851D01*
X145930924Y-214093803D01*
X146062043Y-213866697D01*
X146162398Y-213624419D01*
X146230270Y-213371116D01*
X146264500Y-213111120D01*
X146264500Y-212848880D01*
X146230270Y-212588884D01*
X146162398Y-212335581D01*
X146062043Y-212093303D01*
X145930924Y-211866197D01*
X145804121Y-211700945D01*
X145761152Y-211613813D01*
X145754797Y-211516866D01*
X145786026Y-211424867D01*
X145850084Y-211351822D01*
X145937220Y-211308851D01*
X145953075Y-211305153D01*
X145994906Y-211296833D01*
X146047335Y-211283451D01*
X146177126Y-211221356D01*
X146257908Y-211167380D01*
X146301233Y-211134947D01*
X146397380Y-211027908D01*
X146451356Y-210947126D01*
X146478966Y-210900591D01*
X146526833Y-210764906D01*
X146545787Y-210669618D01*
X146555500Y-210571000D01*
X146555500Y-206497000D01*
X146545787Y-206398382D01*
X146526833Y-206303094D01*
X146526828Y-206303073D01*
X146526828Y-206303072D01*
X146526572Y-206302068D01*
X146526563Y-206301903D01*
X146526093Y-206299831D01*
X146526447Y-206299750D01*
X146521376Y-206205052D01*
X146553703Y-206113433D01*
X146618629Y-206041158D01*
X146706272Y-205999232D01*
X146767840Y-205991500D01*
X147216857Y-205991500D01*
X147216860Y-205991500D01*
X147315478Y-205981787D01*
X147410766Y-205962833D01*
X147463195Y-205949451D01*
X147592986Y-205887356D01*
X147673768Y-205833380D01*
X147750372Y-205770512D01*
X156494512Y-197026372D01*
X156557380Y-196949768D01*
X156611356Y-196868986D01*
X156638966Y-196822451D01*
X156686833Y-196686766D01*
X156705787Y-196591478D01*
X156715500Y-196492860D01*
X156715500Y-177350524D01*
X156734454Y-177255236D01*
X156788430Y-177174454D01*
X164495512Y-169467372D01*
X164558380Y-169390768D01*
X164612356Y-169309986D01*
X164639966Y-169263451D01*
X164687833Y-169127766D01*
X164706787Y-169032478D01*
X164716500Y-168933860D01*
X164716500Y-158999000D01*
X164706787Y-158900382D01*
X164687833Y-158805094D01*
X164674451Y-158752665D01*
X164612356Y-158622874D01*
X164558380Y-158542092D01*
X164525947Y-158498767D01*
X164418908Y-158402620D01*
X164418205Y-158402150D01*
X164338150Y-158348659D01*
X164338121Y-158348641D01*
X164291590Y-158321033D01*
X164155907Y-158273167D01*
X164155903Y-158273166D01*
X164060614Y-158254212D01*
X163962000Y-158244500D01*
X153157000Y-158244500D01*
X153156999Y-158244500D01*
X153058387Y-158254212D01*
X152963086Y-158273168D01*
X152910665Y-158286549D01*
X152910660Y-158286550D01*
X152780875Y-158348643D01*
X152700086Y-158402624D01*
X152656769Y-158435051D01*
X152656767Y-158435053D01*
X152560626Y-158542086D01*
X152560616Y-158542097D01*
X152506659Y-158622849D01*
X152506641Y-158622878D01*
X152479033Y-158669409D01*
X152431167Y-158805092D01*
X152431166Y-158805096D01*
X152412212Y-158900385D01*
X152402500Y-158998999D01*
X152402500Y-166819474D01*
X152383546Y-166914762D01*
X152329570Y-166995544D01*
X150337480Y-168987634D01*
X150337478Y-168987637D01*
X150274617Y-169064235D01*
X150274605Y-169064251D01*
X150220652Y-169145000D01*
X150193033Y-169191549D01*
X150145167Y-169327231D01*
X150145166Y-169327235D01*
X150126212Y-169422524D01*
X150116500Y-169521138D01*
X150116500Y-191838476D01*
X150097546Y-191933764D01*
X150043570Y-192014546D01*
X143500546Y-198557570D01*
X143419764Y-198611546D01*
X143324476Y-198630500D01*
X134360999Y-198630500D01*
X134262387Y-198640212D01*
X134167086Y-198659168D01*
X134114665Y-198672549D01*
X134114660Y-198672550D01*
X133984875Y-198734643D01*
X133904086Y-198788624D01*
X133860769Y-198821051D01*
X133860766Y-198821054D01*
X133764616Y-198928097D01*
X133710659Y-199008849D01*
X133710641Y-199008878D01*
X133683033Y-199055409D01*
X133635167Y-199191092D01*
X133635166Y-199191096D01*
X133616212Y-199286385D01*
X133606500Y-199384999D01*
X133606500Y-200794500D01*
X133587546Y-200889788D01*
X133533570Y-200970570D01*
X133452788Y-201024546D01*
X133357500Y-201043500D01*
X129534999Y-201043500D01*
X129436387Y-201053212D01*
X129341086Y-201072168D01*
X129288665Y-201085549D01*
X129288660Y-201085550D01*
X129158875Y-201147643D01*
X129078086Y-201201624D01*
X129034769Y-201234051D01*
X129034766Y-201234054D01*
X128938616Y-201341097D01*
X128884659Y-201421849D01*
X128884641Y-201421878D01*
X128857033Y-201468409D01*
X128809167Y-201604092D01*
X128809166Y-201604096D01*
X128790212Y-201699385D01*
X128780500Y-201797999D01*
X128780500Y-203068075D01*
X128783304Y-203121251D01*
X128783307Y-203121286D01*
X128783473Y-203122854D01*
X128784734Y-203141405D01*
X128784906Y-203147071D01*
X128787027Y-203167830D01*
X128787031Y-203167864D01*
X128792710Y-203223453D01*
X128793999Y-203248759D01*
X128793999Y-203745235D01*
X128792710Y-203770535D01*
X128786293Y-203833363D01*
X128786292Y-203833376D01*
X128784910Y-203846898D01*
X128784909Y-203846912D01*
X128784742Y-203852464D01*
X128783473Y-203871167D01*
X128783308Y-203872722D01*
X128780500Y-203925917D01*
X128780500Y-204983000D01*
X128790212Y-205081612D01*
X128809168Y-205176913D01*
X128822549Y-205229334D01*
X128822550Y-205229339D01*
X128884643Y-205359124D01*
X128884644Y-205359126D01*
X128938620Y-205439908D01*
X128971053Y-205483233D01*
X129078092Y-205579380D01*
X129104434Y-205596980D01*
X129158849Y-205633340D01*
X129158863Y-205633349D01*
X129158874Y-205633356D01*
X129205409Y-205660966D01*
X129341094Y-205708833D01*
X129436382Y-205727787D01*
X129535000Y-205737500D01*
X129535003Y-205737500D01*
X133357497Y-205737500D01*
X133357500Y-205737500D01*
X133456118Y-205727787D01*
X133551406Y-205708833D01*
X133589112Y-205699208D01*
X133686123Y-205694005D01*
X133777745Y-205726324D01*
X133817088Y-205755230D01*
X133904092Y-205833380D01*
X133904093Y-205833381D01*
X133984849Y-205887340D01*
X133984863Y-205887349D01*
X133984874Y-205887356D01*
X134031409Y-205914966D01*
X134167094Y-205962833D01*
X134262382Y-205981787D01*
X134361000Y-205991500D01*
X135024471Y-205991500D01*
X135119759Y-206010454D01*
X135200541Y-206064430D01*
X135254517Y-206145212D01*
X135273471Y-206240500D01*
X135254517Y-206335788D01*
X135200541Y-206416570D01*
X135191043Y-206425580D01*
X133348288Y-208084058D01*
X133348250Y-208084092D01*
X133348249Y-208084094D01*
X133338491Y-208093111D01*
X133338470Y-208093131D01*
X133329010Y-208102105D01*
X133256619Y-208187986D01*
X133202643Y-208268769D01*
X133202641Y-208268772D01*
X133175033Y-208315303D01*
X133127167Y-208450986D01*
X133127166Y-208450990D01*
X133108212Y-208546279D01*
X133098500Y-208644893D01*
X133098500Y-208807069D01*
X133079546Y-208902357D01*
X133025570Y-208983139D01*
X132944788Y-209037115D01*
X132849500Y-209056069D01*
X132824756Y-209054253D01*
X132824701Y-209054812D01*
X132720000Y-209044500D01*
X126614000Y-209044500D01*
X126613999Y-209044500D01*
X126515387Y-209054212D01*
X126420086Y-209073168D01*
X126367665Y-209086549D01*
X126367660Y-209086550D01*
X126237875Y-209148643D01*
X126157086Y-209202624D01*
X126113769Y-209235051D01*
X126113766Y-209235054D01*
X126017616Y-209342097D01*
X125963659Y-209422849D01*
X125963641Y-209422878D01*
X125936033Y-209469409D01*
X125888167Y-209605092D01*
X125888166Y-209605096D01*
X125869212Y-209700385D01*
X125859500Y-209798999D01*
X107350500Y-209798999D01*
X107350500Y-139949000D01*
X107369454Y-139853712D01*
X107423430Y-139772930D01*
X107504212Y-139718954D01*
X107599500Y-139700000D01*
X126499500Y-139700000D01*
X126594788Y-139718954D01*
G37*
%TD.AperFunction*%
%TD*%
%TA.AperFunction,Conductor*%
%TO.N,/RELAY/NO_EX1*%
G36*
X132815288Y-111016954D02*
G01*
X132896070Y-111070930D01*
X132950046Y-111151712D01*
X132969000Y-111247000D01*
X132969000Y-119131000D01*
X132950046Y-119226288D01*
X132896070Y-119307070D01*
X132815288Y-119361046D01*
X132720000Y-119380000D01*
X114295000Y-119380000D01*
X114199712Y-119361046D01*
X114118930Y-119307070D01*
X114064954Y-119226288D01*
X114046000Y-119131000D01*
X114046000Y-116581000D01*
X114064954Y-116485712D01*
X114118930Y-116404930D01*
X114199712Y-116350954D01*
X114295000Y-116332000D01*
X125856999Y-116332000D01*
X125857000Y-116332000D01*
X128524000Y-113665000D01*
X128524000Y-111247000D01*
X128542954Y-111151712D01*
X128596930Y-111070930D01*
X128677712Y-111016954D01*
X128773000Y-110998000D01*
X132720000Y-110998000D01*
X132815288Y-111016954D01*
G37*
%TD.AperFunction*%
%TD*%
%TA.AperFunction,Conductor*%
%TO.N,/POWER SUPPLY/72V*%
G36*
X192500258Y-186708954D02*
G01*
X192581040Y-186762930D01*
X192635016Y-186843712D01*
X192653970Y-186939000D01*
X192653920Y-186943979D01*
X192534004Y-192939784D01*
X192513149Y-193034674D01*
X192461124Y-193110875D01*
X183642000Y-201930000D01*
X183642000Y-224028000D01*
X192283000Y-224028000D01*
X192378288Y-224046954D01*
X192459070Y-224100930D01*
X192513046Y-224181712D01*
X192532000Y-224277000D01*
X192532000Y-228351000D01*
X192513046Y-228446288D01*
X192459070Y-228527070D01*
X192378288Y-228581046D01*
X192283000Y-228600000D01*
X172461000Y-228600000D01*
X172365712Y-228581046D01*
X172284930Y-228527070D01*
X172230954Y-228446288D01*
X172212000Y-228351000D01*
X172212000Y-222250001D01*
X172212000Y-222250000D01*
X168402000Y-218440000D01*
X168401999Y-218440000D01*
X162682000Y-218440000D01*
X162586712Y-218421046D01*
X162505930Y-218367070D01*
X162451954Y-218286288D01*
X162433000Y-218191000D01*
X162433000Y-208783000D01*
X162451954Y-208687712D01*
X162505930Y-208606930D01*
X162586712Y-208552954D01*
X162682000Y-208534000D01*
X168020999Y-208534000D01*
X168021000Y-208534000D01*
X168021000Y-202179000D01*
X168039954Y-202083712D01*
X168093930Y-202002930D01*
X168174712Y-201948954D01*
X168270000Y-201930000D01*
X176529999Y-201930000D01*
X176530000Y-201930000D01*
X186182000Y-192278000D01*
X186182000Y-186939000D01*
X186200954Y-186843712D01*
X186254930Y-186762930D01*
X186335712Y-186708954D01*
X186431000Y-186690000D01*
X192404970Y-186690000D01*
X192500258Y-186708954D01*
G37*
%TD.AperFunction*%
%TD*%
%TA.AperFunction,Conductor*%
%TO.N,Net-(J21-Pin_4)*%
G36*
X161263288Y-209314954D02*
G01*
X161344070Y-209368930D01*
X161398046Y-209449712D01*
X161417000Y-209545000D01*
X161417000Y-231145000D01*
X161398046Y-231240288D01*
X161344070Y-231321070D01*
X161263288Y-231375046D01*
X161168000Y-231394000D01*
X155570000Y-231394000D01*
X155474712Y-231375046D01*
X155393930Y-231321070D01*
X155339954Y-231240288D01*
X155321000Y-231145000D01*
X155321000Y-209545000D01*
X155339954Y-209449712D01*
X155393930Y-209368930D01*
X155474712Y-209314954D01*
X155570000Y-209296000D01*
X161168000Y-209296000D01*
X161263288Y-209314954D01*
G37*
%TD.AperFunction*%
%TD*%
%TA.AperFunction,Conductor*%
%TO.N,Net-(SW2-B)*%
G36*
X145896288Y-206266954D02*
G01*
X145977070Y-206320930D01*
X146031046Y-206401712D01*
X146050000Y-206497000D01*
X146050000Y-210571000D01*
X146031046Y-210666288D01*
X145977070Y-210747070D01*
X145896288Y-210801046D01*
X145801000Y-210820000D01*
X140970000Y-210820000D01*
X139827000Y-211963000D01*
X139827000Y-211963001D01*
X139827000Y-213510860D01*
X139808046Y-213606148D01*
X139754070Y-213686930D01*
X138629930Y-214811070D01*
X138549148Y-214865046D01*
X138453860Y-214884000D01*
X133853000Y-214884000D01*
X133757712Y-214865046D01*
X133676930Y-214811070D01*
X133622954Y-214730288D01*
X133604000Y-214635000D01*
X133604000Y-208644894D01*
X133622954Y-208549606D01*
X133676930Y-208468824D01*
X133686411Y-208459829D01*
X136072978Y-206311920D01*
X136156485Y-206262264D01*
X136239550Y-206248000D01*
X145801000Y-206248000D01*
X145896288Y-206266954D01*
G37*
%TD.AperFunction*%
%TD*%
%TA.AperFunction,Conductor*%
%TO.N,Net-(U4-NR\u005CFB)*%
G36*
X148950711Y-145297984D02*
G01*
X148950959Y-145296829D01*
X148964242Y-145299672D01*
X148964247Y-145299674D01*
X149065323Y-145310000D01*
X149638676Y-145309999D01*
X149739753Y-145299674D01*
X149739756Y-145299672D01*
X149753054Y-145296827D01*
X149753301Y-145297983D01*
X149815165Y-145288000D01*
X149865000Y-145288000D01*
X149960288Y-145306954D01*
X150041070Y-145360930D01*
X150095046Y-145441712D01*
X150114000Y-145537000D01*
X150114000Y-147216860D01*
X150095046Y-147312148D01*
X150041070Y-147392930D01*
X149424930Y-148009070D01*
X149344148Y-148063046D01*
X149248860Y-148082000D01*
X147828000Y-148082000D01*
X147828000Y-148082001D01*
X147828000Y-149992000D01*
X147809046Y-150087288D01*
X147755070Y-150168070D01*
X147674288Y-150222046D01*
X147579000Y-150241000D01*
X146982500Y-150241000D01*
X146887212Y-150222046D01*
X146806430Y-150168070D01*
X146752454Y-150087288D01*
X146733500Y-149992000D01*
X146733499Y-148109612D01*
X146718623Y-147996612D01*
X146703954Y-147961198D01*
X146685000Y-147865909D01*
X146685000Y-147296140D01*
X146703954Y-147200852D01*
X146757930Y-147120070D01*
X148517070Y-145360930D01*
X148597852Y-145306954D01*
X148693140Y-145288000D01*
X148888838Y-145288000D01*
X148950711Y-145297984D01*
G37*
%TD.AperFunction*%
%TD*%
%TA.AperFunction,Conductor*%
%TO.N,Net-(LED16-A)*%
G36*
X133452788Y-201567954D02*
G01*
X133533570Y-201621930D01*
X133587546Y-201702712D01*
X133606500Y-201798000D01*
X133606500Y-204983000D01*
X133587546Y-205078288D01*
X133533570Y-205159070D01*
X133452788Y-205213046D01*
X133357500Y-205232000D01*
X129535000Y-205232000D01*
X129439712Y-205213046D01*
X129358930Y-205159070D01*
X129304954Y-205078288D01*
X129286000Y-204983000D01*
X129286000Y-203925934D01*
X129288915Y-203898393D01*
X129287792Y-203898279D01*
X129289174Y-203884753D01*
X129299500Y-203783677D01*
X129299499Y-203210324D01*
X129289174Y-203109247D01*
X129289173Y-203109244D01*
X129287792Y-203095723D01*
X129288914Y-203095608D01*
X129286000Y-203068069D01*
X129286000Y-201798000D01*
X129304954Y-201702712D01*
X129358930Y-201621930D01*
X129439712Y-201567954D01*
X129535000Y-201549000D01*
X133357500Y-201549000D01*
X133452788Y-201567954D01*
G37*
%TD.AperFunction*%
%TD*%
%TA.AperFunction,Conductor*%
%TO.N,+3V3*%
G36*
X146052995Y-147846954D02*
G01*
X146133777Y-147900930D01*
X146187753Y-147981712D01*
X146201922Y-148028420D01*
X146208165Y-148059807D01*
X146208169Y-148059823D01*
X146217278Y-148089851D01*
X146227999Y-148162128D01*
X146227999Y-149991996D01*
X146228000Y-149992000D01*
X146237712Y-150090612D01*
X146256668Y-150185913D01*
X146270049Y-150238334D01*
X146270050Y-150238339D01*
X146332143Y-150368124D01*
X146387972Y-150451679D01*
X146387244Y-150452164D01*
X146424817Y-150536373D01*
X146431000Y-150591519D01*
X146431000Y-150622000D01*
X146431001Y-150622000D01*
X146503757Y-150622000D01*
X146599045Y-150640954D01*
X146630814Y-150656857D01*
X146636403Y-150660173D01*
X146652909Y-150669966D01*
X146788594Y-150717833D01*
X146883882Y-150736787D01*
X146982500Y-150746500D01*
X146982503Y-150746500D01*
X147578997Y-150746500D01*
X147579000Y-150746500D01*
X147677618Y-150736787D01*
X147772906Y-150717833D01*
X147825335Y-150704451D01*
X147946711Y-150646382D01*
X148040848Y-150622357D01*
X148054172Y-150622000D01*
X148808865Y-150622000D01*
X148887187Y-150634639D01*
X148954237Y-150656857D01*
X148964247Y-150660174D01*
X149065323Y-150670500D01*
X149638676Y-150670499D01*
X149739753Y-150660174D01*
X149749763Y-150656857D01*
X149816813Y-150634639D01*
X149895136Y-150622000D01*
X150876000Y-150622000D01*
X152364075Y-149034719D01*
X152443067Y-148978172D01*
X152537695Y-148956155D01*
X152633544Y-148972027D01*
X152645407Y-148976850D01*
X152652013Y-148979735D01*
X152652016Y-148979738D01*
X152783863Y-149037338D01*
X152877522Y-149063166D01*
X152930384Y-149074739D01*
X153002311Y-149076118D01*
X153074231Y-149077498D01*
X153074231Y-149077497D01*
X153074238Y-149077498D01*
X153170652Y-149065518D01*
X153241235Y-149049599D01*
X153296014Y-149043500D01*
X153787763Y-149043500D01*
X153846948Y-149050636D01*
X153897152Y-149062921D01*
X153975472Y-149075559D01*
X153990953Y-149077498D01*
X154010941Y-149080002D01*
X154010943Y-149080001D01*
X154010944Y-149080002D01*
X154154618Y-149072301D01*
X154249906Y-149053347D01*
X154302335Y-149039965D01*
X154432126Y-148977870D01*
X154512908Y-148923894D01*
X154556233Y-148891461D01*
X154652380Y-148784422D01*
X154682905Y-148738737D01*
X154708209Y-148700868D01*
X154709135Y-148701486D01*
X154771868Y-148635513D01*
X154860663Y-148596085D01*
X154915374Y-148590000D01*
X155961000Y-148590000D01*
X156056288Y-148608954D01*
X156137070Y-148662930D01*
X156191046Y-148743712D01*
X156210000Y-148839000D01*
X156210000Y-153548000D01*
X156191046Y-153643288D01*
X156137070Y-153724070D01*
X156056288Y-153778046D01*
X155961000Y-153797000D01*
X145664000Y-153797000D01*
X145568712Y-153778046D01*
X145487930Y-153724070D01*
X145433954Y-153643288D01*
X145415000Y-153548000D01*
X145415000Y-150244089D01*
X145433954Y-150148801D01*
X145433955Y-150148799D01*
X145448623Y-150113388D01*
X145463500Y-150000387D01*
X145463499Y-148109614D01*
X145463484Y-148109500D01*
X145463487Y-148109441D01*
X145462966Y-148101478D01*
X145464014Y-148101409D01*
X145469839Y-148012553D01*
X145512809Y-147925418D01*
X145585855Y-147861359D01*
X145677854Y-147830130D01*
X145710354Y-147828000D01*
X145957707Y-147828000D01*
X146052995Y-147846954D01*
G37*
%TD.AperFunction*%
%TD*%
%TA.AperFunction,Conductor*%
%TO.N,Net-(D16-A)*%
G36*
X133196288Y-149497954D02*
G01*
X133277070Y-149551930D01*
X133331046Y-149632712D01*
X133350000Y-149728000D01*
X133350000Y-151765000D01*
X134674072Y-153089072D01*
X134728046Y-153169851D01*
X134747000Y-153265139D01*
X134747000Y-154437000D01*
X134728046Y-154532288D01*
X134674070Y-154613070D01*
X134593288Y-154667046D01*
X134498000Y-154686000D01*
X129153782Y-154686000D01*
X129058494Y-154667046D01*
X128977712Y-154613070D01*
X128957233Y-154589871D01*
X127306451Y-152467437D01*
X127262911Y-152380585D01*
X127254000Y-152314566D01*
X127254000Y-149728000D01*
X127272954Y-149632712D01*
X127326930Y-149551930D01*
X127407712Y-149497954D01*
X127503000Y-149479000D01*
X133101000Y-149479000D01*
X133196288Y-149497954D01*
G37*
%TD.AperFunction*%
%TD*%
%TA.AperFunction,Conductor*%
%TO.N,+12V*%
G36*
X164057288Y-158768954D02*
G01*
X164138070Y-158822930D01*
X164192046Y-158903712D01*
X164211000Y-158999000D01*
X164211000Y-168933860D01*
X164192046Y-169029148D01*
X164138070Y-169109930D01*
X156210000Y-177038000D01*
X156210000Y-196492860D01*
X156191046Y-196588148D01*
X156137070Y-196668930D01*
X147392930Y-205413070D01*
X147312148Y-205467046D01*
X147216860Y-205486000D01*
X134361000Y-205486000D01*
X134265712Y-205467046D01*
X134184930Y-205413070D01*
X134130954Y-205332288D01*
X134112000Y-205237000D01*
X134112000Y-199385000D01*
X134130954Y-199289712D01*
X134184930Y-199208930D01*
X134265712Y-199154954D01*
X134361000Y-199136000D01*
X143636999Y-199136000D01*
X143637000Y-199136000D01*
X150622000Y-192151000D01*
X150622000Y-169521139D01*
X150640954Y-169425851D01*
X150694927Y-169345072D01*
X152908000Y-167132000D01*
X152908000Y-158999000D01*
X152926954Y-158903712D01*
X152980930Y-158822930D01*
X153061712Y-158768954D01*
X153157000Y-158750000D01*
X163962000Y-158750000D01*
X164057288Y-158768954D01*
G37*
%TD.AperFunction*%
%TD*%
%TA.AperFunction,Conductor*%
%TO.N,Net-(LED15-A)*%
G36*
X154151288Y-145179954D02*
G01*
X154232070Y-145233930D01*
X154286046Y-145314712D01*
X154305000Y-145410000D01*
X154305000Y-148327514D01*
X154286046Y-148422802D01*
X154232070Y-148503584D01*
X154151288Y-148557560D01*
X154056000Y-148576514D01*
X153977680Y-148563876D01*
X153930753Y-148548326D01*
X153829677Y-148538000D01*
X153829674Y-148538000D01*
X153256325Y-148538000D01*
X153155247Y-148548326D01*
X153108320Y-148563876D01*
X153011906Y-148575856D01*
X152918247Y-148550028D01*
X152841602Y-148490324D01*
X152793638Y-148405834D01*
X152781000Y-148327514D01*
X152781000Y-145410000D01*
X152799954Y-145314712D01*
X152853930Y-145233930D01*
X152934712Y-145179954D01*
X153030000Y-145161000D01*
X154056000Y-145161000D01*
X154151288Y-145179954D01*
G37*
%TD.AperFunction*%
%TD*%
%TA.AperFunction,Conductor*%
%TO.N,Net-(J21-Pin_1)*%
G36*
X132815288Y-209568954D02*
G01*
X132896070Y-209622930D01*
X132950046Y-209703712D01*
X132969000Y-209799000D01*
X132969000Y-231145000D01*
X132950046Y-231240288D01*
X132896070Y-231321070D01*
X132815288Y-231375046D01*
X132720000Y-231394000D01*
X126614000Y-231394000D01*
X126518712Y-231375046D01*
X126437930Y-231321070D01*
X126383954Y-231240288D01*
X126365000Y-231145000D01*
X126365000Y-209799000D01*
X126383954Y-209703712D01*
X126437930Y-209622930D01*
X126518712Y-209568954D01*
X126614000Y-209550000D01*
X132720000Y-209550000D01*
X132815288Y-209568954D01*
G37*
%TD.AperFunction*%
%TD*%
M02*
