M48
; DRILL file {KiCad 8.0.7} date 2025-04-19T18:31:46+0700
; FORMAT={-:-/ absolute / metric / decimal}
; #@! TF.CreationDate,2025-04-19T18:31:46+07:00
; #@! TF.GenerationSoftware,Kicad,Pcbnew,8.0.7
; #@! TF.FileFunction,Plated,1,4,PTH
FMAT,2
METRIC
; #@! TA.AperFunction,Plated,PTH,ViaDrill
T1C0.400
; #@! TA.AperFunction,Plated,PTH,ComponentDrill
T2C0.500
; #@! TA.AperFunction,Plated,PTH,ComponentDrill
T3C0.800
; #@! TA.AperFunction,Plated,PTH,ComponentDrill
T4C1.000
; #@! TA.AperFunction,Plated,PTH,ComponentDrill
T5C1.090
; #@! TA.AperFunction,Plated,PTH,ComponentDrill
T6C1.100
; #@! TA.AperFunction,Plated,PTH,ComponentDrill
T7C1.200
; #@! TA.AperFunction,Plated,PTH,ComponentDrill
T8C1.300
; #@! TA.AperFunction,Plated,PTH,ComponentDrill
T9C1.900
; #@! TA.AperFunction,Plated,PTH,ComponentDrill
T10C2.200
; #@! TA.AperFunction,Plated,PTH,ComponentDrill
T11C3.200
; #@! TA.AperFunction,Plated,PTH,ComponentDrill
T12C4.300
%
G90
G05
T1
X108.204Y-140.462
X108.204Y-141.436
X108.204Y-142.409
X108.204Y-143.383
X109.542Y-140.462
X109.542Y-141.436
X109.542Y-142.409
X109.542Y-143.383
X110.881Y-140.462
X110.881Y-141.436
X110.881Y-142.409
X110.881Y-143.383
X112.219Y-140.462
X112.219Y-141.436
X112.219Y-142.409
X112.219Y-143.383
X113.558Y-140.462
X113.558Y-141.436
X113.558Y-142.409
X113.558Y-143.383
X114.896Y-140.462
X114.896Y-141.436
X114.896Y-142.409
X114.896Y-143.383
X116.234Y-140.462
X116.234Y-141.436
X116.234Y-142.409
X116.234Y-143.383
X117.573Y-140.462
X117.573Y-141.436
X117.573Y-142.409
X117.573Y-143.383
X118.911Y-140.462
X118.911Y-141.436
X118.911Y-142.409
X118.911Y-143.383
X120.249Y-140.462
X120.249Y-141.436
X120.249Y-142.409
X120.249Y-143.383
X121.588Y-140.462
X121.588Y-141.436
X121.588Y-142.409
X121.588Y-143.383
X122.926Y-140.462
X122.926Y-141.436
X122.926Y-142.409
X122.926Y-143.383
X124.265Y-140.462
X124.265Y-141.436
X124.265Y-142.409
X124.265Y-143.383
X125.476Y-84.939
X125.476Y-100.457
X125.603Y-140.462
X125.603Y-141.436
X125.603Y-142.409
X125.603Y-143.383
X129.032Y-140.843
X129.032Y-141.922
X129.032Y-143.002
X130.302Y-140.843
X130.302Y-141.922
X130.302Y-143.002
X131.572Y-140.843
X131.572Y-141.922
X131.572Y-143.002
X146.939Y-151.638
X146.939Y-152.908
X148.177Y-152.908
X148.209Y-151.638
X149.415Y-152.908
X150.622Y-112.395
X150.622Y-124.968
X150.654Y-151.638
X150.654Y-152.908
X151.892Y-151.638
X151.892Y-152.908
X157.353Y-85.09
X157.734Y-96.012
X161.671Y-90.17
X162.052Y-101.092
X186.436Y-81.026
X189.051Y-99.949
X189.103Y-83.693
X190.246Y-161.163
X190.373Y-199.136
X198.323Y-121.006
X202.692Y-111.252
X203.073Y-110.109
X203.327Y-79.756
X204.343Y-161.163
X204.597Y-199.136
X204.724Y-128.27
X205.867Y-84.963
X206.375Y-113.919
X206.883Y-122.428
X206.883Y-126.35
X207.264Y-124.079
X207.975Y-86.36
X208.788Y-120.904
X208.788Y-122.809
X209.702Y-86.36
X210.439Y-119.634
X210.82Y-106.934
X211.201Y-76.708
X211.328Y-128.905
X211.709Y-113.157
X212.09Y-107.442
X212.217Y-132.461
X212.344Y-79.883
X212.395Y-129.489
X212.598Y-114.808
X212.979Y-75.565
X213.487Y-110.49
X213.614Y-107.823
X213.741Y-78.486
X213.995Y-127.254
X214.249Y-122.682
X214.63Y-119.634
X214.757Y-118.237
X214.757Y-121.793
X214.884Y-110.49
X214.884Y-120.65
X215.138Y-123.952
X215.519Y-99.568
X215.94Y-136.271
X216.154Y-131.572
X216.662Y-123.317
X216.789Y-115.824
X216.789Y-127.762
X217.551Y-108.966
X217.805Y-123.698
X217.932Y-99.568
X218.059Y-116.078
X218.313Y-129.667
X218.44Y-110.363
X218.694Y-161.163
X218.821Y-199.136
X219.344Y-109.601
X219.71Y-123.698
X220.091Y-137.922
X220.345Y-107.823
X220.726Y-124.079
X220.98Y-99.568
X221.12Y-130.061
X221.488Y-123.063
X222.504Y-128.143
X222.755Y-122.856
X224.282Y-125.73
X224.314Y-127.141
X224.917Y-131.572
X226.06Y-114.427
X226.949Y-116.332
X230.124Y-103.632
X232.791Y-161.163
X233.172Y-199.136
X234.061Y-126.746
X234.061Y-129.032
X234.061Y-131.572
X235.331Y-135.255
X235.331Y-137.668
X235.712Y-99.187
X236.728Y-141.986
X237.236Y-99.187
X247.142Y-161.163
X247.523Y-199.136
X255.143Y-139.573
X255.397Y-191.135
X257.302Y-191.135
X259.334Y-191.135
X259.969Y-153.035
X261.239Y-191.135
X263.271Y-191.135
X264.795Y-92.71
X266.065Y-89.535
X268.605Y-99.568
X268.605Y-100.584
X272.034Y-79.629
X272.161Y-86.868
X273.05Y-138.018
X273.05Y-140.788
X273.05Y-144.943
X273.685Y-99.568
X273.685Y-100.584
X283.464Y-98.171
X283.972Y-92.964
T2
X109.45Y-63.59
X109.45Y-233.59
X110.153Y-61.893
X110.153Y-65.287
X110.153Y-231.893
X110.153Y-235.287
X111.85Y-61.19
X111.85Y-65.99
X111.85Y-231.19
X111.85Y-235.99
X113.547Y-61.893
X113.547Y-65.287
X113.547Y-231.893
X113.547Y-235.287
X114.25Y-63.59
X114.25Y-233.59
X279.45Y-63.59
X279.45Y-233.59
X280.153Y-61.893
X280.153Y-65.287
X280.153Y-231.893
X280.153Y-235.287
X281.85Y-61.19
X281.85Y-65.99
X281.85Y-231.19
X281.85Y-235.99
X283.547Y-61.893
X283.547Y-65.287
X283.547Y-231.893
X283.547Y-235.287
X284.25Y-63.59
X284.25Y-233.59
T3
X202.946Y-115.68
X202.946Y-120.56
T4
X123.571Y-92.329
X128.632Y-87.573
X128.632Y-97.051
X165.85Y-91.01
X165.85Y-96.52
X172.106Y-93.787
X175.006Y-65.126
X178.923Y-65.151
X180.467Y-75.242
X181.463Y-65.151
X184.003Y-65.151
X185.166Y-75.242
X186.543Y-65.151
X189.083Y-65.151
X189.764Y-75.242
X191.623Y-65.151
X193.421Y-103.647
X193.421Y-106.187
X193.421Y-108.727
X193.421Y-111.267
X193.421Y-113.807
X193.421Y-116.347
X193.421Y-118.887
X193.421Y-121.427
X193.421Y-123.967
X193.421Y-126.507
X193.421Y-129.047
X193.421Y-131.587
X193.421Y-134.127
X194.163Y-65.151
X194.602Y-75.242
X195.961Y-103.647
X195.961Y-106.187
X195.961Y-108.727
X195.961Y-111.267
X195.961Y-113.807
X195.961Y-116.347
X195.961Y-118.887
X195.961Y-121.427
X195.961Y-123.967
X195.961Y-126.507
X195.961Y-129.047
X195.961Y-131.587
X195.961Y-134.127
X205.74Y-93.98
X205.74Y-96.52
X205.78Y-140.716
X205.78Y-143.256
X206.121Y-71.553
X208.28Y-93.98
X208.28Y-96.52
X208.32Y-140.716
X208.32Y-143.256
X208.661Y-71.553
X210.82Y-93.98
X210.82Y-96.52
X210.86Y-140.716
X210.86Y-143.256
X211.201Y-71.553
X213.36Y-93.98
X213.36Y-96.52
X213.4Y-140.716
X213.4Y-143.256
X213.741Y-71.553
X214.122Y-105.156
X215.9Y-93.98
X215.9Y-96.52
X215.94Y-140.716
X215.94Y-143.256
X216.281Y-71.553
X216.662Y-105.156
X217.909Y-134.112
X218.44Y-93.98
X218.44Y-96.52
X218.48Y-140.716
X218.48Y-143.256
X218.821Y-71.553
X219.202Y-105.156
X220.45Y-134.112
X220.98Y-93.98
X220.98Y-96.52
X221.02Y-140.716
X221.02Y-143.256
X222.989Y-134.112
X223.52Y-93.98
X223.52Y-96.52
X223.56Y-140.716
X223.56Y-143.256
X226.06Y-93.98
X226.06Y-96.52
X226.1Y-140.716
X226.1Y-143.256
X226.187Y-72.547
X228.6Y-93.98
X228.6Y-96.52
X228.64Y-140.716
X228.64Y-143.256
X229.87Y-72.547
X231.14Y-93.98
X231.14Y-96.52
X231.18Y-140.716
X231.18Y-143.256
X233.172Y-120.65
X233.68Y-93.98
X233.68Y-96.52
X233.72Y-140.716
X233.72Y-143.256
X234.696Y-72.547
X241.046Y-98.044
X242.042Y-104.882
X242.042Y-107.422
X242.042Y-109.962
X242.042Y-112.502
X242.042Y-115.042
X242.042Y-117.582
X242.042Y-120.122
X242.042Y-122.662
X242.042Y-125.202
X242.042Y-127.742
X242.042Y-130.282
X242.042Y-132.822
X243.586Y-98.044
X244.582Y-104.882
X244.582Y-107.422
X244.582Y-109.962
X244.582Y-112.502
X244.582Y-115.042
X244.582Y-117.582
X244.582Y-120.122
X244.582Y-122.662
X244.582Y-125.202
X244.582Y-127.742
X244.582Y-130.282
X244.582Y-132.822
X245.105Y-71.553
X246.126Y-98.044
X247.645Y-71.553
X248.666Y-98.044
X250.185Y-71.553
X251.206Y-98.044
X251.46Y-138.43
X251.46Y-142.279
X251.46Y-146.431
X252.725Y-71.553
X255.265Y-71.553
X257.805Y-71.553
X264.922Y-142.279
X264.922Y-146.431
X278.465Y-129.708
X278.465Y-132.478
X278.465Y-135.248
X278.465Y-138.018
X278.465Y-140.788
X278.465Y-143.558
X278.465Y-146.328
X278.465Y-149.098
X278.48Y-172.222
X278.48Y-174.992
X278.48Y-177.762
X278.48Y-180.532
X278.48Y-183.302
X278.48Y-186.072
X278.48Y-188.842
X278.48Y-191.612
X281.305Y-131.093
X281.305Y-133.863
X281.305Y-136.633
X281.305Y-139.403
X281.305Y-142.173
X281.305Y-144.943
X281.305Y-147.713
X281.32Y-173.607
X281.32Y-176.377
X281.32Y-179.147
X281.32Y-181.917
X281.32Y-184.687
X281.32Y-187.457
X281.32Y-190.227
T5
X116.459Y-79.478
X116.459Y-82.018
X116.459Y-84.558
X116.459Y-94.996
X116.459Y-97.536
X116.459Y-100.076
X153.15Y-87.63
X153.15Y-90.17
X153.15Y-98.63
X153.15Y-101.17
X226.695Y-64.77
X229.235Y-64.77
X231.775Y-64.77
T6
X192.076Y-93.635
X192.076Y-98.135
X198.576Y-93.635
X198.576Y-98.135
T7
X123.438Y-112.43
X123.459Y-124.876
X131.138Y-112.43
X131.159Y-124.876
X141.338Y-112.43
X141.338Y-120.03
X141.359Y-124.876
X141.359Y-132.476
X190.535Y-170.426
X190.535Y-180.626
X190.535Y-188.326
X190.535Y-208.272
X190.535Y-218.472
X190.535Y-226.172
X198.135Y-170.426
X198.135Y-208.272
X204.822Y-170.426
X204.822Y-180.626
X204.822Y-188.326
X204.822Y-208.272
X204.822Y-218.472
X204.822Y-226.172
X212.422Y-170.426
X212.422Y-208.272
X219.11Y-170.426
X219.11Y-180.626
X219.11Y-188.326
X219.11Y-208.272
X219.11Y-218.472
X219.11Y-226.172
X226.71Y-170.426
X226.71Y-208.272
X233.397Y-170.426
X233.397Y-180.626
X233.397Y-188.326
X233.397Y-208.272
X233.397Y-218.472
X233.397Y-226.172
X240.998Y-170.426
X240.998Y-208.272
X247.685Y-170.426
X247.685Y-180.626
X247.685Y-188.326
X247.685Y-208.272
X247.685Y-218.472
X247.685Y-226.172
X255.285Y-170.426
X255.285Y-208.272
T8
X115.951Y-112.903
X115.951Y-117.903
X115.951Y-125.266
X115.951Y-130.267
X205.145Y-64.766
X210.145Y-64.766
X244.007Y-64.766
X249.007Y-64.766
T9
X129.512Y-226.06
X139.042Y-226.06
X148.582Y-226.06
X158.112Y-226.06
T10
X143.764Y-203.58
X143.764Y-208.28
X143.764Y-212.98
T11
X111.85Y-63.59
X111.85Y-233.59
X118.018Y-187.325
X169.418Y-187.325
X279.885Y-122.753
X279.885Y-156.053
X279.9Y-165.267
X279.9Y-198.567
X281.85Y-63.59
X281.85Y-233.59
T12
X117.048Y-164.465
X128.478Y-164.465
X158.958Y-164.465
X170.388Y-164.465
M30
